<?xml version="1.0" encoding="utf-8"?>
<!-- Generator: Adobe Illustrator 16.0.0, SVG Export Plug-In . SVG Version: 6.00 Build 0)  -->
<!DOCTYPE svg PUBLIC "-//W3C//DTD SVG 1.1//EN" "http://www.w3.org/Graphics/SVG/1.1/DTD/svg11.dtd">
<svg version="1.1" id="Shape_13_1_" xmlns="http://www.w3.org/2000/svg" xmlns:xlink="http://www.w3.org/1999/xlink" x="0px"
	 y="0px" width="953.788px" height="291.62px" viewBox="0 0 953.788 291.62" enable-background="new 0 0 953.788 291.62"
	 xml:space="preserve">
<g id="Shape_13">
	<g>
		<path fill="#FFFFFF" d="M0,129.032L82.709,291.62l179.94-28.546l28.5-180.23L128.823,0L0,129.032z M156.289,131.366h0.964
			c-0.426-10.189-0.164-40.017,17.55-39.7c21.355,0.382,26.508,3.683,17.037,20.394c-5.476,9.662-10.29,15.686-14.61,19.307h39.841
			c4.376,0,7.923,3.279,7.923,7.325v25.487c0,3.448-2.586,6.316-6.057,7.095v0.243h-1.219v43.941c0,4.046-3.274,7.325-7.314,7.325
			H97.227c-4.039,0-7.313-3.279-7.313-7.325v-43.941h-2.195v-0.623c-2.837-1.114-4.842-3.686-4.842-6.715v-25.487
			c0-4.046,3.548-7.325,7.923-7.325h45.512c-4.32-3.621-9.134-9.645-14.61-19.307c-9.471-16.711-4.318-20.012,17.037-20.394
			C156.453,91.35,156.715,121.177,156.289,131.366z M175.691,120.621c4.595-7.957,1.019-6.512-2.1-8.115
			c-3.119-1.604-2.333-1.148-6.928,6.808c-2.457,4.254-5.722,8.608-7.803,12.053h11.577
			C172.319,127.761,173.948,123.64,175.691,120.621z M143.104,131.366h11.577c-2.081-3.444-5.346-7.799-7.803-12.053
			c-4.595-7.956-3.81-8.411-6.928-6.808s-6.695,0.158-2.1,8.115C139.594,123.64,141.223,127.761,143.104,131.366z M170.841,166.64
			l0.024-1.523l-0.848-31.755c0,0-33.165-3.77-33.536,1.36c-0.211,2.908,0.653,18.745,1.441,31.918H87.718v4.254
			c0.692,0.271,1.419,0.481,2.195,0.562v0.062h48.305c0.477,7.782,0.863,13.69,0.863,13.69l1.219,36.722h29.66l0.803-50.412h46.956
			v-0.043c0.419-0.031,0.821-0.111,1.219-0.2v-4.634H170.841z M375.154,111.524h35.54v38.762h18.968V60.476h-18.968v35.199h-35.54
			V60.476h-19.028v89.811h19.028V111.524z M504.993,142.055c5.893-6.306,8.839-15.05,8.839-26.23c0-7.207-1.351-13.493-4.051-18.859
			c-2.701-5.364-6.568-9.48-11.602-12.347s-10.845-4.301-17.433-4.301c-10.599,0-18.824,3.113-24.676,9.338
			c-5.853,6.226-8.777,14.948-8.777,26.169c0,7.208,1.35,13.515,4.051,18.921c2.701,5.405,6.568,9.552,11.602,12.439
			c5.033,2.887,10.844,4.33,17.433,4.33C490.895,151.515,499.1,148.362,504.993,142.055z M491.396,131.273
			c-2.189,3.462-5.78,5.191-10.772,5.191c-5.033,0-8.665-1.74-10.896-5.222c-2.23-3.48-3.345-8.62-3.345-15.419
			c0-6.839,1.104-11.948,3.314-15.327c2.21-3.378,5.811-5.067,10.804-5.067c5.033,0,8.654,1.699,10.864,5.099
			s3.314,8.498,3.314,15.296C494.68,122.664,493.585,127.813,491.396,131.273z M548.65,117.975c0-8.067,1.084-13.862,3.254-17.385
			c2.168-3.521,5.646-5.283,10.435-5.283c3.561,0,6.169,1.239,7.826,3.717c1.657,2.479,2.486,6.194,2.486,11.149v40.113h18.722
			v-34.462c0-7.126,1.136-12.326,3.406-15.604c2.271-3.275,5.698-4.914,10.282-4.914c3.56,0,6.169,1.239,7.826,3.717
			c1.657,2.479,2.486,6.194,2.486,11.149v40.113h18.782v-44.782c0-8.805-1.994-15.204-5.984-19.197
			c-3.99-3.992-9.873-5.989-17.647-5.989c-4.502,0-8.543,0.882-12.123,2.642c-3.581,1.762-6.292,4.239-8.133,7.434h-1.657
			c-3.644-6.717-10.6-10.075-20.87-10.075c-4.503,0-8.492,0.891-11.97,2.673c-3.479,1.781-6.139,4.249-7.98,7.402h-1.043
			l-2.517-8.785h-14.303v68.679h18.722V117.975z M698.684,150.317c3.723-0.799,7.222-2.017,10.496-3.655v-14.497
			c-4.011,1.884-7.856,3.256-11.54,4.115c-3.683,0.86-7.591,1.29-11.724,1.29c-5.32,0-9.453-1.494-12.399-4.484
			c-2.946-2.989-4.522-7.146-4.727-12.47h44.257v-9.092c0-9.747-2.701-17.385-8.103-22.914c-5.401-5.528-12.951-8.293-22.65-8.293
			c-10.148,0-18.098,3.144-23.847,9.43c-5.75,6.287-8.624,15.184-8.624,26.691c0,11.181,3.109,19.821,9.33,25.924
			c6.22,6.103,14.854,9.152,25.903,9.152C690.417,151.515,694.959,151.116,698.684,150.317z M673.087,97.426
			c2.25-2.519,5.36-3.777,9.33-3.777c3.969,0,7.12,1.259,9.453,3.777c2.332,2.519,3.539,6.092,3.621,10.72H669.22
			C669.547,103.518,670.836,99.944,673.087,97.426z M747.621,54.701h-18.722v95.585h18.722V54.701z M796.189,80.317
			c-10.149,0-18.099,3.144-23.848,9.43c-5.749,6.287-8.624,15.184-8.624,26.691c0,11.181,3.109,19.821,9.33,25.924
			c6.22,6.103,14.854,9.152,25.903,9.152c5.36,0,9.903-0.398,13.627-1.197s7.223-2.017,10.497-3.655v-14.497
			c-4.012,1.884-7.857,3.256-11.54,4.115c-3.684,0.86-7.592,1.29-11.725,1.29c-5.319,0-9.452-1.494-12.398-4.484
			c-2.947-2.989-4.522-7.146-4.727-12.47h44.257v-9.092c0-9.747-2.701-17.385-8.103-22.914
			C813.437,83.082,805.887,80.317,796.189,80.317z M783.115,108.146c0.326-4.628,1.615-8.201,3.867-10.72
			c2.25-2.519,5.36-3.777,9.33-3.777c3.969,0,7.12,1.259,9.452,3.777c2.333,2.519,3.539,6.092,3.622,10.72H783.115z
			 M883.367,114.596c-2.496-1.883-6.425-3.91-11.785-6.082c-6.016-2.416-9.914-4.238-11.693-5.467
			c-1.78-1.229-2.67-2.682-2.67-4.361c0-2.989,2.762-4.484,8.286-4.484c3.109,0,6.158,0.471,9.146,1.412
			c2.986,0.943,6.199,2.15,9.637,3.625l5.647-13.515c-7.817-3.604-15.858-5.406-24.124-5.406c-8.676,0-15.376,1.669-20.103,5.007
			s-7.09,8.058-7.09,14.159c0,3.563,0.562,6.563,1.688,9c1.125,2.437,2.925,4.598,5.401,6.48c2.476,1.885,6.354,3.932,11.632,6.144
			c3.684,1.557,6.63,2.918,8.839,4.085c2.21,1.167,3.765,2.211,4.665,3.133s1.351,2.119,1.351,3.594
			c0,3.932-3.396,5.897-10.189,5.897c-3.314,0-7.15-0.553-11.509-1.659c-4.358-1.105-8.277-2.477-11.755-4.115v15.48
			c3.069,1.311,6.362,2.304,9.883,2.979c3.519,0.675,7.774,1.013,12.768,1.013c9.738,0,17.054-1.843,21.944-5.528
			c4.889-3.686,7.335-9.051,7.335-16.095c0-3.398-0.594-6.327-1.78-8.784C887.704,118.65,885.863,116.479,883.367,114.596z
			 M952.007,121.107c-1.188-2.457-3.029-4.628-5.524-6.512c-2.497-1.883-6.425-3.91-11.786-6.082
			c-6.015-2.416-9.913-4.238-11.693-5.467c-1.779-1.229-2.67-2.682-2.67-4.361c0-2.989,2.763-4.484,8.287-4.484
			c3.109,0,6.158,0.471,9.146,1.412c2.987,0.943,6.2,2.15,9.638,3.625l5.646-13.515c-7.816-3.604-15.857-5.406-24.123-5.406
			c-8.676,0-15.376,1.669-20.103,5.007s-7.09,8.058-7.09,14.159c0,3.563,0.562,6.563,1.688,9c1.125,2.437,2.925,4.598,5.401,6.48
			c2.476,1.885,6.353,3.932,11.632,6.144c3.683,1.557,6.629,2.918,8.839,4.085s3.765,2.211,4.665,3.133
			c0.899,0.922,1.351,2.119,1.351,3.594c0,3.932-3.397,5.897-10.189,5.897c-3.314,0-7.151-0.553-11.509-1.659
			c-4.358-1.105-8.277-2.477-11.755-4.115v15.48c3.068,1.311,6.362,2.304,9.882,2.979c3.52,0.675,7.775,1.013,12.768,1.013
			c9.739,0,17.055-1.843,21.944-5.528s7.336-9.051,7.336-16.095C953.788,126.493,953.194,123.564,952.007,121.107z M379.512,160.657
			h-21.976v89.811h6.262v-37.104h13.872c10.804,0,19.151-2.313,25.044-6.942c5.893-4.627,8.839-11.281,8.839-19.965
			C411.553,169.257,400.874,160.657,379.512,160.657z M398.049,202.951c-4.502,3.339-11.807,5.007-21.913,5.007h-12.338v-41.649
			h14.854c8.921,0,15.509,1.669,19.765,5.006c4.256,3.339,6.384,8.468,6.384,15.389C404.801,194.197,402.55,199.614,398.049,202.951
			z M453.308,182.526c-7.161,0-14.404,1.72-21.729,5.159l2.271,5.283c6.63-3.439,13.033-5.16,19.213-5.16
			c5.729,0,9.883,1.618,12.461,4.854s3.867,8.027,3.867,14.374v4.423l-12.707,0.369c-10.271,0.205-18.118,2.109-23.54,5.713
			c-5.423,3.604-8.133,8.662-8.133,15.173c0,5.938,1.82,10.588,5.463,13.945c3.642,3.358,8.736,5.037,15.284,5.037
			c4.828,0,9.013-0.891,12.553-2.672c3.539-1.782,6.987-4.822,10.343-9.123h0.491l1.535,10.566h4.48v-44.414
			c0-8.067-1.811-14.006-5.433-17.814C466.107,184.431,460.633,182.526,453.308,182.526z M469.145,223.069
			c0,7.249-2.056,12.911-6.169,16.985c-4.112,4.076-9.729,6.113-16.85,6.113c-4.665,0-8.276-1.157-10.834-3.472
			c-2.558-2.312-3.836-5.559-3.836-9.736c0-5.241,1.995-9.102,5.984-11.579c3.99-2.478,10.67-3.941,20.042-4.393l11.662-0.491
			V223.069z M512.374,185.383c-3.11,1.986-6.037,5.437-8.778,10.351h-0.43l-0.613-12.04h-5.156v66.774h6.077v-36.858
			c0-7.371,1.82-13.474,5.463-18.306c3.642-4.832,8.307-7.249,13.995-7.249c2.986,0,5.871,0.349,8.655,1.044l1.166-5.836
			c-3.233-0.572-6.261-0.859-9.085-0.859C519.248,182.403,515.483,183.396,512.374,185.383z M556.092,242.604
			c-1.801-2.457-2.701-6.245-2.701-11.364v-42.265h19.581v-5.282h-19.581v-16.156h-3.13l-3.069,15.111l-9.883,2.765v3.562h9.883
			V232.1c0,6.758,1.401,11.713,4.205,14.866c2.802,3.154,7.15,4.73,13.043,4.73c3.847,0,7.243-0.491,10.189-1.475v-4.914
			c-2.864,0.655-6.221,0.982-10.066,0.982C560.716,246.29,557.892,245.062,556.092,242.604z M619.515,182.403
			c-11.09,0-18.804,3.481-23.142,10.442h-0.368l-1.166-9.152h-5.156v66.774h6.077v-36.858c0-9.05,1.851-15.593,5.555-19.627
			c3.703-4.033,9.545-6.051,17.525-6.051c5.933,0,10.312,1.526,13.136,4.576c2.823,3.052,4.235,7.936,4.235,14.651v43.309h6.016
			v-43.677C642.227,190.533,634.656,182.403,619.515,182.403z M689.628,182.403c-8.88,0-15.938,3.205-21.177,9.613
			c-5.238,6.41-7.856,14.938-7.856,25.586c0,10.771,2.71,19.146,8.133,25.125c5.422,5.979,12.982,8.969,22.681,8.969
			c3.847,0,7.366-0.298,10.558-0.891c3.192-0.594,6.67-1.71,10.436-3.349v-5.528c-4.42,1.762-8.072,2.908-10.957,3.44
			s-6.23,0.799-10.036,0.799c-7.816,0-13.821-2.416-18.016-7.249c-4.195-4.832-6.333-11.835-6.414-21.01h48.062v-4.914
			c0-9.419-2.271-16.872-6.813-22.36C703.685,185.147,697.486,182.403,689.628,182.403z M667.347,212.504
			c0.654-7.986,2.925-14.099,6.813-18.337c3.887-4.239,9.043-6.358,15.468-6.358c5.934,0,10.578,2.181,13.935,6.543
			c3.354,4.361,5.033,10.412,5.033,18.152H667.347z M749.062,185.383c-3.11,1.986-6.037,5.437-8.778,10.351h-0.43l-0.613-12.04
			h-5.156v66.774h6.077v-36.858c0-7.371,1.82-13.474,5.463-18.306c3.642-4.832,8.307-7.249,13.995-7.249
			c2.986,0,5.872,0.349,8.655,1.044l1.166-5.836c-3.233-0.572-6.261-0.859-9.085-0.859
			C755.937,182.403,752.171,183.396,749.062,185.383z M816.782,219.354c-2.742-1.74-7.121-3.695-13.136-5.867
			c-7.203-2.58-12.042-4.914-14.518-7.003c-2.477-2.089-3.714-4.873-3.714-8.354c0-3.194,1.597-5.691,4.788-7.494
			c3.192-1.802,7.509-2.703,12.952-2.703c5.605,0,11.683,1.352,18.23,4.055l2.271-5.529c-6.466-2.702-13.3-4.054-20.501-4.054
			c-7.53,0-13.393,1.454-17.586,4.361c-4.195,2.908-6.292,6.86-6.292,11.856c0,3.153,0.685,5.826,2.057,8.016
			c1.37,2.191,3.406,4.157,6.107,5.897c2.7,1.741,7.386,3.819,14.057,6.235c6.22,2.212,10.689,4.465,13.412,6.758
			c2.721,2.294,4.082,5.119,4.082,8.477c0,3.646-1.71,6.563-5.126,8.754c-3.417,2.191-8.42,3.287-15.008,3.287
			c-7.448,0-14.527-1.679-21.238-5.037v6.572c5.237,2.744,12.316,4.116,21.238,4.116c8.348,0,14.793-1.606,19.335-4.822
			c4.543-3.215,6.813-7.812,6.813-13.791c0-2.989-0.686-5.59-2.056-7.802C821.579,223.069,819.523,221.095,816.782,219.354z"/>
	</g>
</g>
</svg>
