<?xml version="1.0" encoding="utf-8"?>
<!-- Generator: Adobe Illustrator 17.0.0, SVG Export Plug-In . SVG Version: 6.00 Build 0)  -->
<!DOCTYPE svg PUBLIC "-//W3C//DTD SVG 1.1//EN" "http://www.w3.org/Graphics/SVG/1.1/DTD/svg11.dtd">
<svg version="1.1" id="Layer_1" xmlns="http://www.w3.org/2000/svg" xmlns:xlink="http://www.w3.org/1999/xlink" x="0px" y="0px"
	 width="100px" height="100px" viewBox="0 0 100 100" enable-background="new 0 0 100 100" xml:space="preserve">
<path fill="#C0392B" d="M100,58c0,3.313-2.687,6-6,6H21c-3.313,0-6-2.687-6-6V6c0-3.313,2.687-6,6-6h73c3.313,0,6,2.687,6,6V58z"/>
<path fill="#E74C3C" d="M85,73c0,3.223-2.74,6-6,6H66c-1.113,0-2,0.754-2,2v18c0,0.738-0.253,1-0.917,1
	c-0.232,0-0.471-0.154-0.865-0.457L38.251,81c-3-2-6.129-2.006-6.129-2.006l-26.22-0.002C2.642,78.992,0,76.379,0,73.156V22.031
	C0,18.81,2.896,15.984,6,16h73c3.562,0,6,2.778,6,6C85,22,85,73,85,73z"/>
</svg>