<?xml version="1.0" encoding="utf-8"?>
<!-- Generator: Adobe Illustrator 17.0.0, SVG Export Plug-In . SVG Version: 6.00 Build 0)  -->
<!DOCTYPE svg PUBLIC "-//W3C//DTD SVG 1.1//EN" "http://www.w3.org/Graphics/SVG/1.1/DTD/svg11.dtd">
<svg version="1.1" id="Capa_1" xmlns="http://www.w3.org/2000/svg" xmlns:xlink="http://www.w3.org/1999/xlink" x="0px" y="0px"
	 width="84px" height="76.33px" viewBox="-23.167 -45.497 84 76.33" enable-background="new -23.167 -45.497 84 76.33"
	 xml:space="preserve">
<g>
	<g>
		<path fill="#78CBEF" d="M-74.907,29.232c20.139,0,36.464-16.325,36.464-36.469c0-20.139-16.325-36.469-36.464-36.469
			c-20.137,0-36.464,16.33-36.464,36.469C-111.371,12.907-95.044,29.232-74.907,29.232"/>
		<path fill="#FFFFFF" d="M-56.613-16.794c-1.344,0.598-2.788,1.002-4.306,1.182c1.551-0.929,2.737-2.395,3.294-4.145
			c-1.451,0.861-3.051,1.481-4.76,1.816c-1.364-1.456-3.314-2.368-5.47-2.368c-4.135,0-7.49,3.357-7.49,7.495
			c0,0.588,0.063,1.162,0.192,1.707c-6.229-0.314-11.747-3.292-15.447-7.833c-0.647,1.113-1.016,2.397-1.016,3.773
			c0,2.596,1.325,4.891,3.336,6.238c-1.228-0.039-2.385-0.379-3.396-0.938v0.092c0,3.632,2.582,6.661,6.015,7.347
			c-0.63,0.177-1.288,0.263-1.974,0.263c-0.484,0-0.955-0.044-1.41-0.134c0.955,2.978,3.717,5.147,6.999,5.205
			c-2.565,2.011-5.798,3.209-9.306,3.209c-0.605,0-1.206-0.034-1.787-0.105c3.316,2.125,7.252,3.367,11.487,3.367
			c13.787,0,21.323-11.419,21.323-21.323c0-0.328-0.007-0.652-0.022-0.968C-58.886-13.969-57.614-15.289-56.613-16.794"/>
	</g>
	<g>
		<path fill="#E95655" d="M-56.88,140.273c6.05,0,10.954-4.904,10.954-10.956c0-6.05-4.904-10.956-10.954-10.956
			c-6.049,0-10.954,4.906-10.954,10.956C-67.834,135.369-62.929,140.273-56.88,140.273"/>
		<path fill="#FFFFFF" d="M-56.88,123.81c-3.024,0-5.477,2.452-5.477,5.478c0,2.243,1.349,4.171,3.28,5.017
			c-0.017-0.381-0.004-0.841,0.093-1.258c0.107-0.445,0.705-2.986,0.705-2.986s-0.175-0.35-0.175-0.867
			c0-0.812,0.471-1.418,1.057-1.418c0.498,0,0.739,0.375,0.739,0.822c0,0.501-0.32,1.25-0.483,1.944
			c-0.137,0.581,0.291,1.054,0.864,1.054c1.038,0,1.737-1.332,1.737-2.911c0-1.201-0.808-2.1-2.279-2.1
			c-1.662,0-2.696,1.239-2.696,2.623c0,0.478,0.14,0.814,0.361,1.074c0.102,0.12,0.115,0.168,0.079,0.306
			c-0.026,0.101-0.086,0.343-0.112,0.44c-0.037,0.138-0.148,0.188-0.274,0.137c-0.765-0.313-1.121-1.151-1.121-2.092
			c0-1.556,1.311-3.424,3.912-3.424c2.092,0,3.469,1.515,3.469,3.139c0,2.149-1.196,3.754-2.957,3.754
			c-0.591,0-1.147-0.319-1.337-0.682c0,0-0.318,1.262-0.386,1.506c-0.116,0.422-0.343,0.844-0.551,1.173
			c0.493,0.145,1.013,0.226,1.552,0.226c3.026,0,5.478-2.453,5.478-5.479S-53.854,123.81-56.88,123.81"/>
	</g>
	<g>
		<path fill="#547BBC" d="M18.407,29.82c20.233,0,36.639-16.403,36.639-36.646c0-20.236-16.406-36.644-36.639-36.644
			S-18.233-27.063-18.233-6.827C-18.233,13.416-1.827,29.82,18.407,29.82"/>
		<path fill="#FFFFFF" d="M9.566-13.027h3.791v-3.684c0-1.624,0.042-4.128,1.219-5.682c1.241-1.639,2.948-2.755,5.88-2.755
			c4.778,0,6.791,0.682,6.791,0.682l-0.948,5.614c0,0-1.578-0.459-3.051-0.459c-1.475,0-2.795,0.53-2.795,2.001v4.282h6.041
			L26.072-7.55h-5.618v19.044h-7.099V-7.55H9.564v-5.477H9.566z"/>
	</g>
	<g>
		<path fill="#E9644A" d="M-56.88,337.48c6.049,0,10.954-4.906,10.954-10.956c0-6.05-4.905-10.956-10.954-10.956
			c-6.051,0-10.954,4.906-10.954,10.956C-67.834,332.574-62.93,337.48-56.88,337.48"/>
		<path fill="#FFFFFF" d="M-54.753,326.528l-3.586,2.108v-4.213L-54.753,326.528z M-51.402,328.483v-3.918c0,0,0-1.887-1.889-1.887
			h-7.179c0,0-1.886,0-1.886,1.887v3.918c0,0,0,1.887,1.886,1.887h7.179C-53.291,330.37-51.402,330.37-51.402,328.483"/>
	</g>
	<g>
		<path fill="#4B4B4B" d="M-56.88,271.743c6.051,0,10.954-4.906,10.954-10.956c0-6.05-4.903-10.956-10.954-10.956
			c-6.049,0-10.954,4.906-10.954,10.956C-67.834,266.838-62.929,271.743-56.88,271.743"/>
		<path fill="#FFFFFF" d="M-58.691,265.695c-1.303,0-2.243-0.825-2.243-1.814c0-0.971,1.166-1.779,2.469-1.765
			c0.305,0.004,0.588,0.053,0.844,0.137c0.707,0.492,1.214,0.768,1.356,1.329c0.027,0.113,0.042,0.23,0.042,0.35
			C-56.224,264.92-56.861,265.695-58.691,265.695 M-58.349,259.887c-0.874-0.026-1.706-0.978-1.856-2.125
			c-0.151-1.148,0.435-2.026,1.309-2.002c0.873,0.026,1.705,0.948,1.855,2.096C-56.89,259.004-57.476,259.913-58.349,259.887
			 M-56.537,261.586c-0.307-0.217-0.892-0.746-0.892-1.054c0-0.365,0.104-0.543,0.651-0.971c0.561-0.44,0.958-1.055,0.958-1.772
			c0-0.855-0.381-1.686-1.094-1.961h1.076l0.759-0.548h-3.393c-1.521,0-2.952,1.152-2.952,2.487c0,1.364,1.037,2.465,2.585,2.465
			c0.107,0,0.212-0.003,0.314-0.009c-0.1,0.191-0.172,0.409-0.172,0.632c0,0.379,0.204,0.687,0.462,0.938
			c-0.196,0-0.383,0.007-0.588,0.007c-1.884,0-3.333,1.199-3.333,2.444c0,1.226,1.589,1.992,3.473,1.992
			c2.146,0,3.333-1.22,3.333-2.445C-55.351,262.809-55.64,262.22-56.537,261.586 M-51.601,259.988h-1.322v-1.321h-1.062v1.321
			h-1.321v1.063h1.321v1.322h1.062v-1.322h1.322C-51.601,261.05-51.601,259.988-51.601,259.988z"/>
	</g>
	<g>
		<path fill="#7F807E" d="M-56.88,534.687c6.05,0,10.954-4.905,10.954-10.956c0-6.05-4.904-10.956-10.954-10.956
			c-6.049,0-10.954,4.906-10.954,10.956C-67.834,529.782-62.929,534.687-56.88,534.687"/>
		<path fill="#FFFFFF" d="M-52.174,526.292c-0.257,0.57-0.381,0.824-0.712,1.328c-0.461,0.703-1.112,1.58-1.92,1.586
			c-0.717,0.008-0.901-0.467-1.875-0.46c-0.974,0.005-1.176,0.469-1.894,0.463c-0.807-0.008-1.424-0.799-1.886-1.503
			c-1.292-1.968-1.428-4.277-0.631-5.505c0.567-0.871,1.461-1.383,2.301-1.383c0.854,0,1.393,0.47,2.1,0.47
			c0.687,0,1.105-0.47,2.094-0.47c0.748,0,1.54,0.407,2.106,1.111C-54.342,522.944-54.042,525.585-52.174,526.292L-52.174,526.292z
			 M-55.347,520.033c0.359-0.462,0.632-1.114,0.533-1.779c-0.588,0.04-1.274,0.413-1.675,0.9c-0.365,0.442-0.665,1.099-0.548,1.735
			C-56.395,520.909-55.731,520.527-55.347,520.033L-55.347,520.033z"/>
	</g>
	<g>
		<path fill="#5E8FAE" d="M-56.88,468.952c6.05,0,10.955-4.906,10.955-10.956c0-6.051-4.905-10.956-10.955-10.956
			c-6.049,0-10.955,4.906-10.955,10.956C-67.835,464.047-62.929,468.952-56.88,468.952"/>
		<path fill="#FFFFFF" d="M-56.761,452.518v2.769h2.599v1.72h-2.599v2.809c0,0.636,0.034,1.044,0.101,1.224
			c0.067,0.181,0.192,0.324,0.376,0.432c0.242,0.145,0.519,0.218,0.831,0.218c0.555,0,1.106-0.181,1.655-0.542v1.73
			c-0.468,0.218-0.892,0.373-1.271,0.463c-0.38,0.089-0.79,0.134-1.231,0.134c-0.501,0-0.944-0.064-1.328-0.189
			c-0.384-0.129-0.714-0.307-0.984-0.542c-0.272-0.234-0.461-0.483-0.565-0.747c-0.105-0.263-0.158-0.645-0.158-1.146v-3.842h-1.211
			v-1.55c0.432-0.14,0.799-0.341,1.107-0.601c0.306-0.261,0.554-0.575,0.738-0.941c0.186-0.365,0.314-0.833,0.383-1.396h1.557
			V452.518z"/>
	</g>
	<g>
		<path fill="#40BFEF" d="M-56.88,600.423c6.05,0,10.954-4.906,10.954-10.955c0-6.051-4.904-10.956-10.954-10.956
			c-6.049,0-10.954,4.906-10.954,10.956C-67.834,595.518-62.929,600.423-56.88,600.423"/>
		<path fill="#FFFFFF" d="M-57.33,586.719c0.206,0.288,0.31,0.632,0.31,1.033c0,0.413-0.104,0.746-0.313,0.997
			c-0.117,0.141-0.289,0.27-0.516,0.385c0.345,0.127,0.605,0.326,0.781,0.597c0.176,0.273,0.264,0.604,0.264,0.993
			c0,0.401-0.1,0.76-0.302,1.079c-0.128,0.21-0.288,0.389-0.479,0.532c-0.216,0.167-0.47,0.28-0.764,0.342
			c-0.294,0.06-0.613,0.091-0.957,0.091h-3.051v-6.771h3.271C-58.259,586.009-57.676,586.248-57.33,586.719z M-61.006,587.173v1.494
			h1.646c0.292,0,0.532-0.056,0.716-0.168c0.183-0.112,0.275-0.311,0.275-0.594c0-0.317-0.122-0.524-0.363-0.626
			c-0.21-0.071-0.476-0.106-0.8-0.106L-61.006,587.173L-61.006,587.173z M-61.006,589.787v1.805h1.643
			c0.294,0,0.522-0.04,0.685-0.119c0.297-0.148,0.446-0.429,0.446-0.844c0-0.353-0.143-0.595-0.431-0.727
			c-0.161-0.074-0.387-0.112-0.678-0.115L-61.006,589.787L-61.006,589.787z M-52.712,587.863c0.35,0.156,0.638,0.402,0.865,0.74
			c0.207,0.299,0.34,0.643,0.401,1.036c0.035,0.23,0.048,0.562,0.043,0.994h-3.647c0.021,0.502,0.194,0.854,0.524,1.055
			c0.2,0.126,0.441,0.189,0.722,0.189c0.297,0,0.539-0.076,0.725-0.229c0.103-0.083,0.193-0.198,0.27-0.345h1.337
			c-0.036,0.297-0.198,0.599-0.485,0.906c-0.448,0.486-1.077,0.73-1.883,0.73c-0.668,0-1.255-0.205-1.763-0.616
			c-0.511-0.41-0.765-1.08-0.765-2.004c0-0.868,0.229-1.533,0.689-1.995c0.461-0.464,1.056-0.695,1.79-0.695
			C-53.453,587.628-53.061,587.705-52.712,587.863z M-54.67,588.993c-0.185,0.191-0.301,0.451-0.349,0.775h2.256
			c-0.023-0.347-0.141-0.609-0.349-0.791c-0.21-0.178-0.468-0.269-0.777-0.269C-54.223,588.707-54.485,588.803-54.67,588.993z
			 M-52.456,586.312h-2.9v0.842h2.9V586.312z"/>
	</g>
	<g>
		<path fill="#8CCFDD" d="M-56.88,666.158c6.05,0,10.955-4.906,10.955-10.956s-4.905-10.956-10.955-10.956
			c-6.049,0-10.955,4.906-10.955,10.956S-62.929,666.158-56.88,666.158"/>
		<path fill="#FFFFFF" d="M-51.409,652.915c-0.047,1.066-0.794,2.523-2.233,4.369c-1.489,1.934-2.751,2.899-3.782,2.899
			c-0.638,0-1.177-0.588-1.619-1.766c-0.296-1.081-0.59-2.163-0.884-3.241c-0.329-1.18-0.681-1.769-1.056-1.769
			c-0.082,0-0.367,0.172-0.86,0.516l-0.514-0.664c0.539-0.473,1.071-0.949,1.597-1.422c0.719-0.623,1.26-0.95,1.621-0.984
			c0.85-0.082,1.374,0.5,1.572,1.743c0.211,1.344,0.359,2.179,0.441,2.507c0.246,1.112,0.515,1.669,0.81,1.669
			c0.228,0,0.572-0.36,1.03-1.08c0.459-0.72,0.703-1.268,0.737-1.645c0.066-0.622-0.18-0.93-0.737-0.93
			c-0.261,0-0.532,0.055-0.81,0.171c0.541-1.751,1.572-2.603,3.094-2.554C-51.874,650.764-51.342,651.493-51.409,652.915z"/>
	</g>
	<g>
		<path fill="#E9644A" d="M-56.878,403.215c6.049,0,10.953-4.906,10.953-10.956c0-6.05-4.903-10.956-10.953-10.956
			c-6.051,0-10.956,4.906-10.956,10.956C-67.834,398.309-62.929,403.215-56.878,403.215"/>
		<path fill="#FFFFFF" d="M-54.638,388.559v2.087c-0.05,0.061-0.11,0.11-0.17,0.149c-0.067,0.039-0.116,0.06-0.16,0.06
			c-0.05,0-0.09-0.016-0.111-0.044c-0.027-0.033-0.039-0.077-0.039-0.144v-2.109h-0.563v2.297c0,0.167,0.034,0.288,0.099,0.37
			c0.067,0.083,0.167,0.122,0.294,0.122c0.11,0,0.215-0.027,0.331-0.083c0.11-0.061,0.215-0.143,0.32-0.259v0.304h0.564v-2.75
			L-54.638,388.559L-54.638,388.559z M-56.354,388.692c-0.15-0.138-0.343-0.205-0.573-0.205c-0.256,0-0.459,0.067-0.614,0.194
			c-0.15,0.127-0.226,0.291-0.226,0.508v1.424c0,0.237,0.076,0.42,0.221,0.559c0.148,0.137,0.347,0.209,0.59,0.209
			c0.254,0,0.459-0.066,0.603-0.204c0.148-0.134,0.22-0.315,0.22-0.552v-1.419C-56.135,388.995-56.212,388.824-56.354,388.692z
			 M-56.709,390.668c0,0.072-0.023,0.128-0.066,0.171c-0.045,0.045-0.105,0.067-0.183,0.067c-0.072,0-0.132-0.023-0.171-0.067
			c-0.038-0.039-0.061-0.099-0.061-0.171v-1.502c0-0.061,0.023-0.109,0.067-0.143c0.039-0.039,0.1-0.055,0.165-0.055
			c0.072,0,0.134,0.016,0.183,0.055c0.044,0.034,0.066,0.083,0.066,0.143L-56.709,390.668L-56.709,390.668z M-58.453,387.581
			l-0.391,1.492h-0.045l-0.41-1.492h-0.639l0.757,2.253v1.475h0.634v-1.546l0.735-2.181L-58.453,387.581L-58.453,387.581z
			 M-54.064,394.147c0.034,0.045,0.05,0.122,0.05,0.222v0.253h-0.437v-0.253c0-0.1,0.012-0.177,0.05-0.222
			c0.033-0.045,0.088-0.072,0.171-0.072C-54.152,394.075-54.096,394.103-54.064,394.147z M-55.798,394.135
			c-0.032-0.045-0.088-0.066-0.155-0.066c-0.033,0-0.072,0.005-0.104,0.021c-0.034,0.016-0.072,0.045-0.105,0.078v1.556
			c0.038,0.039,0.082,0.073,0.121,0.089c0.04,0.016,0.077,0.028,0.116,0.028c0.066,0,0.11-0.016,0.138-0.056
			c0.028-0.033,0.045-0.089,0.045-0.171v-1.292C-55.742,394.241-55.758,394.181-55.798,394.135z M-55.798,394.135
			c-0.032-0.045-0.088-0.066-0.155-0.066c-0.033,0-0.072,0.005-0.104,0.021c-0.034,0.016-0.072,0.045-0.105,0.078v1.556
			c0.038,0.039,0.082,0.073,0.121,0.089c0.04,0.016,0.077,0.028,0.116,0.028c0.066,0,0.11-0.016,0.138-0.056
			c0.028-0.033,0.045-0.089,0.045-0.171v-1.292C-55.742,394.241-55.758,394.181-55.798,394.135z M-52.966,392.21h-7.828
			c-0.856,0-1.563,0.707-1.563,1.567v1.597c0,0.86,0.707,1.562,1.563,1.562h7.828c0.856,0,1.564-0.702,1.564-1.562v-1.597
			C-51.402,392.916-52.11,392.21-52.966,392.21z M-58.684,393.309h-0.585v2.894h-0.564v-2.894h-0.58v-0.491h1.729
			C-58.684,392.818-58.684,393.309-58.684,393.309z M-57.041,396.202h-0.502v-0.276c-0.088,0.105-0.188,0.182-0.288,0.232
			c-0.099,0.056-0.194,0.083-0.288,0.083c-0.114,0-0.203-0.039-0.264-0.118c-0.056-0.072-0.083-0.181-0.083-0.331v-2.092h0.497
			v1.921c0,0.056,0.012,0.1,0.034,0.128c0.016,0.027,0.054,0.039,0.1,0.039c0.037,0,0.083-0.016,0.138-0.055
			c0.06-0.034,0.109-0.078,0.153-0.134v-1.899h0.502V396.202z M-55.229,395.682c0,0.177-0.039,0.315-0.115,0.41
			c-0.077,0.094-0.194,0.143-0.343,0.143c-0.099,0-0.183-0.016-0.26-0.054c-0.076-0.041-0.148-0.094-0.214-0.172v0.194h-0.502
			v-3.384h0.502v1.087c0.066-0.072,0.137-0.132,0.214-0.171c0.077-0.039,0.155-0.06,0.233-0.06c0.154,0,0.275,0.055,0.358,0.16
			c0.083,0.104,0.127,0.259,0.127,0.464V395.682z M-53.494,395.015h-0.956v0.47c0,0.133,0.012,0.221,0.045,0.271
			c0.033,0.054,0.094,0.077,0.171,0.077c0.083,0,0.138-0.023,0.171-0.066c0.034-0.039,0.05-0.139,0.05-0.282v-0.115h0.519v0.127
			c0,0.259-0.066,0.452-0.194,0.58c-0.122,0.132-0.31,0.194-0.557,0.194c-0.228,0-0.405-0.066-0.531-0.204
			c-0.128-0.137-0.193-0.326-0.193-0.568v-1.121c0-0.215,0.072-0.393,0.214-0.529c0.137-0.134,0.32-0.205,0.546-0.205
			c0.227,0,0.404,0.066,0.525,0.194c0.122,0.126,0.188,0.302,0.188,0.54v0.64H-53.494z M-55.952,394.07
			c-0.033,0-0.072,0.005-0.104,0.021c-0.034,0.016-0.072,0.045-0.105,0.078v1.556c0.038,0.039,0.082,0.073,0.121,0.089
			c0.04,0.016,0.077,0.028,0.116,0.028c0.066,0,0.11-0.016,0.138-0.056c0.028-0.033,0.045-0.089,0.045-0.171v-1.292
			c0-0.083-0.016-0.143-0.056-0.189C-55.829,394.092-55.886,394.07-55.952,394.07z M-55.798,394.135
			c-0.032-0.045-0.088-0.066-0.155-0.066c-0.033,0-0.072,0.005-0.104,0.021c-0.034,0.016-0.072,0.045-0.105,0.078v1.556
			c0.038,0.039,0.082,0.073,0.121,0.089c0.04,0.016,0.077,0.028,0.116,0.028c0.066,0,0.11-0.016,0.138-0.056
			c0.028-0.033,0.045-0.089,0.045-0.171v-1.292C-55.742,394.241-55.758,394.181-55.798,394.135z M-55.798,394.135
			c-0.032-0.045-0.088-0.066-0.155-0.066c-0.033,0-0.072,0.005-0.104,0.021c-0.034,0.016-0.072,0.045-0.105,0.078v1.556
			c0.038,0.039,0.082,0.073,0.121,0.089c0.04,0.016,0.077,0.028,0.116,0.028c0.066,0,0.11-0.016,0.138-0.056
			c0.028-0.033,0.045-0.089,0.045-0.171v-1.292C-55.742,394.241-55.758,394.181-55.798,394.135z"/>
	</g>
	<g>
		<path fill="#FFFFFF" d="M-56.878,731.894c6.048,0,10.954-4.906,10.954-10.955c0-6.051-4.906-10.956-10.954-10.956
			c-6.051,0-10.956,4.906-10.956,10.956C-67.835,726.989-62.929,731.894-56.878,731.894"/>
		<g>
			<path fill="#E1408F" d="M-51.402,720.939c0,1.331-1.08,2.412-2.412,2.412c-1.335,0-2.414-1.08-2.414-2.412
				c0-1.333,1.079-2.414,2.414-2.414C-52.482,718.526-51.402,719.606-51.402,720.939z"/>
			<path fill="#396DB3" d="M-57.531,720.939c0,1.331-1.079,2.412-2.414,2.412c-1.332,0-2.412-1.08-2.412-2.412
				c0-1.333,1.079-2.414,2.412-2.414C-58.61,718.526-57.531,719.606-57.531,720.939z"/>
		</g>
	</g>
	<g>
		<path fill="#F29100" d="M-56.88,797.63c6.051,0,10.954-4.906,10.954-10.956c0-6.049-4.903-10.955-10.954-10.955
			s-10.954,4.906-10.954,10.955C-67.834,792.724-62.93,797.63-56.88,797.63"/>
		<path id="RSS" fill="#FFFFFF" d="M-59.874,789.665c0.265,0.266,0.427,0.624,0.428,1.025c-0.001,0.4-0.163,0.76-0.427,1.023
			l-0.001,0.001c-0.264,0.262-0.626,0.425-1.028,0.425s-0.762-0.163-1.028-0.426c-0.262-0.262-0.426-0.623-0.426-1.023
			c0-0.401,0.164-0.761,0.426-1.025l0,0c0.266-0.262,0.626-0.426,1.028-0.426S-60.138,789.402-59.874,789.665z M-59.874,789.665
			L-59.874,789.665L-59.874,789.665L-59.874,789.665z M-61.931,791.714v-0.001l0,0V791.714z M-62.356,784.922v2.092
			c1.365,0,2.659,0.537,3.623,1.505c0.967,0.966,1.501,2.26,1.504,3.63l0,0v0.004h2.102c-0.003-1.993-0.813-3.798-2.122-5.108
			C-58.558,785.733-60.363,784.923-62.356,784.922z M-62.351,781.196v2.091c4.882,0.004,8.848,3.978,8.854,8.865h2.095
			c-0.001-3.019-1.23-5.756-3.212-7.741C-56.597,782.426-59.332,781.198-62.351,781.196z"/>
	</g>
	<g>
		<path fill="#1384C7" d="M-87.797,99.371c6.051,0,10.954-4.906,10.954-10.956c0-6.051-4.903-10.956-10.954-10.956
			c-6.049,0-10.954,4.906-10.954,10.956C-98.751,94.465-93.846,99.371-87.797,99.371"/>
		<path fill="#FFFFFF" d="M-59.945,90.075h-2.135v-6.834h2.135V90.075z M-61.067,82.387h-0.015c-0.773,0-1.274-0.523-1.274-1.185
			c0-0.676,0.516-1.187,1.304-1.187c0.787,0,1.272,0.511,1.287,1.185C-59.765,81.862-60.265,82.387-61.067,82.387z M-51.402,90.075
			h-2.422v-3.536c0-0.926-0.378-1.558-1.211-1.558c-0.636,0-0.99,0.427-1.156,0.837c-0.062,0.147-0.052,0.352-0.052,0.559v3.697
			h-2.398c0,0,0.031-6.264,0-6.834h2.398v1.073c0.142-0.47,0.909-1.139,2.131-1.139c1.518,0,2.71,0.984,2.71,3.1L-51.402,90.075
			L-51.402,90.075z"/>
	</g>
	<g>
		<path fill="#FAC766" d="M-56.88,162.186c6.05,0,10.954-4.906,10.954-10.956c0-6.051-4.904-10.956-10.954-10.956
			c-6.051,0-10.954,4.906-10.954,10.956C-67.834,157.28-62.93,162.186-56.88,162.186"/>
		<path fill="#FFFFFF" d="M-51.455,150.3l-0.091-0.189l-0.154-0.121c-0.201-0.158-1.218,0.012-1.495-0.238
			c-0.194-0.179-0.221-0.502-0.28-0.936c-0.109-0.847-0.179-0.89-0.312-1.175c-0.479-1.018-1.778-1.783-2.671-1.889h-2.42
			c-1.902,0-3.458,1.559-3.458,3.463v4.039c0,1.899,1.556,3.454,3.458,3.454h3.974c1.902,0,3.448-1.556,3.459-3.454l0.022-2.798
			L-51.455,150.3z M-58.834,148.58h1.917c0.367,0,0.662,0.297,0.662,0.66c0,0.361-0.295,0.662-0.662,0.662h-1.917
			c-0.367,0-0.663-0.301-0.663-0.662C-59.497,148.876-59.201,148.58-58.834,148.58z M-54.937,153.859h-3.897
			c-0.367,0-0.663-0.299-0.663-0.659c0-0.362,0.297-0.658,0.663-0.658h3.897c0.363,0,0.659,0.296,0.659,0.658
			C-54.278,153.559-54.574,153.859-54.937,153.859z"/>
	</g>
	<g>
		<path fill="#D87DA5" d="M-56.88,227.92c6.05,0,10.954-4.906,10.954-10.956c0-6.05-4.904-10.956-10.954-10.956
			c-6.051,0-10.954,4.906-10.954,10.956C-67.834,223.015-62.93,227.92-56.88,227.92"/>
		<path fill="#FFFFFF" d="M-51.514,215.862c-0.072-0.352-0.18-0.699-0.32-1.03c-0.137-0.325-0.307-0.638-0.503-0.93
			c-0.197-0.29-0.422-0.563-0.669-0.809c-0.248-0.25-0.521-0.473-0.811-0.67c-0.291-0.199-0.605-0.367-0.929-0.505
			c-0.331-0.138-0.678-0.248-1.03-0.318c-0.361-0.075-0.732-0.112-1.103-0.112s-0.742,0.038-1.104,0.112
			c-0.351,0.071-0.698,0.18-1.028,0.318c-0.324,0.138-0.638,0.307-0.93,0.505c-0.29,0.196-0.563,0.42-0.81,0.67
			c-0.248,0.247-0.472,0.519-0.668,0.809c-0.198,0.292-0.369,0.605-0.505,0.93c-0.139,0.331-0.248,0.678-0.32,1.03
			c-0.074,0.36-0.11,0.731-0.11,1.102c0,0.372,0.037,0.744,0.11,1.104c0.072,0.352,0.18,0.697,0.32,1.028
			c0.137,0.325,0.308,0.64,0.505,0.931c0.196,0.291,0.42,0.562,0.668,0.81c0.248,0.248,0.52,0.472,0.81,0.668
			c0.292,0.198,0.606,0.369,0.93,0.505c0.33,0.139,0.677,0.246,1.028,0.318c0.362,0.076,0.733,0.112,1.104,0.112
			c0.371,0,0.742-0.037,1.103-0.112c0.351-0.072,0.699-0.179,1.03-0.318c0.324-0.137,0.638-0.308,0.929-0.505
			c0.29-0.197,0.563-0.421,0.811-0.668c0.247-0.248,0.472-0.519,0.669-0.81c0.197-0.291,0.367-0.606,0.503-0.931
			c0.139-0.331,0.248-0.676,0.32-1.028c0.074-0.36,0.112-0.733,0.112-1.104C-51.402,216.593-51.44,216.222-51.514,215.862z
			 M-52.204,216.918c-0.068-0.015-1.651-0.356-3.258-0.154c-0.033-0.079-0.066-0.16-0.101-0.242
			c-0.098-0.229-0.202-0.455-0.31-0.678c1.846-0.754,2.596-1.84,2.604-1.852C-52.611,214.79-52.215,215.808-52.204,216.918z
			 M-53.79,213.454c-0.012,0.018-0.678,1.031-2.444,1.693c-0.799-1.47-1.678-2.637-1.748-2.729c0.353-0.085,0.723-0.133,1.103-0.133
			C-55.696,212.285-54.614,212.728-53.79,213.454z M-58.001,212.422L-58.001,212.422c0,0-0.006,0.001-0.015,0.004
			C-58.011,212.425-58.005,212.423-58.001,212.422z M-58.876,212.733c0.064,0.083,0.928,1.257,1.737,2.696
			c-2.246,0.596-4.196,0.573-4.318,0.571C-61.153,214.551-60.181,213.349-58.876,212.733z M-61.557,216.964
			c0-0.05,0.001-0.099,0.004-0.147c0.082,0.001,2.394,0.053,4.802-0.667c0.134,0.261,0.262,0.529,0.38,0.795
			c-0.063,0.015-0.123,0.035-0.184,0.055c-2.524,0.817-3.804,3.089-3.804,3.089s0.001,0.001,0.001,0.002
			C-61.103,219.261-61.557,218.165-61.557,216.964z M-56.88,221.643c-1.133,0-2.171-0.403-2.98-1.074
			c0.061,0.05,0.105,0.082,0.105,0.082s0.897-1.956,3.671-2.921c0.01-0.004,0.02-0.008,0.031-0.01
			c0.658,1.71,0.93,3.143,0.999,3.552C-55.615,221.511-56.232,221.643-56.88,221.643z M-54.266,220.844
			c-0.047-0.283-0.297-1.656-0.91-3.342c1.51-0.242,2.818,0.172,2.915,0.205C-52.47,219.01-53.215,220.134-54.266,220.844z"/>
	</g>
	<g>
		<path fill="#1D94D2" d="M-56.88,293.655c6.05,0,10.954-4.906,10.954-10.956c0-6.051-4.904-10.956-10.954-10.956
			c-6.051,0-10.954,4.906-10.954,10.956S-62.93,293.655-56.88,293.655"/>
		<path fill="#FFFFFF" d="M-51.717,283.88c0.079-0.362,0.121-0.738,0.121-1.122c0-2.885-2.339-5.224-5.225-5.224
			c-0.304,0-0.602,0.026-0.894,0.076c-0.467-0.294-1.02-0.466-1.611-0.466c-1.674,0-3.03,1.356-3.03,3.031
			c0,0.559,0.152,1.082,0.416,1.532c-0.069,0.34-0.106,0.691-0.106,1.05c0,2.886,2.339,5.226,5.225,5.226
			c0.327,0,0.646-0.03,0.957-0.088c0.427,0.229,0.914,0.36,1.432,0.36c1.673,0,3.029-1.355,3.029-3.03
			C-51.402,284.741-51.515,284.284-51.717,283.88z M-54.141,285.254c-0.242,0.343-0.599,0.613-1.061,0.806
			c-0.458,0.191-1.009,0.288-1.633,0.288c-0.75,0-1.38-0.133-1.87-0.392c-0.351-0.19-0.641-0.446-0.861-0.764
			c-0.222-0.32-0.334-0.638-0.334-0.945c0-0.191,0.074-0.357,0.218-0.493c0.142-0.135,0.326-0.202,0.545-0.202
			c0.18,0,0.335,0.053,0.461,0.16c0.12,0.102,0.223,0.253,0.307,0.448c0.092,0.212,0.193,0.391,0.299,0.532
			c0.103,0.137,0.251,0.251,0.438,0.339c0.19,0.091,0.445,0.137,0.759,0.137c0.432,0,0.786-0.092,1.052-0.275
			c0.259-0.177,0.386-0.391,0.386-0.651c0-0.207-0.066-0.369-0.202-0.496c-0.142-0.134-0.33-0.237-0.557-0.309
			c-0.238-0.073-0.561-0.153-0.958-0.237c-0.542-0.116-1.003-0.253-1.369-0.41c-0.375-0.159-0.677-0.38-0.898-0.656
			c-0.225-0.282-0.34-0.633-0.34-1.049c0-0.394,0.12-0.751,0.355-1.057c0.234-0.305,0.575-0.542,1.014-0.704
			c0.434-0.16,0.95-0.242,1.534-0.242c0.467,0,0.876,0.054,1.219,0.161c0.345,0.107,0.635,0.251,0.863,0.43
			c0.23,0.178,0.402,0.371,0.508,0.57c0.107,0.202,0.163,0.403,0.163,0.597c0,0.187-0.072,0.355-0.214,0.503
			c-0.142,0.149-0.324,0.224-0.536,0.224c-0.194,0-0.345-0.047-0.45-0.139c-0.098-0.087-0.199-0.222-0.312-0.416
			c-0.13-0.247-0.288-0.442-0.47-0.579c-0.175-0.135-0.469-0.202-0.872-0.202c-0.374,0-0.68,0.074-0.905,0.223
			c-0.218,0.143-0.324,0.307-0.324,0.501c0,0.119,0.034,0.218,0.104,0.304c0.074,0.092,0.179,0.169,0.311,0.237
			c0.138,0.069,0.28,0.125,0.421,0.164c0.145,0.041,0.389,0.1,0.723,0.177c0.423,0.091,0.811,0.193,1.155,0.302
			c0.348,0.112,0.648,0.248,0.893,0.409c0.251,0.162,0.449,0.371,0.589,0.622c0.141,0.25,0.213,0.56,0.213,0.922
			C-53.776,284.519-53.898,284.913-54.141,285.254z"/>
	</g>
	<g>
		<path fill="#8C589F" d="M-56.88,359.391c6.05,0,10.954-4.906,10.954-10.956c0-6.05-4.904-10.956-10.954-10.956
			c-6.051,0-10.954,4.906-10.954,10.956C-67.834,354.486-62.93,359.391-56.88,359.391"/>
		<g>
			<path fill="#FFFFFF" d="M-53.533,346.779c0.061-0.012,0.151-0.032,0.254-0.054h0.789l0.123-0.182
				c0.001-0.001,0.007-0.001,0.009-0.001l0.306-0.442c-0.004,0-0.012-0.001-0.015-0.001l0.032-0.047h-4.281l0.166,0.674h1.169
				l-1.965,1.775c-0.402-0.554-1.342-1.709-1.998-2.664h1.472v-0.512l0.016-0.113c-0.004-0.001-0.012-0.003-0.016-0.003v-0.046
				h-4.882v0.675h1.448c0.562,0.44,2.711,3.124,2.8,3.391c0.035,0.252,0.068,1.731-0.037,1.842
				c-0.211,0.224-1.175,0.165-1.408,0.181l-0.08,0.458c0.424,0.013,1.806-0.034,2.236-0.034c0.846,0,2.329-0.004,2.539,0.012
				l0.025-0.482c-0.214-0.035-1.38-0.004-1.542-0.04c-0.036-0.233-0.074-1.791-0.04-1.951
				C-56.254,348.746-53.801,346.851-53.533,346.779z"/>
			<path fill="#FFFFFF" d="M-52.823,350.461l0.657,0.051l0.764-2.951c-0.127-0.004-1.288-0.114-1.438-0.143L-52.823,350.461z"/>
			<polygon fill="#FFFFFF" points="-52.936,350.934 -52.933,351.655 -52.601,351.683 -52.241,351.71 -52.136,351.004 
				-52.514,350.985 			"/>
		</g>
	</g>
	<g>
		<path fill="#ADCE74" d="M-56.88,425.127c6.05,0,10.954-4.906,10.954-10.956c0-6.051-4.904-10.956-10.954-10.956
			c-6.051,0-10.954,4.906-10.954,10.956C-67.834,420.221-62.93,425.127-56.88,425.127"/>
		<g>
			<g>
				<g>
					<g>
						<path id="SVGID_1_" fill="#FFFFFF" d="M-58.437,417.903c-0.562-0.373-1.156-0.705-2.014-0.705
							c-0.521,0-1.14,0.123-1.905,0.432l1.014-3.514c0.115-0.046,0.228-0.089,0.338-0.13c0.37-0.13,0.896-0.278,1.474-0.326
							c0.067-0.005,0.131-0.007,0.197-0.007c0.577,0,1.103,0.201,1.48,0.395c0.163,0.086,0.315,0.18,0.467,0.275
							C-57.522,414.783-58.229,417.199-58.437,417.903"/>
					</g>
				</g>
			</g>
			<g>
				<g>
					<g>
						<path id="SVGID_3_" fill="#FFFFFF" d="M-55.723,419.006c-0.888,0-2.071-0.729-2.07-0.729l1.011-3.509
							c0.307,0.245,1.02,0.713,2.192,0.713c0.539,0,1.175-0.1,1.914-0.365l-0.974,3.406
							C-54.491,418.869-55.161,419.006-55.723,419.006"/>
					</g>
				</g>
			</g>
			<g>
				<g>
					<g>
						<path id="SVGID_5_" fill="#FFFFFF" d="M-56.166,409.97v0.003c-0.209,0.712-0.825,2.825-1.032,3.529 M-57.199,413.502
							c-0.542-0.36-1.125-0.689-1.946-0.696c-0.009,0-0.017,0-0.028,0c-0.53,0-1.16,0.139-1.938,0.456l0.998-3.506
							c0.757-0.31,1.372-0.435,1.886-0.444c0.004,0,0.008,0,0.012,0c0.302,0,0.575,0.037,0.817,0.093
							c0.505,0.129,1.231,0.565,1.231,0.565"/>
					</g>
				</g>
			</g>
			<g>
				<g>
					<g>
						<path id="SVGID_7_" fill="#FFFFFF" d="M-54.361,414.659c-0.883,0-1.616-0.305-2.18-0.681c-0.003-0.003-0.007-0.005-0.01-0.008
							l1.024-3.545c0.324,0.253,1.057,0.725,2.167,0.725c0.559,0,1.212-0.12,1.959-0.445l-1.01,3.481
							c-0.003,0-0.006,0.001-0.007,0.001c0,0.001,0,0.004,0,0.005C-53.128,414.525-53.777,414.659-54.361,414.659"/>
					</g>
				</g>
			</g>
		</g>
	</g>
	<g>
		<path fill="#22B7EB" d="M-56.88,490.864c6.05,0,10.954-4.906,10.954-10.956c0-6.05-4.904-10.955-10.954-10.955
			c-6.051,0-10.954,4.905-10.954,10.955C-67.834,485.958-62.93,490.864-56.88,490.864"/>
		<g>
			<path fill="#FFFFFF" d="M-57.852,479.72l0.928-1.616c0.069-0.121,0.027-0.276-0.093-0.347l-0.659-0.378
				c-0.121-0.071-0.277-0.029-0.346,0.092l-1.012,1.762l0,0l-1.114,1.941l0,0l-0.931,1.621c-0.069,0.121-0.027,0.276,0.094,0.345
				l0.659,0.38c0.121,0.069,0.277,0.028,0.347-0.093l1.293-2.252l0,0L-57.852,479.72z"/>
			<path fill="#FFFFFF" d="M-51.631,479.235h-2.227c0.261,0.491,0.505,0.954,0.676,1.281c0.117,0.226,0.211,0.404,0.244,0.464
				c0.036,0.063,0.06,0.13,0.077,0.196h1.23c0.127,0,0.229-0.103,0.229-0.229v-1.483C-51.402,479.337-51.505,479.235-51.631,479.235
				z"/>
			<path fill="#FFFFFF" d="M-57.045,479.235l-1.114,1.941h3.024c-0.22-0.435-0.51-1.053-0.901-1.941H-57.045z"/>
			<path fill="#FFFFFF" d="M-59.564,479.235h-2.563c-0.127,0-0.229,0.102-0.229,0.229v1.483c0,0.126,0.102,0.229,0.229,0.229h1.45
				L-59.564,479.235z"/>
			<path fill="#FFFFFF" d="M-60.543,483.812l-0.659-0.38c-0.121-0.07-0.233-0.012-0.249,0.125l-0.112,0.994
				c-0.017,0.138,0.064,0.188,0.18,0.11l0.853-0.581C-60.417,484.003-60.422,483.881-60.543,483.812z"/>
			<path fill="#FFFFFF" d="M-53.339,481.2c-0.003-0.007-0.009-0.015-0.014-0.024l0,0c-0.061-0.113-0.215-0.409-0.416-0.792
				c-0.002-0.005-0.005-0.01-0.008-0.015c-0.015-0.03-0.031-0.059-0.046-0.089c-0.012-0.023-0.023-0.045-0.035-0.067
				c-0.01-0.018-0.02-0.038-0.03-0.058c-0.018-0.034-0.037-0.068-0.054-0.102c-0.007-0.012-0.012-0.023-0.018-0.033
				c-0.02-0.039-0.042-0.077-0.062-0.118c-0.006-0.012-0.012-0.022-0.018-0.034c-0.464-0.879-1.048-1.962-1.41-2.53
				c-0.63-0.996-1.471-2.658-1.706-2.541c-0.329,0.164,0.689,2.273,1.027,3.066c0.337,0.791,1.653,3.829,1.917,3.962
				c0.264,0.132,0.367,0.059,0.542-0.015C-53.493,481.738-53.178,481.495-53.339,481.2z"/>
			<path fill="#FFFFFF" d="M-52.587,482.765l-0.315-0.603c-0.072-0.137-0.238-0.193-0.372-0.125l-0.38,0.197
				c-0.134,0.068-0.175,0.229-0.093,0.361l0.398,0.628c0.082,0.129,0.256,0.171,0.383,0.093l0.27-0.162
				C-52.565,483.078-52.516,482.902-52.587,482.765z"/>
			<path fill="#FFFFFF" d="M-52.684,483.638c-0.099,0.096-0.334,0.301-0.05,0.701c0.286,0.402,0.919,0.419,1.003,0.684
				C-51.731,485.023-51.532,482.989-52.684,483.638z"/>
		</g>
	</g>
	<g>
		<path fill="#FCC233" d="M-56.88,556.6c6.05,0,10.954-4.906,10.954-10.956c0-6.051-4.904-10.956-10.954-10.956
			c-6.051,0-10.954,4.906-10.954,10.956C-67.834,551.694-62.93,556.6-56.88,556.6"/>
		<g>
			<path fill="#FFFFFF" d="M-52.988,549.034c-0.055-0.001-0.11,0.012-0.162,0.036c-0.059,0.023-0.12,0.05-0.176,0.075l-0.083,0.035
				l-0.107,0.043v0.001c-1.176,0.477-2.41,0.757-3.552,0.781c-0.042,0.001-0.084,0.001-0.126,0.001
				c-1.796,0.001-3.262-0.834-4.741-1.655c-0.051-0.026-0.104-0.04-0.156-0.04c-0.066,0-0.135,0.023-0.184,0.07
				c-0.05,0.047-0.079,0.116-0.079,0.184c0,0.091,0.048,0.172,0.115,0.226c1.388,1.205,2.91,2.326,4.955,2.326
				c0.04,0,0.08,0,0.121-0.001c1.301-0.029,2.773-0.47,3.915-1.186l0.007-0.005c0.15-0.089,0.299-0.191,0.44-0.303
				c0.088-0.066,0.148-0.167,0.148-0.273C-52.657,549.161-52.816,549.034-52.988,549.034z"/>
			<path fill="#FFFFFF" d="M-51.402,548.369v-0.001c-0.005-0.115-0.028-0.2-0.077-0.273l-0.004-0.007l-0.006-0.007
				c-0.048-0.053-0.096-0.074-0.145-0.096c-0.15-0.057-0.368-0.088-0.631-0.09c-0.189,0-0.397,0.019-0.607,0.064v-0.014
				l-0.211,0.071l-0.004,0.001l-0.119,0.039v0.005c-0.139,0.058-0.267,0.131-0.385,0.215c-0.073,0.055-0.134,0.129-0.137,0.239
				c-0.001,0.061,0.029,0.131,0.08,0.172c0.051,0.042,0.11,0.055,0.163,0.055c0.013,0,0.024-0.001,0.034-0.003l0.01-0.001
				l0.009-0.001c0.103-0.021,0.253-0.037,0.428-0.062c0.151-0.016,0.311-0.029,0.449-0.029c0.099,0,0.187,0.007,0.247,0.02
				c0.03,0.007,0.053,0.014,0.066,0.02c0.004,0.001,0.007,0.004,0.009,0.005c0.003,0.009,0.007,0.03,0.006,0.061
				c0.001,0.115-0.047,0.33-0.114,0.54c-0.066,0.21-0.146,0.42-0.199,0.56c-0.012,0.033-0.02,0.068-0.02,0.107
				c-0.001,0.057,0.021,0.125,0.07,0.169c0.048,0.045,0.11,0.063,0.161,0.063h0.003c0.077-0.001,0.142-0.032,0.199-0.077
				c0.535-0.481,0.721-1.248,0.729-1.68L-51.402,548.369z"/>
			<path fill="#FFFFFF" d="M-56.292,543.214c-0.315,0.023-0.678,0.047-1.04,0.096c-0.557,0.073-1.112,0.168-1.571,0.387
				c-0.895,0.362-1.499,1.136-1.499,2.271c0,1.427,0.919,2.152,2.079,2.152c0.386,0,0.701-0.049,0.99-0.12
				c0.46-0.145,0.846-0.411,1.305-0.895c0.267,0.362,0.34,0.532,0.798,0.918c0.121,0.047,0.242,0.047,0.338-0.023
				c0.291-0.242,0.8-0.678,1.064-0.919c0.121-0.096,0.097-0.242,0.024-0.362c-0.265-0.338-0.532-0.629-0.532-1.282v-2.176
				c0-0.92,0.073-1.765-0.603-2.393c-0.557-0.508-1.426-0.702-2.103-0.702h-0.29c-1.233,0.072-2.538,0.603-2.829,2.127
				c-0.048,0.194,0.097,0.265,0.194,0.289l1.354,0.17c0.145-0.024,0.218-0.146,0.241-0.266c0.121-0.532,0.557-0.798,1.04-0.846
				h0.097c0.289,0,0.605,0.121,0.773,0.364c0.194,0.289,0.169,0.677,0.169,1.016L-56.292,543.214L-56.292,543.214z M-56.558,546.09
				c-0.169,0.337-0.46,0.555-0.774,0.629c-0.048,0-0.121,0.024-0.194,0.024c-0.532,0-0.846-0.411-0.846-1.016
				c0-0.774,0.459-1.136,1.04-1.306c0.314-0.074,0.677-0.097,1.04-0.097v0.29C-56.292,545.171-56.268,545.606-56.558,546.09z"/>
		</g>
	</g>
	<g>
		<path fill="#D5DF80" d="M-56.88,622.335c6.05,0,10.954-4.906,10.954-10.956c0-6.05-4.904-10.956-10.954-10.956
			c-6.051,0-10.954,4.906-10.954,10.956C-67.834,617.43-62.93,622.335-56.88,622.335"/>
		<g>
			<path fill="#FFFFFF" d="M-55.244,606.855l0.119-0.178l0.118-0.177l0.263-0.396c0.033-0.049,0.02-0.115-0.029-0.148
				c-0.047-0.033-0.114-0.018-0.146,0.031l-0.284,0.424l-0.12,0.179l-0.12,0.181c-0.383-0.148-0.81-0.233-1.262-0.233
				c-0.45,0-0.878,0.085-1.261,0.233l-0.121-0.181l-0.119-0.179l-0.284-0.424c-0.032-0.049-0.098-0.063-0.147-0.031
				c-0.048,0.033-0.062,0.099-0.029,0.148l0.264,0.396l0.118,0.177l0.12,0.178c-0.9,0.419-1.509,1.212-1.509,2.122h5.935
				C-53.735,608.067-54.344,607.274-55.244,606.855z M-57.975,608.129c-0.176,0-0.318-0.143-0.318-0.318
				c0-0.176,0.142-0.318,0.318-0.318c0.175,0,0.318,0.142,0.318,0.318C-57.657,607.986-57.8,608.129-57.975,608.129z
				 M-55.432,608.129c-0.175,0-0.318-0.143-0.318-0.318c0-0.176,0.142-0.318,0.318-0.318c0.177,0,0.319,0.142,0.319,0.318
				C-55.113,607.986-55.255,608.129-55.432,608.129z"/>
			<path fill="#FFFFFF" d="M-59.626,609.401h-0.045v0.528v0.432v3.705c0,0.37,0.301,0.671,0.672,0.671h0.483
				c-0.015,0.055-0.025,0.115-0.025,0.176v0.036v0.211v1.096c0,0.351,0.285,0.636,0.635,0.636c0.351,0,0.637-0.286,0.637-0.636
				v-1.096v-0.211v-0.036c0-0.061-0.009-0.12-0.026-0.176h1.181c-0.016,0.055-0.025,0.115-0.025,0.176v0.036v0.211v1.096
				c0,0.351,0.286,0.636,0.636,0.636s0.636-0.286,0.636-0.636v-1.096v-0.211v-0.036c0-0.061-0.01-0.12-0.026-0.176h0.485
				c0.371,0,0.67-0.301,0.67-0.671v-3.705v-0.432v-0.528h-0.045H-59.626z"/>
			<path fill="#FFFFFF" d="M-60.731,609.401c-0.351,0-0.637,0.285-0.637,0.635v2.723c0,0.35,0.286,0.636,0.637,0.636
				c0.351,0,0.635-0.286,0.635-0.636v-2.723C-60.095,609.686-60.38,609.401-60.731,609.401z"/>
			<path fill="#FFFFFF" d="M-52.674,609.401c-0.352,0-0.636,0.285-0.636,0.635v2.723c0,0.35,0.284,0.636,0.636,0.636
				c0.351,0,0.635-0.286,0.635-0.636v-2.723C-52.039,609.686-52.324,609.401-52.674,609.401z"/>
		</g>
	</g>
	<g>
		<path fill="#696969" d="M28.272,114.23c20.306,0,36.766-16.465,36.766-36.771c0-20.308-16.46-36.773-36.766-36.773
			c-20.308,0-36.766,16.465-36.766,36.773C-8.494,97.765,7.964,114.23,28.272,114.23"/>
		<path fill="#FFFFFF" d="M39.555,59.073H17.001c-3.919,0-7.106,3.189-7.106,7.106v7.506v15.058c0,3.917,3.189,7.099,7.106,7.099
			h22.554c3.919,0,7.106-3.184,7.106-7.099V73.685v-7.506C46.661,62.262,43.472,59.073,39.555,59.073z M41.592,63.314l0.814-0.005
			v0.811v5.422l-6.211,0.022l-0.022-6.234L41.592,63.314z M23.029,73.687c1.177-1.63,3.089-2.696,5.248-2.696
			s4.069,1.066,5.248,2.696c0.765,1.066,1.226,2.365,1.226,3.772c0,3.567-2.907,6.474-6.474,6.474s-6.471-2.907-6.471-6.474
			C21.806,76.053,22.264,74.753,23.029,73.687z M43.077,88.745c0,1.941-1.581,3.522-3.525,3.522H16.999
			c-1.944,0-3.525-1.581-3.525-3.522V73.687h5.488c-0.473,1.167-0.743,2.437-0.743,3.772c0,5.545,4.51,10.06,10.055,10.06
			s10.055-4.515,10.055-10.06c0-1.336-0.267-2.606-0.743-3.772h5.488v15.058H43.077z"/>
	</g>
	<g>
		<path fill="#4D75B8" d="M-56.88,753.806c6.05,0,10.954-4.906,10.954-10.956c0-6.05-4.904-10.956-10.954-10.956
			c-6.051,0-10.954,4.906-10.954,10.956C-67.834,748.901-62.93,753.806-56.88,753.806"/>
		<polygon fill="#FFFFFF" points="-51.401,744.168 -62.356,744.168 -62.356,741.534 -61.136,741.534 -61.136,742.947 
			-52.622,742.947 -52.622,741.534 -51.401,741.534 		"/>
	</g>
	<g>
		<path fill="#859563" d="M-56.88,819.542c6.051,0,10.954-4.906,10.954-10.956c0-6.05-4.903-10.956-10.954-10.956
			s-10.954,4.906-10.954,10.956C-67.834,814.636-62.93,819.542-56.88,819.542"/>
		<path fill="#FFFFFF" d="M-52.104,813.711l-4.538-10.453c-0.039-0.092-0.13-0.151-0.23-0.151l0,0c-0.101,0-0.191,0.059-0.23,0.151
			l-4.552,10.453c-0.034,0.077-0.026,0.169,0.02,0.239c0.045,0.071,0.124,0.113,0.21,0.113h4.038v-2.22l-1.082-0.75l0.179-0.258
			l0.903,0.627v-1.781h1.028v1.171l0.941-0.475l0.142,0.28l-1.083,0.546v0.862l1.727-0.87l0.142,0.279l-1.87,0.942v1.648h4.023
			c0.085,0,0.164-0.043,0.21-0.113C-52.078,813.88-52.07,813.789-52.104,813.711z"/>
	</g>
	<g>
		<path fill="#8FD2F0" d="M-56.88,118.361c6.05,0,10.954-4.906,10.954-10.956s-4.904-10.956-10.954-10.956
			c-6.051,0-10.954,4.905-10.954,10.956S-62.93,118.361-56.88,118.361"/>
		<g>
			<polygon fill="#FFFFFF" points="-62.356,107.983 -59.133,110.086 -56.88,108.205 -60.129,106.199 			"/>
			<polygon fill="#FFFFFF" points="-59.133,102.312 -62.356,104.415 -60.129,106.199 -56.88,104.194 			"/>
			<polygon fill="#FFFFFF" points="-51.402,104.415 -54.624,102.312 -56.88,104.194 -53.63,106.199 			"/>
			<polygon fill="#FFFFFF" points="-56.88,108.205 -54.624,110.086 -51.402,107.983 -53.63,106.199 			"/>
			<polygon fill="#FFFFFF" points="-56.872,108.61 -59.133,110.485 -60.102,109.853 -60.102,110.561 -56.872,112.498 
				-53.643,110.561 -53.643,109.853 -54.612,110.485 			"/>
		</g>
	</g>
	<g>
		<path fill="#E8476D" d="M-56.88,184.097c6.05,0,10.954-4.906,10.954-10.956c0-6.05-4.904-10.956-10.954-10.956
			c-6.051,0-10.954,4.906-10.954,10.956C-67.834,179.192-62.93,184.097-56.88,184.097"/>
		<path fill="#FFFFFF" d="M-53.18,172.608c-0.096-0.031-0.189-0.06-0.278-0.088c-0.682-0.215-1.094-0.345-1.094-0.874
			c0-0.432,0.332-0.744,0.79-0.744c0.351,0,0.613,0.146,0.847,0.474c0.021,0.031,0.063,0.042,0.096,0.024l0.688-0.352
			c0.018-0.009,0.033-0.025,0.039-0.045c0.006-0.02,0.004-0.042-0.007-0.06c-0.369-0.654-0.9-0.973-1.626-0.973
			c-1.103,0-1.816,0.667-1.816,1.699c0,1.057,0.689,1.483,1.962,1.902c0.738,0.245,1.064,0.377,1.064,0.901
			c0,0.591-0.532,1.014-1.258,0.989c-0.761-0.026-0.991-0.429-1.28-1.089c-0.491-1.117-1.048-2.423-1.053-2.436
			c-0.559-1.292-1.669-2.032-3.044-2.032c-1.816,0-3.295,1.478-3.295,3.297c0,1.816,1.478,3.295,3.295,3.295
			c0.99,0,1.919-0.439,2.547-1.207c0.018-0.021,0.023-0.051,0.012-0.077l-0.415-0.958c-0.012-0.026-0.039-0.045-0.069-0.046
			c-0.03-0.001-0.056,0.016-0.07,0.042c-0.392,0.749-1.161,1.215-2.005,1.215c-1.247,0-2.262-1.016-2.262-2.263
			c0-1.248,1.015-2.263,2.262-2.263c0.907,0,1.739,0.538,2.07,1.343l1.026,2.344l0.119,0.263c0.465,1.082,1.147,1.567,2.215,1.569
			c1.271,0,2.23-0.841,2.23-1.958C-51.489,173.379-52.11,172.959-53.18,172.608z"/>
	</g>
	<g>
		<path fill="#F2CA59" d="M-56.88,249.831c6.05,0,10.954-4.906,10.954-10.956s-4.904-10.955-10.954-10.955
			c-6.051,0-10.954,4.906-10.954,10.956S-62.93,249.831-56.88,249.831"/>
		<path fill="#FFFFFF" d="M-61.828,240.651c0.023,0,0.043-0.018,0.045-0.045l0.123-0.962l-0.122-0.984
			c-0.004-0.026-0.023-0.045-0.046-0.045c-0.023,0-0.042,0.018-0.045,0.045l-0.107,0.984l0.107,0.962
			C-61.869,240.633-61.851,240.651-61.828,240.651z M-62.19,240.244L-62.19,240.244L-62.19,240.244L-62.19,240.244z
			 M-62.233,240.286c0.022,0,0.04-0.018,0.044-0.043l0.096-0.599l-0.096-0.608c-0.004-0.025-0.021-0.043-0.044-0.043
			s-0.04,0.018-0.044,0.043l-0.08,0.608l0.08,0.599C-62.273,240.269-62.256,240.286-62.233,240.286z M-61.343,238.479
			c-0.003-0.031-0.026-0.054-0.054-0.054c-0.029,0-0.053,0.023-0.055,0.054l-0.102,1.168l0.102,1.124
			c0.002,0.031,0.026,0.053,0.055,0.053c0.028,0,0.051-0.022,0.054-0.053l0.117-1.124L-61.343,238.479z M-60.964,240.868
			c0.034,0,0.061-0.026,0.064-0.063l0,0l0.11-1.16l-0.11-1.201c-0.003-0.037-0.031-0.063-0.064-0.063s-0.061,0.026-0.064,0.063
			l-0.097,1.201l0.097,1.16C-61.025,240.842-60.997,240.868-60.964,240.868z M-60.526,240.887c0.039,0,0.071-0.031,0.074-0.072l0,0
			l0.104-1.17l-0.104-1.113c-0.003-0.042-0.034-0.072-0.074-0.072c-0.039,0-0.071,0.031-0.074,0.072l-0.091,1.113l0.091,1.17
			C-60.597,240.855-60.566,240.887-60.526,240.887z M-59.905,239.646l-0.097-1.811c-0.003-0.045-0.039-0.082-0.083-0.082
			c-0.045,0-0.081,0.037-0.083,0.082l-0.085,1.811l0.085,1.17c0.001,0.045,0.039,0.082,0.083,0.082s0.08-0.037,0.083-0.082l0,0
			L-59.905,239.646z M-59.641,240.9c0.05,0,0.09-0.04,0.093-0.092v0.001l0.09-1.163l-0.09-2.225
			c-0.003-0.05-0.043-0.091-0.093-0.091c-0.049,0-0.09,0.041-0.092,0.091l-0.08,2.225l0.08,1.162
			C-59.731,240.86-59.691,240.9-59.641,240.9z M-59.193,237.136c-0.055,0-0.099,0.045-0.102,0.1l-0.074,2.41l0.074,1.15
			c0.003,0.057,0.047,0.102,0.102,0.102c0.056,0,0.099-0.045,0.102-0.102l0,0l0.084-1.15l-0.084-2.41
			C-59.093,237.18-59.138,237.136-59.193,237.136z M-58.741,240.9c0.06,0,0.108-0.049,0.111-0.11v0.001l0.077-1.144l-0.077-2.49
			c-0.003-0.063-0.051-0.11-0.111-0.11s-0.11,0.047-0.111,0.11l-0.069,2.49l0.069,1.144C-58.851,240.851-58.801,240.9-58.741,240.9z
			 M-58.286,240.898c0.066,0,0.118-0.053,0.12-0.119l0,0l0.072-1.133l-0.072-2.428c-0.001-0.066-0.054-0.118-0.12-0.118
			c-0.066,0-0.12,0.053-0.121,0.118l-0.064,2.428l0.064,1.133C-58.406,240.846-58.353,240.898-58.286,240.898z M-57.633,239.646
			l-0.065-2.34c-0.002-0.072-0.058-0.128-0.131-0.128c-0.072,0-0.129,0.056-0.13,0.129l-0.057,2.339l0.057,1.126
			c0.001,0.071,0.058,0.127,0.13,0.127c0.072,0,0.129-0.056,0.131-0.129v0.001L-57.633,239.646z M-57.365,240.903
			c0.075,0,0.137-0.062,0.139-0.139v0.001l0.058-1.118l-0.058-2.783c-0.001-0.077-0.064-0.139-0.139-0.139
			c-0.076,0-0.137,0.062-0.139,0.139l-0.053,2.782c0,0.002,0.053,1.119,0.053,1.119C-57.503,240.841-57.441,240.903-57.365,240.903z
			 M-56.905,236.464c-0.081,0-0.148,0.067-0.149,0.149l-0.061,3.034l0.061,1.102c0.001,0.08,0.068,0.148,0.149,0.148
			c0.08,0,0.147-0.067,0.148-0.148v0.001l0.066-1.102l-0.066-3.035C-56.758,236.531-56.826,236.464-56.905,236.464z
			 M-56.484,240.903c0.004,0,3.711,0.001,3.734,0.001c0.745,0,1.348-0.602,1.348-1.347c0-0.743-0.603-1.347-1.348-1.347
			c-0.185,0-0.361,0.038-0.521,0.104c-0.107-1.214-1.125-2.167-2.368-2.167c-0.304,0-0.6,0.059-0.863,0.161
			c-0.102,0.039-0.129,0.08-0.129,0.159v4.275C-56.629,240.827-56.565,240.895-56.484,240.903z"/>
	</g>
	<g>
		<path fill="#56ACDD" d="M-56.88,315.568c6.05,0,10.954-4.906,10.954-10.956c0-6.051-4.904-10.956-10.954-10.956
			c-6.051,0-10.954,4.906-10.954,10.956C-67.834,310.662-62.93,315.568-56.88,315.568"/>
		<path fill="#FFFFFF" d="M-62.356,304.612c0,2.168,1.261,4.042,3.088,4.93l-2.613-7.159
			C-62.186,303.063-62.356,303.817-62.356,304.612z M-53.181,304.335c0-0.677-0.244-1.147-0.452-1.51
			c-0.278-0.452-0.538-0.834-0.538-1.285c0-0.502,0.381-0.973,0.921-0.973c0.022,0,0.046,0.004,0.071,0.006
			c-0.976-0.894-2.274-1.439-3.698-1.439c-1.914,0-3.598,0.982-4.576,2.469c0.129,0.004,0.248,0.008,0.352,0.008
			c0.573,0,1.458-0.071,1.458-0.071c0.295-0.016,0.33,0.416,0.035,0.451c0,0-0.297,0.034-0.626,0.052l1.995,5.933l1.198-3.595
			l-0.854-2.339c-0.295-0.018-0.575-0.052-0.575-0.052c-0.295-0.017-0.259-0.468,0.036-0.451c0,0,0.904,0.071,1.442,0.071
			c0.572,0,1.461-0.071,1.461-0.071c0.294-0.016,0.329,0.416,0.034,0.451c0,0-0.297,0.034-0.626,0.052l1.978,5.888l0.548-1.824
			C-53.321,305.395-53.181,304.804-53.181,304.335z M-56.782,305.092l-1.643,4.776c0.489,0.145,1.009,0.223,1.548,0.223
			c0.637,0,1.25-0.109,1.819-0.311c-0.015-0.023-0.028-0.047-0.039-0.074L-56.782,305.092z M-52.073,301.983
			c0.023,0.176,0.037,0.362,0.037,0.565c0,0.555-0.104,1.18-0.416,1.962l-1.672,4.837c1.628-0.949,2.723-2.714,2.723-4.734
			C-51.402,303.659-51.645,302.764-52.073,301.983z"/>
	</g>
	<g>
		<path fill="#282828" d="M-56.88,381.303c6.05,0,10.954-4.906,10.954-10.956s-4.904-10.956-10.954-10.956
			c-6.051,0-10.954,4.906-10.954,10.956S-62.93,381.303-56.88,381.303"/>
		<g>
			<path fill="#FFFFFF" d="M-60.708,367.227v1.451h-1.648v3.323h2.718v-4.774H-60.708z M-60.708,371.108h-0.559v-1.51h0.559V371.108
				z"/>
			<path fill="#FFFFFF" d="M-57.405,368.693v3.323h1.648v0.519h-1.667v0.933h2.265h0.473v-4.775H-57.405z M-55.757,371.096h-0.559
				v-1.51h0.559V371.096z"/>
			<path fill="#FFFFFF" d="M-54.121,368.693v3.323h1.648v0.519h-1.667v0.933h2.267h0.472v-4.775H-54.121z M-52.473,371.096h-0.557
				v-1.51h0.558L-52.473,371.096L-52.473,371.096z"/>
			<rect x="-59.086" y="368.672" fill="#FFFFFF" width="1.109" height="3.343"/>
			<rect x="-59.086" y="367.286" fill="#FFFFFF" width="1.109" height="0.907"/>
		</g>
	</g>
	<g>
		<path fill="#9ECC91" d="M-56.88,447.039c6.05,0,10.954-4.906,10.954-10.956c0-6.051-4.904-10.956-10.954-10.956
			c-6.051,0-10.954,4.906-10.954,10.956C-67.834,442.134-62.93,447.039-56.88,447.039"/>
		<path fill="#FFFFFF" d="M-57.167,437.94c0.032-0.958-0.777-1.781-1.803-1.836l-0.386-0.019c-0.374-0.019-0.689-0.329-0.689-0.676
			c0-0.335,0.311-0.624,0.673-0.624h2.539c0.363,0,0.643,0.313,0.643,0.675v2.336c0,1.035,0.841,1.875,1.875,1.875h0.307
			c1.033,0,1.874-0.84,1.874-1.875v-7.85c-0.045-0.003-0.088-0.015-0.134-0.015h-1.082v7.865c0,0.362-0.294,0.657-0.657,0.657
			h-0.307c-0.364,0-0.659-0.294-0.659-0.657v-2.336c0-1.035-0.84-1.875-1.874-1.875h-2.538c-1.034,0-1.875,0.818-1.875,1.825
			c0,0.99,0.826,1.84,1.841,1.892l0.386,0.021c0.362,0.018,0.66,0.283,0.651,0.578c-0.01,0.3-0.329,0.552-0.697,0.552h-4.008v1.218
			h4.007C-58.057,439.67-57.199,438.895-57.167,437.94z"/>
	</g>
	<g>
		<path fill="#E73B3A" d="M-56.88,512.776c6.05,0,10.954-4.906,10.954-10.956c0-6.051-4.904-10.956-10.954-10.956
			c-6.051,0-10.954,4.906-10.954,10.956C-67.834,507.87-62.93,512.776-56.88,512.776"/>
		<g>
			<path fill="#FFFFFF" d="M-56.385,501.189c-0.145-0.101-0.332-0.156-0.593-0.156c-0.384,0-0.643,0.099-0.868,0.397h-0.015v-1.838
				h-1.06v1.526c0.015,0.007,0.031,0.014,0.045,0.02c0.408,0.159,0.642,0.386,0.766,0.662c0.124,0.272,0.138,0.584,0.111,0.919l0,0
				c-0.006,0.064-0.057,0.114-0.121,0.114h-0.802v0.001v0.102h0.769l0,0h0.007c0.066,0.004,0.117,0.062,0.114,0.131
				c-0.01,0.201-0.088,0.378-0.232,0.532c-0.131,0.141-0.32,0.261-0.559,0.362c-0.03,0.026-0.039,0.031-0.073,0.033l-0.025,0.01
				v0.589h1.01v-0.381h0.018c0.191,0.336,0.483,0.456,0.901,0.456c0.827,0,1.011-0.634,1.058-1.246l-0.015-0.003l0,0h-0.003
				c-0.371-0.077-0.604-0.294-0.733-0.586l0,0c-0.024-0.056-0.045-0.115-0.063-0.173c-0.039-0.143-0.058-0.301-0.058-0.466l0,0
				v-0.003c0-0.242,0.039-0.445,0.114-0.616C-56.621,501.415-56.517,501.287-56.385,501.189L-56.385,501.189z M-56.978,502.81
				c0,0.884-0.061,1.25-0.451,1.25c-0.368,0-0.434-0.366-0.434-1.25c0-0.687,0-1.174,0.434-1.174
				C-56.961,501.635-56.978,502.123-56.978,502.81L-56.978,502.81z"/>
			<path fill="#FFFFFF" d="M-58.154,503.062h-0.769h-0.565h-0.017h-0.626c0,0.265-0.142,0.562-0.836,0.562
				c-0.857,0-0.873-0.547-0.873-0.914h2.917h0.801c0.049-0.632-0.049-1.164-0.802-1.456c-0.165-0.074-0.357-0.121-0.583-0.16
				c-0.368-0.076-0.852-0.121-1.461-0.121c-2.56,0-2.835,0.722-2.835,1.561c0,0.968,0.325,1.648,2.835,1.648
				c0.577,0,1.078-0.061,1.478-0.131c0.208-0.045,0.401-0.106,0.565-0.181c0.016,0,0.016,0,0.032-0.015
				C-58.423,503.664-58.171,503.403-58.154,503.062L-58.154,503.062z M-60.967,501.505c0.933,0,0.901,0.426,0.901,0.716h-1.774
				C-61.84,501.972-61.851,501.505-60.967,501.505L-60.967,501.505z"/>
			<path fill="#FFFFFF" d="M-56.287,501.269c-0.259,0.176-0.401,0.472-0.401,0.923c0,0.532,0.208,0.99,0.757,1.106
				c0.077,0.016,0.16,0.016,0.259,0.016c0.468,0,0.77-0.176,0.994-0.528h0.017l0.049,0.466h1.001c-0.017-0.22-0.05-0.441-0.05-0.662
				v-0.667l-0.106-0.197l0,0l-1.066-1.972l-0.04-0.076c-0.104-0.009-0.214-0.015-0.332-0.015c-0.407,0-0.759,0.061-1.001,0.235
				c-0.258,0.151-0.402,0.426-0.402,0.853h1.061c0-0.276,0.017-0.543,0.401-0.543c0.389,0,0.434,0.222,0.434,0.513v0.281
				C-55.319,500.988-55.913,501.004-56.287,501.269L-56.287,501.269z M-55.236,502.709c-0.358,0-0.407-0.311-0.407-0.557
				c0-0.618,0.407-0.577,0.933-0.608C-54.71,501.931-54.611,502.709-55.236,502.709L-55.236,502.709z"/>
			<polygon fill="#FFFFFF" points="-51.375,499.227 -52.451,501.324 -53.452,499.227 -54.978,499.227 -54.726,499.694 
				-53.66,501.665 -53.225,502.474 -53.225,504.195 -51.825,504.195 -51.825,502.474 -49.957,499.227 			"/>
		</g>
	</g>
	<g>
		<path fill="#B08ABE" d="M-56.88,578.511c6.05,0,10.954-4.906,10.954-10.956c0-6.05-4.904-10.956-10.954-10.956
			c-6.051,0-10.954,4.906-10.954,10.956C-67.834,573.606-62.93,578.511-56.88,578.511"/>
		<g>
			<g>
				<path fill="#FFFFFF" d="M-54.62,562.471c-0.715-0.325-1.475-0.492-2.258-0.492c-0.654,0-1.295,0.126-1.913,0.358
					c0.145,0.131,3.984,3.616,4.171,3.787C-54.62,565.873-54.62,562.547-54.62,562.471L-54.62,562.471z"/>
			</g>
			<g>
				<path fill="#FFFFFF" d="M-59.698,572.137c0-0.214,0-4.459,0-4.711c-0.183,0.166-2.2,1.999-2.263,2.057
					C-61.521,570.584-60.72,571.517-59.698,572.137L-59.698,572.137z"/>
			</g>
			<g>
				<path fill="#FFFFFF" d="M-62.356,567.457c0,0.47,0.072,0.949,0.199,1.423c0.147-0.134,4.759-4.326,4.854-4.413
					c-0.092-0.083-2.01-1.824-2.073-1.882C-61.214,563.53-62.356,565.391-62.356,567.457L-62.356,567.457z"/>
			</g>
			<g>
				<path fill="#FFFFFF" d="M-59.122,569.839c0,0.113,0,2.536,0,2.613c0.557,0.25,1.139,0.405,1.738,0.461h1.004
					c1.892-0.177,3.581-1.344,4.421-3.074C-52.156,569.839-59.005,569.839-59.122,569.839L-59.122,569.839z"/>
			</g>
			<g>
				<path fill="#FFFFFF" d="M-54.042,562.784c0,0.218,0,6.36,0,6.477c0.111,0,2.244,0,2.33,0c0.204-0.586,0.312-1.19,0.312-1.805
					C-51.401,565.553-52.414,563.777-54.042,562.784L-54.042,562.784z"/>
			</g>
		</g>
	</g>
	<g>
		<path fill="#5168AE" d="M-56.88,644.247c6.05,0,10.954-4.906,10.954-10.956c0-6.051-4.904-10.956-10.954-10.956
			c-6.051,0-10.954,4.906-10.954,10.956S-62.93,644.247-56.88,644.247"/>
		<path fill="#FFFFFF" d="M-51.406,630.508c-0.024-0.461-0.147-0.855-0.335-1.191c-0.549-0.977-1.668-1.437-2.688-1.437h-5.493
			l-2.433,10.821h3.224l0.787-3.582h2.306c0.024,0,0.053-0.004,0.08-0.004c1.308-0.021,2.484-0.508,3.319-1.377
			c0.543-0.57,0.944-1.299,1.139-2.174C-51.418,631.183-51.39,630.829-51.406,630.508z M-54.527,631.566
			c-0.087,0.357-0.291,0.684-0.562,0.941c-0.096,0.09-0.206,0.172-0.32,0.244c-0.291,0.183-0.627,0.295-0.963,0.295h-1.512
			l0.641-2.745l0.053-0.217h1.578c0.272,0,0.511,0.082,0.703,0.217C-54.552,630.562-54.376,631.026-54.527,631.566z"/>
	</g>
	<g>
		<path fill="#6A8751" d="M-56.88,709.983c6.05,0,10.954-4.906,10.954-10.956c0-6.05-4.904-10.956-10.954-10.956
			c-6.051,0-10.954,4.906-10.954,10.956C-67.834,705.077-62.93,709.983-56.88,709.983"/>
		<path fill="#FFFFFF" d="M-58.387,697.799c2.48-0.714,4.55,0.746,4.55,0.746l-1.707,0.46l-0.492-0.913
			c-0.462-0.085-0.99-0.112-1.55-0.018l1.162,2.361l5.021-1.445c0,0-1.821-2.861-7.252-1.935c-0.031,0.005-0.06,0.014-0.091,0.018
			l-0.528-1.072l-1.564,0.178l0.638,1.302c-3.295,1.361-1.835,4.571-1.835,4.571l5.028-1.446L-58.387,697.799z M-60.673,700.391
			c0,0-0.485-1.07,0.925-1.987l0.75,1.535L-60.673,700.391z"/>
	</g>
	<g>
		<path fill="#3A4C8E" d="M-56.88,841.454c6.051,0,10.954-4.906,10.954-10.956c0-6.051-4.903-10.956-10.954-10.956
			s-10.954,4.906-10.954,10.956C-67.834,836.548-62.93,841.454-56.88,841.454"/>
		<path fill="#FFFFFF" d="M-51.631,825.02h-10.497c-0.126,0-0.229,0.104-0.229,0.229v10.498c0,0.127,0.104,0.229,0.229,0.229h10.496
			c0.127,0,0.229-0.102,0.229-0.229v-10.498C-51.402,825.123-51.504,825.02-51.631,825.02z M-56.88,835.518v-5.02h-5.019v-5.021
			h5.019v5.021h5.02v5.02H-56.88z"/>
	</g>
	<g>
		<path fill="#CCCBCB" d="M-56.88,775.719c6.05,0,10.954-4.906,10.954-10.956c0-6.051-4.904-10.956-10.954-10.956
			c-6.051,0-10.954,4.906-10.954,10.956C-67.834,770.813-62.93,775.719-56.88,775.719"/>
		<g>
			<polygon fill="#FFFFFF" points="-58.505,766.771 -58.566,766.771 -58.594,766.823 -60.078,769.419 -60.168,769.575 
				-59.988,769.575 -53.067,769.575 -53.007,769.575 -52.976,769.523 -51.492,766.928 -51.402,766.771 -51.582,766.771 			"/>
			<polygon fill="#FFFFFF" points="-54.663,766.116 -54.632,766.168 -54.572,766.168 -51.582,766.155 -51.402,766.154 
				-51.492,765.998 -54.952,760.003 -54.982,759.951 -55.043,759.951 -58.032,759.962 -58.213,759.964 -58.123,760.12 			"/>
			<polygon fill="#FFFFFF" points="-57.148,763.068 -57.179,763.015 -58.684,760.431 -58.776,760.276 -58.865,760.433 
				-62.326,766.427 -62.356,766.48 -62.326,766.533 -60.82,769.116 -60.729,769.271 -60.639,769.114 -57.179,763.119 			"/>
		</g>
	</g>
</g>
<line fill="none" x1="-57.833" y1="-56.167" x2="112.5" y2="30.833"/>
</svg>
