<?xml version="1.0" encoding="utf-8"?>
<!-- Generator: Adobe Illustrator 17.0.0, SVG Export Plug-In . SVG Version: 6.00 Build 0)  -->
<!DOCTYPE svg PUBLIC "-//W3C//DTD SVG 1.1//EN" "http://www.w3.org/Graphics/SVG/1.1/DTD/svg11.dtd">
<svg version="1.1" id="Capa_1" xmlns="http://www.w3.org/2000/svg" xmlns:xlink="http://www.w3.org/1999/xlink" x="0px" y="0px"
	 width="31.667px" height="31.667px" viewBox="29.167 -0.833 31.667 31.667" enable-background="new 29.167 -0.833 31.667 31.667"
	 xml:space="preserve">
<g>
	<g>
		<path fill="#78CBEF" d="M119.25,71.001c8.284,0,14.999-6.715,14.999-15.001c0-8.284-6.715-15.001-14.999-15.001
			c-8.283,0-14.999,6.717-14.999,15.001C104.251,64.286,110.967,71.001,119.25,71.001"/>
		<path fill="#FFFFFF" d="M126.775,52.069c-0.553,0.246-1.147,0.412-1.771,0.486c0.638-0.382,1.126-0.985,1.355-1.705
			c-0.597,0.354-1.255,0.609-1.958,0.747c-0.561-0.599-1.363-0.974-2.25-0.974c-1.701,0-3.081,1.381-3.081,3.083
			c0,0.242,0.026,0.478,0.079,0.702c-2.562-0.129-4.832-1.354-6.354-3.222c-0.266,0.458-0.418,0.986-0.418,1.552
			c0,1.068,0.545,2.012,1.372,2.566c-0.505-0.016-0.981-0.156-1.397-0.386v0.038c0,1.494,1.062,2.74,2.474,3.022
			c-0.259,0.073-0.53,0.108-0.812,0.108c-0.199,0-0.393-0.018-0.58-0.055c0.393,1.225,1.529,2.117,2.879,2.141
			c-1.055,0.827-2.385,1.32-3.828,1.32c-0.249,0-0.496-0.014-0.735-0.043c1.364,0.874,2.983,1.385,4.725,1.385
			c5.671,0,8.771-4.697,8.771-8.771c0-0.135-0.003-0.268-0.009-0.398C125.84,53.231,126.363,52.688,126.775,52.069"/>
	</g>
	<g>
		<path fill="#E95655" d="M44.75,176.01c8.284,0,14.999-6.715,14.999-15.001c0-8.284-6.715-15.001-14.999-15.001
			c-8.283,0-14.999,6.717-14.999,15.001C29.751,169.295,36.467,176.01,44.75,176.01"/>
		<path fill="#FFFFFF" d="M44.75,153.469c-4.141,0-7.499,3.357-7.499,7.5c0,3.071,1.847,5.711,4.491,6.87
			c-0.023-0.522-0.005-1.152,0.128-1.722c0.146-0.609,0.965-4.088,0.965-4.088s-0.239-0.479-0.239-1.187
			c0-1.112,0.645-1.941,1.447-1.941c0.682,0,1.012,0.513,1.012,1.126c0,0.686-0.438,1.711-0.662,2.662
			c-0.188,0.795,0.398,1.443,1.183,1.443c1.421,0,2.378-1.824,2.378-3.986c0-1.645-1.106-2.875-3.12-2.875
			c-2.275,0-3.692,1.697-3.692,3.592c0,0.654,0.192,1.115,0.494,1.471c0.14,0.165,0.158,0.23,0.108,0.419
			c-0.036,0.138-0.118,0.47-0.153,0.603c-0.05,0.189-0.203,0.258-0.375,0.188c-1.048-0.429-1.535-1.576-1.535-2.865
			c0-2.131,1.795-4.688,5.357-4.688c2.865,0,4.75,2.074,4.75,4.298c0,2.942-1.637,5.14-4.049,5.14c-0.809,0-1.57-0.437-1.83-0.934
			c0,0-0.436,1.728-0.528,2.062c-0.159,0.578-0.47,1.155-0.755,1.606c0.675,0.199,1.387,0.309,2.125,0.309
			c4.143,0,7.5-3.359,7.5-7.502C52.251,156.827,48.893,153.469,44.75,153.469"/>
	</g>
	<g>
		<path fill="#547BBC" d="M44.76,86.003c8.283,0,14.999-6.715,14.999-15.002c0-8.284-6.716-15.001-14.999-15.001
			s-14.999,6.717-14.999,15.001C29.761,79.287,36.477,86.003,44.76,86.003"/>
		<path fill="#FFFFFF" d="M41.141,68.462h1.552v-1.508c0-0.665,0.017-1.69,0.499-2.326c0.508-0.671,1.207-1.128,2.407-1.128
			c1.956,0,2.78,0.279,2.78,0.279l-0.388,2.298c0,0-0.646-0.188-1.249-0.188c-0.604,0-1.144,0.217-1.144,0.819v1.753h2.473
			l-0.173,2.243h-2.3v7.796h-2.906v-7.796H41.14v-2.242H41.141z"/>
	</g>
	<g>
		<path fill="#E9644A" d="M44.75,446.033c8.283,0,14.999-6.717,14.999-15.002c0-8.284-6.716-15.001-14.999-15.001
			c-8.285,0-14.999,6.717-14.999,15.001C29.751,439.316,36.465,446.033,44.75,446.033"/>
		<path fill="#FFFFFF" d="M47.662,431.038l-4.91,2.886v-5.769L47.662,431.038z M52.25,433.714v-5.364c0,0,0-2.584-2.586-2.584h-9.83
			c0,0-2.583,0-2.583,2.584v5.364c0,0,0,2.584,2.583,2.584h9.83C49.664,436.298,52.25,436.298,52.25,433.714"/>
	</g>
	<g>
		<path fill="#4B4B4B" d="M44.75,356.024c8.285,0,14.999-6.717,14.999-15.002c0-8.284-6.714-15.001-14.999-15.001
			c-8.283,0-14.999,6.717-14.999,15.001C29.751,349.308,36.467,356.024,44.75,356.024"/>
		<path fill="#FFFFFF" d="M42.27,347.742c-1.784,0-3.071-1.129-3.071-2.484c0-1.33,1.597-2.436,3.38-2.417
			c0.417,0.005,0.805,0.072,1.156,0.187c0.968,0.673,1.662,1.052,1.857,1.82c0.037,0.155,0.057,0.315,0.057,0.479
			C45.648,346.682,44.776,347.742,42.27,347.742 M42.738,339.79c-1.197-0.036-2.336-1.339-2.541-2.91
			c-0.207-1.572,0.596-2.774,1.792-2.741c1.196,0.036,2.335,1.298,2.54,2.87C44.736,338.581,43.934,339.826,42.738,339.79
			 M45.219,342.117c-0.42-0.297-1.222-1.021-1.222-1.443c0-0.5,0.142-0.744,0.892-1.33c0.768-0.602,1.312-1.445,1.312-2.426
			c0-1.17-0.521-2.309-1.498-2.685h1.473l1.039-0.75h-4.646c-2.082,0-4.042,1.577-4.042,3.405c0,1.867,1.42,3.375,3.539,3.375
			c0.146,0,0.29-0.004,0.43-0.012c-0.137,0.262-0.236,0.56-0.236,0.865c0,0.519,0.279,0.941,0.633,1.284
			c-0.268,0-0.524,0.009-0.805,0.009c-2.58,0-4.564,1.642-4.564,3.347c0,1.679,2.176,2.728,4.756,2.728
			c2.939,0,4.563-1.67,4.563-3.348C46.843,343.791,46.447,342.985,45.219,342.117 M51.978,339.928h-1.81v-1.809h-1.454v1.809h-1.809
			v1.455h1.809v1.81h1.454v-1.81h1.81C51.978,341.383,51.978,339.928,51.978,339.928z"/>
	</g>
	<g>
		<path fill="#7F807E" d="M44.75,716.057c8.284,0,14.999-6.716,14.999-15.001c0-8.284-6.715-15.001-14.999-15.001
			c-8.283,0-14.999,6.717-14.999,15.001C29.751,709.341,36.467,716.057,44.75,716.057"/>
		<path fill="#FFFFFF" d="M51.193,704.562c-0.352,0.78-0.521,1.128-0.975,1.819c-0.631,0.963-1.523,2.163-2.629,2.172
			c-0.982,0.011-1.234-0.639-2.567-0.63c-1.333,0.007-1.61,0.642-2.593,0.634c-1.105-0.011-1.95-1.094-2.583-2.058
			c-1.769-2.694-1.955-5.856-0.864-7.538c0.776-1.193,2-1.894,3.15-1.894c1.17,0,1.907,0.643,2.875,0.643
			c0.94,0,1.513-0.643,2.867-0.643c1.024,0,2.109,0.557,2.883,1.521C48.225,699.978,48.635,703.593,51.193,704.562L51.193,704.562z
			 M46.848,695.991c0.492-0.632,0.865-1.525,0.73-2.436c-0.805,0.055-1.744,0.566-2.293,1.232c-0.5,0.605-0.91,1.505-0.75,2.376
			C45.414,697.191,46.322,696.668,46.848,695.991L46.848,695.991z"/>
	</g>
	<g>
		<path fill="#5E8FAE" d="M44.75,626.05c8.284,0,15-6.717,15-15.001c0-8.285-6.716-15.002-15-15.002c-8.283,0-15,6.717-15,15.002
			C29.75,619.333,36.467,626.05,44.75,626.05"/>
		<path fill="#FFFFFF" d="M44.913,603.548v3.791h3.559v2.355h-3.559v3.846c0,0.871,0.046,1.429,0.138,1.676
			c0.092,0.248,0.263,0.444,0.515,0.592c0.331,0.198,0.71,0.298,1.138,0.298c0.76,0,1.514-0.248,2.266-0.742v2.369
			c-0.641,0.299-1.221,0.511-1.74,0.634c-0.52,0.122-1.082,0.183-1.686,0.183c-0.686,0-1.293-0.087-1.818-0.259
			c-0.526-0.176-0.977-0.42-1.348-0.742c-0.372-0.32-0.631-0.661-0.774-1.023c-0.144-0.36-0.216-0.883-0.216-1.569v-5.261H39.73
			v-2.123c0.591-0.192,1.094-0.467,1.516-0.823c0.419-0.357,0.758-0.787,1.01-1.288c0.254-0.5,0.43-1.14,0.525-1.912h2.132V603.548z
			"/>
	</g>
	<g>
		<path fill="#40BFEF" d="M44.75,806.064c8.284,0,14.999-6.717,14.999-15c0-8.285-6.715-15.002-14.999-15.002
			c-8.283,0-14.999,6.717-14.999,15.002C29.751,799.348,36.467,806.064,44.75,806.064"/>
		<path fill="#FFFFFF" d="M44.133,787.3c0.282,0.395,0.425,0.866,0.425,1.415c0,0.565-0.143,1.021-0.429,1.365
			c-0.16,0.193-0.396,0.369-0.707,0.527c0.473,0.174,0.828,0.446,1.07,0.817c0.241,0.374,0.361,0.827,0.361,1.36
			c0,0.549-0.137,1.041-0.413,1.478c-0.175,0.288-0.394,0.532-0.656,0.729c-0.296,0.228-0.644,0.383-1.046,0.468
			c-0.403,0.082-0.84,0.124-1.311,0.124H37.25v-9.271h4.479C42.861,786.328,43.66,786.656,44.133,787.3z M39.1,787.922v2.046h2.254
			c0.4,0,0.729-0.077,0.98-0.23c0.25-0.153,0.376-0.426,0.376-0.813c0-0.434-0.167-0.718-0.497-0.857
			c-0.287-0.097-0.652-0.145-1.096-0.145H39.1V787.922z M39.1,791.501v2.472h2.25c0.402,0,0.715-0.055,0.938-0.163
			c0.407-0.202,0.61-0.587,0.61-1.155c0-0.484-0.196-0.815-0.59-0.996c-0.221-0.101-0.53-0.154-0.928-0.157L39.1,791.501
			L39.1,791.501z M50.457,788.867c0.479,0.213,0.873,0.551,1.184,1.013c0.283,0.409,0.465,0.881,0.549,1.418
			c0.048,0.315,0.066,0.769,0.059,1.361h-4.993c0.029,0.687,0.266,1.169,0.717,1.444c0.274,0.173,0.604,0.259,0.989,0.259
			c0.406,0,0.738-0.104,0.993-0.313c0.141-0.113,0.264-0.271,0.37-0.473h1.83c-0.049,0.407-0.271,0.82-0.664,1.241
			c-0.614,0.665-1.475,0.999-2.578,0.999c-0.914,0-1.719-0.28-2.414-0.844c-0.699-0.562-1.047-1.479-1.047-2.744
			c0-1.188,0.314-2.099,0.943-2.732c0.631-0.635,1.446-0.951,2.451-0.951C49.442,788.545,49.979,788.651,50.457,788.867z
			 M47.776,790.414c-0.253,0.262-0.412,0.617-0.478,1.061h3.089c-0.032-0.475-0.193-0.834-0.478-1.083
			c-0.287-0.244-0.641-0.368-1.064-0.368C48.387,790.023,48.029,790.154,47.776,790.414z M50.807,786.744h-3.971v1.153h3.971
			V786.744z"/>
	</g>
	<g>
		<path fill="#8CCFDD" d="M44.75,896.072c8.284,0,15-6.717,15-15.001s-6.716-15.001-15-15.001c-8.283,0-15,6.717-15,15.001
			S36.467,896.072,44.75,896.072"/>
		<path fill="#FFFFFF" d="M52.241,877.939c-0.065,1.459-1.087,3.454-3.057,5.982c-2.039,2.648-3.767,3.97-5.179,3.97
			c-0.873,0-1.612-0.805-2.217-2.418c-0.405-1.48-0.808-2.962-1.211-4.438c-0.45-1.616-0.932-2.422-1.446-2.422
			c-0.112,0-0.503,0.235-1.177,0.706l-0.704-0.909c0.738-0.648,1.467-1.3,2.186-1.947c0.984-0.853,1.725-1.301,2.219-1.347
			c1.164-0.112,1.882,0.684,2.152,2.386c0.289,1.84,0.491,2.984,0.604,3.432c0.337,1.523,0.705,2.285,1.109,2.285
			c0.312,0,0.783-0.493,1.411-1.479s0.963-1.736,1.009-2.253c0.09-0.851-0.247-1.274-1.009-1.274c-0.358,0-0.729,0.076-1.109,0.234
			c0.741-2.398,2.152-3.564,4.236-3.497C51.604,874.993,52.332,875.991,52.241,877.939z"/>
	</g>
	<g>
		<path fill="#E9644A" d="M44.752,536.04c8.283,0,14.997-6.717,14.997-15.002c0-8.284-6.714-15.001-14.997-15.001
			c-8.285,0-15.001,6.717-15.001,15.001C29.751,529.323,36.467,536.04,44.752,536.04"/>
		<path fill="#FFFFFF" d="M47.819,515.973v2.858c-0.069,0.083-0.151,0.15-0.233,0.204c-0.092,0.053-0.159,0.082-0.219,0.082
			c-0.069,0-0.123-0.022-0.152-0.06c-0.037-0.045-0.053-0.105-0.053-0.197v-2.888h-0.771v3.145c0,0.228,0.046,0.394,0.135,0.507
			c0.092,0.114,0.229,0.167,0.402,0.167c0.151,0,0.295-0.037,0.453-0.113c0.15-0.083,0.295-0.196,0.438-0.355v0.416h0.772v-3.766
			L47.819,515.973L47.819,515.973z M45.469,516.155c-0.205-0.189-0.469-0.281-0.785-0.281c-0.35,0-0.629,0.092-0.841,0.266
			c-0.205,0.174-0.309,0.398-0.309,0.695v1.95c0,0.325,0.104,0.575,0.302,0.765c0.203,0.188,0.475,0.286,0.808,0.286
			c0.348,0,0.628-0.09,0.825-0.279c0.203-0.183,0.301-0.431,0.301-0.756v-1.943C45.77,516.569,45.664,516.336,45.469,516.155z
			 M44.984,518.86c0,0.099-0.031,0.175-0.091,0.234c-0.061,0.061-0.144,0.092-0.25,0.092c-0.099,0-0.181-0.031-0.234-0.092
			c-0.052-0.053-0.083-0.136-0.083-0.234v-2.057c0-0.083,0.031-0.149,0.092-0.196c0.053-0.054,0.137-0.076,0.226-0.076
			c0.099,0,0.183,0.022,0.25,0.076c0.06,0.047,0.091,0.113,0.091,0.196L44.984,518.86L44.984,518.86z M42.596,514.634l-0.535,2.043
			h-0.062l-0.561-2.043h-0.875l1.036,3.085v2.02h0.868v-2.117l1.006-2.987L42.596,514.634L42.596,514.634z M48.605,523.624
			c0.047,0.061,0.068,0.167,0.068,0.304v0.346h-0.598v-0.346c0-0.137,0.016-0.243,0.068-0.304c0.045-0.061,0.121-0.099,0.234-0.099
			C48.484,523.525,48.561,523.563,48.605,523.624z M46.231,523.608c-0.044-0.061-0.12-0.09-0.212-0.09
			c-0.045,0-0.098,0.007-0.143,0.029c-0.047,0.022-0.099,0.061-0.144,0.107v2.131c0.052,0.054,0.112,0.1,0.165,0.122
			c0.055,0.022,0.105,0.038,0.159,0.038c0.091,0,0.151-0.022,0.189-0.076c0.038-0.045,0.061-0.122,0.061-0.234v-1.769
			C46.308,523.753,46.285,523.671,46.231,523.608z M46.231,523.608c-0.044-0.061-0.12-0.09-0.212-0.09
			c-0.045,0-0.098,0.007-0.143,0.029c-0.047,0.022-0.099,0.061-0.144,0.107v2.131c0.052,0.054,0.112,0.1,0.165,0.122
			c0.055,0.022,0.105,0.038,0.159,0.038c0.091,0,0.151-0.022,0.189-0.076c0.038-0.045,0.061-0.122,0.061-0.234v-1.769
			C46.308,523.753,46.285,523.671,46.231,523.608z M50.109,520.972H39.391c-1.172,0-2.14,0.968-2.14,2.146v2.187
			c0,1.178,0.968,2.139,2.14,2.139H50.11c1.172,0,2.141-0.961,2.141-2.139v-2.187C52.25,521.939,51.281,520.972,50.109,520.972z
			 M42.279,522.476h-0.801v3.962h-0.772v-3.962h-0.794v-0.672h2.367C42.279,521.804,42.279,522.476,42.279,522.476z M44.529,526.438
			h-0.687v-0.378c-0.12,0.144-0.257,0.249-0.394,0.317c-0.136,0.076-0.265,0.114-0.395,0.114c-0.156,0-0.278-0.054-0.361-0.161
			c-0.076-0.098-0.113-0.248-0.113-0.453v-2.864h0.68v2.63c0,0.076,0.016,0.137,0.047,0.175c0.022,0.037,0.074,0.053,0.137,0.053
			c0.051,0,0.113-0.022,0.189-0.075c0.082-0.047,0.149-0.107,0.21-0.183v-2.6h0.687V526.438z M47.01,525.726
			c0,0.243-0.053,0.431-0.158,0.561c-0.105,0.129-0.266,0.196-0.469,0.196c-0.136,0-0.25-0.022-0.356-0.074
			c-0.104-0.056-0.203-0.129-0.293-0.236v0.266h-0.688v-4.634h0.688v1.488c0.09-0.098,0.188-0.181,0.293-0.234
			c0.106-0.053,0.212-0.082,0.319-0.082c0.211,0,0.377,0.075,0.49,0.219c0.113,0.143,0.174,0.354,0.174,0.635V525.726z
			 M49.385,524.812h-1.309v0.643c0,0.182,0.016,0.303,0.061,0.371c0.045,0.074,0.129,0.105,0.234,0.105
			c0.113,0,0.189-0.031,0.234-0.091c0.047-0.054,0.068-0.19,0.068-0.386v-0.158h0.711v0.174c0,0.355-0.091,0.619-0.265,0.794
			c-0.167,0.181-0.424,0.265-0.763,0.265c-0.312,0-0.554-0.091-0.727-0.28c-0.175-0.188-0.264-0.446-0.264-0.778v-1.535
			c0-0.295,0.098-0.538,0.293-0.725c0.188-0.183,0.438-0.281,0.748-0.281c0.311,0,0.553,0.091,0.719,0.266
			c0.167,0.173,0.258,0.414,0.258,0.74v0.876H49.385z M46.02,523.519c-0.045,0-0.098,0.007-0.143,0.029
			c-0.047,0.022-0.099,0.061-0.144,0.107v2.131c0.052,0.054,0.112,0.1,0.165,0.122c0.055,0.022,0.105,0.038,0.159,0.038
			c0.091,0,0.151-0.022,0.189-0.076c0.038-0.045,0.061-0.122,0.061-0.234v-1.769c0-0.114-0.022-0.196-0.076-0.259
			C46.188,523.548,46.111,523.519,46.02,523.519z M46.231,523.608c-0.044-0.061-0.12-0.09-0.212-0.09
			c-0.045,0-0.098,0.007-0.143,0.029c-0.047,0.022-0.099,0.061-0.144,0.107v2.131c0.052,0.054,0.112,0.1,0.165,0.122
			c0.055,0.022,0.105,0.038,0.159,0.038c0.091,0,0.151-0.022,0.189-0.076c0.038-0.045,0.061-0.122,0.061-0.234v-1.769
			C46.308,523.753,46.285,523.671,46.231,523.608z M46.231,523.608c-0.044-0.061-0.12-0.09-0.212-0.09
			c-0.045,0-0.098,0.007-0.143,0.029c-0.047,0.022-0.099,0.061-0.144,0.107v2.131c0.052,0.054,0.112,0.1,0.165,0.122
			c0.055,0.022,0.105,0.038,0.159,0.038c0.091,0,0.151-0.022,0.189-0.076c0.038-0.045,0.061-0.122,0.061-0.234v-1.769
			C46.308,523.753,46.285,523.671,46.231,523.608z"/>
	</g>
	<g>
		<path fill="#FFFFFF" d="M44.752,986.08c8.281,0,14.998-6.717,14.998-15c0-8.285-6.717-15.002-14.998-15.002
			c-8.285,0-15.002,6.717-15.002,15.002C29.75,979.363,36.467,986.08,44.752,986.08"/>
		<g>
			<path fill="#E1408F" d="M52.25,971.08c0,1.823-1.479,3.303-3.303,3.303c-1.828,0-3.306-1.479-3.306-3.303
				c0-1.825,1.478-3.305,3.306-3.305C50.771,967.775,52.25,969.255,52.25,971.08z"/>
			<path fill="#396DB3" d="M43.858,971.08c0,1.823-1.478,3.303-3.306,3.303c-1.824,0-3.302-1.479-3.302-3.303
				c0-1.825,1.478-3.305,3.302-3.305C42.381,967.775,43.858,969.255,43.858,971.08z"/>
		</g>
	</g>
	<g>
		<path fill="#F29100" d="M44.75,1076.088c8.285,0,14.999-6.717,14.999-15.002c0-8.283-6.714-15-14.999-15s-14.999,6.717-14.999,15
			C29.751,1069.371,36.465,1076.088,44.75,1076.088"/>
		<path id="RSS" fill="#FFFFFF" d="M40.65,1065.182c0.363,0.364,0.584,0.855,0.586,1.404c-0.002,0.548-0.223,1.041-0.584,1.4
			l-0.002,0.002c-0.361,0.359-0.857,0.582-1.408,0.582s-1.044-0.223-1.408-0.584c-0.359-0.359-0.583-0.853-0.583-1.4
			c0-0.549,0.224-1.042,0.583-1.404l0,0c0.364-0.359,0.857-0.584,1.408-0.584S40.289,1064.822,40.65,1065.182z M40.65,1065.182
			L40.65,1065.182L40.65,1065.182L40.65,1065.182z M37.834,1067.988v-0.002l0,0V1067.988z M37.252,1058.688v2.864
			c1.869,0,3.641,0.735,4.961,2.061c1.324,1.323,2.055,3.094,2.059,4.97l0,0v0.005h2.878c-0.004-2.729-1.113-5.2-2.906-6.994
			C42.452,1059.798,39.98,1058.689,37.252,1058.688z M37.258,1053.586v2.863c6.684,0.005,12.115,5.447,12.123,12.138h2.869
			c-0.002-4.134-1.684-7.881-4.398-10.599C45.137,1055.27,41.392,1053.588,37.258,1053.586z"/>
	</g>
	<g>
		<path fill="#1384C7" d="M2.417,120.005c8.285,0,14.999-6.717,14.999-15.001c0-8.285-6.714-15.002-14.999-15.002
			c-8.283,0-14.999,6.717-14.999,15.002C-12.582,113.288-5.866,120.005,2.417,120.005"/>
		<path fill="#FFFFFF" d="M40.553,107.277h-2.924V97.92h2.924V107.277z M39.017,96.75h-0.021c-1.059,0-1.744-0.716-1.744-1.622
			c0-0.925,0.706-1.625,1.786-1.625c1.078,0,1.741,0.699,1.762,1.622C40.799,96.031,40.115,96.75,39.017,96.75z M52.25,107.277
			h-3.316v-4.842c0-1.268-0.518-2.133-1.658-2.133c-0.871,0-1.356,0.584-1.583,1.146c-0.085,0.201-0.071,0.482-0.071,0.766v5.062
			h-3.283c0,0,0.043-8.577,0-9.357h3.283v1.469c0.194-0.643,1.244-1.559,2.918-1.559c2.078,0,3.711,1.347,3.711,4.244L52.25,107.277
			L52.25,107.277z"/>
	</g>
	<g>
		<path fill="#FAC766" d="M44.75,206.014c8.284,0,14.999-6.717,14.999-15.002S53.034,176.01,44.75,176.01
			c-8.285,0-14.999,6.717-14.999,15.002S36.465,206.014,44.75,206.014"/>
		<path fill="#FFFFFF" d="M52.177,189.739l-0.124-0.259l-0.211-0.166c-0.275-0.217-1.668,0.016-2.047-0.326
			c-0.265-0.245-0.303-0.687-0.384-1.282c-0.149-1.16-0.245-1.219-0.427-1.609c-0.656-1.394-2.435-2.442-3.657-2.586h-3.313
			c-2.604,0-4.735,2.135-4.735,4.741v5.53c0,2.6,2.131,4.73,4.735,4.73h5.442c2.604,0,4.721-2.131,4.736-4.73l0.03-3.831
			L52.177,189.739z M42.074,187.384h2.625c0.502,0,0.906,0.406,0.906,0.904c0,0.494-0.404,0.906-0.906,0.906h-2.625
			c-0.502,0-0.908-0.412-0.908-0.906C41.166,187.79,41.572,187.384,42.074,187.384z M47.41,194.612h-5.336
			c-0.502,0-0.908-0.41-0.908-0.902c0-0.496,0.406-0.901,0.908-0.901h5.336c0.497,0,0.902,0.405,0.902,0.901
			C48.312,194.202,47.907,194.612,47.41,194.612z"/>
	</g>
	<g>
		<path fill="#D87DA5" d="M44.75,296.02c8.284,0,14.999-6.717,14.999-15.002c0-8.284-6.715-15.001-14.999-15.001
			c-8.285,0-14.999,6.717-14.999,15.001C29.751,289.303,36.465,296.02,44.75,296.02"/>
		<path fill="#FFFFFF" d="M52.097,279.509c-0.099-0.482-0.247-0.957-0.438-1.41c-0.188-0.445-0.42-0.874-0.689-1.274
			c-0.27-0.397-0.578-0.771-0.916-1.108c-0.339-0.342-0.713-0.648-1.11-0.917c-0.399-0.272-0.829-0.503-1.272-0.692
			c-0.453-0.189-0.929-0.339-1.41-0.436c-0.494-0.102-1.002-0.153-1.51-0.153s-1.016,0.052-1.511,0.153
			c-0.481,0.097-0.956,0.246-1.408,0.436c-0.444,0.189-0.874,0.42-1.274,0.692c-0.397,0.269-0.771,0.575-1.109,0.917
			c-0.34,0.338-0.646,0.711-0.915,1.108c-0.271,0.4-0.505,0.829-0.692,1.274c-0.191,0.453-0.339,0.928-0.438,1.41
			c-0.101,0.493-0.151,1.001-0.151,1.509c0,0.509,0.051,1.019,0.151,1.512c0.099,0.482,0.246,0.955,0.438,1.408
			c0.188,0.445,0.422,0.876,0.692,1.275c0.269,0.398,0.575,0.77,0.915,1.109c0.339,0.339,0.712,0.646,1.109,0.915
			c0.4,0.271,0.83,0.505,1.274,0.692c0.452,0.19,0.927,0.337,1.408,0.436c0.495,0.104,1.003,0.153,1.511,0.153
			s1.016-0.05,1.51-0.153c0.481-0.099,0.957-0.245,1.41-0.436c0.443-0.188,0.873-0.422,1.272-0.692
			c0.397-0.27,0.771-0.576,1.11-0.915c0.338-0.34,0.646-0.711,0.916-1.109c0.27-0.399,0.502-0.83,0.689-1.275
			c0.191-0.453,0.34-0.926,0.438-1.408c0.102-0.493,0.153-1.003,0.153-1.512C52.25,280.51,52.198,280.002,52.097,279.509z
			 M51.152,280.955c-0.093-0.021-2.26-0.488-4.461-0.211c-0.045-0.108-0.09-0.219-0.138-0.331c-0.134-0.313-0.277-0.623-0.425-0.929
			c2.527-1.033,3.555-2.519,3.566-2.536C50.594,278.041,51.137,279.435,51.152,280.955z M48.98,276.212
			c-0.017,0.024-0.929,1.412-3.347,2.318c-1.094-2.013-2.297-3.61-2.394-3.736c0.484-0.117,0.99-0.182,1.51-0.182
			C46.371,274.612,47.852,275.218,48.98,276.212z M43.215,274.799L43.215,274.799c0,0-0.008,0.002-0.02,0.005
			C43.201,274.803,43.209,274.801,43.215,274.799z M42.017,275.225c0.087,0.113,1.271,1.721,2.379,3.691
			c-3.075,0.816-5.745,0.784-5.913,0.782C38.898,277.714,40.23,276.069,42.017,275.225z M38.346,281.018
			c0-0.068,0.002-0.136,0.005-0.201c0.112,0.002,3.278,0.072,6.575-0.913c0.184,0.358,0.359,0.724,0.52,1.089
			c-0.086,0.021-0.168,0.048-0.252,0.075c-3.456,1.118-5.209,4.229-5.209,4.229s0.002,0.002,0.002,0.003
			C38.967,284.163,38.346,282.663,38.346,281.018z M44.75,287.425c-1.551,0-2.972-0.552-4.08-1.47
			c0.084,0.068,0.144,0.112,0.144,0.112s1.228-2.678,5.026-4c0.014-0.006,0.028-0.011,0.042-0.014
			c0.901,2.341,1.274,4.303,1.368,4.863C46.482,287.244,45.637,287.425,44.75,287.425z M48.328,286.331
			c-0.064-0.387-0.406-2.268-1.246-4.576c2.067-0.331,3.859,0.236,3.991,0.281C50.788,283.82,49.768,285.359,48.328,286.331z"/>
	</g>
	<g>
		<path fill="#1D94D2" d="M44.75,386.027c8.284,0,14.999-6.717,14.999-15.001c0-8.285-6.715-15.002-14.999-15.002
			c-8.285,0-14.999,6.717-14.999,15.002S36.465,386.027,44.75,386.027"/>
		<path fill="#FFFFFF" d="M51.819,372.642c0.108-0.496,0.165-1.01,0.165-1.537c0-3.95-3.203-7.153-7.154-7.153
			c-0.416,0-0.824,0.036-1.224,0.104c-0.639-0.403-1.396-0.638-2.206-0.638c-2.292,0-4.149,1.857-4.149,4.15
			c0,0.765,0.208,1.481,0.569,2.098c-0.094,0.466-0.145,0.946-0.145,1.438c0,3.952,3.203,7.156,7.154,7.156
			c0.448,0,0.885-0.041,1.311-0.121c0.584,0.314,1.252,0.493,1.961,0.493c2.291,0,4.148-1.856,4.148-4.149
			C52.25,373.821,52.095,373.196,51.819,372.642z M48.5,374.524c-0.331,0.469-0.82,0.839-1.453,1.103
			c-0.627,0.262-1.381,0.395-2.236,0.395c-1.027,0-1.889-0.182-2.561-0.537c-0.48-0.26-0.877-0.611-1.179-1.046
			c-0.304-0.438-0.458-0.874-0.458-1.294c0-0.262,0.102-0.489,0.299-0.675c0.195-0.185,0.447-0.277,0.746-0.277
			c0.246,0,0.459,0.073,0.631,0.219c0.164,0.14,0.305,0.346,0.42,0.613c0.126,0.29,0.264,0.535,0.41,0.728
			c0.141,0.187,0.343,0.344,0.6,0.464c0.26,0.124,0.609,0.187,1.039,0.187c0.592,0,1.076-0.126,1.441-0.376
			c0.355-0.243,0.529-0.536,0.529-0.892c0-0.283-0.091-0.505-0.276-0.679c-0.194-0.183-0.452-0.324-0.763-0.423
			c-0.326-0.1-0.768-0.21-1.312-0.325c-0.742-0.159-1.373-0.347-1.875-0.561c-0.514-0.218-0.927-0.521-1.229-0.898
			c-0.308-0.386-0.465-0.867-0.465-1.436c0-0.539,0.164-1.028,0.486-1.447c0.32-0.417,0.787-0.742,1.389-0.964
			c0.594-0.219,1.301-0.331,2.1-0.331c0.639,0,1.2,0.074,1.669,0.221c0.472,0.146,0.87,0.344,1.182,0.589
			c0.315,0.244,0.55,0.508,0.696,0.78c0.147,0.276,0.223,0.552,0.223,0.817c0,0.256-0.098,0.486-0.293,0.689
			c-0.195,0.204-0.443,0.307-0.734,0.307c-0.266,0-0.473-0.065-0.616-0.19c-0.134-0.119-0.272-0.304-0.427-0.569
			c-0.178-0.338-0.395-0.605-0.643-0.793c-0.24-0.185-0.642-0.276-1.194-0.276c-0.512,0-0.931,0.102-1.239,0.306
			c-0.299,0.196-0.443,0.42-0.443,0.686c0,0.163,0.046,0.299,0.143,0.416c0.102,0.126,0.245,0.232,0.426,0.324
			c0.189,0.095,0.383,0.171,0.576,0.224c0.198,0.056,0.533,0.137,0.99,0.243c0.579,0.124,1.111,0.264,1.582,0.414
			c0.477,0.153,0.887,0.339,1.223,0.56c0.343,0.222,0.615,0.508,0.807,0.851c0.193,0.343,0.291,0.767,0.291,1.262
			C49,373.517,48.832,374.056,48.5,374.524z"/>
	</g>
	<g>
		<path fill="#8C589F" d="M44.75,476.035c8.284,0,14.999-6.717,14.999-15.002c0-8.284-6.715-15.001-14.999-15.001
			c-8.285,0-14.999,6.717-14.999,15.001C29.751,469.318,36.465,476.035,44.75,476.035"/>
		<g>
			<path fill="#FFFFFF" d="M49.332,458.766c0.084-0.017,0.207-0.044,0.348-0.074h1.081l0.169-0.249
				c0.002-0.001,0.01-0.001,0.013-0.001l0.419-0.605c-0.006,0-0.016-0.002-0.021-0.002l0.044-0.065h-5.862l0.227,0.923h1.6
				l-2.691,2.43c-0.55-0.758-1.838-2.34-2.736-3.648h2.016v-0.701l0.022-0.155c-0.005-0.002-0.017-0.004-0.022-0.004v-0.063h-6.685
				v0.924h1.982c0.769,0.602,3.712,4.277,3.834,4.643c0.048,0.345,0.093,2.37-0.05,2.522c-0.289,0.307-1.609,0.226-1.928,0.248
				l-0.109,0.627c0.581,0.018,2.473-0.046,3.061-0.046c1.158,0,3.189-0.006,3.476,0.017l0.034-0.66
				c-0.293-0.048-1.89-0.005-2.111-0.055c-0.049-0.319-0.102-2.452-0.055-2.672C45.607,461.459,48.965,458.864,49.332,458.766z"/>
			<path fill="#FFFFFF" d="M50.305,463.807l0.899,0.07l1.046-4.041c-0.174-0.005-1.763-0.156-1.969-0.196L50.305,463.807z"/>
			<polygon fill="#FFFFFF" points="50.15,464.455 50.154,465.442 50.609,465.481 51.101,465.518 51.245,464.551 50.727,464.525 			
				"/>
		</g>
	</g>
	<g>
		<path fill="#ADCE74" d="M44.75,566.043c8.284,0,14.999-6.717,14.999-15.001c0-8.285-6.715-15.002-14.999-15.002
			c-8.285,0-14.999,6.717-14.999,15.002C29.751,559.326,36.465,566.043,44.75,566.043"/>
		<g>
			<g>
				<g>
					<g>
						<path id="SVGID_1_" fill="#FFFFFF" d="M42.617,556.152c-0.77-0.511-1.583-0.965-2.757-0.965c-0.713,0-1.561,0.169-2.609,0.591
							l1.388-4.812c0.158-0.063,0.312-0.122,0.463-0.178c0.506-0.178,1.227-0.381,2.018-0.446c0.092-0.007,0.18-0.01,0.27-0.01
							c0.79,0,1.51,0.275,2.026,0.541c0.223,0.118,0.431,0.247,0.64,0.376C43.87,551.88,42.902,555.187,42.617,556.152"/>
					</g>
				</g>
			</g>
			<g>
				<g>
					<g>
						<path id="SVGID_3_" fill="#FFFFFF" d="M46.334,557.662c-1.216,0-2.836-0.998-2.834-0.998l1.384-4.805
							c0.421,0.336,1.397,0.976,3.001,0.976c0.738,0,1.609-0.137,2.621-0.5l-1.334,4.663
							C48.021,557.474,47.103,557.662,46.334,557.662"/>
					</g>
				</g>
			</g>
			<g>
				<g>
					<g>
						<path id="SVGID_5_" fill="#FFFFFF" d="M45.727,545.289v0.004c-0.286,0.975-1.129,3.868-1.413,4.832 M44.313,550.125
							c-0.742-0.493-1.54-0.943-2.665-0.953c-0.012,0-0.023,0-0.038,0c-0.726,0-1.589,0.191-2.653,0.625l1.367-4.801
							c1.037-0.424,1.879-0.595,2.583-0.608c0.005,0,0.011,0,0.016,0c0.413,0,0.787,0.05,1.118,0.128
							c0.691,0.177,1.686,0.773,1.686,0.773"/>
					</g>
				</g>
			</g>
			<g>
				<g>
					<g>
						<path id="SVGID_7_" fill="#FFFFFF" d="M48.198,551.709c-1.209,0-2.213-0.418-2.985-0.933c-0.004-0.004-0.01-0.007-0.014-0.011
							l1.402-4.854c0.443,0.347,1.447,0.992,2.967,0.992c0.765,0,1.66-0.164,2.682-0.609l-1.383,4.766
							c-0.004,0-0.008,0.002-0.01,0.002c0,0.002,0,0.005,0,0.007C49.887,551.526,48.998,551.709,48.198,551.709"/>
					</g>
				</g>
			</g>
		</g>
	</g>
	<g>
		<path fill="#22B7EB" d="M44.75,656.052c8.284,0,14.999-6.717,14.999-15.002c0-8.284-6.715-15-14.999-15
			c-8.285,0-14.999,6.716-14.999,15C29.751,649.335,36.465,656.052,44.75,656.052"/>
		<g>
			<path fill="#FFFFFF" d="M43.418,640.794l1.271-2.213c0.095-0.166,0.037-0.378-0.128-0.475l-0.903-0.517
				c-0.165-0.097-0.379-0.04-0.474,0.126l-1.385,2.413l0,0l-1.525,2.658l0,0l-1.275,2.219c-0.095,0.166-0.037,0.378,0.129,0.473
				l0.902,0.52c0.166,0.095,0.379,0.038,0.475-0.128l1.771-3.083l0,0L43.418,640.794z"/>
			<path fill="#FFFFFF" d="M51.936,640.129h-3.049c0.358,0.672,0.691,1.306,0.926,1.754c0.16,0.309,0.289,0.553,0.334,0.636
				c0.049,0.086,0.082,0.178,0.105,0.269h1.684c0.174,0,0.314-0.141,0.314-0.313v-2.031
				C52.25,640.269,52.109,640.129,51.936,640.129z"/>
			<path fill="#FFFFFF" d="M44.523,640.129l-1.525,2.658h4.14c-0.301-0.595-0.698-1.442-1.233-2.658H44.523z"/>
			<path fill="#FFFFFF" d="M41.074,640.129h-3.51c-0.174,0-0.313,0.14-0.313,0.313v2.031c0,0.173,0.14,0.313,0.313,0.313h1.986
				L41.074,640.129z"/>
			<path fill="#FFFFFF" d="M39.734,646.396l-0.903-0.52c-0.165-0.096-0.319-0.017-0.341,0.171l-0.154,1.361
				c-0.023,0.189,0.088,0.257,0.246,0.15l1.168-0.795C39.906,646.658,39.9,646.491,39.734,646.396z"/>
			<path fill="#FFFFFF" d="M49.598,642.82c-0.004-0.009-0.012-0.021-0.019-0.033l0,0c-0.083-0.155-0.294-0.56-0.57-1.084
				c-0.003-0.007-0.007-0.014-0.011-0.021c-0.02-0.041-0.042-0.081-0.063-0.122c-0.017-0.031-0.032-0.061-0.048-0.092
				c-0.014-0.025-0.027-0.052-0.041-0.079c-0.025-0.047-0.051-0.093-0.074-0.14c-0.009-0.016-0.016-0.031-0.024-0.045
				c-0.027-0.053-0.057-0.106-0.085-0.162c-0.008-0.016-0.017-0.03-0.025-0.046c-0.636-1.204-1.435-2.686-1.93-3.464
				c-0.862-1.364-2.014-3.64-2.336-3.479c-0.451,0.224,0.943,3.113,1.406,4.198c0.461,1.083,2.264,5.243,2.625,5.425
				c0.361,0.181,0.502,0.081,0.742-0.021C49.387,643.557,49.818,643.224,49.598,642.82z"/>
			<path fill="#FFFFFF" d="M50.628,644.963l-0.431-0.825c-0.099-0.188-0.326-0.264-0.509-0.171l-0.52,0.27
				c-0.183,0.093-0.239,0.314-0.128,0.494l0.545,0.86c0.112,0.176,0.35,0.234,0.525,0.128l0.37-0.222
				C50.658,645.391,50.725,645.151,50.628,644.963z"/>
			<path fill="#FFFFFF" d="M50.495,646.158c-0.136,0.131-0.458,0.412-0.069,0.96c0.391,0.55,1.258,0.574,1.373,0.937
				C51.799,648.055,52.072,645.27,50.495,646.158z"/>
		</g>
	</g>
	<g>
		<path fill="#FCC233" d="M44.75,746.06c8.284,0,14.999-6.717,14.999-15.001c0-8.285-6.715-15.002-14.999-15.002
			c-8.285,0-14.999,6.717-14.999,15.002C29.751,739.343,36.465,746.06,44.75,746.06"/>
		<g>
			<path fill="#FFFFFF" d="M50.079,735.701c-0.075-0.001-0.151,0.017-0.222,0.05c-0.081,0.032-0.164,0.068-0.241,0.102l-0.114,0.048
				l-0.147,0.059v0.002c-1.61,0.653-3.3,1.036-4.864,1.07c-0.058,0.002-0.115,0.002-0.172,0.002
				c-2.459,0.001-4.467-1.142-6.492-2.266c-0.07-0.036-0.143-0.055-0.214-0.055c-0.091,0-0.185,0.032-0.252,0.096
				c-0.068,0.065-0.108,0.159-0.108,0.252c0,0.124,0.066,0.236,0.158,0.309c1.9,1.65,3.984,3.185,6.785,3.185
				c0.055,0,0.11,0,0.166-0.002c1.782-0.039,3.797-0.643,5.361-1.624l0.01-0.007c0.205-0.122,0.41-0.262,0.603-0.415
				c0.12-0.09,0.202-0.229,0.202-0.374C50.532,735.875,50.314,735.701,50.079,735.701z"/>
			<path fill="#FFFFFF" d="M52.25,734.79v-0.002c-0.007-0.157-0.039-0.274-0.105-0.374l-0.006-0.009l-0.008-0.01
				c-0.066-0.072-0.131-0.101-0.199-0.131c-0.205-0.078-0.504-0.121-0.864-0.123c-0.259,0-0.544,0.026-0.831,0.088v-0.019
				l-0.289,0.097l-0.005,0.001l-0.163,0.054v0.007c-0.19,0.08-0.365,0.18-0.527,0.295c-0.1,0.076-0.183,0.176-0.188,0.327
				c-0.002,0.083,0.04,0.18,0.109,0.236c0.07,0.057,0.151,0.076,0.223,0.076c0.018,0,0.033-0.002,0.047-0.004l0.014-0.001
				l0.012-0.002c0.141-0.029,0.347-0.051,0.586-0.085c0.207-0.022,0.426-0.039,0.615-0.039c0.135,0,0.256,0.009,0.338,0.027
				c0.041,0.009,0.072,0.019,0.09,0.027c0.006,0.002,0.01,0.005,0.012,0.007c0.004,0.012,0.01,0.041,0.008,0.083
				c0.002,0.158-0.064,0.452-0.156,0.74c-0.091,0.288-0.2,0.575-0.273,0.767c-0.017,0.045-0.027,0.093-0.027,0.146
				c-0.002,0.078,0.029,0.171,0.096,0.232c0.066,0.062,0.15,0.087,0.221,0.087h0.004c0.105-0.002,0.195-0.044,0.273-0.105
				c0.732-0.658,0.987-1.709,0.998-2.3L52.25,734.79z"/>
			<path fill="#FFFFFF" d="M45.555,727.732c-0.431,0.032-0.928,0.065-1.424,0.131c-0.762,0.1-1.522,0.23-2.151,0.53
				c-1.225,0.495-2.052,1.556-2.052,3.11c0,1.954,1.258,2.946,2.847,2.946c0.528,0,0.96-0.067,1.356-0.165
				c0.63-0.198,1.158-0.563,1.787-1.225c0.365,0.495,0.465,0.729,1.092,1.257c0.166,0.065,0.332,0.065,0.463-0.032
				c0.398-0.331,1.095-0.928,1.457-1.258c0.166-0.132,0.133-0.332,0.033-0.496c-0.363-0.463-0.729-0.861-0.729-1.755v-2.979
				c0-1.26,0.1-2.417-0.826-3.277c-0.762-0.695-1.953-0.961-2.88-0.961h-0.397c-1.688,0.099-3.475,0.826-3.873,2.913
				c-0.066,0.265,0.133,0.363,0.266,0.396l1.854,0.233c0.199-0.033,0.298-0.2,0.33-0.364c0.166-0.728,0.762-1.092,1.424-1.159h0.133
				c0.396,0,0.828,0.166,1.059,0.498c0.265,0.396,0.232,0.927,0.232,1.391L45.555,727.732L45.555,727.732z M45.19,731.67
				c-0.231,0.462-0.63,0.76-1.06,0.861c-0.066,0-0.165,0.033-0.266,0.033c-0.728,0-1.158-0.563-1.158-1.391
				c0-1.06,0.629-1.556,1.424-1.788c0.43-0.101,0.927-0.133,1.424-0.133v0.397C45.555,730.412,45.587,731.007,45.19,731.67z"/>
		</g>
	</g>
	<g>
		<path fill="#D5DF80" d="M44.75,836.067c8.284,0,14.999-6.717,14.999-15.002c0-8.284-6.715-15.001-14.999-15.001
			c-8.285,0-14.999,6.717-14.999,15.001C29.751,829.351,36.465,836.067,44.75,836.067"/>
		<g>
			<path fill="#FFFFFF" d="M46.99,814.871l0.163-0.244l0.162-0.243l0.36-0.542c0.045-0.067,0.027-0.157-0.04-0.202
				c-0.065-0.045-0.156-0.025-0.2,0.042l-0.389,0.581l-0.164,0.245l-0.164,0.248c-0.525-0.203-1.109-0.319-1.728-0.319
				c-0.616,0-1.202,0.116-1.727,0.319l-0.165-0.248l-0.163-0.245l-0.389-0.581c-0.044-0.067-0.134-0.087-0.201-0.042
				c-0.066,0.045-0.085,0.135-0.04,0.202l0.361,0.542l0.162,0.243l0.164,0.244c-1.232,0.574-2.066,1.66-2.066,2.906h8.127
				C49.055,816.531,48.222,815.445,46.99,814.871z M43.25,816.616c-0.241,0-0.436-0.196-0.436-0.436
				c0-0.241,0.194-0.436,0.436-0.436c0.24,0,0.436,0.194,0.436,0.436C43.686,816.42,43.49,816.616,43.25,816.616z M46.732,816.616
				c-0.24,0-0.435-0.196-0.435-0.436c0-0.241,0.194-0.436,0.435-0.436c0.242,0,0.437,0.194,0.437,0.436
				C47.169,816.42,46.975,816.616,46.732,816.616z"/>
			<path fill="#FFFFFF" d="M40.99,818.358h-0.062v0.723v0.592v5.073c0,0.507,0.412,0.919,0.92,0.919h0.662
				c-0.021,0.076-0.034,0.157-0.034,0.241v0.049v0.289v1.501c0,0.48,0.39,0.871,0.87,0.871c0.481,0,0.872-0.391,0.872-0.871v-1.501
				v-0.289v-0.049c0-0.084-0.013-0.165-0.035-0.241H45.8c-0.022,0.076-0.034,0.157-0.034,0.241v0.049v0.289v1.501
				c0,0.48,0.391,0.871,0.871,0.871s0.871-0.391,0.871-0.871v-1.501v-0.289v-0.049c0-0.084-0.014-0.165-0.035-0.241h0.664
				c0.508,0,0.918-0.412,0.918-0.919v-5.073v-0.592v-0.723h-0.062H40.99z"/>
			<path fill="#FFFFFF" d="M39.477,818.358c-0.481,0-0.872,0.39-0.872,0.869v3.728c0,0.479,0.391,0.871,0.872,0.871
				c0.48,0,0.87-0.392,0.87-0.871v-3.728C40.347,818.748,39.957,818.358,39.477,818.358z"/>
			<path fill="#FFFFFF" d="M50.508,818.358c-0.482,0-0.871,0.39-0.871,0.869v3.728c0,0.479,0.389,0.871,0.871,0.871
				c0.48,0,0.87-0.392,0.87-0.871v-3.728C51.378,818.748,50.988,818.358,50.508,818.358z"/>
		</g>
	</g>
	<g>
		<path fill="#696969" d="M45,30.002c8.284,0,14.999-6.717,14.999-15.001c0-8.285-6.715-15.002-14.999-15.002
			c-8.285,0-14.999,6.717-14.999,15.002C30.001,23.284,36.715,30.002,45,30.002"/>
		<path fill="#FFFFFF" d="M49.603,7.499h-9.201c-1.599,0-2.899,1.301-2.899,2.899v3.062v6.143c0,1.598,1.301,2.896,2.899,2.896
			h9.201c1.599,0,2.899-1.299,2.899-2.896V13.46v-3.062C52.502,8.801,51.201,7.499,49.603,7.499z M50.434,9.229l0.332-0.002v0.331
			v2.212l-2.534,0.009l-0.009-2.543L50.434,9.229z M42.861,13.461c0.48-0.665,1.26-1.1,2.141-1.1s1.66,0.435,2.141,1.1
			c0.312,0.435,0.5,0.965,0.5,1.539c0,1.455-1.186,2.641-2.641,2.641s-2.64-1.186-2.64-2.641
			C42.362,14.426,42.549,13.896,42.861,13.461z M51.04,19.604c0,0.792-0.645,1.437-1.438,1.437h-9.201
			c-0.793,0-1.438-0.645-1.438-1.437v-6.143h2.239c-0.193,0.476-0.303,0.994-0.303,1.539c0,2.262,1.84,4.104,4.102,4.104
			s4.102-1.842,4.102-4.104c0-0.545-0.109-1.063-0.303-1.539h2.239v6.143H51.04z"/>
	</g>
	<g>
		<path fill="#4D75B8" d="M44.75,1016.083c8.284,0,14.999-6.717,14.999-15.002c0-8.284-6.715-15.001-14.999-15.001
			c-8.285,0-14.999,6.717-14.999,15.001C29.751,1009.366,36.465,1016.083,44.75,1016.083"/>
		<polygon fill="#FFFFFF" points="52.252,1002.886 37.252,1002.886 37.252,999.279 38.922,999.279 38.922,1001.214 50.58,1001.214 
			50.58,999.279 52.252,999.279 		"/>
	</g>
	<g>
		<path fill="#859563" d="M44.75,1106.09c8.285,0,14.999-6.717,14.999-15.002c0-8.284-6.714-15.001-14.999-15.001
			s-14.999,6.717-14.999,15.001C29.751,1099.373,36.465,1106.09,44.75,1106.09"/>
		<path fill="#FFFFFF" d="M51.289,1098.106l-6.213-14.312c-0.054-0.126-0.178-0.207-0.315-0.207l0,0
			c-0.138,0-0.262,0.081-0.315,0.207l-6.233,14.312c-0.046,0.106-0.036,0.231,0.028,0.327c0.062,0.097,0.17,0.155,0.287,0.155h5.529
			v-3.04l-1.482-1.027l0.245-0.353l1.237,0.858v-2.438h1.408v1.603l1.289-0.65l0.194,0.383l-1.483,0.748v1.18l2.365-1.191
			l0.194,0.382l-2.56,1.29v2.257h5.509c0.117,0,0.224-0.059,0.287-0.155C51.324,1098.338,51.335,1098.213,51.289,1098.106z"/>
	</g>
	<g>
		<path fill="#8FD2F0" d="M44.75,146.008c8.284,0,14.999-6.717,14.999-15.002c0-8.285-6.715-15.001-14.999-15.001
			c-8.285,0-14.999,6.716-14.999,15.001S36.465,146.008,44.75,146.008"/>
		<g>
			<polygon fill="#FFFFFF" points="37.251,131.797 41.664,134.677 44.75,132.102 40.301,129.355 			"/>
			<polygon fill="#FFFFFF" points="41.664,124.033 37.251,126.912 40.301,129.355 44.75,126.609 			"/>
			<polygon fill="#FFFFFF" points="52.25,126.912 47.838,124.033 44.75,126.609 49.199,129.355 			"/>
			<polygon fill="#FFFFFF" points="44.75,132.102 47.838,134.677 52.25,131.797 49.199,129.355 			"/>
			<polygon fill="#FFFFFF" points="44.76,132.656 41.664,135.223 40.338,134.358 40.338,135.328 44.76,137.979 49.182,135.328 
				49.182,134.358 47.855,135.223 			"/>
		</g>
	</g>
	<g>
		<path fill="#E8476D" d="M44.75,236.016c8.284,0,14.999-6.717,14.999-15.002c0-8.284-6.715-15.001-14.999-15.001
			c-8.285,0-14.999,6.717-14.999,15.001C29.751,229.299,36.465,236.016,44.75,236.016"/>
		<path fill="#FFFFFF" d="M49.816,220.285c-0.131-0.043-0.259-0.082-0.381-0.12c-0.934-0.295-1.498-0.473-1.498-1.197
			c0-0.591,0.455-1.019,1.082-1.019c0.481,0,0.84,0.2,1.16,0.649c0.029,0.042,0.086,0.057,0.132,0.033l0.942-0.482
			c0.025-0.013,0.045-0.034,0.053-0.062c0.008-0.027,0.006-0.057-0.009-0.082c-0.505-0.896-1.232-1.332-2.226-1.332
			c-1.51,0-2.486,0.913-2.486,2.327c0,1.447,0.944,2.031,2.686,2.604c1.01,0.336,1.457,0.516,1.457,1.233
			c0,0.809-0.729,1.389-1.723,1.354c-1.042-0.036-1.357-0.587-1.753-1.491c-0.672-1.53-1.435-3.318-1.442-3.336
			c-0.766-1.769-2.285-2.782-4.168-2.782c-2.487,0-4.512,2.024-4.512,4.514c0,2.487,2.024,4.512,4.512,4.512
			c1.355,0,2.628-0.601,3.488-1.652c0.025-0.029,0.031-0.07,0.016-0.106l-0.568-1.312c-0.017-0.036-0.053-0.062-0.094-0.063
			c-0.041-0.002-0.076,0.022-0.096,0.057c-0.537,1.026-1.589,1.664-2.746,1.664c-1.707,0-3.097-1.391-3.097-3.098
			c0-1.709,1.39-3.098,3.097-3.098c1.242,0,2.381,0.737,2.834,1.839l1.405,3.209l0.163,0.36c0.637,1.481,1.57,2.145,3.033,2.149
			c1.74,0,3.053-1.152,3.053-2.681C52.131,221.34,51.281,220.765,49.816,220.285z"/>
	</g>
	<g>
		<path fill="#F2CA59" d="M44.75,326.021c8.284,0,14.999-6.717,14.999-15.001s-6.715-15-14.999-15
			c-8.285,0-14.999,6.717-14.999,15.001C29.751,319.305,36.465,326.021,44.75,326.021"/>
		<path fill="#FFFFFF" d="M37.975,313.451c0.032,0,0.059-0.024,0.062-0.061l0.168-1.317l-0.167-1.347
			c-0.005-0.035-0.031-0.061-0.063-0.061c-0.031,0-0.057,0.025-0.062,0.061l-0.147,1.347l0.147,1.317
			C37.918,313.427,37.943,313.451,37.975,313.451z M37.479,312.894L37.479,312.894L37.479,312.894L37.479,312.894z M37.42,312.952
			c0.03,0,0.055-0.024,0.06-0.059l0.132-0.82l-0.132-0.833c-0.005-0.034-0.029-0.059-0.06-0.059c-0.031,0-0.055,0.024-0.06,0.059
			l-0.109,0.833l0.109,0.82C37.365,312.928,37.389,312.952,37.42,312.952z M38.639,310.477c-0.004-0.043-0.035-0.074-0.074-0.074
			c-0.04,0-0.072,0.031-0.075,0.074l-0.14,1.599l0.14,1.539c0.003,0.042,0.035,0.072,0.075,0.072c0.039,0,0.07-0.03,0.074-0.072
			l0.16-1.539L38.639,310.477z M39.158,313.749c0.046,0,0.084-0.036,0.088-0.086l0,0l0.15-1.588l-0.15-1.644
			c-0.004-0.05-0.042-0.086-0.088-0.086s-0.084,0.036-0.088,0.086l-0.133,1.644l0.133,1.588
			C39.074,313.713,39.112,313.749,39.158,313.749z M39.757,313.774c0.054,0,0.097-0.043,0.101-0.098l0,0l0.143-1.602l-0.143-1.524
			c-0.004-0.058-0.047-0.099-0.101-0.099s-0.097,0.043-0.101,0.099l-0.125,1.524l0.125,1.602
			C39.66,313.731,39.703,313.774,39.757,313.774z M40.607,312.075l-0.133-2.479c-0.004-0.062-0.054-0.112-0.113-0.112
			c-0.061,0-0.111,0.05-0.113,0.112l-0.117,2.479l0.117,1.602c0.002,0.062,0.053,0.112,0.113,0.112c0.06,0,0.109-0.051,0.113-0.112
			l0,0L40.607,312.075z M40.969,313.792c0.068,0,0.123-0.055,0.127-0.126v0.002l0.123-1.593l-0.123-3.047
			c-0.004-0.068-0.059-0.124-0.127-0.124c-0.067,0-0.123,0.056-0.126,0.124l-0.109,3.047l0.109,1.591
			C40.846,313.737,40.901,313.792,40.969,313.792z M41.583,308.639c-0.075,0-0.136,0.061-0.14,0.137l-0.102,3.3l0.102,1.575
			c0.004,0.078,0.064,0.139,0.14,0.139s0.136-0.061,0.14-0.139l0,0l0.115-1.575l-0.115-3.3
			C41.719,308.699,41.658,308.639,41.583,308.639z M42.201,313.792c0.082,0,0.148-0.067,0.152-0.151v0.002l0.105-1.566l-0.105-3.41
			c-0.004-0.086-0.07-0.151-0.152-0.151s-0.15,0.065-0.152,0.151l-0.094,3.409l0.094,1.567
			C42.051,313.725,42.119,313.792,42.201,313.792z M42.824,313.79c0.09,0,0.162-0.072,0.164-0.163l0,0l0.098-1.551l-0.098-3.325
			c-0.002-0.09-0.074-0.162-0.164-0.162c-0.091,0-0.164,0.072-0.165,0.162l-0.087,3.325l0.087,1.551
			C42.66,313.718,42.733,313.79,42.824,313.79z M43.719,312.076l-0.089-3.204c-0.003-0.099-0.08-0.175-0.179-0.175
			c-0.098,0-0.176,0.076-0.178,0.177l-0.078,3.202l0.078,1.542c0.002,0.097,0.08,0.174,0.178,0.174c0.099,0,0.176-0.077,0.179-0.176
			v0.002L43.719,312.076z M44.085,313.796c0.103,0,0.188-0.085,0.19-0.19v0.002l0.08-1.531l-0.08-3.81
			c-0.002-0.105-0.088-0.19-0.19-0.19c-0.104,0-0.188,0.085-0.19,0.19l-0.072,3.809c0,0.003,0.072,1.532,0.072,1.532
			C43.896,313.711,43.981,313.796,44.085,313.796z M44.715,307.718c-0.111,0-0.202,0.092-0.204,0.204l-0.083,4.154l0.083,1.509
			c0.002,0.11,0.093,0.202,0.204,0.202c0.109,0,0.201-0.092,0.202-0.203v0.001l0.091-1.509l-0.091-4.156
			C44.916,307.81,44.824,307.718,44.715,307.718z M45.291,313.797c0.006,0,5.081,0.002,5.113,0.002c1.02,0,1.846-0.824,1.846-1.845
			c0-1.018-0.826-1.845-1.846-1.845c-0.253,0-0.494,0.052-0.713,0.143c-0.147-1.662-1.541-2.967-3.242-2.967
			c-0.416,0-0.822,0.081-1.181,0.221c-0.139,0.054-0.176,0.109-0.177,0.218v5.854C45.093,313.692,45.181,313.785,45.291,313.797z"/>
	</g>
	<g>
		<path fill="#56ACDD" d="M44.75,416.03c8.284,0,14.999-6.717,14.999-15.001c0-8.285-6.715-15.002-14.999-15.002
			c-8.285,0-14.999,6.717-14.999,15.002C29.751,409.313,36.465,416.03,44.75,416.03"/>
		<path fill="#FFFFFF" d="M37.251,401.029c0,2.968,1.726,5.535,4.228,6.75l-3.578-9.803
			C37.484,398.908,37.251,399.94,37.251,401.029z M49.814,400.65c0-0.927-0.334-1.57-0.619-2.068
			c-0.381-0.619-0.736-1.142-0.736-1.76c0-0.688,0.521-1.332,1.261-1.332c0.03,0,0.063,0.006,0.097,0.008
			c-1.336-1.224-3.113-1.971-5.064-1.971c-2.621,0-4.926,1.345-6.266,3.381c0.176,0.005,0.34,0.011,0.482,0.011
			c0.784,0,1.997-0.097,1.997-0.097c0.404-0.022,0.452,0.57,0.048,0.618c0,0-0.406,0.047-0.857,0.071l2.731,8.124l1.641-4.922
			l-1.169-3.202c-0.404-0.024-0.787-0.071-0.787-0.071c-0.404-0.023-0.355-0.641,0.049-0.618c0,0,1.238,0.097,1.975,0.097
			c0.783,0,2-0.097,2-0.097c0.403-0.022,0.451,0.57,0.047,0.618c0,0-0.406,0.047-0.857,0.071l2.709,8.062l0.75-2.498
			C49.623,402.101,49.814,401.292,49.814,400.65z M44.883,401.686l-2.25,6.539c0.67,0.198,1.381,0.305,2.119,0.305
			c0.872,0,1.711-0.149,2.49-0.426c-0.02-0.032-0.039-0.065-0.054-0.102L44.883,401.686z M51.332,397.429
			c0.032,0.241,0.051,0.496,0.051,0.773c0,0.76-0.143,1.616-0.57,2.687l-2.29,6.623c2.229-1.299,3.728-3.716,3.728-6.482
			C52.25,399.725,51.918,398.499,51.332,397.429z"/>
	</g>
	<g>
		<path fill="#282828" d="M44.75,506.037c8.284,0,14.999-6.717,14.999-15.001s-6.715-15.001-14.999-15.001
			c-8.285,0-14.999,6.717-14.999,15.001S36.465,506.037,44.75,506.037"/>
		<g>
			<path fill="#FFFFFF" d="M39.508,486.764v1.987h-2.257v4.55h3.722v-6.537H39.508z M39.508,492.078h-0.766v-2.067h0.766V492.078z"
				/>
			<path fill="#FFFFFF" d="M44.03,488.771v4.55h2.257v0.711h-2.282v1.277h3.102h0.647v-6.538H44.03z M46.287,492.061h-0.766v-2.068
				h0.766V492.061z"/>
			<path fill="#FFFFFF" d="M48.527,488.771v4.55h2.256v0.711H48.5v1.277h3.104h0.646v-6.538H48.527z M50.783,492.061H50.02v-2.068
				h0.764L50.783,492.061L50.783,492.061z"/>
			<rect x="41.729" y="488.742" fill="#FFFFFF" width="1.519" height="4.578"/>
			<rect x="41.729" y="486.845" fill="#FFFFFF" width="1.519" height="1.242"/>
		</g>
	</g>
	<g>
		<path fill="#9ECC91" d="M44.75,596.046c8.284,0,14.999-6.717,14.999-15.001c0-8.285-6.715-15.002-14.999-15.002
			c-8.285,0-14.999,6.717-14.999,15.002C29.751,589.329,36.465,596.046,44.75,596.046"/>
		<path fill="#FFFFFF" d="M44.356,583.587c0.044-1.312-1.064-2.439-2.469-2.514l-0.528-0.026c-0.512-0.026-0.943-0.45-0.943-0.926
			c0-0.458,0.426-0.854,0.922-0.854h3.476c0.497,0,0.88,0.428,0.88,0.924v3.198c0,1.417,1.152,2.567,2.568,2.567h0.42
			c1.414,0,2.566-1.15,2.566-2.567V572.64c-0.062-0.004-0.121-0.02-0.184-0.02h-1.482v10.769c0,0.496-0.403,0.899-0.9,0.899h-0.42
			c-0.498,0-0.902-0.403-0.902-0.899v-3.198c0-1.417-1.15-2.568-2.566-2.568h-3.475c-1.416,0-2.568,1.12-2.568,2.499
			c0,1.355,1.131,2.519,2.521,2.59l0.529,0.029c0.496,0.025,0.904,0.388,0.891,0.792c-0.014,0.411-0.451,0.756-0.954,0.756H36.25
			v1.668h5.487C43.138,585.956,44.312,584.894,44.356,583.587z"/>
	</g>
	<g>
		<path fill="#E73B3A" d="M44.75,686.055c8.284,0,14.999-6.717,14.999-15.001c0-8.285-6.715-15.002-14.999-15.002
			c-8.285,0-14.999,6.717-14.999,15.002C29.751,679.338,36.465,686.055,44.75,686.055"/>
		<g>
			<path fill="#FFFFFF" d="M45.427,670.19c-0.199-0.138-0.454-0.214-0.812-0.214c-0.526,0-0.881,0.136-1.189,0.543h-0.021v-2.516
				h-1.452v2.09c0.021,0.009,0.042,0.019,0.062,0.027c0.559,0.218,0.879,0.529,1.049,0.906c0.17,0.372,0.189,0.799,0.152,1.258l0,0
				c-0.008,0.088-0.078,0.156-0.165,0.156h-1.098v0.002v0.14h1.053l0,0h0.009c0.09,0.005,0.16,0.085,0.156,0.18
				c-0.014,0.275-0.121,0.518-0.318,0.728c-0.18,0.193-0.438,0.358-0.766,0.495c-0.041,0.036-0.054,0.043-0.1,0.045l-0.034,0.014
				v0.807h1.383v-0.522h0.024c0.262,0.46,0.662,0.625,1.233,0.625c1.132,0,1.384-0.868,1.448-1.706l-0.02-0.004l0,0h-0.004
				c-0.508-0.106-0.827-0.403-1.004-0.802l0,0c-0.033-0.077-0.062-0.158-0.086-0.237c-0.053-0.196-0.079-0.412-0.079-0.638l0,0
				v-0.004c0-0.332,0.054-0.61,0.156-0.843C45.104,670.499,45.246,670.324,45.427,670.19L45.427,670.19z M44.615,672.409
				c0,1.211-0.083,1.712-0.617,1.712c-0.504,0-0.594-0.501-0.594-1.712c0-0.941,0-1.608,0.594-1.608
				C44.638,670.801,44.615,671.468,44.615,672.409L44.615,672.409z"/>
			<path fill="#FFFFFF" d="M43.005,672.754h-1.053h-0.774h-0.023h-0.857c0,0.363-0.195,0.77-1.144,0.77
				c-1.173,0-1.195-0.749-1.195-1.252h3.994h1.097c0.067-0.865-0.067-1.594-1.098-1.993c-0.226-0.102-0.489-0.166-0.798-0.219
				c-0.504-0.104-1.167-0.166-2.001-0.166c-3.505,0-3.882,0.989-3.882,2.138c0,1.326,0.445,2.256,3.882,2.256
				c0.79,0,1.476-0.083,2.024-0.18c0.285-0.062,0.549-0.145,0.774-0.248c0.022,0,0.022,0,0.044-0.021
				C42.637,673.578,42.982,673.221,43.005,672.754L43.005,672.754z M39.153,670.623c1.278,0,1.233,0.583,1.233,0.981h-2.429
				C37.958,671.262,37.943,670.623,39.153,670.623L39.153,670.623z"/>
			<path fill="#FFFFFF" d="M45.562,670.299c-0.354,0.241-0.549,0.646-0.549,1.264c0,0.729,0.285,1.356,1.037,1.514
				c0.105,0.022,0.219,0.022,0.354,0.022c0.641,0,1.054-0.241,1.361-0.723h0.023l0.067,0.638h1.37
				c-0.023-0.301-0.068-0.604-0.068-0.906v-0.913l-0.145-0.27l0,0l-1.459-2.7l-0.055-0.104c-0.142-0.012-0.293-0.021-0.455-0.021
				c-0.557,0-1.039,0.083-1.37,0.322c-0.353,0.207-0.55,0.583-0.55,1.168h1.453c0-0.378,0.023-0.743,0.549-0.743
				c0.533,0,0.594,0.304,0.594,0.703v0.385C46.887,669.914,46.074,669.936,45.562,670.299L45.562,670.299z M47,672.271
				c-0.49,0-0.557-0.426-0.557-0.762c0-0.846,0.557-0.79,1.277-0.832C47.721,671.206,47.856,672.271,47,672.271L47,672.271z"/>
			<polygon fill="#FFFFFF" points="52.287,667.503 50.814,670.375 49.443,667.503 47.354,667.503 47.699,668.143 49.158,670.842 
				49.754,671.949 49.754,674.306 51.671,674.306 51.671,671.949 54.229,667.503 			"/>
		</g>
	</g>
	<g>
		<path fill="#B08ABE" d="M44.75,776.062c8.284,0,14.999-6.717,14.999-15.002c0-8.284-6.715-15.001-14.999-15.001
			c-8.285,0-14.999,6.717-14.999,15.001C29.751,769.346,36.465,776.062,44.75,776.062"/>
		<g>
			<g>
				<path fill="#FFFFFF" d="M47.844,754.099c-0.979-0.445-2.02-0.673-3.092-0.673c-0.895,0-1.773,0.173-2.619,0.49
					c0.198,0.179,5.455,4.951,5.711,5.185C47.844,758.757,47.844,754.204,47.844,754.099L47.844,754.099z"/>
			</g>
			<g>
				<path fill="#FFFFFF" d="M40.891,767.334c0-0.293,0-6.106,0-6.45c-0.25,0.227-3.012,2.737-3.098,2.816
					C38.395,765.208,39.491,766.485,40.891,767.334L40.891,767.334z"/>
			</g>
			<g>
				<path fill="#FFFFFF" d="M37.252,760.927c0,0.644,0.098,1.299,0.273,1.948c0.201-0.184,6.516-5.923,6.646-6.042
					c-0.126-0.113-2.752-2.498-2.838-2.577C38.815,755.55,37.252,758.098,37.252,760.927L37.252,760.927z"/>
			</g>
			<g>
				<path fill="#FFFFFF" d="M41.68,764.188c0,0.155,0,3.472,0,3.578c0.762,0.343,1.56,0.555,2.38,0.631h1.375
					c2.591-0.242,4.903-1.84,6.054-4.209C51.217,764.188,41.84,764.188,41.68,764.188L41.68,764.188z"/>
			</g>
			<g>
				<path fill="#FFFFFF" d="M48.635,754.528c0,0.298,0,8.709,0,8.869c0.152,0,3.072,0,3.19,0c0.279-0.802,0.427-1.63,0.427-2.471
					C52.252,758.32,50.865,755.887,48.635,754.528L48.635,754.528z"/>
			</g>
		</g>
	</g>
	<g>
		<path fill="#5168AE" d="M44.75,866.07c8.284,0,14.999-6.717,14.999-15.001c0-8.285-6.715-15.002-14.999-15.002
			c-8.285,0-14.999,6.717-14.999,15.002C29.751,859.354,36.465,866.07,44.75,866.07"/>
		<path fill="#FFFFFF" d="M52.244,847.258c-0.033-0.631-0.201-1.171-0.459-1.631c-0.752-1.338-2.284-1.967-3.681-1.967h-7.521
			l-3.332,14.817h4.414l1.078-4.904h3.158c0.033,0,0.072-0.005,0.11-0.005c1.791-0.029,3.401-0.695,4.544-1.885
			c0.743-0.781,1.293-1.779,1.56-2.977C52.228,848.182,52.266,847.697,52.244,847.258z M47.971,848.707
			c-0.119,0.489-0.398,0.936-0.769,1.289c-0.132,0.123-0.282,0.235-0.438,0.334c-0.399,0.25-0.858,0.404-1.319,0.404h-2.07
			l0.877-3.759l0.072-0.297h2.161c0.373,0,0.7,0.112,0.962,0.297C47.937,847.332,48.178,847.968,47.971,848.707z"/>
	</g>
	<g>
		<path fill="#6A8751" d="M44.75,956.078c8.284,0,14.999-6.717,14.999-15.002c0-8.284-6.715-15.001-14.999-15.001
			c-8.285,0-14.999,6.717-14.999,15.001C29.751,949.361,36.465,956.078,44.75,956.078"/>
		<path fill="#FFFFFF" d="M42.686,939.396c3.396-0.977,6.23,1.021,6.23,1.021l-2.337,0.63l-0.673-1.25
			c-0.633-0.116-1.355-0.153-2.122-0.024l1.591,3.233l6.875-1.979c0,0-2.493-3.917-9.93-2.65c-0.043,0.007-0.082,0.019-0.125,0.025
			l-0.723-1.468l-2.141,0.244l0.873,1.783c-4.512,1.864-2.513,6.259-2.513,6.259l6.885-1.98L42.686,939.396z M39.556,942.944
			c0,0-0.664-1.465,1.267-2.721l1.027,2.102L39.556,942.944z"/>
	</g>
	<g>
		<path fill="#3A4C8E" d="M44.75,1136.093c8.285,0,14.999-6.717,14.999-15.001c0-8.285-6.714-15.002-14.999-15.002
			s-14.999,6.717-14.999,15.002C29.751,1129.376,36.465,1136.093,44.75,1136.093"/>
		<path fill="#FFFFFF" d="M51.937,1113.591H37.564c-0.172,0-0.313,0.142-0.313,0.313v14.374c0,0.174,0.142,0.313,0.313,0.313h14.372
			c0.174,0,0.313-0.14,0.313-0.313v-14.374C52.25,1113.732,52.11,1113.591,51.937,1113.591z M44.75,1127.965v-6.873h-6.872v-6.875
			h6.872v6.875h6.873v6.873H44.75z"/>
	</g>
	<g>
		<path fill="#CCCBCB" d="M44.75,1046.086c8.284,0,14.999-6.717,14.999-15.001c0-8.285-6.715-15.002-14.999-15.002
			c-8.285,0-14.999,6.717-14.999,15.002C29.751,1039.369,36.465,1046.086,44.75,1046.086"/>
		<g>
			<polygon fill="#FFFFFF" points="42.525,1033.834 42.441,1033.834 42.402,1033.906 40.37,1037.46 40.247,1037.674 
				40.494,1037.674 49.97,1037.674 50.053,1037.674 50.095,1037.602 52.127,1034.049 52.25,1033.834 52.003,1033.834 			"/>
			<polygon fill="#FFFFFF" points="47.785,1032.937 47.828,1033.009 47.91,1033.009 52.003,1032.991 52.25,1032.99 52.127,1032.776 
				47.389,1024.567 47.348,1024.496 47.264,1024.496 43.172,1024.512 42.924,1024.514 43.047,1024.728 			"/>
			<polygon fill="#FFFFFF" points="44.382,1028.764 44.34,1028.691 42.279,1025.154 42.154,1024.942 42.031,1025.156 
				37.293,1033.363 37.251,1033.436 37.293,1033.508 39.354,1037.045 39.479,1037.257 39.602,1037.043 44.34,1028.834 			"/>
		</g>
	</g>
</g>
</svg>
