<?xml version="1.0" encoding="utf-8"?>
<!-- Generator: Adobe Illustrator 17.0.0, SVG Export Plug-In . SVG Version: 6.00 Build 0)  -->
<!DOCTYPE svg PUBLIC "-//W3C//DTD SVG 1.1//EN" "http://www.w3.org/Graphics/SVG/1.1/DTD/svg11.dtd">
<svg version="1.1" id="Capa_1" xmlns="http://www.w3.org/2000/svg" xmlns:xlink="http://www.w3.org/1999/xlink" x="0px" y="0px"
	 width="84px" height="76.33px" viewBox="-23.167 -45.497 84 76.33" enable-background="new -23.167 -45.497 84 76.33"
	 xml:space="preserve">
<g>
	<g>
		<path fill="#78CBEF" d="M-84.331-55.16c20.139,0,36.464-16.325,36.464-36.469c0-20.139-16.325-36.469-36.464-36.469
			c-20.137,0-36.464,16.33-36.464,36.469C-120.796-71.485-104.468-55.16-84.331-55.16"/>
		<path fill="#FFFFFF" d="M-66.037-101.186c-1.344,0.598-2.788,1.002-4.306,1.182c1.551-0.929,2.737-2.395,3.294-4.145
			c-1.451,0.861-3.051,1.481-4.76,1.816c-1.364-1.456-3.314-2.368-5.47-2.368c-4.135,0-7.49,3.357-7.49,7.495
			c0,0.588,0.063,1.162,0.192,1.707c-6.229-0.314-11.747-3.292-15.447-7.833c-0.647,1.113-1.016,2.397-1.016,3.773
			c0,2.596,1.325,4.891,3.336,6.238c-1.228-0.039-2.385-0.379-3.396-0.938v0.092c0,3.632,2.582,6.661,6.015,7.347
			c-0.63,0.177-1.288,0.263-1.974,0.263c-0.484,0-0.955-0.044-1.41-0.134c0.955,2.978,3.717,5.147,6.999,5.205
			c-2.565,2.011-5.798,3.209-9.306,3.209c-0.605,0-1.206-0.034-1.787-0.105c3.316,2.125,7.252,3.367,11.487,3.367
			c13.787,0,21.323-11.419,21.323-21.323c0-0.328-0.007-0.652-0.022-0.968C-68.31-98.361-67.039-99.681-66.037-101.186"/>
	</g>
	<g>
		<path fill="#E95655" d="M-66.304,55.88c6.05,0,10.954-4.904,10.954-10.956c0-6.05-4.904-10.956-10.954-10.956
			c-6.049,0-10.954,4.906-10.954,10.956C-77.258,50.976-72.353,55.88-66.304,55.88"/>
		<path fill="#FFFFFF" d="M-66.304,39.418c-3.024,0-5.477,2.452-5.477,5.478c0,2.243,1.349,4.171,3.28,5.017
			c-0.017-0.381-0.004-0.841,0.093-1.258c0.107-0.445,0.705-2.986,0.705-2.986s-0.175-0.35-0.175-0.867
			c0-0.812,0.471-1.418,1.057-1.418c0.498,0,0.739,0.375,0.739,0.822c0,0.501-0.32,1.25-0.483,1.944
			c-0.137,0.581,0.291,1.054,0.864,1.054c1.038,0,1.737-1.332,1.737-2.911c0-1.201-0.808-2.1-2.279-2.1
			c-1.662,0-2.696,1.239-2.696,2.623c0,0.478,0.14,0.814,0.361,1.074c0.102,0.121,0.115,0.168,0.079,0.306
			c-0.026,0.101-0.086,0.343-0.112,0.44c-0.037,0.138-0.148,0.188-0.274,0.137c-0.765-0.313-1.121-1.151-1.121-2.092
			c0-1.556,1.311-3.424,3.912-3.424c2.092,0,3.469,1.515,3.469,3.139c0,2.149-1.196,3.754-2.957,3.754
			c-0.591,0-1.147-0.319-1.337-0.682c0,0-0.318,1.262-0.386,1.506c-0.116,0.422-0.343,0.844-0.551,1.173
			c0.493,0.145,1.013,0.226,1.552,0.226c3.026,0,5.478-2.453,5.478-5.479C-60.826,41.87-63.278,39.418-66.304,39.418"/>
	</g>
	<g>
		<path fill="#547BBC" d="M8.982-54.573c20.233,0,36.639-16.403,36.639-36.646c0-20.236-16.406-36.644-36.639-36.644
			s-36.639,16.408-36.639,36.644C-27.657-70.976-11.251-54.573,8.982-54.573"/>
		<path fill="#FFFFFF" d="M0.142-97.419h3.791v-3.684c0-1.624,0.042-4.128,1.219-5.682c1.241-1.639,2.948-2.755,5.88-2.755
			c4.778,0,6.791,0.682,6.791,0.682l-0.948,5.614c0,0-1.578-0.459-3.051-0.459c-1.475,0-2.795,0.53-2.795,2.001v4.282h6.041
			l-0.423,5.479h-5.618v19.044H3.93v-19.044H0.139v-5.477H0.142z"/>
	</g>
	<g>
		<path fill="#E9644A" d="M-66.304,253.087c6.049,0,10.954-4.906,10.954-10.956c0-6.05-4.905-10.956-10.954-10.956
			c-6.051,0-10.954,4.906-10.954,10.956C-77.258,248.182-72.355,253.087-66.304,253.087"/>
		<path fill="#FFFFFF" d="M-64.177,242.136l-3.586,2.108v-4.213L-64.177,242.136z M-60.827,244.09v-3.918c0,0,0-1.887-1.889-1.887
			h-7.179c0,0-1.886,0-1.886,1.887v3.918c0,0,0,1.887,1.886,1.887h7.179C-62.715,245.977-60.827,245.977-60.827,244.09"/>
	</g>
	<g>
		<path fill="#4B4B4B" d="M-66.304,187.351c6.051,0,10.954-4.906,10.954-10.956c0-6.05-4.903-10.956-10.954-10.956
			c-6.049,0-10.954,4.906-10.954,10.956C-77.258,182.446-72.353,187.351-66.304,187.351"/>
		<path fill="#FFFFFF" d="M-68.115,181.302c-1.303,0-2.243-0.825-2.243-1.814c0-0.971,1.166-1.779,2.469-1.765
			c0.305,0.004,0.588,0.053,0.844,0.137c0.707,0.492,1.214,0.768,1.356,1.329c0.027,0.113,0.042,0.23,0.042,0.35
			C-65.648,180.528-66.285,181.302-68.115,181.302 M-67.773,175.494c-0.874-0.026-1.706-0.978-1.856-2.125
			c-0.151-1.148,0.435-2.026,1.309-2.002c0.873,0.026,1.705,0.948,1.855,2.096C-66.314,174.611-66.9,175.521-67.773,175.494
			 M-65.962,177.194c-0.307-0.217-0.892-0.746-0.892-1.054c0-0.365,0.104-0.543,0.651-0.971c0.561-0.44,0.958-1.055,0.958-1.772
			c0-0.855-0.381-1.686-1.094-1.961h1.076l0.759-0.548h-3.393c-1.521,0-2.952,1.152-2.952,2.487c0,1.364,1.037,2.465,2.585,2.465
			c0.107,0,0.212-0.003,0.314-0.009c-0.1,0.191-0.172,0.409-0.172,0.632c0,0.379,0.204,0.687,0.462,0.938
			c-0.196,0-0.383,0.007-0.588,0.007c-1.884,0-3.333,1.199-3.333,2.444c0,1.226,1.589,1.992,3.473,1.992
			c2.146,0,3.333-1.22,3.333-2.445C-64.775,178.416-65.065,177.828-65.962,177.194 M-61.025,175.595h-1.322v-1.321h-1.062v1.321
			h-1.321v1.063h1.321v1.322h1.062v-1.322h1.322C-61.025,176.658-61.025,175.595-61.025,175.595z"/>
	</g>
	<g>
		<path fill="#7F807E" d="M-66.304,450.295c6.05,0,10.954-4.905,10.954-10.956c0-6.05-4.904-10.956-10.954-10.956
			c-6.049,0-10.954,4.906-10.954,10.956C-77.258,445.39-72.353,450.295-66.304,450.295"/>
		<path fill="#FFFFFF" d="M-61.598,441.9c-0.257,0.57-0.381,0.824-0.712,1.328c-0.461,0.703-1.112,1.58-1.92,1.586
			c-0.717,0.008-0.901-0.467-1.875-0.46c-0.974,0.005-1.176,0.469-1.894,0.463c-0.807-0.008-1.424-0.799-1.886-1.503
			c-1.292-1.967-1.428-4.277-0.631-5.505c0.567-0.871,1.461-1.383,2.301-1.383c0.854,0,1.393,0.47,2.1,0.47
			c0.687,0,1.105-0.47,2.094-0.47c0.748,0,1.54,0.407,2.106,1.111C-63.766,438.552-63.467,441.192-61.598,441.9L-61.598,441.9z
			 M-64.772,435.64c0.359-0.462,0.632-1.114,0.533-1.779c-0.588,0.04-1.274,0.413-1.675,0.9c-0.365,0.442-0.665,1.099-0.548,1.735
			C-65.819,436.516-65.156,436.134-64.772,435.64L-64.772,435.64z"/>
	</g>
	<g>
		<path fill="#5E8FAE" d="M-66.304,384.56c6.05,0,10.955-4.906,10.955-10.956c0-6.051-4.905-10.956-10.955-10.956
			c-6.049,0-10.955,4.906-10.955,10.956C-77.259,379.654-72.353,384.56-66.304,384.56"/>
		<path fill="#FFFFFF" d="M-66.185,368.126v2.769h2.599v1.72h-2.599v2.809c0,0.636,0.034,1.044,0.101,1.224
			c0.067,0.181,0.192,0.324,0.376,0.432c0.242,0.145,0.519,0.218,0.831,0.218c0.555,0,1.106-0.181,1.655-0.542v1.73
			c-0.468,0.218-0.892,0.373-1.271,0.463c-0.38,0.089-0.79,0.134-1.231,0.134c-0.501,0-0.944-0.064-1.328-0.189
			c-0.384-0.129-0.714-0.307-0.984-0.542c-0.272-0.234-0.461-0.483-0.565-0.747c-0.105-0.263-0.158-0.645-0.158-1.146v-3.842h-1.211
			v-1.55c0.432-0.14,0.799-0.341,1.107-0.601c0.306-0.261,0.554-0.575,0.738-0.941c0.186-0.365,0.314-0.833,0.383-1.396h1.557
			V368.126z"/>
	</g>
	<g>
		<path fill="#40BFEF" d="M-66.304,516.03c6.05,0,10.954-4.906,10.954-10.955c0-6.051-4.904-10.956-10.954-10.956
			c-6.049,0-10.954,4.906-10.954,10.956C-77.258,511.125-72.353,516.03-66.304,516.03"/>
		<path fill="#FFFFFF" d="M-66.755,502.326c0.206,0.289,0.31,0.633,0.31,1.033c0,0.413-0.104,0.746-0.313,0.997
			c-0.117,0.141-0.289,0.27-0.516,0.385c0.345,0.127,0.605,0.326,0.781,0.597c0.176,0.273,0.264,0.604,0.264,0.993
			c0,0.401-0.1,0.76-0.302,1.079c-0.128,0.21-0.288,0.389-0.479,0.532c-0.216,0.167-0.47,0.28-0.764,0.342
			c-0.294,0.06-0.613,0.091-0.957,0.091h-3.051v-6.771h3.271C-67.684,501.616-67.1,501.856-66.755,502.326z M-70.43,502.78v1.494
			h1.646c0.292,0,0.532-0.056,0.716-0.168c0.183-0.112,0.275-0.311,0.275-0.594c0-0.317-0.122-0.524-0.363-0.626
			c-0.21-0.071-0.476-0.106-0.8-0.106L-70.43,502.78L-70.43,502.78z M-70.43,505.394v1.805h1.643c0.294,0,0.522-0.04,0.685-0.119
			c0.297-0.148,0.446-0.429,0.446-0.844c0-0.353-0.143-0.595-0.431-0.727c-0.161-0.074-0.387-0.112-0.678-0.115L-70.43,505.394
			L-70.43,505.394z M-62.136,503.47c0.35,0.156,0.638,0.402,0.865,0.74c0.207,0.299,0.34,0.643,0.401,1.036
			c0.035,0.23,0.048,0.562,0.043,0.994h-3.647c0.021,0.502,0.194,0.854,0.524,1.055c0.2,0.126,0.441,0.189,0.722,0.189
			c0.297,0,0.539-0.076,0.725-0.229c0.103-0.083,0.193-0.198,0.27-0.345h1.337c-0.036,0.297-0.198,0.599-0.485,0.906
			c-0.448,0.486-1.077,0.73-1.883,0.73c-0.668,0-1.255-0.205-1.763-0.616c-0.511-0.41-0.765-1.08-0.765-2.004
			c0-0.868,0.229-1.533,0.689-1.995c0.461-0.464,1.056-0.695,1.79-0.695C-62.877,503.235-62.485,503.313-62.136,503.47z
			 M-64.094,504.6c-0.185,0.191-0.301,0.451-0.349,0.775h2.256c-0.023-0.347-0.141-0.609-0.349-0.791
			c-0.21-0.178-0.468-0.269-0.777-0.269C-63.648,504.315-63.909,504.41-64.094,504.6z M-61.88,501.92h-2.9v0.842h2.9V501.92z"/>
	</g>
	<g>
		<path fill="#8CCFDD" d="M-66.304,581.766c6.05,0,10.955-4.906,10.955-10.956c0-6.05-4.905-10.956-10.955-10.956
			c-6.049,0-10.955,4.906-10.955,10.956C-77.259,576.86-72.353,581.766-66.304,581.766"/>
		<path fill="#FFFFFF" d="M-60.833,568.523c-0.047,1.065-0.794,2.523-2.233,4.369c-1.489,1.934-2.751,2.899-3.782,2.899
			c-0.638,0-1.177-0.588-1.619-1.766c-0.296-1.081-0.59-2.163-0.884-3.241c-0.329-1.18-0.681-1.769-1.056-1.769
			c-0.082,0-0.367,0.172-0.86,0.516l-0.514-0.664c0.539-0.473,1.071-0.949,1.597-1.422c0.719-0.623,1.26-0.95,1.621-0.984
			c0.85-0.082,1.374,0.5,1.572,1.743c0.211,1.344,0.359,2.179,0.441,2.506c0.246,1.112,0.515,1.669,0.81,1.669
			c0.228,0,0.572-0.36,1.031-1.08c0.459-0.72,0.703-1.268,0.737-1.645c0.066-0.622-0.18-0.93-0.737-0.93
			c-0.261,0-0.532,0.056-0.81,0.171c0.541-1.751,1.572-2.603,3.094-2.554C-61.298,566.371-60.767,567.1-60.833,568.523z"/>
	</g>
	<g>
		<path fill="#E9644A" d="M-66.303,318.822c6.049,0,10.953-4.906,10.953-10.956c0-6.05-4.903-10.956-10.953-10.956
			c-6.051,0-10.956,4.906-10.956,10.956C-77.258,313.917-72.353,318.822-66.303,318.822"/>
		<path fill="#FFFFFF" d="M-64.063,304.167v2.087c-0.05,0.061-0.11,0.11-0.17,0.149c-0.067,0.039-0.116,0.06-0.16,0.06
			c-0.05,0-0.09-0.016-0.111-0.044c-0.027-0.033-0.039-0.077-0.039-0.144v-2.109h-0.563v2.297c0,0.167,0.034,0.288,0.099,0.37
			c0.067,0.083,0.167,0.122,0.294,0.122c0.11,0,0.215-0.027,0.331-0.083c0.11-0.061,0.215-0.143,0.32-0.259v0.304h0.564v-2.75
			L-64.063,304.167L-64.063,304.167z M-65.779,304.3c-0.15-0.138-0.343-0.205-0.573-0.205c-0.256,0-0.459,0.067-0.614,0.194
			c-0.15,0.127-0.226,0.291-0.226,0.508v1.424c0,0.237,0.076,0.42,0.221,0.559c0.148,0.137,0.347,0.209,0.59,0.209
			c0.254,0,0.459-0.066,0.603-0.204c0.148-0.134,0.22-0.315,0.22-0.552v-1.419C-65.559,304.602-65.637,304.432-65.779,304.3z
			 M-66.133,306.275c0,0.072-0.023,0.128-0.066,0.171c-0.045,0.045-0.105,0.067-0.183,0.067c-0.072,0-0.132-0.023-0.171-0.067
			c-0.038-0.039-0.061-0.099-0.061-0.171v-1.502c0-0.061,0.023-0.109,0.067-0.143c0.039-0.039,0.1-0.056,0.165-0.056
			c0.072,0,0.134,0.016,0.183,0.056c0.044,0.034,0.066,0.083,0.066,0.143L-66.133,306.275L-66.133,306.275z M-67.877,303.189
			l-0.391,1.492h-0.045l-0.41-1.492h-0.639l0.757,2.253v1.475h0.634v-1.546l0.735-2.182L-67.877,303.189L-67.877,303.189z
			 M-63.489,309.754c0.034,0.045,0.05,0.122,0.05,0.222v0.253h-0.437v-0.253c0-0.1,0.012-0.177,0.05-0.222
			c0.033-0.045,0.088-0.072,0.171-0.072C-63.577,309.682-63.521,309.71-63.489,309.754z M-65.222,309.743
			c-0.032-0.045-0.088-0.066-0.155-0.066c-0.033,0-0.072,0.005-0.104,0.021c-0.034,0.016-0.072,0.045-0.105,0.078v1.556
			c0.038,0.039,0.082,0.073,0.121,0.089c0.04,0.016,0.077,0.028,0.116,0.028c0.066,0,0.11-0.016,0.138-0.056
			c0.028-0.033,0.045-0.089,0.045-0.171v-1.292C-65.166,309.849-65.183,309.789-65.222,309.743z M-65.222,309.743
			c-0.032-0.045-0.088-0.066-0.155-0.066c-0.033,0-0.072,0.005-0.104,0.021c-0.034,0.016-0.072,0.045-0.105,0.078v1.556
			c0.038,0.039,0.082,0.073,0.121,0.089c0.04,0.016,0.077,0.028,0.116,0.028c0.066,0,0.11-0.016,0.138-0.056
			c0.028-0.033,0.045-0.089,0.045-0.171v-1.292C-65.166,309.849-65.183,309.789-65.222,309.743z M-62.39,307.818h-7.828
			c-0.856,0-1.563,0.707-1.563,1.567v1.597c0,0.86,0.707,1.562,1.563,1.562h7.828c0.856,0,1.564-0.702,1.564-1.562v-1.597
			C-60.827,308.524-61.534,307.818-62.39,307.818z M-68.109,308.916h-0.585v2.894h-0.564v-2.894h-0.58v-0.491h1.729
			C-68.109,308.425-68.109,308.916-68.109,308.916z M-66.465,311.81h-0.502v-0.276c-0.088,0.105-0.188,0.182-0.288,0.232
			c-0.099,0.055-0.194,0.083-0.288,0.083c-0.114,0-0.203-0.039-0.264-0.118c-0.056-0.072-0.083-0.181-0.083-0.331v-2.092h0.497
			v1.921c0,0.055,0.012,0.1,0.034,0.128c0.016,0.027,0.054,0.039,0.1,0.039c0.037,0,0.083-0.016,0.138-0.055
			c0.06-0.034,0.109-0.078,0.153-0.134v-1.899h0.502V311.81z M-64.653,311.29c0,0.177-0.039,0.315-0.115,0.41
			c-0.077,0.094-0.194,0.143-0.343,0.143c-0.099,0-0.183-0.016-0.26-0.054c-0.076-0.041-0.148-0.094-0.214-0.172v0.194h-0.502
			v-3.384h0.502v1.087c0.066-0.072,0.137-0.132,0.214-0.171c0.077-0.039,0.155-0.06,0.233-0.06c0.154,0,0.275,0.055,0.358,0.16
			c0.083,0.104,0.127,0.259,0.127,0.464V311.29z M-62.919,310.622h-0.956v0.47c0,0.133,0.012,0.221,0.045,0.271
			c0.033,0.054,0.094,0.077,0.171,0.077c0.083,0,0.138-0.023,0.171-0.066c0.034-0.039,0.05-0.139,0.05-0.282v-0.115h0.519v0.127
			c0,0.259-0.066,0.452-0.194,0.58c-0.122,0.132-0.31,0.194-0.557,0.194c-0.228,0-0.405-0.066-0.531-0.204
			c-0.128-0.137-0.193-0.326-0.193-0.568v-1.121c0-0.215,0.072-0.393,0.214-0.53c0.137-0.134,0.32-0.205,0.546-0.205
			c0.227,0,0.404,0.066,0.525,0.194c0.122,0.126,0.188,0.302,0.188,0.54v0.64H-62.919z M-65.377,309.678
			c-0.033,0-0.072,0.005-0.104,0.021c-0.034,0.016-0.072,0.045-0.105,0.078v1.556c0.038,0.039,0.082,0.073,0.121,0.089
			c0.04,0.016,0.077,0.028,0.116,0.028c0.066,0,0.11-0.016,0.138-0.056c0.028-0.033,0.045-0.089,0.045-0.171v-1.292
			c0-0.083-0.016-0.143-0.056-0.189C-65.254,309.699-65.31,309.678-65.377,309.678z M-65.222,309.743
			c-0.032-0.045-0.088-0.066-0.155-0.066c-0.033,0-0.072,0.005-0.104,0.021c-0.034,0.016-0.072,0.045-0.105,0.078v1.556
			c0.038,0.039,0.082,0.073,0.121,0.089c0.04,0.016,0.077,0.028,0.116,0.028c0.066,0,0.11-0.016,0.138-0.056
			c0.028-0.033,0.045-0.089,0.045-0.171v-1.292C-65.166,309.849-65.183,309.789-65.222,309.743z M-65.222,309.743
			c-0.032-0.045-0.088-0.066-0.155-0.066c-0.033,0-0.072,0.005-0.104,0.021c-0.034,0.016-0.072,0.045-0.105,0.078v1.556
			c0.038,0.039,0.082,0.073,0.121,0.089c0.04,0.016,0.077,0.028,0.116,0.028c0.066,0,0.11-0.016,0.138-0.056
			c0.028-0.033,0.045-0.089,0.045-0.171v-1.292C-65.166,309.849-65.183,309.789-65.222,309.743z"/>
	</g>
	<g>
		<path fill="#FFFFFF" d="M-66.303,647.502c6.048,0,10.954-4.906,10.954-10.955c0-6.051-4.906-10.956-10.954-10.956
			c-6.051,0-10.956,4.906-10.956,10.956C-77.259,642.596-72.353,647.502-66.303,647.502"/>
		<g>
			<path fill="#E1408F" d="M-60.827,636.547c0,1.331-1.08,2.412-2.412,2.412c-1.335,0-2.414-1.08-2.414-2.412
				c0-1.333,1.079-2.414,2.414-2.414C-61.907,634.133-60.827,635.214-60.827,636.547z"/>
			<path fill="#396DB3" d="M-66.955,636.547c0,1.331-1.079,2.412-2.414,2.412c-1.332,0-2.412-1.08-2.412-2.412
				c0-1.333,1.079-2.414,2.412-2.414C-68.034,634.133-66.955,635.214-66.955,636.547z"/>
		</g>
	</g>
	<g>
		<path fill="#F29100" d="M-66.304,713.238c6.051,0,10.954-4.906,10.954-10.956c0-6.049-4.903-10.955-10.954-10.955
			s-10.954,4.906-10.954,10.955C-77.258,708.332-72.355,713.238-66.304,713.238"/>
		<path id="RSS" fill="#FFFFFF" d="M-69.298,705.273c0.265,0.266,0.427,0.624,0.428,1.025c-0.001,0.4-0.163,0.76-0.427,1.022
			l-0.001,0.001c-0.264,0.262-0.626,0.425-1.028,0.425s-0.762-0.163-1.028-0.427c-0.262-0.262-0.426-0.623-0.426-1.022
			c0-0.401,0.164-0.761,0.426-1.025l0,0c0.266-0.262,0.626-0.427,1.028-0.427S-69.562,705.01-69.298,705.273z M-69.298,705.273
			L-69.298,705.273L-69.298,705.273L-69.298,705.273z M-71.355,707.322v-0.001l0,0V707.322z M-71.78,700.53v2.092
			c1.365,0,2.659,0.537,3.623,1.505c0.967,0.966,1.501,2.26,1.504,3.63l0,0v0.004h2.102c-0.003-1.993-0.813-3.798-2.122-5.108
			C-67.982,701.34-69.788,700.53-71.78,700.53z M-71.776,696.804v2.091c4.882,0.004,8.848,3.978,8.854,8.865h2.095
			c-0.001-3.019-1.23-5.756-3.212-7.741C-66.021,698.033-68.757,696.805-71.776,696.804z"/>
	</g>
	<g>
		<path fill="#1384C7" d="M-97.221,14.978c6.051,0,10.954-4.906,10.954-10.956c0-6.051-4.903-10.956-10.954-10.956
			c-6.049,0-10.954,4.906-10.954,10.956C-108.176,10.072-103.271,14.978-97.221,14.978"/>
		<path fill="#FFFFFF" d="M-69.369,5.682h-2.135v-6.834h2.135V5.682z M-70.491-2.006h-0.015c-0.773,0-1.274-0.523-1.274-1.185
			c0-0.676,0.516-1.187,1.304-1.187c0.787,0,1.272,0.511,1.287,1.185C-69.19-2.531-69.689-2.006-70.491-2.006z M-60.827,5.682
			h-2.422V2.146c0-0.926-0.378-1.558-1.211-1.558c-0.636,0-0.99,0.427-1.156,0.837c-0.062,0.147-0.052,0.352-0.052,0.559v3.697
			h-2.398c0,0,0.031-6.264,0-6.834h2.398v1.073c0.142-0.47,0.909-1.139,2.131-1.139c1.518,0,2.71,0.984,2.71,3.1L-60.827,5.682
			L-60.827,5.682z"/>
	</g>
	<g>
		<path fill="#FAC766" d="M-66.304,77.793c6.05,0,10.954-4.906,10.954-10.956S-60.254,55.88-66.304,55.88
			c-6.051,0-10.954,4.906-10.954,10.956S-72.355,77.793-66.304,77.793"/>
		<path fill="#FFFFFF" d="M-60.88,65.907l-0.091-0.189l-0.154-0.121c-0.201-0.158-1.218,0.012-1.495-0.238
			c-0.194-0.179-0.221-0.502-0.28-0.936c-0.109-0.847-0.179-0.89-0.312-1.175c-0.479-1.018-1.778-1.783-2.671-1.889h-2.42
			c-1.902,0-3.458,1.559-3.458,3.463v4.039c0,1.899,1.556,3.454,3.458,3.454h3.974c1.902,0,3.448-1.556,3.459-3.454l0.022-2.798
			L-60.88,65.907z M-68.258,64.187h1.917c0.367,0,0.662,0.297,0.662,0.66c0,0.361-0.295,0.662-0.662,0.662h-1.917
			c-0.367,0-0.663-0.301-0.663-0.662C-68.922,64.484-68.625,64.187-68.258,64.187z M-64.361,69.466h-3.897
			c-0.367,0-0.663-0.299-0.663-0.659c0-0.362,0.297-0.658,0.663-0.658h3.897c0.363,0,0.659,0.296,0.659,0.658
			C-63.703,69.167-63.998,69.466-64.361,69.466z"/>
	</g>
	<g>
		<path fill="#D87DA5" d="M-66.304,143.528c6.05,0,10.954-4.906,10.954-10.956c0-6.05-4.904-10.956-10.954-10.956
			c-6.051,0-10.954,4.906-10.954,10.956C-77.258,138.622-72.355,143.528-66.304,143.528"/>
		<path fill="#FFFFFF" d="M-60.938,131.469c-0.072-0.352-0.18-0.699-0.32-1.03c-0.137-0.325-0.307-0.638-0.503-0.93
			c-0.197-0.29-0.422-0.563-0.669-0.809c-0.248-0.25-0.521-0.473-0.811-0.67c-0.291-0.199-0.605-0.367-0.929-0.505
			c-0.331-0.138-0.678-0.248-1.03-0.318c-0.361-0.075-0.732-0.112-1.103-0.112s-0.742,0.038-1.104,0.112
			c-0.351,0.071-0.698,0.18-1.028,0.318c-0.324,0.138-0.638,0.307-0.93,0.505c-0.29,0.196-0.563,0.42-0.81,0.67
			c-0.248,0.247-0.472,0.519-0.668,0.809c-0.198,0.292-0.369,0.605-0.505,0.93c-0.139,0.331-0.248,0.678-0.32,1.03
			c-0.074,0.36-0.11,0.731-0.11,1.102c0,0.372,0.037,0.744,0.11,1.104c0.072,0.352,0.18,0.697,0.32,1.028
			c0.137,0.325,0.308,0.64,0.505,0.931c0.196,0.291,0.42,0.562,0.668,0.81c0.248,0.248,0.52,0.472,0.81,0.668
			c0.292,0.198,0.606,0.369,0.93,0.505c0.33,0.139,0.677,0.246,1.028,0.318c0.362,0.076,0.733,0.112,1.104,0.112
			s0.742-0.037,1.103-0.112c0.351-0.072,0.699-0.179,1.03-0.318c0.324-0.137,0.638-0.308,0.929-0.505
			c0.29-0.197,0.563-0.421,0.811-0.668c0.247-0.248,0.472-0.519,0.669-0.81c0.197-0.291,0.367-0.606,0.503-0.931
			c0.139-0.331,0.248-0.676,0.32-1.028c0.074-0.36,0.112-0.733,0.112-1.104C-60.827,132.2-60.865,131.829-60.938,131.469z
			 M-61.628,132.525c-0.068-0.015-1.651-0.356-3.258-0.154c-0.033-0.079-0.066-0.16-0.101-0.242
			c-0.098-0.229-0.202-0.455-0.31-0.678c1.846-0.754,2.596-1.84,2.604-1.852C-62.036,130.397-61.639,131.415-61.628,132.525z
			 M-63.215,129.061c-0.012,0.018-0.678,1.031-2.444,1.693c-0.799-1.47-1.678-2.637-1.748-2.729
			c0.353-0.085,0.723-0.133,1.103-0.133C-65.12,127.893-64.039,128.335-63.215,129.061z M-67.425,128.029L-67.425,128.029
			c0,0-0.006,0.001-0.015,0.004C-67.435,128.032-67.429,128.031-67.425,128.029z M-68.3,128.34c0.064,0.083,0.928,1.257,1.737,2.696
			c-2.246,0.596-4.196,0.573-4.318,0.571C-70.578,130.158-69.605,128.957-68.3,128.34z M-70.981,132.571
			c0-0.05,0.001-0.099,0.004-0.147c0.082,0.001,2.394,0.053,4.802-0.667c0.134,0.261,0.262,0.529,0.38,0.795
			c-0.063,0.015-0.123,0.035-0.184,0.055c-2.524,0.817-3.804,3.089-3.804,3.089s0.001,0.001,0.001,0.002
			C-70.528,134.868-70.981,133.773-70.981,132.571z M-66.304,137.25c-1.133,0-2.171-0.403-2.98-1.074
			c0.061,0.05,0.105,0.082,0.105,0.082s0.897-1.956,3.671-2.921c0.01-0.004,0.02-0.008,0.031-0.01
			c0.658,1.71,0.93,3.143,0.999,3.552C-65.039,137.118-65.656,137.25-66.304,137.25z M-63.691,136.451
			c-0.047-0.283-0.297-1.656-0.91-3.342c1.51-0.242,2.818,0.172,2.915,0.205C-61.894,134.618-62.639,135.742-63.691,136.451z"/>
	</g>
	<g>
		<path fill="#1D94D2" d="M-66.304,209.263c6.05,0,10.954-4.906,10.954-10.956c0-6.051-4.904-10.956-10.954-10.956
			c-6.051,0-10.954,4.906-10.954,10.956C-77.258,204.358-72.355,209.263-66.304,209.263"/>
		<path fill="#FFFFFF" d="M-61.141,199.487c0.079-0.362,0.121-0.738,0.121-1.123c0-2.885-2.339-5.224-5.225-5.224
			c-0.304,0-0.602,0.026-0.894,0.076c-0.467-0.294-1.02-0.466-1.611-0.466c-1.674,0-3.03,1.356-3.03,3.031
			c0,0.559,0.152,1.082,0.416,1.532c-0.069,0.34-0.106,0.691-0.106,1.05c0,2.886,2.339,5.226,5.225,5.226
			c0.327,0,0.646-0.03,0.957-0.088c0.427,0.229,0.914,0.36,1.432,0.36c1.673,0,3.029-1.355,3.029-3.03
			C-60.827,200.348-60.94,199.892-61.141,199.487z M-63.565,200.862c-0.242,0.343-0.599,0.613-1.061,0.806
			c-0.458,0.191-1.009,0.288-1.633,0.288c-0.75,0-1.38-0.133-1.87-0.392c-0.351-0.19-0.641-0.446-0.861-0.764
			c-0.222-0.32-0.334-0.638-0.334-0.945c0-0.191,0.074-0.357,0.218-0.493c0.142-0.135,0.326-0.202,0.545-0.202
			c0.18,0,0.335,0.053,0.461,0.16c0.12,0.102,0.223,0.253,0.307,0.448c0.092,0.212,0.193,0.391,0.299,0.532
			c0.103,0.137,0.251,0.251,0.438,0.339c0.19,0.091,0.445,0.137,0.759,0.137c0.432,0,0.786-0.092,1.052-0.275
			c0.259-0.177,0.386-0.391,0.386-0.651c0-0.207-0.066-0.369-0.202-0.496c-0.142-0.134-0.33-0.237-0.557-0.309
			c-0.238-0.073-0.561-0.153-0.958-0.237c-0.542-0.116-1.003-0.253-1.369-0.41c-0.375-0.159-0.677-0.38-0.898-0.656
			c-0.225-0.282-0.34-0.633-0.34-1.049c0-0.394,0.12-0.751,0.355-1.057c0.234-0.305,0.575-0.542,1.014-0.704
			c0.434-0.16,0.95-0.242,1.534-0.242c0.467,0,0.876,0.054,1.219,0.161c0.345,0.107,0.635,0.251,0.863,0.43
			c0.23,0.178,0.402,0.371,0.508,0.57c0.107,0.202,0.163,0.403,0.163,0.597c0,0.187-0.072,0.355-0.214,0.503
			c-0.142,0.149-0.324,0.224-0.536,0.224c-0.194,0-0.345-0.047-0.45-0.139c-0.098-0.087-0.199-0.222-0.312-0.416
			c-0.13-0.247-0.288-0.442-0.47-0.579c-0.175-0.135-0.469-0.202-0.872-0.202c-0.374,0-0.68,0.074-0.905,0.223
			c-0.218,0.143-0.324,0.307-0.324,0.501c0,0.119,0.034,0.218,0.104,0.304c0.074,0.092,0.179,0.169,0.311,0.237
			c0.138,0.069,0.28,0.125,0.421,0.164c0.145,0.041,0.389,0.1,0.723,0.177c0.423,0.091,0.811,0.193,1.155,0.302
			c0.348,0.112,0.648,0.248,0.893,0.409c0.251,0.162,0.449,0.371,0.589,0.622c0.141,0.25,0.213,0.56,0.213,0.922
			C-63.2,200.126-63.323,200.52-63.565,200.862z"/>
	</g>
	<g>
		<path fill="#8C589F" d="M-66.304,274.999c6.05,0,10.954-4.906,10.954-10.956c0-6.05-4.904-10.956-10.954-10.956
			c-6.051,0-10.954,4.906-10.954,10.956C-77.258,270.093-72.355,274.999-66.304,274.999"/>
		<g>
			<path fill="#FFFFFF" d="M-62.958,262.387c0.061-0.012,0.151-0.032,0.254-0.054h0.789l0.123-0.182
				c0.001-0.001,0.007-0.001,0.009-0.001l0.306-0.442c-0.004,0-0.012-0.001-0.015-0.001l0.032-0.047h-4.281l0.166,0.674h1.169
				l-1.965,1.775c-0.402-0.554-1.342-1.709-1.998-2.664h1.472v-0.512l0.016-0.113c-0.004-0.001-0.012-0.003-0.016-0.003v-0.046
				h-4.882v0.675h1.448c0.562,0.44,2.711,3.124,2.8,3.391c0.035,0.252,0.068,1.731-0.037,1.842
				c-0.211,0.224-1.175,0.165-1.408,0.181l-0.08,0.458c0.424,0.013,1.806-0.034,2.236-0.034c0.846,0,2.329-0.004,2.539,0.012
				l0.025-0.482c-0.214-0.035-1.38-0.004-1.542-0.04c-0.036-0.233-0.074-1.791-0.04-1.951
				C-65.678,264.353-63.226,262.458-62.958,262.387z"/>
			<path fill="#FFFFFF" d="M-62.247,266.068l0.657,0.051l0.764-2.951c-0.127-0.004-1.288-0.114-1.438-0.143L-62.247,266.068z"/>
			<polygon fill="#FFFFFF" points="-62.36,266.541 -62.357,267.262 -62.025,267.291 -61.666,267.318 -61.561,266.612 
				-61.939,266.592 			"/>
		</g>
	</g>
	<g>
		<path fill="#ADCE74" d="M-66.304,340.735c6.05,0,10.954-4.906,10.954-10.956c0-6.051-4.904-10.956-10.954-10.956
			c-6.051,0-10.954,4.906-10.954,10.956C-77.258,335.829-72.355,340.735-66.304,340.735"/>
		<g>
			<g>
				<g>
					<g>
						<path id="SVGID_1_" fill="#FFFFFF" d="M-67.862,333.511c-0.562-0.373-1.156-0.705-2.014-0.705
							c-0.521,0-1.14,0.123-1.905,0.432l1.014-3.514c0.115-0.046,0.228-0.089,0.338-0.13c0.37-0.13,0.896-0.278,1.474-0.326
							c0.067-0.005,0.131-0.007,0.197-0.007c0.577,0,1.103,0.201,1.48,0.395c0.163,0.086,0.315,0.18,0.467,0.275
							C-66.947,330.391-67.654,332.806-67.862,333.511"/>
					</g>
				</g>
			</g>
			<g>
				<g>
					<g>
						<path id="SVGID_3_" fill="#FFFFFF" d="M-65.147,334.614c-0.888,0-2.071-0.729-2.07-0.729l1.011-3.509
							c0.307,0.245,1.02,0.713,2.192,0.713c0.539,0,1.175-0.1,1.914-0.365l-0.974,3.406
							C-63.915,334.476-64.586,334.614-65.147,334.614"/>
					</g>
				</g>
			</g>
			<g>
				<g>
					<g>
						<path id="SVGID_5_" fill="#FFFFFF" d="M-65.59,325.577v0.003c-0.209,0.712-0.825,2.825-1.032,3.529 M-66.623,329.109
							c-0.542-0.36-1.125-0.689-1.946-0.696c-0.009,0-0.017,0-0.028,0c-0.53,0-1.16,0.139-1.938,0.456l0.998-3.506
							c0.757-0.31,1.372-0.435,1.886-0.444c0.004,0,0.008,0,0.012,0c0.302,0,0.575,0.036,0.817,0.093
							c0.505,0.129,1.231,0.565,1.231,0.565"/>
					</g>
				</g>
			</g>
			<g>
				<g>
					<g>
						<path id="SVGID_7_" fill="#FFFFFF" d="M-63.786,330.266c-0.883,0-1.616-0.305-2.18-0.681c-0.003-0.003-0.007-0.005-0.01-0.008
							l1.024-3.545c0.324,0.253,1.057,0.724,2.167,0.724c0.559,0,1.212-0.12,1.959-0.445l-1.01,3.481
							c-0.003,0-0.006,0.001-0.007,0.001c0,0.001,0,0.004,0,0.005C-62.552,330.132-63.202,330.266-63.786,330.266"/>
					</g>
				</g>
			</g>
		</g>
	</g>
	<g>
		<path fill="#22B7EB" d="M-66.304,406.471c6.05,0,10.954-4.906,10.954-10.956c0-6.05-4.904-10.955-10.954-10.955
			c-6.051,0-10.954,4.905-10.954,10.955C-77.258,401.565-72.355,406.471-66.304,406.471"/>
		<g>
			<path fill="#FFFFFF" d="M-67.277,395.328l0.928-1.616c0.069-0.121,0.027-0.276-0.093-0.347l-0.659-0.378
				c-0.121-0.071-0.277-0.029-0.346,0.092l-1.012,1.762l0,0l-1.114,1.941l0,0l-0.931,1.621c-0.069,0.121-0.027,0.276,0.094,0.345
				l0.659,0.38c0.121,0.069,0.277,0.028,0.347-0.093l1.293-2.252l0,0L-67.277,395.328z"/>
			<path fill="#FFFFFF" d="M-61.056,394.842h-2.227c0.261,0.491,0.505,0.954,0.676,1.281c0.117,0.226,0.211,0.404,0.244,0.464
				c0.036,0.063,0.06,0.13,0.077,0.196h1.23c0.127,0,0.229-0.103,0.229-0.229v-1.483C-60.827,394.944-60.93,394.842-61.056,394.842z
				"/>
			<path fill="#FFFFFF" d="M-66.47,394.842l-1.114,1.941h3.024c-0.22-0.435-0.51-1.053-0.9-1.941H-66.47z"/>
			<path fill="#FFFFFF" d="M-68.989,394.842h-2.563c-0.127,0-0.229,0.102-0.229,0.229v1.483c0,0.126,0.102,0.229,0.229,0.229h1.45
				L-68.989,394.842z"/>
			<path fill="#FFFFFF" d="M-69.967,399.419l-0.659-0.38c-0.121-0.07-0.233-0.012-0.249,0.125l-0.112,0.994
				c-0.017,0.138,0.064,0.188,0.18,0.11l0.853-0.581C-69.842,399.61-69.846,399.488-69.967,399.419z"/>
			<path fill="#FFFFFF" d="M-62.763,396.807c-0.003-0.007-0.009-0.015-0.014-0.024l0,0c-0.061-0.113-0.215-0.409-0.416-0.792
				c-0.002-0.005-0.005-0.01-0.008-0.015c-0.015-0.03-0.031-0.059-0.046-0.089c-0.012-0.023-0.023-0.045-0.035-0.067
				c-0.01-0.018-0.02-0.038-0.03-0.058c-0.018-0.034-0.037-0.068-0.054-0.102c-0.007-0.012-0.012-0.023-0.018-0.033
				c-0.02-0.039-0.042-0.077-0.062-0.118c-0.006-0.012-0.012-0.022-0.018-0.034c-0.464-0.879-1.048-1.962-1.41-2.53
				c-0.63-0.996-1.471-2.658-1.706-2.541c-0.329,0.164,0.689,2.273,1.027,3.066c0.337,0.791,1.653,3.829,1.917,3.962
				c0.264,0.132,0.367,0.059,0.542-0.015C-62.917,397.346-62.603,397.102-62.763,396.807z"/>
			<path fill="#FFFFFF" d="M-62.011,398.372l-0.315-0.603c-0.072-0.137-0.238-0.193-0.372-0.125l-0.38,0.197
				c-0.134,0.068-0.175,0.229-0.093,0.361l0.398,0.628c0.082,0.129,0.256,0.171,0.383,0.093l0.27-0.162
				C-61.989,398.685-61.94,398.51-62.011,398.372z"/>
			<path fill="#FFFFFF" d="M-62.108,399.245c-0.099,0.096-0.334,0.301-0.05,0.701c0.286,0.402,0.919,0.419,1.003,0.684
				C-61.156,400.631-60.957,398.597-62.108,399.245z"/>
		</g>
	</g>
	<g>
		<path fill="#FCC233" d="M-66.304,472.207c6.05,0,10.954-4.906,10.954-10.956c0-6.051-4.904-10.956-10.954-10.956
			c-6.051,0-10.954,4.906-10.954,10.956C-77.258,467.301-72.355,472.207-66.304,472.207"/>
		<g>
			<path fill="#FFFFFF" d="M-62.412,464.641c-0.055-0.001-0.11,0.012-0.162,0.037c-0.059,0.023-0.12,0.05-0.176,0.074l-0.083,0.035
				l-0.107,0.043v0.001c-1.176,0.477-2.41,0.757-3.552,0.781c-0.042,0.001-0.084,0.001-0.126,0.001
				c-1.796,0.001-3.262-0.834-4.741-1.655c-0.051-0.026-0.104-0.04-0.156-0.04c-0.066,0-0.135,0.023-0.184,0.07
				c-0.05,0.047-0.079,0.116-0.079,0.184c0,0.091,0.048,0.172,0.115,0.226c1.388,1.205,2.91,2.326,4.955,2.326
				c0.04,0,0.08,0,0.121-0.001c1.301-0.028,2.773-0.47,3.915-1.186l0.007-0.005c0.15-0.089,0.299-0.191,0.44-0.303
				c0.088-0.066,0.148-0.167,0.148-0.273C-62.081,464.769-62.24,464.641-62.412,464.641z"/>
			<path fill="#FFFFFF" d="M-60.827,463.976v-0.001c-0.005-0.115-0.028-0.2-0.077-0.273l-0.004-0.007l-0.006-0.007
				c-0.048-0.053-0.096-0.074-0.145-0.096c-0.15-0.057-0.368-0.088-0.631-0.09c-0.189,0-0.397,0.019-0.607,0.064v-0.014
				l-0.211,0.071l-0.004,0.001l-0.119,0.039v0.005c-0.139,0.058-0.267,0.131-0.385,0.215c-0.073,0.056-0.134,0.129-0.137,0.239
				c-0.001,0.061,0.029,0.131,0.08,0.172c0.051,0.042,0.11,0.056,0.163,0.056c0.013,0,0.024-0.001,0.034-0.003l0.01-0.001
				l0.009-0.001c0.103-0.021,0.253-0.037,0.428-0.062c0.151-0.016,0.311-0.028,0.449-0.028c0.099,0,0.187,0.007,0.247,0.02
				c0.03,0.007,0.053,0.014,0.066,0.02c0.004,0.001,0.007,0.004,0.009,0.005c0.003,0.009,0.007,0.03,0.006,0.061
				c0.001,0.115-0.047,0.33-0.114,0.54c-0.066,0.21-0.146,0.42-0.199,0.56c-0.012,0.033-0.02,0.068-0.02,0.107
				c-0.001,0.057,0.021,0.125,0.07,0.169c0.048,0.045,0.11,0.064,0.161,0.064h0.003c0.077-0.001,0.142-0.032,0.199-0.077
				c0.535-0.481,0.721-1.248,0.729-1.68L-60.827,463.976z"/>
			<path fill="#FFFFFF" d="M-65.716,458.821c-0.315,0.023-0.678,0.047-1.04,0.096c-0.557,0.073-1.112,0.168-1.571,0.387
				c-0.895,0.362-1.499,1.136-1.499,2.271c0,1.427,0.919,2.152,2.079,2.152c0.386,0,0.701-0.049,0.99-0.121
				c0.46-0.145,0.846-0.411,1.305-0.895c0.267,0.362,0.34,0.532,0.798,0.918c0.121,0.047,0.242,0.047,0.338-0.023
				c0.291-0.242,0.8-0.678,1.064-0.919c0.121-0.096,0.097-0.242,0.024-0.362c-0.265-0.338-0.532-0.629-0.532-1.282v-2.176
				c0-0.92,0.073-1.765-0.603-2.393c-0.557-0.508-1.426-0.702-2.103-0.702h-0.29c-1.233,0.072-2.538,0.603-2.829,2.127
				c-0.048,0.194,0.097,0.265,0.194,0.289l1.354,0.17c0.145-0.024,0.218-0.146,0.241-0.266c0.121-0.532,0.557-0.798,1.04-0.846
				h0.097c0.289,0,0.605,0.121,0.773,0.364c0.194,0.289,0.169,0.677,0.169,1.016L-65.716,458.821L-65.716,458.821z M-65.983,461.697
				c-0.169,0.337-0.46,0.555-0.774,0.629c-0.048,0-0.121,0.024-0.194,0.024c-0.532,0-0.846-0.411-0.846-1.016
				c0-0.774,0.459-1.136,1.04-1.306c0.314-0.074,0.677-0.097,1.04-0.097v0.29C-65.716,460.779-65.693,461.213-65.983,461.697z"/>
		</g>
	</g>
	<g>
		<path fill="#D5DF80" d="M-66.304,537.942c6.05,0,10.954-4.906,10.954-10.956c0-6.05-4.904-10.956-10.954-10.956
			c-6.051,0-10.954,4.906-10.954,10.956C-77.258,533.037-72.355,537.942-66.304,537.942"/>
		<g>
			<path fill="#FFFFFF" d="M-64.668,522.462l0.119-0.178l0.118-0.177l0.263-0.396c0.033-0.049,0.02-0.115-0.029-0.148
				c-0.047-0.033-0.114-0.018-0.146,0.031l-0.284,0.424l-0.12,0.179l-0.12,0.181c-0.383-0.148-0.81-0.233-1.262-0.233
				c-0.45,0-0.878,0.085-1.261,0.233l-0.121-0.181l-0.119-0.179l-0.284-0.424c-0.032-0.049-0.098-0.064-0.147-0.031
				c-0.048,0.033-0.062,0.099-0.029,0.148l0.264,0.396l0.118,0.177l0.12,0.178c-0.9,0.419-1.509,1.212-1.509,2.122h5.935
				C-63.16,523.674-63.768,522.881-64.668,522.462z M-67.4,523.736c-0.176,0-0.318-0.143-0.318-0.318
				c0-0.176,0.142-0.318,0.318-0.318c0.175,0,0.318,0.142,0.318,0.318C-67.081,523.593-67.224,523.736-67.4,523.736z
				 M-64.857,523.736c-0.175,0-0.318-0.143-0.318-0.318c0-0.176,0.142-0.318,0.318-0.318c0.177,0,0.319,0.142,0.319,0.318
				C-64.537,523.593-64.679,523.736-64.857,523.736z"/>
			<path fill="#FFFFFF" d="M-69.05,525.009h-0.045v0.528v0.432v3.705c0,0.37,0.301,0.671,0.672,0.671h0.483
				c-0.015,0.056-0.025,0.115-0.025,0.176v0.036v0.211v1.096c0,0.351,0.285,0.636,0.635,0.636c0.351,0,0.637-0.286,0.637-0.636
				v-1.096v-0.211v-0.036c0-0.061-0.009-0.121-0.026-0.176h1.181c-0.016,0.056-0.025,0.115-0.025,0.176v0.036v0.211v1.096
				c0,0.351,0.286,0.636,0.636,0.636c0.351,0,0.636-0.286,0.636-0.636v-1.096v-0.211v-0.036c0-0.061-0.01-0.121-0.026-0.176h0.485
				c0.371,0,0.67-0.301,0.67-0.671v-3.705v-0.432v-0.528h-0.045H-69.05z"/>
			<path fill="#FFFFFF" d="M-70.155,525.009c-0.351,0-0.637,0.285-0.637,0.635v2.723c0,0.35,0.286,0.636,0.637,0.636
				c0.351,0,0.635-0.286,0.635-0.636v-2.723C-69.52,525.293-69.805,525.009-70.155,525.009z"/>
			<path fill="#FFFFFF" d="M-62.099,525.009c-0.352,0-0.636,0.285-0.636,0.635v2.723c0,0.35,0.284,0.636,0.636,0.636
				c0.351,0,0.635-0.286,0.635-0.636v-2.723C-61.463,525.293-61.748,525.009-62.099,525.009z"/>
		</g>
	</g>
	<g>
		<path fill="#696969" d="M18.848,29.838c20.306,0,36.766-16.465,36.766-36.771c0-20.308-16.46-36.773-36.766-36.773
			c-20.308,0-36.766,16.465-36.766,36.773C-17.918,13.373-1.461,29.838,18.848,29.838"/>
		<path fill="#FFFFFF" d="M30.13-25.32H7.577c-3.919,0-7.106,3.189-7.106,7.106v7.506V4.35c0,3.917,3.189,7.099,7.106,7.099H30.13
			c3.919,0,7.106-3.184,7.106-7.099v-15.058v-7.506C37.237-22.131,34.048-25.32,30.13-25.32z M32.167-21.079l0.814-0.005v0.811
			v5.422l-6.211,0.022l-0.022-6.234L32.167-21.079z M13.604-10.706c1.177-1.63,3.089-2.696,5.248-2.696s4.069,1.066,5.248,2.696
			c0.765,1.066,1.226,2.365,1.226,3.772c0,3.567-2.907,6.474-6.474,6.474s-6.471-2.907-6.471-6.474
			C12.381-8.34,12.84-9.639,13.604-10.706z M33.653,4.352c0,1.941-1.581,3.522-3.525,3.522H7.574c-1.944,0-3.525-1.581-3.525-3.522
			v-15.058h5.488C9.065-9.539,8.795-8.269,8.795-6.933c0,5.545,4.51,10.06,10.055,10.06s10.055-4.515,10.055-10.06
			c0-1.336-0.267-2.606-0.743-3.772h5.488V4.352H33.653z"/>
	</g>
	<g>
		<path fill="#4D75B8" d="M-66.304,669.414c6.05,0,10.954-4.906,10.954-10.956c0-6.05-4.904-10.956-10.954-10.956
			c-6.051,0-10.954,4.906-10.954,10.956C-77.258,664.508-72.355,669.414-66.304,669.414"/>
		<polygon fill="#FFFFFF" points="-60.825,659.776 -71.78,659.776 -71.78,657.141 -70.56,657.141 -70.56,658.555 -62.046,658.555 
			-62.046,657.141 -60.825,657.141 		"/>
	</g>
	<g>
		<path fill="#859563" d="M-66.304,735.149c6.051,0,10.954-4.906,10.954-10.956c0-6.05-4.903-10.956-10.954-10.956
			s-10.954,4.906-10.954,10.956C-77.258,730.243-72.355,735.149-66.304,735.149"/>
		<path fill="#FFFFFF" d="M-61.528,729.318l-4.538-10.453c-0.039-0.092-0.13-0.151-0.23-0.151l0,0c-0.101,0-0.191,0.059-0.23,0.151
			l-4.552,10.453c-0.034,0.077-0.026,0.169,0.02,0.239c0.045,0.071,0.124,0.113,0.21,0.113h4.038v-2.22l-1.082-0.75l0.179-0.258
			l0.903,0.627v-1.781h1.028v1.171l0.941-0.475l0.142,0.28l-1.083,0.546v0.862l1.727-0.87l0.142,0.279l-1.87,0.942v1.648h4.023
			c0.085,0,0.164-0.043,0.21-0.113C-61.503,729.487-61.495,729.396-61.528,729.318z"/>
	</g>
	<g>
		<path fill="#8FD2F0" d="M-66.304,33.969c6.05,0,10.954-4.906,10.954-10.956s-4.904-10.956-10.954-10.956
			c-6.051,0-10.954,4.905-10.954,10.956S-72.355,33.969-66.304,33.969"/>
		<g>
			<polygon fill="#FFFFFF" points="-71.781,23.59 -68.558,25.693 -66.304,23.813 -69.553,21.807 			"/>
			<polygon fill="#FFFFFF" points="-68.558,17.92 -71.781,20.022 -69.553,21.807 -66.304,19.801 			"/>
			<polygon fill="#FFFFFF" points="-60.827,20.022 -64.049,17.92 -66.304,19.801 -63.055,21.807 			"/>
			<polygon fill="#FFFFFF" points="-66.304,23.813 -64.049,25.693 -60.827,23.59 -63.055,21.807 			"/>
			<polygon fill="#FFFFFF" points="-66.297,24.217 -68.558,26.092 -69.526,25.46 -69.526,26.169 -66.297,28.105 -63.067,26.169 
				-63.067,25.46 -64.036,26.092 			"/>
		</g>
	</g>
	<g>
		<path fill="#E8476D" d="M-66.304,99.705c6.05,0,10.954-4.906,10.954-10.956c0-6.05-4.904-10.956-10.954-10.956
			c-6.051,0-10.954,4.906-10.954,10.956C-77.258,94.799-72.355,99.705-66.304,99.705"/>
		<path fill="#FFFFFF" d="M-62.604,88.216c-0.096-0.031-0.189-0.06-0.278-0.088c-0.682-0.215-1.094-0.345-1.094-0.874
			c0-0.432,0.332-0.744,0.79-0.744c0.351,0,0.613,0.146,0.847,0.474c0.021,0.031,0.063,0.042,0.096,0.024l0.688-0.352
			c0.018-0.009,0.033-0.025,0.039-0.045c0.006-0.02,0.004-0.042-0.007-0.06c-0.369-0.654-0.9-0.973-1.626-0.973
			c-1.103,0-1.816,0.667-1.816,1.699c0,1.057,0.689,1.483,1.962,1.902c0.738,0.245,1.064,0.377,1.064,0.9
			c0,0.591-0.532,1.014-1.258,0.989c-0.761-0.026-0.991-0.429-1.28-1.089c-0.491-1.117-1.048-2.423-1.053-2.436
			c-0.559-1.292-1.669-2.032-3.044-2.032c-1.816,0-3.295,1.478-3.295,3.297c0,1.816,1.478,3.295,3.295,3.295
			c0.99,0,1.919-0.439,2.547-1.207c0.018-0.021,0.023-0.051,0.012-0.077l-0.415-0.958c-0.012-0.026-0.039-0.045-0.069-0.046
			c-0.03-0.001-0.056,0.016-0.07,0.042c-0.392,0.749-1.16,1.215-2.005,1.215c-1.247,0-2.262-1.016-2.262-2.263
			c0-1.248,1.015-2.263,2.262-2.263c0.907,0,1.739,0.538,2.07,1.343l1.026,2.344l0.119,0.263c0.465,1.082,1.147,1.567,2.215,1.569
			c1.271,0,2.23-0.841,2.23-1.958C-60.913,88.986-61.534,88.566-62.604,88.216z"/>
	</g>
	<g>
		<path fill="#F2CA59" d="M-66.304,165.438c6.05,0,10.954-4.906,10.954-10.956s-4.904-10.955-10.954-10.955
			c-6.051,0-10.954,4.906-10.954,10.956S-72.355,165.438-66.304,165.438"/>
		<path fill="#FFFFFF" d="M-71.252,156.258c0.023,0,0.043-0.018,0.045-0.045l0.123-0.962l-0.122-0.984
			c-0.004-0.026-0.023-0.045-0.046-0.045c-0.023,0-0.042,0.018-0.045,0.045l-0.107,0.984l0.107,0.962
			C-71.294,156.241-71.275,156.258-71.252,156.258z M-71.614,155.851L-71.614,155.851L-71.614,155.851L-71.614,155.851z
			 M-71.657,155.894c0.022,0,0.04-0.018,0.044-0.043l0.096-0.599l-0.096-0.608c-0.004-0.025-0.021-0.043-0.044-0.043
			c-0.023,0-0.04,0.018-0.044,0.043l-0.08,0.608l0.08,0.599C-71.698,155.876-71.68,155.894-71.657,155.894z M-70.767,154.086
			c-0.003-0.031-0.026-0.054-0.054-0.054c-0.029,0-0.053,0.023-0.055,0.054l-0.102,1.168l0.102,1.124
			c0.002,0.031,0.026,0.053,0.055,0.053c0.028,0,0.051-0.022,0.054-0.053l0.117-1.124L-70.767,154.086z M-70.388,156.476
			c0.034,0,0.061-0.026,0.064-0.063l0,0l0.11-1.16l-0.11-1.201c-0.003-0.037-0.031-0.063-0.064-0.063s-0.061,0.026-0.064,0.063
			l-0.097,1.201l0.097,1.16C-70.449,156.449-70.422,156.476-70.388,156.476z M-69.951,156.494c0.039,0,0.071-0.031,0.074-0.072l0,0
			l0.104-1.17l-0.104-1.113c-0.003-0.042-0.034-0.072-0.074-0.072s-0.071,0.031-0.074,0.072l-0.091,1.113l0.091,1.17
			C-70.021,156.463-69.99,156.494-69.951,156.494z M-69.33,155.253l-0.097-1.811c-0.003-0.045-0.039-0.082-0.083-0.082
			c-0.045,0-0.081,0.037-0.083,0.082l-0.085,1.811l0.085,1.17c0.001,0.045,0.039,0.082,0.083,0.082c0.044,0,0.08-0.037,0.083-0.082
			l0,0L-69.33,155.253z M-69.065,156.507c0.05,0,0.09-0.04,0.093-0.092v0.001l0.09-1.163l-0.09-2.225
			c-0.003-0.05-0.043-0.091-0.093-0.091c-0.049,0-0.09,0.041-0.092,0.091l-0.08,2.225l0.08,1.162
			C-69.155,156.467-69.115,156.507-69.065,156.507z M-68.617,152.744c-0.055,0-0.099,0.045-0.102,0.1l-0.075,2.41l0.075,1.15
			c0.003,0.057,0.047,0.102,0.102,0.102s0.099-0.045,0.102-0.102l0,0l0.084-1.15l-0.084-2.41
			C-68.518,152.788-68.562,152.744-68.617,152.744z M-68.166,156.507c0.06,0,0.108-0.049,0.111-0.11v0.001l0.077-1.144l-0.077-2.49
			c-0.003-0.063-0.051-0.11-0.111-0.11s-0.11,0.047-0.111,0.11l-0.069,2.49l0.069,1.144
			C-68.275,156.458-68.226,156.507-68.166,156.507z M-67.711,156.506c0.066,0,0.118-0.053,0.12-0.119l0,0l0.072-1.133l-0.072-2.428
			c-0.001-0.066-0.054-0.118-0.12-0.118c-0.066,0-0.12,0.053-0.121,0.118l-0.064,2.428l0.064,1.133
			C-67.83,156.453-67.777,156.506-67.711,156.506z M-67.057,155.254l-0.065-2.34c-0.002-0.072-0.058-0.128-0.131-0.128
			c-0.072,0-0.129,0.056-0.13,0.129l-0.057,2.339l0.057,1.126c0.001,0.071,0.058,0.127,0.13,0.127c0.072,0,0.129-0.056,0.131-0.129
			v0.001L-67.057,155.254z M-66.79,156.51c0.075,0,0.137-0.062,0.139-0.139v0.001l0.058-1.118l-0.058-2.783
			c-0.001-0.077-0.064-0.139-0.139-0.139c-0.076,0-0.137,0.062-0.139,0.139l-0.053,2.782c0,0.002,0.053,1.119,0.053,1.119
			C-66.928,156.448-66.866,156.51-66.79,156.51z M-66.33,152.071c-0.081,0-0.148,0.067-0.149,0.149l-0.061,3.034l0.061,1.102
			c0.001,0.08,0.068,0.148,0.149,0.148c0.08,0,0.147-0.067,0.148-0.148v0.001l0.066-1.102l-0.066-3.035
			C-66.183,152.138-66.25,152.071-66.33,152.071z M-65.909,156.511c0.004,0,3.711,0.001,3.734,0.001
			c0.745,0,1.348-0.602,1.348-1.347c0-0.743-0.603-1.347-1.348-1.347c-0.185,0-0.361,0.038-0.521,0.104
			c-0.107-1.214-1.125-2.167-2.368-2.167c-0.304,0-0.6,0.059-0.863,0.161c-0.102,0.039-0.129,0.08-0.129,0.159v4.275
			C-66.054,156.434-65.989,156.502-65.909,156.511z"/>
	</g>
	<g>
		<path fill="#56ACDD" d="M-66.304,231.175c6.05,0,10.954-4.906,10.954-10.956c0-6.051-4.904-10.956-10.954-10.956
			c-6.051,0-10.954,4.906-10.954,10.956C-77.258,226.269-72.355,231.175-66.304,231.175"/>
		<path fill="#FFFFFF" d="M-71.781,220.219c0,2.168,1.261,4.042,3.088,4.93l-2.613-7.159
			C-71.611,218.67-71.781,219.424-71.781,220.219z M-62.606,219.942c0-0.677-0.244-1.147-0.452-1.51
			c-0.278-0.452-0.538-0.834-0.538-1.285c0-0.502,0.381-0.973,0.921-0.973c0.022,0,0.046,0.004,0.071,0.006
			c-0.976-0.894-2.274-1.439-3.698-1.439c-1.914,0-3.598,0.982-4.576,2.469c0.129,0.004,0.248,0.008,0.352,0.008
			c0.573,0,1.458-0.071,1.458-0.071c0.295-0.016,0.33,0.416,0.035,0.451c0,0-0.297,0.034-0.626,0.052l1.995,5.933l1.198-3.595
			l-0.854-2.339c-0.295-0.018-0.575-0.052-0.575-0.052c-0.295-0.017-0.259-0.468,0.036-0.451c0,0,0.904,0.071,1.442,0.071
			c0.572,0,1.461-0.071,1.461-0.071c0.294-0.016,0.329,0.416,0.034,0.451c0,0-0.297,0.034-0.626,0.052l1.978,5.888l0.548-1.824
			C-62.745,221.002-62.606,220.411-62.606,219.942z M-66.207,220.699l-1.643,4.776c0.489,0.145,1.009,0.223,1.548,0.223
			c0.637,0,1.25-0.109,1.819-0.311c-0.015-0.023-0.028-0.047-0.039-0.074L-66.207,220.699z M-61.497,217.59
			c0.023,0.176,0.037,0.362,0.037,0.565c0,0.555-0.104,1.18-0.416,1.962l-1.672,4.837c1.628-0.949,2.723-2.714,2.723-4.734
			C-60.827,219.267-61.069,218.372-61.497,217.59z"/>
	</g>
	<g>
		<path fill="#282828" d="M-66.304,296.91c6.05,0,10.954-4.906,10.954-10.956s-4.904-10.956-10.954-10.956
			c-6.051,0-10.954,4.906-10.954,10.956S-72.355,296.91-66.304,296.91"/>
		<g>
			<path fill="#FFFFFF" d="M-70.132,282.834v1.451h-1.648v3.323h2.718v-4.774H-70.132z M-70.132,286.715h-0.559v-1.51h0.559V286.715
				z"/>
			<path fill="#FFFFFF" d="M-66.83,284.3v3.323h1.648v0.519h-1.667v0.933h2.265h0.473V284.3H-66.83z M-65.182,286.703h-0.559v-1.51
				h0.559V286.703z"/>
			<path fill="#FFFFFF" d="M-63.546,284.3v3.323h1.648v0.519h-1.667v0.933h2.267h0.472V284.3H-63.546z M-61.898,286.703h-0.557
				v-1.51h0.558L-61.898,286.703L-61.898,286.703z"/>
			<rect x="-68.51" y="284.279" fill="#FFFFFF" width="1.109" height="3.343"/>
			<rect x="-68.51" y="282.894" fill="#FFFFFF" width="1.109" height="0.907"/>
		</g>
	</g>
	<g>
		<path fill="#9ECC91" d="M-66.304,362.647c6.05,0,10.954-4.906,10.954-10.956c0-6.051-4.904-10.956-10.954-10.956
			c-6.051,0-10.954,4.906-10.954,10.956C-77.258,357.741-72.355,362.647-66.304,362.647"/>
		<path fill="#FFFFFF" d="M-66.592,353.547c0.032-0.958-0.777-1.781-1.803-1.836l-0.386-0.019c-0.374-0.019-0.689-0.329-0.689-0.676
			c0-0.335,0.311-0.624,0.673-0.624h2.539c0.363,0,0.643,0.313,0.643,0.675v2.336c0,1.035,0.841,1.875,1.875,1.875h0.307
			c1.033,0,1.874-0.84,1.874-1.875v-7.85c-0.045-0.003-0.088-0.015-0.134-0.015h-1.082v7.865c0,0.362-0.294,0.657-0.657,0.657
			h-0.307c-0.364,0-0.659-0.294-0.659-0.657v-2.336c0-1.035-0.84-1.875-1.874-1.875h-2.538c-1.034,0-1.875,0.818-1.875,1.825
			c0,0.99,0.826,1.84,1.841,1.892l0.386,0.021c0.362,0.018,0.66,0.283,0.651,0.578c-0.01,0.3-0.329,0.552-0.697,0.552h-4.008v1.218
			h4.007C-67.481,355.278-66.624,354.502-66.592,353.547z"/>
	</g>
	<g>
		<path fill="#E73B3A" d="M-66.304,428.383c6.05,0,10.954-4.906,10.954-10.956c0-6.051-4.904-10.956-10.954-10.956
			c-6.051,0-10.954,4.906-10.954,10.956C-77.258,423.478-72.355,428.383-66.304,428.383"/>
		<g>
			<path fill="#FFFFFF" d="M-65.81,416.797c-0.145-0.101-0.332-0.156-0.593-0.156c-0.384,0-0.643,0.099-0.868,0.397h-0.015v-1.838
				h-1.06v1.526c0.015,0.007,0.031,0.014,0.045,0.02c0.408,0.159,0.642,0.386,0.766,0.662c0.124,0.272,0.138,0.584,0.111,0.919l0,0
				c-0.006,0.064-0.057,0.114-0.121,0.114h-0.802v0.001v0.102h0.769l0,0h0.007c0.066,0.004,0.117,0.062,0.114,0.131
				c-0.01,0.201-0.088,0.378-0.232,0.532c-0.131,0.141-0.32,0.261-0.559,0.362c-0.03,0.026-0.039,0.031-0.073,0.033l-0.025,0.01
				v0.589h1.01v-0.381h0.018c0.191,0.336,0.483,0.456,0.901,0.456c0.827,0,1.011-0.634,1.058-1.246l-0.015-0.003l0,0h-0.003
				c-0.371-0.077-0.604-0.294-0.733-0.586l0,0c-0.024-0.056-0.045-0.115-0.063-0.173c-0.039-0.143-0.058-0.301-0.058-0.466l0,0
				v-0.003c0-0.242,0.039-0.445,0.114-0.616C-66.046,417.022-65.942,416.894-65.81,416.797L-65.81,416.797z M-66.403,418.417
				c0,0.884-0.061,1.25-0.451,1.25c-0.368,0-0.434-0.366-0.434-1.25c0-0.687,0-1.174,0.434-1.174
				C-66.386,417.243-66.403,417.73-66.403,418.417L-66.403,418.417z"/>
			<path fill="#FFFFFF" d="M-67.578,418.669h-0.769h-0.565h-0.017h-0.626c0,0.265-0.142,0.562-0.836,0.562
				c-0.857,0-0.873-0.547-0.873-0.914h2.917h0.801c0.049-0.632-0.049-1.164-0.802-1.456c-0.165-0.074-0.357-0.121-0.583-0.16
				c-0.368-0.076-0.852-0.121-1.461-0.121c-2.56,0-2.835,0.722-2.835,1.561c0,0.968,0.325,1.648,2.835,1.648
				c0.577,0,1.078-0.061,1.478-0.131c0.208-0.045,0.401-0.106,0.565-0.181c0.016,0,0.016,0,0.032-0.015
				C-67.847,419.271-67.595,419.01-67.578,418.669L-67.578,418.669z M-70.392,417.113c0.933,0,0.901,0.426,0.901,0.716h-1.774
				C-71.264,417.579-71.275,417.113-70.392,417.113L-70.392,417.113z"/>
			<path fill="#FFFFFF" d="M-65.711,416.876c-0.259,0.176-0.401,0.472-0.401,0.923c0,0.532,0.208,0.99,0.757,1.106
				c0.077,0.016,0.16,0.016,0.259,0.016c0.468,0,0.77-0.176,0.994-0.528h0.017l0.049,0.466h1.001c-0.017-0.22-0.05-0.441-0.05-0.662
				v-0.667l-0.106-0.197l0,0l-1.066-1.972l-0.04-0.076c-0.104-0.009-0.214-0.015-0.332-0.015c-0.407,0-0.759,0.061-1.001,0.235
				c-0.258,0.151-0.402,0.426-0.402,0.853h1.061c0-0.276,0.017-0.543,0.401-0.543c0.389,0,0.434,0.222,0.434,0.513v0.281
				C-64.743,416.595-65.337,416.611-65.711,416.876L-65.711,416.876z M-64.661,418.316c-0.358,0-0.407-0.311-0.407-0.557
				c0-0.618,0.407-0.577,0.933-0.608C-64.134,417.539-64.036,418.316-64.661,418.316L-64.661,418.316z"/>
			<polygon fill="#FFFFFF" points="-60.8,414.834 -61.875,416.932 -62.877,414.834 -64.402,414.834 -64.15,415.302 -63.085,417.273 
				-62.649,418.081 -62.649,419.803 -61.249,419.803 -61.249,418.081 -59.381,414.834 			"/>
		</g>
	</g>
	<g>
		<path fill="#B08ABE" d="M-66.304,494.118c6.05,0,10.954-4.906,10.954-10.956c0-6.05-4.904-10.956-10.954-10.956
			c-6.051,0-10.954,4.906-10.954,10.956C-77.258,489.214-72.355,494.118-66.304,494.118"/>
		<g>
			<g>
				<path fill="#FFFFFF" d="M-64.044,478.078c-0.715-0.325-1.475-0.492-2.258-0.492c-0.654,0-1.295,0.126-1.913,0.358
					c0.145,0.131,3.984,3.616,4.171,3.787C-64.044,481.48-64.044,478.155-64.044,478.078L-64.044,478.078z"/>
			</g>
			<g>
				<path fill="#FFFFFF" d="M-69.122,487.744c0-0.214,0-4.459,0-4.711c-0.183,0.166-2.2,1.999-2.263,2.057
					C-70.945,486.191-70.145,487.124-69.122,487.744L-69.122,487.744z"/>
			</g>
			<g>
				<path fill="#FFFFFF" d="M-71.78,483.065c0,0.47,0.072,0.949,0.199,1.423c0.147-0.134,4.759-4.326,4.854-4.413
					c-0.092-0.083-2.01-1.824-2.073-1.882C-70.639,479.138-71.78,480.999-71.78,483.065L-71.78,483.065z"/>
			</g>
			<g>
				<path fill="#FFFFFF" d="M-68.546,485.446c0,0.113,0,2.536,0,2.613c0.557,0.251,1.139,0.405,1.738,0.461h1.004
					c1.892-0.177,3.581-1.344,4.421-3.074C-61.581,485.446-68.429,485.446-68.546,485.446L-68.546,485.446z"/>
			</g>
			<g>
				<path fill="#FFFFFF" d="M-63.467,478.391c0,0.218,0,6.36,0,6.477c0.111,0,2.244,0,2.33,0c0.204-0.586,0.312-1.19,0.312-1.805
					C-60.825,481.161-61.838,479.384-63.467,478.391L-63.467,478.391z"/>
			</g>
		</g>
	</g>
	<g>
		<path fill="#5168AE" d="M-66.304,559.854c6.05,0,10.954-4.906,10.954-10.956c0-6.051-4.904-10.956-10.954-10.956
			c-6.051,0-10.954,4.906-10.954,10.956C-77.258,554.949-72.355,559.854-66.304,559.854"/>
		<path fill="#FFFFFF" d="M-60.831,546.115c-0.024-0.461-0.147-0.855-0.335-1.191c-0.549-0.977-1.668-1.437-2.688-1.437h-5.493
			l-2.433,10.821h3.224l0.787-3.582h2.306c0.024,0,0.053-0.004,0.08-0.004c1.308-0.021,2.484-0.508,3.319-1.377
			c0.543-0.57,0.944-1.299,1.139-2.174C-60.843,546.79-60.815,546.436-60.831,546.115z M-63.952,547.174
			c-0.087,0.357-0.291,0.684-0.562,0.941c-0.096,0.09-0.206,0.172-0.32,0.244c-0.291,0.183-0.627,0.295-0.963,0.295h-1.512
			l0.641-2.745l0.053-0.217h1.578c0.272,0,0.511,0.082,0.703,0.217C-63.976,546.169-63.8,546.634-63.952,547.174z"/>
	</g>
	<g>
		<path fill="#6A8751" d="M-66.304,625.59c6.05,0,10.954-4.906,10.954-10.956c0-6.05-4.904-10.956-10.954-10.956
			c-6.051,0-10.954,4.906-10.954,10.956C-77.258,620.685-72.355,625.59-66.304,625.59"/>
		<path fill="#FFFFFF" d="M-67.811,613.407c2.48-0.714,4.55,0.746,4.55,0.746l-1.707,0.46l-0.492-0.913
			c-0.462-0.085-0.99-0.112-1.55-0.018l1.162,2.361l5.021-1.445c0,0-1.821-2.861-7.252-1.935c-0.031,0.005-0.06,0.014-0.091,0.018
			l-0.528-1.072l-1.564,0.178l0.638,1.302c-3.295,1.361-1.835,4.571-1.835,4.571l5.028-1.446L-67.811,613.407z M-70.097,615.998
			c0,0-0.485-1.07,0.925-1.987l0.75,1.535L-70.097,615.998z"/>
	</g>
	<g>
		<path fill="#3A4C8E" d="M-66.304,757.061c6.051,0,10.954-4.906,10.954-10.956c0-6.051-4.903-10.956-10.954-10.956
			s-10.954,4.906-10.954,10.956C-77.258,752.156-72.355,757.061-66.304,757.061"/>
		<path fill="#FFFFFF" d="M-61.055,740.627h-10.497c-0.126,0-0.229,0.104-0.229,0.229v10.498c0,0.127,0.104,0.229,0.229,0.229
			h10.496c0.127,0,0.229-0.102,0.229-0.229v-10.498C-60.827,740.73-60.929,740.627-61.055,740.627z M-66.304,751.125v-5.02h-5.019
			v-5.021h5.019v5.021h5.02v5.02H-66.304z"/>
	</g>
	<g>
		<path fill="#CCCBCB" d="M-66.304,691.326c6.05,0,10.954-4.906,10.954-10.956c0-6.051-4.904-10.956-10.954-10.956
			c-6.051,0-10.954,4.906-10.954,10.956C-77.258,686.42-72.355,691.326-66.304,691.326"/>
		<g>
			<polygon fill="#FFFFFF" points="-67.929,682.378 -67.99,682.378 -68.019,682.431 -69.503,685.026 -69.593,685.182 
				-69.412,685.182 -62.492,685.182 -62.431,685.182 -62.4,685.13 -60.916,682.535 -60.827,682.378 -61.007,682.378 			"/>
			<polygon fill="#FFFFFF" points="-64.087,681.723 -64.056,681.775 -63.996,681.775 -61.007,681.762 -60.827,681.762 
				-60.916,681.605 -64.377,675.61 -64.407,675.558 -64.468,675.558 -67.457,675.57 -67.638,675.571 -67.548,675.728 			"/>
			<polygon fill="#FFFFFF" points="-66.573,678.675 -66.603,678.622 -68.109,676.039 -68.2,675.884 -68.29,676.04 -71.75,682.034 
				-71.781,682.087 -71.75,682.14 -70.245,684.723 -70.154,684.878 -70.064,684.722 -66.603,678.726 			"/>
		</g>
	</g>
</g>
<line fill="none" x1="-57.833" y1="-56.167" x2="112.5" y2="30.833"/>
</svg>
