<?xml version="1.0" encoding="utf-8"?>
<!-- Generator: Adobe Illustrator 17.0.0, SVG Export Plug-In . SVG Version: 6.00 Build 0)  -->
<!DOCTYPE svg PUBLIC "-//W3C//DTD SVG 1.1//EN" "http://www.w3.org/Graphics/SVG/1.1/DTD/svg11.dtd">
<svg version="1.1" id="Capa_1" xmlns="http://www.w3.org/2000/svg" xmlns:xlink="http://www.w3.org/1999/xlink" x="0px" y="0px"
	 width="52.208px" height="49.583px" viewBox="8.625 -18.75 52.208 49.583" enable-background="new 8.625 -18.75 52.208 49.583"
	 xml:space="preserve">
<g>
	<g>
		<path fill="#78CBEF" d="M117.973,71.25c8.296,0,15.02-6.724,15.02-15.022c0-8.296-6.724-15.022-15.02-15.022
			c-8.295,0-15.02,6.726-15.02,15.022C102.953,64.525,109.678,71.25,117.973,71.25"/>
		<path fill="#FFFFFF" d="M125.509,52.291c-0.554,0.246-1.149,0.413-1.773,0.487c0.639-0.383,1.128-0.986,1.357-1.707
			c-0.598,0.354-1.257,0.61-1.961,0.748c-0.562-0.6-1.365-0.975-2.253-0.975c-1.703,0-3.085,1.383-3.085,3.087
			c0,0.242,0.026,0.479,0.079,0.703c-2.566-0.129-4.839-1.356-6.363-3.227c-0.266,0.459-0.419,0.987-0.419,1.554
			c0,1.07,0.546,2.015,1.374,2.57c-0.506-0.016-0.982-0.156-1.399-0.387v0.038c0,1.496,1.063,2.744,2.477,3.026
			c-0.259,0.073-0.531,0.108-0.813,0.108c-0.199,0-0.394-0.018-0.581-0.055c0.394,1.227,1.531,2.12,2.883,2.144
			c-1.056,0.828-2.388,1.322-3.833,1.322c-0.249,0-0.497-0.014-0.736-0.043c1.366,0.875,2.987,1.387,4.732,1.387
			c5.679,0,8.783-4.704,8.783-8.783c0-0.135-0.003-0.268-0.009-0.399C124.572,53.455,125.096,52.911,125.509,52.291"/>
	</g>
	<g>
		<path fill="#E95655" d="M43.368,176.407c8.296,0,15.02-6.724,15.02-15.022c0-8.296-6.724-15.022-15.02-15.022
			c-8.295,0-15.02,6.726-15.02,15.022C28.348,169.682,35.073,176.407,43.368,176.407"/>
		<path fill="#FFFFFF" d="M43.368,153.834c-4.147,0-7.51,3.362-7.51,7.511c0,3.075,1.85,5.719,4.497,6.88
			c-0.023-0.523-0.005-1.154,0.128-1.724c0.146-0.61,0.966-4.094,0.966-4.094s-0.239-0.48-0.239-1.189
			c0-1.114,0.646-1.944,1.449-1.944c0.683,0,1.013,0.514,1.013,1.128c0,0.687-0.439,1.713-0.663,2.666
			c-0.188,0.796,0.399,1.445,1.185,1.445c1.423,0,2.381-1.827,2.381-3.992c0-1.647-1.108-2.879-3.124-2.879
			c-2.278,0-3.697,1.699-3.697,3.597c0,0.655,0.192,1.117,0.495,1.473c0.14,0.165,0.158,0.23,0.108,0.42
			c-0.036,0.138-0.118,0.471-0.153,0.604c-0.05,0.189-0.203,0.258-0.376,0.188c-1.049-0.43-1.537-1.578-1.537-2.869
			c0-2.134,1.798-4.695,5.365-4.695c2.869,0,4.757,2.077,4.757,4.304c0,2.946-1.639,5.147-4.055,5.147
			c-0.81,0-1.572-0.438-1.833-0.935c0,0-0.437,1.73-0.529,2.065c-0.159,0.579-0.471,1.157-0.756,1.608
			c0.676,0.199,1.389,0.309,2.128,0.309c4.149,0,7.511-3.364,7.511-7.513C50.88,157.197,47.517,153.834,43.368,153.834"/>
	</g>
	<g>
		<path fill="#547BBC" d="M43.378,86.272c8.295,0,15.02-6.724,15.02-15.023c0-8.296-6.725-15.022-15.02-15.022
			s-15.02,6.726-15.02,15.022C28.358,79.548,35.083,86.272,43.378,86.272"/>
		<path fill="#FFFFFF" d="M39.754,68.708h1.554v-1.51c0-0.666,0.017-1.692,0.5-2.329c0.509-0.672,1.209-1.13,2.41-1.13
			c1.959,0,2.784,0.279,2.784,0.279l-0.389,2.301c0,0-0.647-0.188-1.251-0.188c-0.605,0-1.146,0.217-1.146,0.82v1.755h2.476
			l-0.173,2.246h-2.303v7.807h-2.91v-7.807h-1.554v-2.245H39.754z"/>
	</g>
	<g>
		<path fill="#E9644A" d="M43.368,446.81c8.295,0,15.02-6.726,15.02-15.023c0-8.296-6.725-15.022-15.02-15.022
			c-8.297,0-15.02,6.726-15.02,15.022C28.348,440.084,35.071,446.81,43.368,446.81"/>
		<path fill="#FFFFFF" d="M46.284,431.794l-4.917,2.89v-5.777L46.284,431.794z M50.879,434.474v-5.372c0,0,0-2.588-2.59-2.588
			h-9.844c0,0-2.587,0-2.587,2.588v5.372c0,0,0,2.588,2.587,2.588h9.844C48.289,437.062,50.879,437.062,50.879,434.474"/>
	</g>
	<g>
		<path fill="#4B4B4B" d="M43.368,356.674c8.297,0,15.02-6.726,15.02-15.023c0-8.296-6.723-15.022-15.02-15.022
			c-8.295,0-15.02,6.726-15.02,15.022C28.348,349.949,35.073,356.674,43.368,356.674"/>
		<path fill="#FFFFFF" d="M40.885,348.381c-1.787,0-3.075-1.131-3.075-2.488c0-1.332,1.599-2.439,3.385-2.42
			c0.418,0.005,0.806,0.072,1.158,0.187c0.969,0.674,1.664,1.053,1.86,1.823c0.037,0.155,0.057,0.315,0.057,0.48
			C44.267,347.319,43.394,348.381,40.885,348.381 M41.353,340.418c-1.199-0.036-2.339-1.341-2.545-2.914
			c-0.207-1.574,0.597-2.778,1.795-2.745c1.198,0.036,2.338,1.3,2.544,2.874C43.354,339.207,42.551,340.454,41.353,340.418
			 M43.838,342.748c-0.421-0.297-1.224-1.022-1.224-1.445c0-0.501,0.142-0.745,0.893-1.332c0.769-0.603,1.314-1.447,1.314-2.429
			c0-1.172-0.522-2.312-1.5-2.689h1.475l1.04-0.751h-4.653c-2.085,0-4.048,1.579-4.048,3.41c0,1.87,1.422,3.38,3.544,3.38
			c0.146,0,0.29-0.004,0.431-0.012c-0.137,0.262-0.236,0.561-0.236,0.866c0,0.52,0.279,0.942,0.634,1.286
			c-0.268,0-0.525,0.009-0.806,0.009c-2.584,0-4.57,1.644-4.57,3.352c0,1.681,2.179,2.732,4.763,2.732
			c2.943,0,4.569-1.672,4.569-3.353C45.464,344.424,45.068,343.617,43.838,342.748 M50.606,340.556h-1.813v-1.812h-1.456v1.812
			h-1.812v1.457h1.812v1.813h1.456v-1.813h1.813C50.606,342.013,50.606,340.556,50.606,340.556z"/>
	</g>
	<g>
		<path fill="#7F807E" d="M43.368,717.215c8.296,0,15.02-6.725,15.02-15.022c0-8.296-6.724-15.022-15.02-15.022
			c-8.295,0-15.02,6.727-15.02,15.022C28.348,710.49,35.073,717.215,43.368,717.215"/>
		<path fill="#FFFFFF" d="M49.82,705.704c-0.352,0.781-0.522,1.13-0.976,1.822c-0.632,0.964-1.525,2.166-2.633,2.175
			c-0.983,0.011-1.236-0.64-2.571-0.631c-1.335,0.007-1.612,0.643-2.597,0.635c-1.107-0.011-1.953-1.096-2.587-2.061
			c-1.771-2.698-1.958-5.864-0.865-7.549c0.777-1.195,2.003-1.897,3.154-1.897c1.172,0,1.91,0.644,2.879,0.644
			c0.941,0,1.515-0.644,2.871-0.644c1.025,0,2.112,0.558,2.887,1.523C46.848,701.113,47.259,704.733,49.82,705.704L49.82,705.704z
			 M45.469,697.121c0.493-0.633,0.866-1.527,0.731-2.439c-0.806,0.055-1.746,0.567-2.296,1.234
			c-0.501,0.606-0.911,1.507-0.751,2.379C44.033,698.322,44.942,697.799,45.469,697.121L45.469,697.121z"/>
	</g>
	<g>
		<path fill="#5E8FAE" d="M43.368,627.081c8.296,0,15.021-6.726,15.021-15.022c0-8.297-6.725-15.023-15.021-15.023
			c-8.295,0-15.021,6.726-15.021,15.023C28.347,620.355,35.073,627.081,43.368,627.081"/>
		<path fill="#FFFFFF" d="M43.531,604.547v3.796h3.564v2.358h-3.564v3.851c0,0.872,0.046,1.431,0.138,1.678
			c0.092,0.248,0.263,0.445,0.516,0.593c0.331,0.198,0.711,0.298,1.14,0.298c0.761,0,1.516-0.248,2.269-0.743v2.372
			c-0.642,0.299-1.223,0.512-1.742,0.635c-0.521,0.122-1.084,0.183-1.688,0.183c-0.687,0-1.295-0.087-1.821-0.259
			c-0.527-0.176-0.978-0.421-1.35-0.743c-0.373-0.32-0.632-0.662-0.775-1.024c-0.144-0.361-0.216-0.884-0.216-1.571v-5.268h-1.66
			v-2.126c0.592-0.192,1.096-0.468,1.518-0.824c0.42-0.357,0.759-0.788,1.011-1.29c0.254-0.501,0.431-1.142,0.526-1.915h2.135
			V604.547z"/>
	</g>
	<g>
		<path fill="#40BFEF" d="M43.368,807.349c8.296,0,15.02-6.726,15.02-15.021c0-8.297-6.724-15.023-15.02-15.023
			c-8.295,0-15.02,6.726-15.02,15.023C28.348,800.623,35.073,807.349,43.368,807.349"/>
		<path fill="#FFFFFF" d="M42.75,788.558c0.282,0.396,0.426,0.867,0.426,1.417c0,0.566-0.143,1.022-0.43,1.367
			c-0.16,0.193-0.397,0.37-0.708,0.528c0.474,0.174,0.829,0.447,1.072,0.818c0.241,0.375,0.362,0.828,0.362,1.362
			c0,0.55-0.137,1.042-0.414,1.48c-0.175,0.288-0.395,0.533-0.657,0.73c-0.296,0.228-0.645,0.384-1.047,0.469
			c-0.404,0.082-0.841,0.124-1.313,0.124h-4.183v-9.284h4.485C41.476,787.585,42.277,787.914,42.75,788.558z M37.71,789.181v2.049
			h2.257c0.401,0,0.73-0.077,0.981-0.23c0.25-0.153,0.377-0.427,0.377-0.814c0-0.435-0.167-0.719-0.498-0.858
			c-0.287-0.097-0.653-0.145-1.098-0.145h-2.02V789.181z M37.71,792.765v2.476h2.253c0.403,0,0.716-0.055,0.939-0.163
			c0.408-0.202,0.611-0.588,0.611-1.157c0-0.485-0.196-0.816-0.591-0.997c-0.221-0.101-0.531-0.154-0.929-0.157L37.71,792.765
			L37.71,792.765z M49.083,790.128c0.48,0.213,0.874,0.552,1.186,1.014c0.283,0.41,0.466,0.882,0.55,1.42
			c0.048,0.315,0.066,0.77,0.059,1.363h-5c0.029,0.688,0.266,1.171,0.718,1.446c0.274,0.173,0.605,0.259,0.99,0.259
			c0.407,0,0.739-0.104,0.994-0.313c0.141-0.113,0.264-0.271,0.371-0.474h1.833c-0.049,0.408-0.271,0.821-0.665,1.243
			c-0.615,0.666-1.477,1-2.582,1c-0.915,0-1.721-0.28-2.417-0.845c-0.7-0.563-1.048-1.481-1.048-2.748
			c0-1.19,0.314-2.102,0.944-2.736c0.632-0.636,1.448-0.952,2.454-0.952C48.067,789.805,48.605,789.911,49.083,790.128z
			 M46.398,791.677c-0.253,0.262-0.413,0.618-0.479,1.062h3.093c-0.032-0.476-0.193-0.835-0.479-1.085
			c-0.287-0.244-0.642-0.369-1.065-0.369C47.01,791.285,46.652,791.416,46.398,791.677z M49.434,788.002h-3.977v1.155h3.977V788.002
			z"/>
	</g>
	<g>
		<path fill="#8CCFDD" d="M43.368,897.484c8.296,0,15.021-6.726,15.021-15.022s-6.725-15.022-15.021-15.022
			c-8.295,0-15.021,6.727-15.021,15.022S35.073,897.484,43.368,897.484"/>
		<path fill="#FFFFFF" d="M50.87,879.325c-0.065,1.461-1.089,3.459-3.061,5.99c-2.042,2.652-3.772,3.976-5.186,3.976
			c-0.874,0-1.614-0.806-2.22-2.421c-0.406-1.482-0.809-2.966-1.213-4.444c-0.451-1.618-0.933-2.425-1.448-2.425
			c-0.112,0-0.504,0.235-1.179,0.707l-0.705-0.91c0.739-0.649,1.469-1.302,2.189-1.95c0.985-0.854,1.727-1.303,2.222-1.349
			c1.166-0.112,1.885,0.685,2.155,2.389c0.289,1.843,0.492,2.988,0.605,3.437c0.337,1.525,0.706,2.288,1.111,2.288
			c0.312,0,0.784-0.494,1.413-1.481c0.629-0.987,0.964-1.738,1.01-2.256c0.09-0.852-0.247-1.276-1.01-1.276
			c-0.359,0-0.73,0.076-1.111,0.234c0.742-2.401,2.155-3.569,4.242-3.502C50.232,876.375,50.961,877.374,50.87,879.325z"/>
	</g>
	<g>
		<path fill="#E9644A" d="M43.37,536.944c8.295,0,15.018-6.727,15.018-15.023c0-8.296-6.723-15.022-15.018-15.022
			c-8.297,0-15.022,6.726-15.022,15.022C28.348,530.218,35.073,536.944,43.37,536.944"/>
		<path fill="#FFFFFF" d="M46.441,516.849v2.862c-0.069,0.083-0.151,0.15-0.233,0.204c-0.092,0.053-0.159,0.082-0.219,0.082
			c-0.069,0-0.123-0.022-0.152-0.06c-0.037-0.045-0.053-0.105-0.053-0.197v-2.892h-0.772v3.149c0,0.228,0.046,0.395,0.135,0.508
			c0.092,0.114,0.229,0.167,0.403,0.167c0.151,0,0.295-0.037,0.454-0.113c0.15-0.083,0.295-0.196,0.439-0.355v0.417h0.773v-3.771
			H46.441L46.441,516.849z M44.088,517.031c-0.205-0.189-0.47-0.281-0.786-0.281c-0.35,0-0.63,0.092-0.842,0.266
			c-0.205,0.174-0.309,0.399-0.309,0.696v1.953c0,0.326,0.104,0.576,0.302,0.766c0.203,0.188,0.476,0.286,0.809,0.286
			c0.348,0,0.629-0.09,0.826-0.279c0.203-0.183,0.301-0.432,0.301-0.757v-1.946C44.39,517.446,44.283,517.212,44.088,517.031z
			 M43.602,519.74c0,0.099-0.031,0.175-0.091,0.234c-0.061,0.061-0.144,0.092-0.25,0.092c-0.099,0-0.181-0.031-0.234-0.092
			c-0.052-0.053-0.083-0.136-0.083-0.234v-2.06c0-0.083,0.031-0.149,0.092-0.196c0.053-0.054,0.137-0.076,0.226-0.076
			c0.099,0,0.183,0.022,0.25,0.076c0.06,0.047,0.091,0.113,0.091,0.196L43.602,519.74L43.602,519.74z M41.211,515.508l-0.536,2.046
			h-0.062l-0.562-2.046h-0.876l1.037,3.089v2.023h0.869v-2.12l1.007-2.991L41.211,515.508L41.211,515.508z M47.229,524.511
			c0.047,0.061,0.068,0.167,0.068,0.304v0.346h-0.599v-0.346c0-0.137,0.016-0.243,0.068-0.304c0.045-0.061,0.121-0.099,0.234-0.099
			C47.107,524.412,47.185,524.45,47.229,524.511z M44.851,524.495c-0.044-0.061-0.12-0.09-0.212-0.09
			c-0.045,0-0.098,0.007-0.143,0.029c-0.047,0.022-0.099,0.061-0.144,0.107v2.134c0.052,0.054,0.112,0.1,0.165,0.122
			c0.055,0.022,0.105,0.038,0.159,0.038c0.091,0,0.151-0.022,0.189-0.076c0.038-0.045,0.061-0.122,0.061-0.234v-1.771
			C44.928,524.64,44.905,524.558,44.851,524.495z M44.851,524.495c-0.044-0.061-0.12-0.09-0.212-0.09
			c-0.045,0-0.098,0.007-0.143,0.029c-0.047,0.022-0.099,0.061-0.144,0.107v2.134c0.052,0.054,0.112,0.1,0.165,0.122
			c0.055,0.022,0.105,0.038,0.159,0.038c0.091,0,0.151-0.022,0.189-0.076c0.038-0.045,0.061-0.122,0.061-0.234v-1.771
			C44.928,524.64,44.905,524.558,44.851,524.495z M48.735,521.855H38.002c-1.174,0-2.143,0.969-2.143,2.149v2.19
			c0,1.18,0.969,2.142,2.143,2.142h10.734c1.174,0,2.144-0.962,2.144-2.142v-2.19C50.879,522.823,49.908,521.855,48.735,521.855z
			 M40.894,523.361h-0.802v3.968h-0.773v-3.968h-0.795v-0.673h2.37C40.894,522.688,40.894,523.361,40.894,523.361z M43.147,527.329
			h-0.688v-0.378c-0.12,0.144-0.257,0.249-0.395,0.317c-0.136,0.076-0.265,0.114-0.396,0.114c-0.156,0-0.278-0.054-0.362-0.161
			c-0.076-0.098-0.113-0.248-0.113-0.454v-2.868h0.681v2.634c0,0.076,0.016,0.137,0.047,0.175c0.022,0.037,0.074,0.053,0.137,0.053
			c0.051,0,0.113-0.022,0.189-0.075c0.082-0.047,0.149-0.107,0.21-0.183v-2.604h0.688V527.329z M45.631,526.616
			c0,0.243-0.053,0.432-0.158,0.562c-0.105,0.129-0.266,0.196-0.47,0.196c-0.136,0-0.25-0.022-0.356-0.074
			c-0.104-0.056-0.203-0.129-0.293-0.236v0.266h-0.689v-4.641h0.689v1.49c0.09-0.098,0.188-0.181,0.293-0.234
			c0.106-0.053,0.212-0.082,0.319-0.082c0.211,0,0.378,0.075,0.491,0.219c0.113,0.143,0.174,0.354,0.174,0.636V526.616z
			 M48.01,525.7h-1.311v0.644c0,0.182,0.016,0.303,0.061,0.372c0.045,0.074,0.129,0.105,0.234,0.105
			c0.113,0,0.189-0.031,0.234-0.091c0.047-0.054,0.068-0.19,0.068-0.387v-0.158h0.712v0.174c0,0.355-0.091,0.62-0.265,0.795
			c-0.167,0.181-0.425,0.265-0.764,0.265c-0.312,0-0.555-0.091-0.728-0.28c-0.175-0.188-0.264-0.447-0.264-0.779v-1.537
			c0-0.295,0.098-0.539,0.293-0.726c0.188-0.183,0.439-0.281,0.749-0.281c0.311,0,0.554,0.091,0.72,0.266
			c0.167,0.173,0.258,0.415,0.258,0.741v0.877H48.01z M44.64,524.406c-0.045,0-0.098,0.007-0.143,0.029
			c-0.047,0.022-0.099,0.061-0.144,0.107v2.134c0.052,0.054,0.112,0.1,0.165,0.122c0.055,0.022,0.105,0.038,0.159,0.038
			c0.091,0,0.151-0.022,0.189-0.076c0.038-0.045,0.061-0.122,0.061-0.234v-1.771c0-0.114-0.022-0.196-0.076-0.259
			C44.808,524.435,44.731,524.406,44.64,524.406z M44.851,524.495c-0.044-0.061-0.12-0.09-0.212-0.09
			c-0.045,0-0.098,0.007-0.143,0.029c-0.047,0.022-0.099,0.061-0.144,0.107v2.134c0.052,0.054,0.112,0.1,0.165,0.122
			c0.055,0.022,0.105,0.038,0.159,0.038c0.091,0,0.151-0.022,0.189-0.076c0.038-0.045,0.061-0.122,0.061-0.234v-1.771
			C44.928,524.64,44.905,524.558,44.851,524.495z M44.851,524.495c-0.044-0.061-0.12-0.09-0.212-0.09
			c-0.045,0-0.098,0.007-0.143,0.029c-0.047,0.022-0.099,0.061-0.144,0.107v2.134c0.052,0.054,0.112,0.1,0.165,0.122
			c0.055,0.022,0.105,0.038,0.159,0.038c0.091,0,0.151-0.022,0.189-0.076c0.038-0.045,0.061-0.122,0.061-0.234v-1.771
			C44.928,524.64,44.905,524.558,44.851,524.495z"/>
	</g>
	<g>
		<path fill="#FFFFFF" d="M43.37,987.619c8.293,0,15.019-6.726,15.019-15.021c0-8.297-6.726-15.023-15.019-15.023
			c-8.297,0-15.023,6.726-15.023,15.023C28.347,980.892,35.073,987.619,43.37,987.619"/>
		<g>
			<path fill="#E1408F" d="M50.879,972.597c0,1.826-1.481,3.308-3.308,3.308c-1.831,0-3.311-1.481-3.311-3.308
				c0-1.828,1.48-3.31,3.311-3.31C49.398,969.288,50.879,970.77,50.879,972.597z"/>
			<path fill="#396DB3" d="M42.475,972.597c0,1.826-1.48,3.308-3.311,3.308c-1.827,0-3.307-1.481-3.307-3.308
				c0-1.828,1.48-3.31,3.307-3.31C40.996,969.288,42.475,970.77,42.475,972.597z"/>
		</g>
	</g>
	<g>
		<path fill="#F29100" d="M43.368,1077.753c8.297,0,15.02-6.726,15.02-15.023c0-8.295-6.723-15.021-15.02-15.021
			s-15.02,6.726-15.02,15.021C28.348,1071.027,35.071,1077.753,43.368,1077.753"/>
		<path id="RSS" fill="#FFFFFF" d="M39.262,1066.832c0.364,0.365,0.585,0.856,0.587,1.406c-0.002,0.549-0.223,1.042-0.585,1.402
			l-0.002,0.002c-0.362,0.359-0.858,0.583-1.41,0.583s-1.045-0.223-1.41-0.585c-0.36-0.359-0.584-0.854-0.584-1.402
			c0-0.55,0.224-1.043,0.584-1.406l0,0c0.365-0.359,0.858-0.585,1.41-0.585S38.901,1066.472,39.262,1066.832z M39.262,1066.832
			L39.262,1066.832L39.262,1066.832L39.262,1066.832z M36.442,1069.642v-0.002l0,0V1069.642z M35.86,1060.329v2.868
			c1.872,0,3.646,0.736,4.968,2.064c1.326,1.325,2.058,3.098,2.062,4.977l0,0v0.005h2.882c-0.004-2.733-1.115-5.207-2.91-7.004
			C41.067,1061.44,38.591,1060.33,35.86,1060.329z M35.866,1055.22v2.867c6.693,0.005,12.132,5.455,12.14,12.155h2.873
			c-0.002-4.14-1.686-7.892-4.404-10.614C43.756,1056.906,40.005,1055.222,35.866,1055.22z"/>
	</g>
	<g>
		<path fill="#1384C7" d="M0.975,120.323c8.297,0,15.02-6.726,15.02-15.022c0-8.297-6.723-15.023-15.02-15.023
			c-8.295,0-15.02,6.726-15.02,15.023C-14.045,113.596-7.32,120.323,0.975,120.323"/>
		<path fill="#FFFFFF" d="M39.165,107.577h-2.928v-9.37h2.928V107.577z M37.627,97.035h-0.021c-1.06,0-1.746-0.717-1.746-1.624
			c0-0.926,0.707-1.627,1.789-1.627c1.08,0,1.743,0.7,1.764,1.624C39.412,96.315,38.727,97.035,37.627,97.035z M50.879,107.577
			h-3.321v-4.849c0-1.27-0.519-2.136-1.66-2.136c-0.872,0-1.358,0.585-1.585,1.148c-0.085,0.201-0.071,0.483-0.071,0.767v5.069
			h-3.288c0,0,0.043-8.589,0-9.37h3.288v1.471c0.194-0.644,1.246-1.561,2.922-1.561c2.081,0,3.716,1.349,3.716,4.25L50.879,107.577
			L50.879,107.577z"/>
	</g>
	<g>
		<path fill="#FAC766" d="M43.368,206.453c8.296,0,15.02-6.726,15.02-15.023s-6.724-15.023-15.02-15.023
			c-8.297,0-15.02,6.726-15.02,15.023S35.071,206.453,43.368,206.453"/>
		<path fill="#FFFFFF" d="M50.806,190.155l-0.124-0.259l-0.211-0.166c-0.275-0.217-1.67,0.016-2.05-0.326
			c-0.265-0.245-0.303-0.688-0.385-1.284c-0.149-1.162-0.245-1.221-0.428-1.611c-0.657-1.396-2.438-2.445-3.662-2.59h-3.318
			c-2.608,0-4.742,2.138-4.742,4.748v5.538c0,2.604,2.134,4.737,4.742,4.737h5.45c2.608,0,4.728-2.134,4.743-4.737l0.03-3.836
			L50.806,190.155z M40.688,187.797h2.629c0.503,0,0.907,0.407,0.907,0.905c0,0.495-0.405,0.907-0.907,0.907h-2.629
			c-0.503,0-0.909-0.413-0.909-0.907C39.779,188.203,40.186,187.797,40.688,187.797z M46.032,195.035h-5.344
			c-0.503,0-0.909-0.411-0.909-0.903c0-0.497,0.407-0.902,0.909-0.902h5.344c0.498,0,0.903,0.406,0.903,0.902
			C46.935,194.624,46.53,195.035,46.032,195.035z"/>
	</g>
	<g>
		<path fill="#D87DA5" d="M43.368,296.586c8.296,0,15.02-6.726,15.02-15.023c0-8.296-6.724-15.022-15.02-15.022
			c-8.297,0-15.02,6.726-15.02,15.022C28.348,289.859,35.071,296.586,43.368,296.586"/>
		<path fill="#FFFFFF" d="M50.725,280.052c-0.099-0.483-0.247-0.958-0.439-1.412c-0.188-0.446-0.421-0.875-0.69-1.276
			c-0.27-0.398-0.579-0.772-0.917-1.11c-0.339-0.342-0.714-0.649-1.112-0.918c-0.4-0.272-0.83-0.504-1.274-0.693
			c-0.454-0.189-0.93-0.339-1.412-0.437c-0.495-0.102-1.003-0.153-1.512-0.153c-0.509,0-1.017,0.052-1.513,0.153
			c-0.482,0.097-0.957,0.246-1.41,0.437c-0.445,0.189-0.875,0.421-1.276,0.693c-0.398,0.269-0.772,0.576-1.111,0.918
			c-0.34,0.338-0.647,0.712-0.916,1.11c-0.271,0.401-0.506,0.83-0.693,1.276c-0.191,0.454-0.339,0.929-0.439,1.412
			c-0.101,0.494-0.151,1.002-0.151,1.511c0,0.51,0.051,1.02,0.151,1.514c0.099,0.483,0.246,0.956,0.439,1.41
			c0.188,0.446,0.423,0.877,0.693,1.277c0.269,0.399,0.576,0.771,0.916,1.111c0.339,0.339,0.713,0.647,1.111,0.916
			c0.401,0.271,0.831,0.506,1.276,0.693c0.453,0.19,0.928,0.337,1.41,0.437c0.496,0.104,1.004,0.153,1.513,0.153
			c0.509,0,1.017-0.05,1.512-0.153c0.482-0.099,0.958-0.245,1.412-0.437c0.444-0.188,0.874-0.423,1.274-0.693
			c0.398-0.27,0.772-0.577,1.112-0.916c0.338-0.34,0.647-0.712,0.917-1.111c0.27-0.4,0.503-0.831,0.69-1.277
			c0.191-0.454,0.34-0.927,0.439-1.41c0.102-0.494,0.153-1.004,0.153-1.514C50.879,281.054,50.827,280.545,50.725,280.052z
			 M49.779,281.5c-0.093-0.021-2.263-0.489-4.467-0.211c-0.045-0.108-0.09-0.219-0.138-0.331c-0.134-0.313-0.277-0.624-0.426-0.93
			c2.531-1.034,3.56-2.523,3.571-2.54C49.22,278.582,49.764,279.978,49.779,281.5z M47.604,276.75
			c-0.017,0.024-0.93,1.414-3.352,2.321c-1.096-2.016-2.3-3.615-2.397-3.741c0.485-0.117,0.991-0.182,1.512-0.182
			C44.991,275.148,46.475,275.755,47.604,276.75z M41.831,275.335L41.831,275.335c0,0-0.008,0.002-0.02,0.005
			C41.817,275.339,41.825,275.337,41.831,275.335z M40.631,275.762c0.087,0.113,1.273,1.723,2.382,3.696
			c-3.079,0.817-5.753,0.785-5.921,0.783C37.508,278.254,38.842,276.607,40.631,275.762z M36.955,281.563
			c0-0.068,0.002-0.136,0.005-0.201c0.112,0.002,3.283,0.072,6.584-0.914c0.184,0.359,0.36,0.725,0.521,1.091
			c-0.086,0.021-0.168,0.048-0.252,0.075c-3.461,1.12-5.216,4.235-5.216,4.235s0.002,0.002,0.002,0.003
			C37.577,284.712,36.955,283.21,36.955,281.563z M43.368,287.979c-1.553,0-2.976-0.553-4.086-1.472
			c0.084,0.068,0.144,0.112,0.144,0.112s1.23-2.682,5.033-4.006c0.014-0.006,0.028-0.011,0.042-0.014
			c0.902,2.344,1.276,4.309,1.37,4.87C45.103,287.798,44.256,287.979,43.368,287.979z M46.951,286.883
			c-0.064-0.388-0.407-2.271-1.248-4.582c2.07-0.331,3.864,0.236,3.997,0.281C49.415,284.369,48.393,285.91,46.951,286.883z"/>
	</g>
	<g>
		<path fill="#1D94D2" d="M43.368,386.72c8.296,0,15.02-6.726,15.02-15.022c0-8.297-6.724-15.023-15.02-15.023
			c-8.297,0-15.02,6.726-15.02,15.023S35.071,386.72,43.368,386.72"/>
		<path fill="#FFFFFF" d="M50.447,373.316c0.108-0.497,0.165-1.011,0.165-1.539c0-3.956-3.208-7.163-7.164-7.163
			c-0.417,0-0.825,0.036-1.226,0.104c-0.64-0.404-1.398-0.639-2.209-0.639c-2.295,0-4.155,1.86-4.155,4.156
			c0,0.766,0.208,1.483,0.57,2.101c-0.094,0.467-0.145,0.947-0.145,1.44c0,3.958,3.208,7.166,7.164,7.166
			c0.449,0,0.886-0.041,1.313-0.121c0.585,0.314,1.254,0.494,1.964,0.494c2.294,0,4.154-1.859,4.154-4.155
			C50.879,374.497,50.723,373.871,50.447,373.316z M47.123,375.201c-0.331,0.47-0.821,0.84-1.455,1.105
			c-0.628,0.262-1.383,0.396-2.239,0.396c-1.028,0-1.892-0.182-2.565-0.538c-0.481-0.26-0.878-0.612-1.181-1.047
			c-0.304-0.439-0.459-0.875-0.459-1.296c0-0.262,0.102-0.49,0.299-0.676c0.195-0.185,0.448-0.277,0.747-0.277
			c0.246,0,0.46,0.073,0.632,0.219c0.164,0.14,0.305,0.346,0.421,0.614c0.126,0.29,0.264,0.536,0.411,0.729
			c0.141,0.187,0.343,0.344,0.601,0.465c0.26,0.124,0.61,0.187,1.04,0.187c0.593,0,1.078-0.126,1.443-0.377
			c0.356-0.243,0.53-0.537,0.53-0.893c0-0.283-0.091-0.506-0.276-0.68c-0.194-0.183-0.453-0.324-0.764-0.424
			c-0.326-0.1-0.769-0.21-1.314-0.325c-0.743-0.159-1.375-0.347-1.878-0.562c-0.515-0.218-0.928-0.522-1.231-0.899
			c-0.308-0.387-0.466-0.868-0.466-1.438c0-0.54,0.164-1.029,0.487-1.449c0.32-0.418,0.788-0.743,1.391-0.965
			c0.595-0.219,1.303-0.331,2.103-0.331c0.64,0,1.202,0.074,1.671,0.221c0.473,0.146,0.871,0.344,1.184,0.59
			c0.315,0.244,0.551,0.509,0.697,0.781c0.147,0.276,0.223,0.553,0.223,0.818c0,0.256-0.098,0.487-0.293,0.69
			c-0.195,0.204-0.444,0.307-0.735,0.307c-0.266,0-0.474-0.065-0.617-0.19c-0.134-0.119-0.272-0.304-0.428-0.57
			c-0.178-0.338-0.396-0.606-0.644-0.794c-0.24-0.185-0.643-0.276-1.196-0.276c-0.513,0-0.932,0.102-1.241,0.306
			c-0.299,0.196-0.444,0.421-0.444,0.687c0,0.163,0.046,0.299,0.143,0.417c0.102,0.126,0.245,0.232,0.427,0.324
			c0.189,0.095,0.384,0.171,0.577,0.224c0.198,0.056,0.534,0.137,0.991,0.243c0.58,0.124,1.113,0.264,1.584,0.415
			c0.478,0.153,0.888,0.339,1.225,0.561c0.343,0.222,0.616,0.509,0.808,0.852c0.193,0.343,0.291,0.768,0.291,1.264
			C47.624,374.192,47.456,374.732,47.123,375.201z"/>
	</g>
	<g>
		<path fill="#8C589F" d="M43.368,476.855c8.296,0,15.02-6.726,15.02-15.023c0-8.296-6.724-15.022-15.02-15.022
			c-8.297,0-15.02,6.727-15.02,15.022C28.348,470.128,35.071,476.855,43.368,476.855"/>
		<g>
			<path fill="#FFFFFF" d="M47.957,459.561c0.084-0.017,0.207-0.044,0.348-0.074h1.083l0.169-0.249
				c0.002-0.001,0.01-0.001,0.013-0.001l0.42-0.606c-0.006,0-0.016-0.002-0.021-0.002l0.044-0.065h-5.87l0.227,0.924h1.602
				l-2.695,2.433c-0.551-0.759-1.841-2.343-2.74-3.653h2.019v-0.702l0.022-0.155c-0.005-0.002-0.017-0.004-0.022-0.004v-0.063
				h-6.694v0.925h1.985c0.77,0.603,3.717,4.283,3.839,4.65c0.048,0.345,0.093,2.373-0.05,2.526
				c-0.289,0.307-1.611,0.226-1.931,0.248l-0.109,0.628c0.582,0.018,2.476-0.046,3.065-0.046c1.16,0,3.193-0.006,3.481,0.017
				l0.034-0.661c-0.293-0.048-1.893-0.005-2.114-0.055c-0.049-0.319-0.102-2.455-0.055-2.676
				C44.226,462.258,47.589,459.659,47.957,459.561z"/>
			<path fill="#FFFFFF" d="M48.931,464.609l0.9,0.07l1.047-4.047c-0.174-0.005-1.765-0.156-1.972-0.196L48.931,464.609z"/>
			<polygon fill="#FFFFFF" points="48.776,465.258 48.78,466.247 49.235,466.286 49.728,466.323 49.872,465.354 49.354,465.328 			
				"/>
		</g>
	</g>
	<g>
		<path fill="#ADCE74" d="M43.368,566.99c8.296,0,15.02-6.727,15.02-15.022c0-8.297-6.724-15.023-15.02-15.023
			c-8.297,0-15.02,6.727-15.02,15.023C28.348,560.263,35.071,566.99,43.368,566.99"/>
		<g>
			<g>
				<g>
					<g>
						<path id="SVGID_1_" fill="#FFFFFF" d="M41.232,557.085c-0.771-0.512-1.585-0.966-2.761-0.966
							c-0.714,0-1.563,0.169-2.613,0.592l1.39-4.819c0.158-0.063,0.312-0.122,0.464-0.178c0.507-0.178,1.229-0.382,2.021-0.447
							c0.092-0.007,0.18-0.01,0.27-0.01c0.791,0,1.512,0.275,2.029,0.542c0.223,0.118,0.432,0.247,0.641,0.377
							C42.487,552.807,41.518,556.118,41.232,557.085"/>
					</g>
				</g>
			</g>
			<g>
				<g>
					<g>
						<path id="SVGID_3_" fill="#FFFFFF" d="M44.954,558.597c-1.218,0-2.84-0.999-2.838-0.999l1.386-4.812
							c0.422,0.336,1.399,0.977,3.005,0.977c0.739,0,1.611-0.137,2.625-0.501l-1.336,4.67
							C46.644,558.408,45.724,558.597,44.954,558.597"/>
					</g>
				</g>
			</g>
			<g>
				<g>
					<g>
						<path id="SVGID_5_" fill="#FFFFFF" d="M44.347,546.206v0.004c-0.286,0.976-1.131,3.873-1.415,4.839 M42.931,551.049
							c-0.743-0.494-1.542-0.944-2.669-0.954c-0.012,0-0.023,0-0.038,0c-0.727,0-1.591,0.191-2.657,0.626l1.369-4.808
							c1.038-0.425,1.882-0.596,2.587-0.609c0.005,0,0.011,0,0.016,0c0.414,0,0.788,0.05,1.12,0.128
							c0.692,0.177,1.688,0.774,1.688,0.774"/>
					</g>
				</g>
			</g>
			<g>
				<g>
					<g>
						<path id="SVGID_7_" fill="#FFFFFF" d="M46.821,552.635c-1.211,0-2.216-0.419-2.989-0.934c-0.004-0.004-0.01-0.007-0.014-0.011
							l1.404-4.861c0.444,0.347,1.449,0.993,2.971,0.993c0.766,0,1.662-0.164,2.686-0.61l-1.385,4.773
							c-0.004,0-0.008,0.002-0.01,0.002c0,0.002,0,0.005,0,0.007C48.512,552.452,47.622,552.635,46.821,552.635"/>
					</g>
				</g>
			</g>
		</g>
	</g>
	<g>
		<path fill="#22B7EB" d="M43.368,657.125c8.296,0,15.02-6.727,15.02-15.023c0-8.296-6.724-15.021-15.02-15.021
			c-8.297,0-15.02,6.725-15.02,15.021C28.348,650.399,35.071,657.125,43.368,657.125"/>
		<g>
			<path fill="#FFFFFF" d="M42.034,641.846l1.273-2.216c0.095-0.166,0.037-0.379-0.128-0.476l-0.904-0.518
				c-0.165-0.097-0.38-0.04-0.475,0.126l-1.387,2.416l0,0l-1.527,2.662l0,0l-1.277,2.222c-0.095,0.166-0.037,0.379,0.129,0.474
				l0.903,0.521c0.166,0.095,0.38,0.038,0.476-0.128l1.773-3.087l0,0L42.034,641.846z"/>
			<path fill="#FFFFFF" d="M50.564,641.18h-3.053c0.359,0.673,0.692,1.308,0.927,1.756c0.16,0.31,0.289,0.554,0.334,0.637
				c0.049,0.086,0.082,0.178,0.105,0.269h1.686c0.174,0,0.314-0.141,0.314-0.313v-2.034C50.879,641.32,50.738,641.18,50.564,641.18z
				"/>
			<path fill="#FFFFFF" d="M43.141,641.18l-1.527,2.662h4.146c-0.301-0.596-0.699-1.444-1.235-2.662H43.141z"/>
			<path fill="#FFFFFF" d="M39.687,641.18h-3.515c-0.174,0-0.313,0.14-0.313,0.313v2.034c0,0.173,0.14,0.313,0.313,0.313h1.989
				L39.687,641.18z"/>
			<path fill="#FFFFFF" d="M38.345,647.456l-0.904-0.521c-0.165-0.096-0.319-0.017-0.341,0.171l-0.154,1.363
				c-0.023,0.189,0.088,0.257,0.246,0.15l1.17-0.796C38.517,647.718,38.511,647.551,38.345,647.456z"/>
			<path fill="#FFFFFF" d="M48.223,643.875c-0.004-0.009-0.012-0.021-0.019-0.033l0,0c-0.083-0.155-0.294-0.561-0.571-1.086
				c-0.003-0.007-0.007-0.014-0.011-0.021c-0.02-0.041-0.042-0.081-0.063-0.122c-0.017-0.031-0.032-0.061-0.048-0.092
				c-0.014-0.025-0.027-0.052-0.041-0.079c-0.025-0.047-0.051-0.093-0.074-0.14c-0.009-0.016-0.016-0.031-0.024-0.045
				c-0.027-0.053-0.057-0.106-0.085-0.162c-0.008-0.016-0.017-0.03-0.025-0.046c-0.637-1.206-1.437-2.69-1.933-3.469
				c-0.863-1.366-2.017-3.645-2.339-3.484c-0.452,0.224,0.944,3.117,1.408,4.204c0.462,1.085,2.267,5.25,2.629,5.433
				c0.362,0.181,0.503,0.081,0.743-0.021C48.012,644.613,48.443,644.279,48.223,643.875z"/>
			<path fill="#FFFFFF" d="M49.254,646.021l-0.432-0.826c-0.099-0.188-0.326-0.264-0.51-0.171l-0.521,0.27
				c-0.183,0.093-0.239,0.314-0.128,0.495l0.546,0.861c0.112,0.176,0.35,0.234,0.526,0.128l0.371-0.222
				C49.284,646.449,49.352,646.209,49.254,646.021z"/>
			<path fill="#FFFFFF" d="M49.121,647.217c-0.136,0.131-0.459,0.413-0.069,0.961c0.392,0.551,1.26,0.575,1.375,0.938
				C50.427,649.117,50.7,646.328,49.121,647.217z"/>
		</g>
	</g>
	<g>
		<path fill="#FCC233" d="M43.368,747.26c8.296,0,15.02-6.726,15.02-15.022c0-8.297-6.724-15.023-15.02-15.023
			c-8.297,0-15.02,6.726-15.02,15.023C28.348,740.534,35.071,747.26,43.368,747.26"/>
		<g>
			<path fill="#FFFFFF" d="M48.705,736.887c-0.075-0.001-0.151,0.017-0.222,0.05c-0.081,0.032-0.164,0.068-0.241,0.102l-0.114,0.048
				l-0.147,0.059v0.002c-1.612,0.654-3.305,1.037-4.871,1.072c-0.058,0.002-0.115,0.002-0.172,0.002
				c-2.462,0.001-4.473-1.144-6.501-2.269c-0.07-0.036-0.143-0.055-0.214-0.055c-0.091,0-0.185,0.032-0.252,0.096
				c-0.068,0.065-0.108,0.159-0.108,0.252c0,0.124,0.066,0.236,0.158,0.309c1.903,1.652,3.99,3.19,6.795,3.19
				c0.055,0,0.11,0,0.166-0.002c1.785-0.039,3.802-0.644,5.369-1.626l0.01-0.007c0.205-0.122,0.411-0.262,0.604-0.416
				c0.12-0.09,0.202-0.229,0.202-0.375C49.158,737.061,48.94,736.887,48.705,736.887z"/>
			<path fill="#FFFFFF" d="M50.879,735.974v-0.002c-0.007-0.157-0.039-0.274-0.105-0.375l-0.006-0.009l-0.008-0.01
				c-0.066-0.072-0.131-0.101-0.199-0.131c-0.205-0.078-0.505-0.121-0.865-0.123c-0.259,0-0.545,0.026-0.832,0.088v-0.019
				l-0.289,0.097l-0.005,0.001l-0.163,0.054v0.007c-0.19,0.08-0.366,0.18-0.528,0.295c-0.1,0.076-0.183,0.176-0.188,0.327
				c-0.002,0.083,0.04,0.18,0.109,0.236c0.07,0.057,0.151,0.076,0.223,0.076c0.018,0,0.033-0.002,0.047-0.004l0.014-0.001
				l0.012-0.002c0.141-0.029,0.347-0.051,0.587-0.085c0.207-0.022,0.427-0.039,0.616-0.039c0.135,0,0.256,0.009,0.338,0.027
				c0.041,0.009,0.072,0.019,0.09,0.027c0.006,0.002,0.01,0.005,0.012,0.007c0.004,0.012,0.01,0.041,0.008,0.083
				c0.002,0.158-0.064,0.453-0.156,0.741c-0.091,0.288-0.2,0.576-0.273,0.768c-0.017,0.045-0.027,0.093-0.027,0.146
				c-0.002,0.078,0.029,0.171,0.096,0.232c0.066,0.062,0.15,0.087,0.221,0.087h0.004c0.105-0.002,0.195-0.044,0.273-0.105
				c0.733-0.659,0.988-1.711,0.999-2.303L50.879,735.974z"/>
			<path fill="#FFFFFF" d="M44.174,728.906c-0.432,0.032-0.929,0.065-1.426,0.131c-0.763,0.1-1.524,0.23-2.154,0.531
				c-1.227,0.496-2.055,1.558-2.055,3.114c0,1.957,1.26,2.95,2.851,2.95c0.529,0,0.961-0.067,1.358-0.165
				c0.631-0.198,1.16-0.564,1.79-1.227c0.366,0.496,0.466,0.73,1.094,1.259c0.166,0.065,0.332,0.065,0.464-0.032
				c0.399-0.331,1.097-0.929,1.459-1.26c0.166-0.132,0.133-0.332,0.033-0.497c-0.364-0.464-0.73-0.862-0.73-1.758v-2.983
				c0-1.262,0.1-2.42-0.827-3.282c-0.763-0.696-1.956-0.962-2.884-0.962h-0.398c-1.69,0.099-3.48,0.827-3.878,2.917
				c-0.066,0.265,0.133,0.363,0.266,0.397l1.857,0.233c0.199-0.033,0.298-0.2,0.33-0.365c0.166-0.729,0.763-1.094,1.426-1.161h0.133
				c0.397,0,0.829,0.166,1.06,0.499c0.265,0.397,0.232,0.928,0.232,1.393L44.174,728.906L44.174,728.906z M43.809,732.85
				c-0.231,0.463-0.631,0.761-1.061,0.862c-0.066,0-0.165,0.033-0.266,0.033c-0.729,0-1.16-0.564-1.16-1.393
				c0-1.061,0.63-1.558,1.426-1.791c0.431-0.101,0.928-0.133,1.426-0.133v0.398C44.174,731.59,44.206,732.186,43.809,732.85z"/>
		</g>
	</g>
	<g>
		<path fill="#D5DF80" d="M43.368,837.394c8.296,0,15.02-6.727,15.02-15.023c0-8.296-6.724-15.022-15.02-15.022
			c-8.297,0-15.02,6.726-15.02,15.022C28.348,830.669,35.071,837.394,43.368,837.394"/>
		<g>
			<path fill="#FFFFFF" d="M45.611,816.168l0.163-0.244l0.162-0.243l0.361-0.543c0.045-0.067,0.027-0.157-0.04-0.202
				c-0.065-0.045-0.156-0.025-0.2,0.042l-0.39,0.582l-0.164,0.245l-0.164,0.248c-0.526-0.203-1.111-0.319-1.73-0.319
				c-0.617,0-1.204,0.116-1.729,0.319l-0.165-0.248l-0.163-0.245l-0.39-0.582c-0.044-0.067-0.134-0.087-0.201-0.042
				c-0.066,0.045-0.085,0.135-0.04,0.202l0.362,0.543l0.162,0.243l0.164,0.244c-1.234,0.575-2.069,1.662-2.069,2.91h8.138
				C47.679,817.831,46.845,816.743,45.611,816.168z M41.866,817.916c-0.241,0-0.437-0.196-0.437-0.437
				c0-0.241,0.194-0.437,0.437-0.437c0.24,0,0.437,0.194,0.437,0.437C42.303,817.719,42.106,817.916,41.866,817.916z
				 M45.353,817.916c-0.24,0-0.436-0.196-0.436-0.437c0-0.241,0.194-0.437,0.436-0.437c0.242,0,0.438,0.194,0.438,0.437
				C45.791,817.719,45.596,817.916,45.353,817.916z"/>
			<path fill="#FFFFFF" d="M39.603,819.66h-0.062v0.724v0.593v5.08c0,0.508,0.413,0.92,0.921,0.92h0.663
				c-0.021,0.076-0.034,0.157-0.034,0.241v0.049v0.289v1.503c0,0.481,0.391,0.872,0.871,0.872c0.482,0,0.873-0.392,0.873-0.872
				v-1.503v-0.289v-0.049c0-0.084-0.013-0.165-0.035-0.241h1.619c-0.022,0.076-0.034,0.157-0.034,0.241v0.049v0.289v1.503
				c0,0.481,0.392,0.872,0.872,0.872c0.481,0,0.872-0.392,0.872-0.872v-1.503v-0.289v-0.049c0-0.084-0.014-0.165-0.035-0.241h0.665
				c0.509,0,0.919-0.413,0.919-0.92v-5.08v-0.593v-0.724h-0.062H39.603z"/>
			<path fill="#FFFFFF" d="M38.088,819.66c-0.482,0-0.873,0.391-0.873,0.87v3.733c0,0.48,0.392,0.872,0.873,0.872
				c0.481,0,0.871-0.393,0.871-0.872v-3.733C38.959,820.051,38.568,819.66,38.088,819.66z"/>
			<path fill="#FFFFFF" d="M49.134,819.66c-0.483,0-0.872,0.391-0.872,0.87v3.733c0,0.48,0.39,0.872,0.872,0.872
				c0.481,0,0.871-0.393,0.871-0.872v-3.733C50.005,820.051,49.615,819.66,49.134,819.66z"/>
		</g>
	</g>
	<g>
		<path fill="#696969" d="M34.67,30.193c13.238,0,23.969-10.734,23.969-23.972c0-13.24-10.731-23.974-23.969-23.974
			c-13.24,0-23.969,10.734-23.969,23.974C10.701,19.459,21.43,30.193,34.67,30.193"/>
		<path fill="#FFFFFF" d="M42.026-5.766H27.322c-2.555,0-4.633,2.079-4.633,4.633V3.76v9.817c0,2.554,2.079,4.628,4.633,4.628
			h14.703c2.555,0,4.633-2.076,4.633-4.628V3.76v-4.893C46.658-3.687,44.579-5.766,42.026-5.766z M43.354-3.002l0.531-0.003v0.529
			v3.535l-4.049,0.014L39.82-2.991L43.354-3.002z M31.252,3.761c0.767-1.063,2.014-1.758,3.421-1.758
			c1.408,0,2.653,0.695,3.421,1.758c0.499,0.695,0.799,1.542,0.799,2.459c0,2.325-1.895,4.22-4.22,4.22
			c-2.325,0-4.219-1.895-4.219-4.22C30.454,5.303,30.753,4.456,31.252,3.761z M44.322,13.578c0,1.266-1.031,2.296-2.298,2.296
			H27.321c-1.267,0-2.298-1.031-2.298-2.296V3.761h3.578c-0.308,0.761-0.484,1.588-0.484,2.459c0,3.615,2.94,6.558,6.555,6.558
			s6.555-2.944,6.555-6.558c0-0.871-0.174-1.699-0.484-2.459h3.578v9.817H44.322z"/>
	</g>
	<g>
		<path fill="#4D75B8" d="M43.368,1017.664c8.296,0,15.02-6.726,15.02-15.023c0-8.296-6.724-15.022-15.02-15.022
			c-8.297,0-15.02,6.726-15.02,15.022C28.348,1010.937,35.071,1017.664,43.368,1017.664"/>
		<polygon fill="#FFFFFF" points="50.881,1004.448 35.86,1004.448 35.86,1000.836 37.532,1000.836 37.532,1002.774 49.206,1002.774 
			49.206,1000.836 50.881,1000.836 		"/>
	</g>
	<g>
		<path fill="#859563" d="M43.368,1107.798c8.297,0,15.02-6.727,15.02-15.023c0-8.296-6.723-15.022-15.02-15.022
			s-15.02,6.727-15.02,15.022C28.348,1101.071,35.071,1107.798,43.368,1107.798"/>
		<path fill="#FFFFFF" d="M49.916,1099.802l-6.222-14.332c-0.054-0.126-0.178-0.207-0.315-0.207l0,0
			c-0.138,0-0.262,0.081-0.315,0.207l-6.242,14.332c-0.046,0.106-0.036,0.231,0.028,0.328c0.062,0.097,0.17,0.155,0.287,0.155h5.537
			v-3.044l-1.484-1.028l0.245-0.354l1.239,0.859v-2.441h1.41v1.605l1.291-0.651l0.194,0.384l-1.485,0.749v1.182l2.368-1.193
			l0.194,0.382l-2.564,1.292v2.26H49.6c0.117,0,0.224-0.059,0.287-0.155C49.951,1100.035,49.962,1099.91,49.916,1099.802z"/>
	</g>
	<g>
		<path fill="#8FD2F0" d="M43.368,146.363c8.296,0,15.02-6.726,15.02-15.023s-6.724-15.022-15.02-15.022
			c-8.297,0-15.02,6.725-15.02,15.022S35.071,146.363,43.368,146.363"/>
		<g>
			<polygon fill="#FFFFFF" points="35.859,132.131 40.278,135.016 43.368,132.437 38.913,129.686 			"/>
			<polygon fill="#FFFFFF" points="40.278,124.357 35.859,127.24 38.913,129.686 43.368,126.936 			"/>
			<polygon fill="#FFFFFF" points="50.879,127.24 46.46,124.357 43.368,126.936 47.823,129.686 			"/>
			<polygon fill="#FFFFFF" points="43.368,132.437 46.46,135.016 50.879,132.131 47.823,129.686 			"/>
			<polygon fill="#FFFFFF" points="43.378,132.992 40.278,135.562 38.95,134.696 38.95,135.667 43.378,138.322 47.806,135.667 
				47.806,134.696 46.478,135.562 			"/>
		</g>
	</g>
	<g>
		<path fill="#E8476D" d="M43.368,236.497c8.296,0,15.02-6.726,15.02-15.023c0-8.296-6.724-15.022-15.02-15.022
			c-8.297,0-15.02,6.726-15.02,15.022C28.348,229.771,35.071,236.497,43.368,236.497"/>
		<path fill="#FFFFFF" d="M48.441,220.744c-0.131-0.043-0.259-0.082-0.382-0.12c-0.935-0.295-1.5-0.474-1.5-1.199
			c0-0.592,0.456-1.02,1.084-1.02c0.482,0,0.841,0.2,1.162,0.65c0.029,0.042,0.086,0.057,0.132,0.033l0.943-0.483
			c0.025-0.013,0.045-0.034,0.053-0.062c0.008-0.027,0.006-0.057-0.009-0.082c-0.506-0.897-1.234-1.334-2.229-1.334
			c-1.512,0-2.49,0.914-2.49,2.33c0,1.449,0.945,2.034,2.69,2.608c1.011,0.336,1.459,0.517,1.459,1.235
			c0,0.81-0.73,1.391-1.725,1.356c-1.043-0.036-1.359-0.588-1.755-1.493c-0.673-1.532-1.437-3.323-1.444-3.341
			c-0.767-1.771-2.288-2.786-4.174-2.786c-2.491,0-4.518,2.027-4.518,4.52c0,2.491,2.027,4.518,4.518,4.518
			c1.357,0,2.632-0.602,3.493-1.654c0.025-0.029,0.031-0.07,0.016-0.106L43.196,223c-0.017-0.036-0.053-0.062-0.094-0.063
			c-0.041-0.002-0.076,0.022-0.096,0.057c-0.538,1.027-1.591,1.666-2.75,1.666c-1.709,0-3.101-1.393-3.101-3.102
			c0-1.711,1.392-3.102,3.101-3.102c1.244,0,2.384,0.738,2.838,1.842l1.407,3.214l0.163,0.361c0.638,1.483,1.572,2.148,3.037,2.152
			c1.742,0,3.057-1.154,3.057-2.685C50.76,221.801,49.908,221.225,48.441,220.744z"/>
	</g>
	<g>
		<path fill="#F2CA59" d="M43.368,326.629c8.296,0,15.02-6.727,15.02-15.022c0-8.296-6.724-15.021-15.02-15.021
			c-8.297,0-15.02,6.726-15.02,15.022S35.071,326.629,43.368,326.629"/>
		<path fill="#FFFFFF" d="M36.584,314.042c0.032,0,0.059-0.024,0.062-0.061l0.168-1.319l-0.167-1.349
			c-0.005-0.035-0.031-0.061-0.063-0.061c-0.031,0-0.057,0.025-0.062,0.061l-0.147,1.349l0.147,1.319
			C36.527,314.017,36.552,314.042,36.584,314.042z M36.087,313.484L36.087,313.484L36.087,313.484L36.087,313.484z M36.028,313.542
			c0.03,0,0.055-0.024,0.06-0.059l0.132-0.821l-0.132-0.834c-0.005-0.034-0.029-0.059-0.06-0.059s-0.055,0.024-0.06,0.059
			l-0.109,0.834l0.109,0.821C35.973,313.518,35.997,313.542,36.028,313.542z M37.249,311.063c-0.004-0.043-0.035-0.074-0.074-0.074
			c-0.04,0-0.072,0.031-0.075,0.074l-0.14,1.601l0.14,1.541c0.003,0.042,0.035,0.072,0.075,0.072c0.039,0,0.07-0.03,0.074-0.072
			l0.16-1.541L37.249,311.063z M37.768,314.34c0.046,0,0.084-0.036,0.088-0.086l0,0l0.15-1.59l-0.15-1.646
			c-0.004-0.05-0.042-0.086-0.088-0.086s-0.084,0.036-0.088,0.086l-0.133,1.646l0.133,1.59
			C37.684,314.304,37.722,314.34,37.768,314.34z M38.368,314.365c0.054,0,0.097-0.043,0.101-0.098l0,0l0.143-1.604l-0.143-1.526
			c-0.004-0.058-0.047-0.099-0.101-0.099s-0.097,0.043-0.101,0.099l-0.125,1.526l0.125,1.604
			C38.271,314.322,38.314,314.365,38.368,314.365z M39.219,312.664l-0.133-2.482c-0.004-0.062-0.054-0.112-0.113-0.112
			c-0.061,0-0.111,0.05-0.113,0.112l-0.117,2.482l0.117,1.604c0.002,0.062,0.053,0.112,0.113,0.112c0.06,0,0.109-0.051,0.113-0.112
			l0,0L39.219,312.664z M39.582,314.383c0.068,0,0.123-0.055,0.127-0.126v0.002l0.123-1.595l-0.123-3.051
			c-0.004-0.068-0.059-0.124-0.127-0.124c-0.067,0-0.123,0.056-0.126,0.124l-0.109,3.051l0.109,1.593
			C39.459,314.328,39.514,314.383,39.582,314.383z M40.197,309.223c-0.075,0-0.136,0.061-0.14,0.137l-0.102,3.305l0.102,1.577
			c0.004,0.078,0.064,0.139,0.14,0.139s0.136-0.061,0.14-0.139l0,0l0.115-1.577l-0.115-3.305
			C40.333,309.283,40.272,309.223,40.197,309.223z M40.816,314.383c0.082,0,0.148-0.067,0.152-0.151v0.002l0.105-1.568l-0.105-3.415
			c-0.004-0.086-0.07-0.151-0.152-0.151c-0.082,0-0.15,0.065-0.152,0.151l-0.094,3.414l0.094,1.569
			C40.665,314.316,40.733,314.383,40.816,314.383z M41.439,314.381c0.09,0,0.162-0.072,0.164-0.163l0,0l0.098-1.553l-0.098-3.33
			c-0.002-0.09-0.074-0.162-0.164-0.162c-0.091,0-0.164,0.072-0.165,0.162l-0.087,3.33l0.087,1.553
			C41.275,314.309,41.348,314.381,41.439,314.381z M42.336,312.665l-0.089-3.208c-0.003-0.099-0.08-0.175-0.179-0.175
			c-0.098,0-0.176,0.076-0.178,0.177l-0.078,3.206l0.078,1.544c0.002,0.097,0.08,0.174,0.178,0.174c0.099,0,0.176-0.077,0.179-0.176
			v0.002L42.336,312.665z M42.702,314.387c0.103,0,0.188-0.085,0.19-0.19v0.002l0.08-1.533l-0.08-3.815
			c-0.002-0.105-0.088-0.19-0.19-0.19c-0.104,0-0.188,0.085-0.19,0.19l-0.072,3.814c0,0.003,0.072,1.534,0.072,1.534
			C42.513,314.302,42.598,314.387,42.702,314.387z M43.333,308.3c-0.111,0-0.202,0.092-0.204,0.204l-0.083,4.16l0.083,1.511
			c0.002,0.11,0.093,0.202,0.204,0.202c0.109,0,0.201-0.092,0.202-0.203v0.001l0.091-1.511l-0.091-4.162
			C43.534,308.393,43.442,308.3,43.333,308.3z M43.91,314.388c0.006,0,5.088,0.002,5.12,0.002c1.021,0,1.849-0.825,1.849-1.848
			c0-1.019-0.827-1.848-1.849-1.848c-0.253,0-0.495,0.052-0.714,0.143c-0.147-1.664-1.543-2.971-3.247-2.971
			c-0.417,0-0.823,0.081-1.183,0.221c-0.139,0.054-0.176,0.109-0.177,0.218v5.862C43.712,314.283,43.8,314.376,43.91,314.388z"/>
	</g>
	<g>
		<path fill="#56ACDD" d="M43.368,416.765c8.296,0,15.02-6.727,15.02-15.022c0-8.297-6.724-15.023-15.02-15.023
			c-8.297,0-15.02,6.726-15.02,15.023C28.348,410.039,35.071,416.765,43.368,416.765"/>
		<path fill="#FFFFFF" d="M35.859,401.743c0,2.972,1.728,5.543,4.234,6.76l-3.583-9.817
			C36.092,399.619,35.859,400.652,35.859,401.743z M48.439,401.363c0-0.928-0.334-1.572-0.62-2.071
			c-0.382-0.62-0.737-1.144-0.737-1.763c0-0.689,0.522-1.334,1.263-1.334c0.03,0,0.063,0.006,0.097,0.008
			c-1.338-1.226-3.117-1.974-5.071-1.974c-2.625,0-4.933,1.347-6.275,3.386c0.176,0.005,0.34,0.011,0.483,0.011
			c0.785,0,2-0.097,2-0.097c0.405-0.022,0.453,0.571,0.048,0.619c0,0-0.407,0.047-0.858,0.071l2.735,8.135l1.643-4.929l-1.171-3.207
			c-0.405-0.024-0.788-0.071-0.788-0.071c-0.405-0.023-0.355-0.642,0.049-0.619c0,0,1.24,0.097,1.978,0.097
			c0.784,0,2.003-0.097,2.003-0.097c0.404-0.022,0.452,0.571,0.047,0.619c0,0-0.407,0.047-0.858,0.071l2.713,8.073l0.751-2.502
			C48.248,402.816,48.439,402.006,48.439,401.363z M43.501,402.401l-2.253,6.548c0.671,0.198,1.383,0.305,2.122,0.305
			c0.873,0,1.713-0.149,2.494-0.427c-0.02-0.032-0.039-0.065-0.054-0.102L43.501,402.401z M49.959,398.138
			c0.032,0.241,0.051,0.497,0.051,0.774c0,0.761-0.143,1.618-0.571,2.691l-2.293,6.632c2.232-1.301,3.733-3.721,3.733-6.491
			C50.879,400.437,50.546,399.209,49.959,398.138z"/>
	</g>
	<g>
		<path fill="#282828" d="M43.368,506.899c8.296,0,15.02-6.727,15.02-15.022c0-8.296-6.724-15.022-15.02-15.022
			c-8.297,0-15.02,6.726-15.02,15.022C28.348,500.172,35.071,506.899,43.368,506.899"/>
		<g>
			<path fill="#FFFFFF" d="M38.119,487.599v1.99h-2.26v4.556h3.727v-6.546H38.119z M38.119,492.92h-0.767v-2.07h0.767V492.92z"/>
			<path fill="#FFFFFF" d="M42.647,489.609v4.556h2.26v0.712h-2.285v1.279h3.106h0.648v-6.547H42.647z M44.907,492.903H44.14v-2.071
				h0.767V492.903z"/>
			<path fill="#FFFFFF" d="M47.15,489.609v4.556h2.259v0.712h-2.286v1.279h3.108h0.647v-6.547H47.15z M49.41,492.903h-0.764v-2.071
				h0.765v2.071H49.41z"/>
			<rect x="40.343" y="489.58" fill="#FFFFFF" width="1.521" height="4.584"/>
			<rect x="40.343" y="487.68" fill="#FFFFFF" width="1.521" height="1.244"/>
		</g>
	</g>
	<g>
		<path fill="#9ECC91" d="M43.368,597.035c8.296,0,15.02-6.726,15.02-15.022c0-8.297-6.724-15.023-15.02-15.023
			c-8.297,0-15.02,6.726-15.02,15.023C28.348,590.308,35.071,597.035,43.368,597.035"/>
		<path fill="#FFFFFF" d="M42.974,584.558c0.044-1.314-1.065-2.442-2.472-2.518l-0.529-0.026c-0.513-0.026-0.944-0.451-0.944-0.927
			c0-0.459,0.427-0.855,0.923-0.855h3.481c0.498,0,0.881,0.429,0.881,0.925v3.203c0,1.419,1.154,2.571,2.572,2.571h0.421
			c1.416,0,2.57-1.152,2.57-2.571v-10.764c-0.062-0.004-0.121-0.02-0.184-0.02h-1.484v10.784c0,0.497-0.404,0.9-0.901,0.9h-0.421
			c-0.499,0-0.903-0.404-0.903-0.9v-3.203c0-1.419-1.152-2.572-2.57-2.572h-3.48c-1.418,0-2.572,1.122-2.572,2.503
			c0,1.357,1.133,2.523,2.525,2.594l0.53,0.029c0.497,0.025,0.905,0.389,0.892,0.793c-0.014,0.412-0.452,0.757-0.955,0.757h-5.496
			v1.67h5.495C41.754,586.931,42.93,585.867,42.974,584.558z"/>
	</g>
	<g>
		<path fill="#E73B3A" d="M43.368,687.171c8.296,0,15.02-6.726,15.02-15.022c0-8.297-6.724-15.023-15.02-15.023
			c-8.297,0-15.02,6.726-15.02,15.023C28.348,680.444,35.071,687.171,43.368,687.171"/>
		<g>
			<path fill="#FFFFFF" d="M44.046,671.283c-0.199-0.138-0.455-0.214-0.813-0.214c-0.527,0-0.882,0.136-1.191,0.544h-0.021v-2.52
				h-1.454v2.093c0.021,0.009,0.042,0.019,0.062,0.027c0.56,0.218,0.88,0.53,1.05,0.907c0.17,0.373,0.189,0.8,0.152,1.26l0,0
				c-0.008,0.088-0.078,0.156-0.165,0.156h-1.1v0.002v0.14h1.054l0,0h0.009c0.09,0.005,0.16,0.085,0.156,0.18
				c-0.014,0.275-0.121,0.519-0.318,0.729c-0.18,0.193-0.439,0.359-0.767,0.496c-0.041,0.036-0.054,0.043-0.1,0.045l-0.034,0.014
				v0.808h1.385v-0.523h0.024c0.262,0.461,0.663,0.626,1.235,0.626c1.134,0,1.386-0.869,1.45-1.708l-0.02-0.004l0,0h-0.004
				c-0.509-0.106-0.828-0.404-1.005-0.803l0,0c-0.033-0.077-0.062-0.158-0.086-0.237c-0.053-0.196-0.079-0.413-0.079-0.639l0,0
				v-0.004c0-0.332,0.054-0.611,0.156-0.844C43.723,671.593,43.865,671.417,44.046,671.283L44.046,671.283z M43.233,673.505
				c0,1.213-0.083,1.714-0.618,1.714c-0.505,0-0.595-0.502-0.595-1.714c0-0.942,0-1.61,0.595-1.61
				C43.256,671.895,43.233,672.563,43.233,673.505L43.233,673.505z"/>
			<path fill="#FFFFFF" d="M41.621,673.851h-1.054h-0.775h-0.023H38.91c0,0.364-0.195,0.771-1.146,0.771
				c-1.175,0-1.197-0.75-1.197-1.254h4h1.099c0.067-0.866-0.067-1.596-1.1-1.996c-0.226-0.102-0.49-0.166-0.799-0.219
				c-0.505-0.104-1.169-0.166-2.004-0.166c-3.51,0-3.887,0.99-3.887,2.141c0,1.328,0.446,2.259,3.887,2.259
				c0.791,0,1.478-0.083,2.027-0.18c0.285-0.062,0.55-0.145,0.775-0.248c0.022,0,0.022,0,0.044-0.021
				C41.252,674.676,41.598,674.319,41.621,673.851L41.621,673.851z M37.763,671.717c1.28,0,1.235,0.584,1.235,0.982h-2.432
				C36.567,672.357,36.552,671.717,37.763,671.717L37.763,671.717z"/>
			<path fill="#FFFFFF" d="M44.181,671.393c-0.354,0.241-0.55,0.647-0.55,1.266c0,0.73,0.285,1.358,1.038,1.516
				c0.105,0.022,0.219,0.022,0.354,0.022c0.642,0,1.055-0.241,1.363-0.724h0.023l0.067,0.639h1.372
				c-0.023-0.301-0.068-0.605-0.068-0.907v-0.914l-0.145-0.27l0,0l-1.461-2.704l-0.055-0.104c-0.142-0.012-0.293-0.021-0.456-0.021
				c-0.558,0-1.04,0.083-1.372,0.322c-0.353,0.207-0.551,0.584-0.551,1.17h1.455c0-0.379,0.023-0.744,0.55-0.744
				c0.534,0,0.595,0.304,0.595,0.704v0.386C45.508,671.007,44.694,671.029,44.181,671.393L44.181,671.393z M45.621,673.367
				c-0.491,0-0.558-0.427-0.558-0.763c0-0.847,0.558-0.791,1.279-0.833C46.343,672.301,46.479,673.367,45.621,673.367
				L45.621,673.367z"/>
			<polygon fill="#FFFFFF" points="50.916,668.593 49.441,671.469 48.068,668.593 45.976,668.593 46.321,669.233 47.782,671.936 
				48.379,673.045 48.379,675.405 50.299,675.405 50.299,673.045 52.861,668.593 			"/>
		</g>
	</g>
	<g>
		<path fill="#B08ABE" d="M43.368,777.305c8.296,0,15.02-6.726,15.02-15.023c0-8.296-6.724-15.022-15.02-15.022
			c-8.297,0-15.02,6.726-15.02,15.022C28.348,770.579,35.071,777.305,43.368,777.305"/>
		<g>
			<g>
				<path fill="#FFFFFF" d="M46.467,755.311c-0.98-0.446-2.023-0.674-3.096-0.674c-0.896,0-1.775,0.173-2.623,0.491
					c0.198,0.179,5.463,4.958,5.719,5.192C46.467,759.975,46.467,755.416,46.467,755.311L46.467,755.311z"/>
			</g>
			<g>
				<path fill="#FFFFFF" d="M39.504,768.564c0-0.293,0-6.115,0-6.459c-0.25,0.227-3.016,2.741-3.102,2.82
					C37.004,766.435,38.102,767.714,39.504,768.564L39.504,768.564z"/>
			</g>
			<g>
				<path fill="#FFFFFF" d="M35.86,762.148c0,0.645,0.098,1.301,0.273,1.951c0.201-0.184,6.525-5.931,6.655-6.05
					c-0.126-0.113-2.756-2.502-2.842-2.581C37.425,756.764,35.86,759.315,35.86,762.148L35.86,762.148z"/>
			</g>
			<g>
				<path fill="#FFFFFF" d="M40.294,765.414c0,0.155,0,3.477,0,3.583c0.763,0.344,1.562,0.556,2.383,0.632h1.377
					c2.595-0.242,4.91-1.843,6.063-4.215C49.844,765.414,40.454,765.414,40.294,765.414L40.294,765.414z"/>
			</g>
			<g>
				<path fill="#FFFFFF" d="M47.259,755.74c0,0.298,0,8.721,0,8.881c0.152,0,3.076,0,3.194,0c0.279-0.803,0.428-1.632,0.428-2.474
					C50.881,759.538,49.492,757.101,47.259,755.74L47.259,755.74z"/>
			</g>
		</g>
	</g>
	<g>
		<path fill="#5168AE" d="M43.368,867.439c8.296,0,15.02-6.726,15.02-15.022c0-8.297-6.724-15.023-15.02-15.023
			c-8.297,0-15.02,6.726-15.02,15.023C28.348,860.714,35.071,867.439,43.368,867.439"/>
		<path fill="#FFFFFF" d="M50.873,848.601c-0.033-0.632-0.201-1.173-0.46-1.633c-0.753-1.34-2.287-1.97-3.686-1.97h-7.532
			l-3.337,14.838h4.42l1.08-4.911h3.162c0.033,0,0.072-0.005,0.11-0.005c1.794-0.029,3.406-0.696,4.55-1.888
			c0.744-0.782,1.295-1.781,1.562-2.981C50.857,849.526,50.895,849.041,50.873,848.601z M46.594,850.052
			c-0.119,0.49-0.399,0.937-0.77,1.291c-0.132,0.123-0.282,0.235-0.439,0.334c-0.4,0.25-0.859,0.405-1.321,0.405h-2.073l0.878-3.764
			l0.072-0.297h2.164c0.374,0,0.701,0.112,0.963,0.297C46.56,848.675,46.801,849.312,46.594,850.052z"/>
	</g>
	<g>
		<path fill="#6A8751" d="M43.368,957.574c8.296,0,15.02-6.726,15.02-15.023c0-8.296-6.724-15.022-15.02-15.022
			c-8.297,0-15.02,6.726-15.02,15.022C28.348,950.848,35.071,957.574,43.368,957.574"/>
		<path fill="#FFFFFF" d="M41.301,940.869c3.401-0.978,6.239,1.022,6.239,1.022l-2.34,0.631l-0.674-1.252
			c-0.634-0.116-1.357-0.153-2.125-0.024l1.593,3.238l6.885-1.982c0,0-2.497-3.922-9.944-2.654
			c-0.043,0.007-0.082,0.019-0.125,0.025l-0.724-1.47l-2.144,0.244l0.874,1.786c-4.518,1.867-2.517,6.268-2.517,6.268l6.895-1.983
			L41.301,940.869z M38.167,944.422c0,0-0.665-1.467,1.269-2.725l1.028,2.105L38.167,944.422z"/>
	</g>
	<g>
		<path fill="#3A4C8E" d="M43.368,1137.843c8.297,0,15.02-6.727,15.02-15.022c0-8.297-6.723-15.023-15.02-15.023
			s-15.02,6.726-15.02,15.023C28.348,1131.116,35.071,1137.843,43.368,1137.843"/>
		<path fill="#FFFFFF" d="M50.565,1115.309H36.172c-0.172,0-0.313,0.142-0.313,0.313v14.394c0,0.174,0.142,0.313,0.313,0.313h14.392
			c0.174,0,0.313-0.14,0.313-0.313v-14.394C50.879,1115.451,50.739,1115.309,50.565,1115.309z M43.368,1129.703v-6.883h-6.882
			v-6.885h6.882v6.885h6.883v6.883H43.368z"/>
	</g>
	<g>
		<path fill="#CCCBCB" d="M43.368,1047.709c8.296,0,15.02-6.726,15.02-15.022c0-8.297-6.724-15.023-15.02-15.023
			c-8.297,0-15.02,6.726-15.02,15.023C28.348,1040.983,35.071,1047.709,43.368,1047.709"/>
		<g>
			<polygon fill="#FFFFFF" points="41.14,1035.44 41.056,1035.44 41.017,1035.512 38.982,1039.071 38.859,1039.285 39.106,1039.285 
				48.596,1039.285 48.679,1039.285 48.721,1039.213 50.756,1035.655 50.879,1035.44 50.631,1035.44 			"/>
			<polygon fill="#FFFFFF" points="46.407,1034.542 46.45,1034.614 46.533,1034.614 50.631,1034.596 50.879,1034.595 
				50.756,1034.38 46.011,1026.16 45.97,1026.089 45.886,1026.089 41.788,1026.105 41.54,1026.107 41.663,1026.321 			"/>
			<polygon fill="#FFFFFF" points="43,1030.363 42.958,1030.29 40.894,1026.748 40.768,1026.535 40.645,1026.75 35.901,1034.968 
				35.859,1035.041 35.901,1035.113 37.965,1038.655 38.09,1038.868 38.213,1038.653 42.958,1030.433 			"/>
		</g>
	</g>
</g>
</svg>
