<?xml version="1.0" encoding="utf-8"?>
<!-- Generator: Adobe Illustrator 17.0.0, SVG Export Plug-In . SVG Version: 6.00 Build 0)  -->
<!DOCTYPE svg PUBLIC "-//W3C//DTD SVG 1.1//EN" "http://www.w3.org/Graphics/SVG/1.1/DTD/svg11.dtd">
<svg version="1.1" id="Layer_1" xmlns="http://www.w3.org/2000/svg" xmlns:xlink="http://www.w3.org/1999/xlink" x="0px" y="0px"
	 width="97px" height="100px" viewBox="-13 0 97 100" enable-background="new -13 0 97 100" xml:space="preserve">
<path fill="#F1C40E" d="M35,3.8c24.99,0,45.25,20.263,45.25,45.25C80.25,74.04,59.99,94.3,35,94.3
	c-24.989,0-45.25-20.26-45.25-45.25S10.008,3.8,35,3.8z"/>
<path fill="#D8B00C" d="M35,12.85c-19.993,0-36.2,16.207-36.2,36.2s16.207,36.2,36.2,36.2s36.2-16.207,36.2-36.2
	S54.993,12.85,35,12.85z M35,82.233c-18.325,0-33.183-14.857-33.183-33.183c0-18.323,14.859-33.183,33.183-33.183
	c18.326,0,33.183,14.86,33.183,33.183C68.183,67.376,53.326,82.233,35,82.233z"/>
<text transform="matrix(1 0 0 1 24.2442 64.418)" fill="#FFF55C" font-family="'Lato-Black'" font-size="40.9811">$</text>
</svg>
