<?xml version="1.0" encoding="utf-8"?>
<!-- Generator: Adobe Illustrator 17.0.0, SVG Export Plug-In . SVG Version: 6.00 Build 0)  -->
<!DOCTYPE svg PUBLIC "-//W3C//DTD SVG 1.1//EN" "http://www.w3.org/Graphics/SVG/1.1/DTD/svg11.dtd">
<svg version="1.1" id="Capa_1" xmlns="http://www.w3.org/2000/svg" xmlns:xlink="http://www.w3.org/1999/xlink" x="0px" y="0px"
	 width="114.083px" height="103.667px" viewBox="-53.25 -72.833 114.083 103.667"
	 enable-background="new -53.25 -72.833 114.083 103.667" xml:space="preserve">
<g>
	<g>
		<path fill="#78CBEF" d="M3.792,29.005c27.615,0,49.999-22.384,49.999-50.005c0-27.615-22.384-50.005-49.999-50.005
			c-27.611,0-49.999,22.391-49.999,50.005C-46.207,6.621-23.819,29.005,3.792,29.005"/>
		<path fill="#FFFFFF" d="M28.876-34.104c-1.843,0.82-3.823,1.373-5.904,1.62c2.127-1.273,3.753-3.283,4.517-5.684
			c-1.99,1.18-4.184,2.03-6.527,2.49c-1.87-1.997-4.544-3.247-7.5-3.247c-5.67,0-10.27,4.604-10.27,10.277
			c0,0.807,0.087,1.593,0.263,2.34c-8.54-0.43-16.107-4.514-21.181-10.74c-0.887,1.527-1.393,3.287-1.393,5.174
			c0,3.56,1.817,6.707,4.574,8.554c-1.683-0.053-3.27-0.52-4.657-1.287v0.127c0,4.98,3.54,9.134,8.247,10.074
			c-0.863,0.243-1.767,0.36-2.707,0.36c-0.663,0-1.31-0.06-1.933-0.183c1.31,4.084,5.097,7.057,9.597,7.137
			c-3.517,2.757-7.95,4.4-12.761,4.4c-0.83,0-1.653-0.047-2.45-0.143c4.547,2.913,9.944,4.617,15.751,4.617
			c18.904,0,29.238-15.657,29.238-29.238c0-0.45-0.01-0.893-0.03-1.327C25.759-30.23,27.503-32.04,28.876-34.104"/>
	</g>
	<g>
		<path fill="#E95655" d="M28.51,181.261c8.296,0,15.02-6.724,15.02-15.022c0-8.296-6.724-15.022-15.02-15.022
			c-8.295,0-15.02,6.726-15.02,15.022C13.49,174.536,20.215,181.261,28.51,181.261"/>
		<path fill="#FFFFFF" d="M28.51,158.688c-4.147,0-7.51,3.362-7.51,7.511c0,3.075,1.85,5.719,4.497,6.88
			c-0.023-0.523-0.005-1.154,0.128-1.724c0.146-0.61,0.966-4.094,0.966-4.094s-0.239-0.48-0.239-1.189
			c0-1.114,0.646-1.944,1.449-1.944c0.683,0,1.013,0.514,1.013,1.128c0,0.687-0.439,1.713-0.663,2.666
			c-0.188,0.796,0.399,1.445,1.185,1.445c1.423,0,2.381-1.827,2.381-3.992c0-1.647-1.108-2.879-3.124-2.879
			c-2.278,0-3.697,1.699-3.697,3.597c0,0.655,0.192,1.117,0.495,1.473c0.14,0.165,0.158,0.23,0.108,0.42
			c-0.036,0.138-0.118,0.471-0.153,0.604c-0.05,0.189-0.203,0.258-0.376,0.188c-1.049-0.43-1.537-1.578-1.537-2.869
			c0-2.134,1.798-4.695,5.365-4.695c2.869,0,4.757,2.077,4.757,4.304c0,2.946-1.639,5.147-4.055,5.147
			c-0.81,0-1.572-0.438-1.833-0.935c0,0-0.437,1.73-0.529,2.065c-0.159,0.579-0.471,1.157-0.756,1.608
			c0.676,0.199,1.389,0.309,2.128,0.309c4.149,0,7.511-3.364,7.511-7.513S32.659,158.688,28.51,158.688"/>
	</g>
	<g>
		<path fill="#547BBC" d="M131.74,29.811c27.743,0,50.238-22.492,50.238-50.248c0-27.747-22.495-50.245-50.238-50.245
			S81.502-48.185,81.502-20.438C81.502,7.319,103.997,29.811,131.74,29.811"/>
		<path fill="#FFFFFF" d="M119.618-28.939h5.198v-5.051c0-2.227,0.057-5.661,1.671-7.791c1.702-2.248,4.043-3.778,8.062-3.778
			c6.552,0,9.311,0.935,9.311,0.935l-1.3,7.697c0,0-2.164-0.63-4.183-0.63c-2.023,0-3.832,0.727-3.832,2.743v5.872h8.283
			l-0.579,7.513h-7.704V4.683h-9.733v-26.112h-5.198v-7.509H119.618z"/>
	</g>
	<g>
		<path fill="#E9644A" d="M28.51,451.664c8.295,0,15.02-6.726,15.02-15.023c0-8.296-6.725-15.022-15.02-15.022
			c-8.297,0-15.02,6.726-15.02,15.022C13.49,444.938,20.213,451.664,28.51,451.664"/>
		<path fill="#FFFFFF" d="M31.426,436.648l-4.917,2.89v-5.777L31.426,436.648z M36.021,439.328v-5.372c0,0,0-2.588-2.59-2.588
			h-9.844c0,0-2.587,0-2.587,2.588v5.372c0,0,0,2.588,2.587,2.588h9.844C33.431,441.915,36.021,441.915,36.021,439.328"/>
	</g>
	<g>
		<path fill="#4B4B4B" d="M28.51,361.528c8.297,0,15.02-6.726,15.02-15.023c0-8.296-6.723-15.022-15.02-15.022
			c-8.295,0-15.02,6.726-15.02,15.022C13.49,354.803,20.215,361.528,28.51,361.528"/>
		<path fill="#FFFFFF" d="M26.027,353.235c-1.787,0-3.075-1.131-3.075-2.488c0-1.332,1.599-2.439,3.385-2.42
			c0.418,0.005,0.806,0.072,1.158,0.187c0.969,0.674,1.664,1.053,1.86,1.823c0.037,0.155,0.057,0.315,0.057,0.48
			C29.409,352.173,28.536,353.235,26.027,353.235 M26.495,345.271c-1.199-0.036-2.339-1.341-2.545-2.914
			c-0.207-1.574,0.597-2.778,1.795-2.745c1.198,0.036,2.338,1.3,2.544,2.874C28.496,344.061,27.693,345.307,26.495,345.271
			 M28.98,347.602c-0.421-0.297-1.224-1.022-1.224-1.445c0-0.501,0.142-0.745,0.893-1.332c0.769-0.603,1.314-1.447,1.314-2.429
			c0-1.172-0.522-2.312-1.5-2.689h1.475l1.04-0.751h-4.653c-2.085,0-4.048,1.579-4.048,3.41c0,1.87,1.422,3.38,3.544,3.38
			c0.146,0,0.29-0.004,0.431-0.012c-0.137,0.262-0.236,0.561-0.236,0.866c0,0.52,0.279,0.942,0.634,1.286
			c-0.268,0-0.525,0.009-0.806,0.009c-2.584,0-4.57,1.644-4.57,3.352c0,1.681,2.179,2.732,4.763,2.732
			c2.943,0,4.569-1.672,4.569-3.353C30.606,349.278,30.21,348.471,28.98,347.602 M35.748,345.41h-1.813v-1.812H32.48v1.812h-1.812
			v1.457h1.812v1.813h1.456v-1.813h1.813C35.748,346.867,35.748,345.41,35.748,345.41z"/>
	</g>
	<g>
		<path fill="#7F807E" d="M28.51,722.069c8.296,0,15.02-6.725,15.02-15.022c0-8.296-6.724-15.022-15.02-15.022
			c-8.295,0-15.02,6.726-15.02,15.022C13.49,715.343,20.215,722.069,28.51,722.069"/>
		<path fill="#FFFFFF" d="M34.962,710.557c-0.352,0.781-0.522,1.13-0.976,1.822c-0.632,0.964-1.525,2.166-2.633,2.175
			c-0.983,0.011-1.236-0.64-2.571-0.631c-1.335,0.007-1.612,0.643-2.597,0.635c-1.107-0.011-1.953-1.096-2.587-2.061
			c-1.771-2.698-1.958-5.864-0.865-7.549c0.777-1.195,2.003-1.897,3.154-1.897c1.172,0,1.91,0.644,2.879,0.644
			c0.941,0,1.515-0.644,2.871-0.644c1.025,0,2.112,0.558,2.887,1.523C31.99,705.967,32.401,709.587,34.962,710.557L34.962,710.557z
			 M30.611,701.974c0.493-0.633,0.866-1.527,0.731-2.439c-0.806,0.055-1.746,0.567-2.296,1.234
			c-0.501,0.606-0.911,1.507-0.751,2.379C29.175,703.176,30.084,702.652,30.611,701.974L30.611,701.974z"/>
	</g>
	<g>
		<path fill="#5E8FAE" d="M28.51,631.935c8.296,0,15.021-6.726,15.021-15.022c0-8.297-6.725-15.023-15.021-15.023
			c-8.295,0-15.021,6.727-15.021,15.023C13.489,625.208,20.215,631.935,28.51,631.935"/>
		<path fill="#FFFFFF" d="M28.673,609.401v3.796h3.564v2.358h-3.564v3.851c0,0.872,0.046,1.431,0.138,1.678
			c0.092,0.248,0.263,0.445,0.516,0.593c0.331,0.198,0.711,0.298,1.14,0.298c0.761,0,1.516-0.248,2.269-0.743v2.372
			c-0.642,0.299-1.223,0.512-1.742,0.635c-0.521,0.122-1.084,0.183-1.688,0.183c-0.687,0-1.295-0.087-1.821-0.259
			c-0.527-0.176-0.978-0.421-1.35-0.743c-0.373-0.32-0.632-0.662-0.775-1.024c-0.144-0.36-0.216-0.884-0.216-1.571v-5.268h-1.66
			v-2.126c0.592-0.192,1.096-0.468,1.518-0.824c0.42-0.358,0.759-0.788,1.011-1.29c0.254-0.501,0.431-1.142,0.526-1.915h2.135
			V609.401z"/>
	</g>
	<g>
		<path fill="#40BFEF" d="M28.51,812.203c8.296,0,15.02-6.726,15.02-15.021c0-8.297-6.724-15.023-15.02-15.023
			c-8.295,0-15.02,6.727-15.02,15.023C13.49,805.477,20.215,812.203,28.51,812.203"/>
		<path fill="#FFFFFF" d="M27.892,793.412c0.282,0.396,0.426,0.867,0.426,1.417c0,0.566-0.143,1.022-0.43,1.367
			c-0.16,0.193-0.397,0.37-0.708,0.528c0.474,0.174,0.829,0.447,1.072,0.818c0.241,0.375,0.362,0.828,0.362,1.362
			c0,0.55-0.137,1.042-0.414,1.48c-0.175,0.288-0.395,0.533-0.657,0.73c-0.296,0.228-0.645,0.383-1.047,0.469
			c-0.404,0.082-0.841,0.124-1.313,0.124H21v-9.284h4.485C26.618,792.439,27.419,792.767,27.892,793.412z M22.852,794.035v2.049
			h2.257c0.401,0,0.73-0.077,0.981-0.23c0.25-0.153,0.377-0.427,0.377-0.814c0-0.435-0.167-0.719-0.498-0.858
			c-0.287-0.097-0.653-0.145-1.098-0.145h-2.02V794.035z M22.852,797.619v2.475h2.253c0.403,0,0.716-0.055,0.939-0.163
			c0.408-0.202,0.611-0.588,0.611-1.157c0-0.485-0.196-0.816-0.591-0.997c-0.221-0.101-0.531-0.154-0.929-0.157L22.852,797.619
			L22.852,797.619z M34.225,794.981c0.48,0.213,0.874,0.552,1.186,1.014c0.283,0.41,0.466,0.882,0.55,1.42
			c0.048,0.315,0.066,0.77,0.059,1.363h-5c0.029,0.688,0.266,1.171,0.718,1.446c0.274,0.173,0.605,0.259,0.99,0.259
			c0.407,0,0.739-0.104,0.994-0.313c0.141-0.113,0.264-0.271,0.371-0.474h1.833c-0.049,0.408-0.271,0.821-0.665,1.243
			c-0.615,0.666-1.477,1-2.582,1c-0.915,0-1.721-0.28-2.417-0.845c-0.7-0.563-1.048-1.481-1.048-2.748
			c0-1.19,0.314-2.102,0.944-2.736c0.632-0.636,1.448-0.952,2.454-0.952C33.209,794.659,33.747,794.765,34.225,794.981z
			 M31.54,796.531c-0.253,0.262-0.413,0.618-0.479,1.062h3.093c-0.032-0.476-0.193-0.835-0.479-1.085
			c-0.287-0.244-0.642-0.368-1.065-0.368C32.152,796.139,31.794,796.27,31.54,796.531z M34.576,792.855h-3.977v1.155h3.977V792.855z
			"/>
	</g>
	<g>
		<path fill="#8CCFDD" d="M28.51,902.337c8.296,0,15.021-6.726,15.021-15.022c0-8.296-6.725-15.022-15.021-15.022
			c-8.295,0-15.021,6.726-15.021,15.022C13.489,895.611,20.215,902.337,28.51,902.337"/>
		<path fill="#FFFFFF" d="M36.012,884.179c-0.065,1.461-1.089,3.459-3.061,5.99c-2.042,2.652-3.772,3.976-5.186,3.976
			c-0.874,0-1.614-0.806-2.22-2.421c-0.406-1.482-0.809-2.966-1.213-4.444c-0.451-1.618-0.933-2.425-1.448-2.425
			c-0.112,0-0.504,0.235-1.179,0.707L21,884.651c0.739-0.649,1.469-1.302,2.189-1.95c0.985-0.854,1.727-1.303,2.222-1.349
			c1.166-0.112,1.885,0.685,2.155,2.389c0.289,1.843,0.492,2.988,0.605,3.437c0.337,1.525,0.706,2.288,1.111,2.288
			c0.312,0,0.784-0.494,1.413-1.481c0.629-0.987,0.964-1.738,1.01-2.256c0.09-0.852-0.247-1.276-1.01-1.276
			c-0.359,0-0.73,0.076-1.111,0.234c0.742-2.401,2.155-3.569,4.242-3.502C35.374,881.229,36.103,882.228,36.012,884.179z"/>
	</g>
	<g>
		<path fill="#E9644A" d="M28.512,541.798c8.295,0,15.018-6.726,15.018-15.023c0-8.296-6.723-15.022-15.018-15.022
			c-8.297,0-15.022,6.726-15.022,15.022C13.49,535.072,20.215,541.798,28.512,541.798"/>
		<path fill="#FFFFFF" d="M31.583,521.703v2.862c-0.069,0.083-0.151,0.15-0.233,0.204c-0.092,0.053-0.159,0.082-0.219,0.082
			c-0.069,0-0.123-0.022-0.152-0.06c-0.037-0.045-0.053-0.105-0.053-0.197v-2.892h-0.772v3.149c0,0.228,0.046,0.395,0.135,0.508
			c0.092,0.114,0.229,0.167,0.403,0.167c0.151,0,0.295-0.037,0.454-0.113c0.15-0.083,0.295-0.196,0.439-0.356v0.417h0.773v-3.771
			L31.583,521.703L31.583,521.703z M29.23,521.885c-0.205-0.189-0.47-0.281-0.786-0.281c-0.35,0-0.63,0.092-0.842,0.266
			c-0.205,0.174-0.309,0.399-0.309,0.696v1.953c0,0.325,0.104,0.576,0.302,0.766c0.203,0.188,0.476,0.286,0.809,0.286
			c0.348,0,0.629-0.09,0.826-0.279c0.203-0.183,0.301-0.432,0.301-0.757v-1.946C29.532,522.3,29.425,522.066,29.23,521.885z
			 M28.744,524.594c0,0.099-0.031,0.175-0.091,0.234c-0.061,0.061-0.144,0.092-0.25,0.092c-0.099,0-0.181-0.031-0.234-0.092
			c-0.052-0.053-0.083-0.136-0.083-0.234v-2.06c0-0.083,0.031-0.149,0.092-0.196c0.053-0.054,0.137-0.076,0.226-0.076
			c0.099,0,0.183,0.022,0.25,0.076c0.06,0.047,0.091,0.113,0.091,0.196L28.744,524.594L28.744,524.594z M26.353,520.362
			l-0.536,2.046h-0.062l-0.562-2.046h-0.876l1.037,3.089v2.023h0.869v-2.12l1.007-2.991L26.353,520.362L26.353,520.362z
			 M32.371,529.364c0.047,0.061,0.068,0.167,0.068,0.304v0.346H31.84v-0.346c0-0.137,0.016-0.243,0.068-0.304
			c0.045-0.061,0.121-0.099,0.234-0.099C32.249,529.265,32.327,529.303,32.371,529.364z M29.993,529.348
			c-0.044-0.061-0.12-0.09-0.212-0.09c-0.045,0-0.098,0.007-0.143,0.029c-0.047,0.022-0.099,0.061-0.144,0.107v2.134
			c0.052,0.054,0.112,0.1,0.165,0.122c0.055,0.022,0.105,0.038,0.159,0.038c0.091,0,0.151-0.022,0.189-0.076
			c0.038-0.045,0.061-0.122,0.061-0.234v-1.771C30.07,529.494,30.047,529.412,29.993,529.348z M29.993,529.348
			c-0.044-0.061-0.12-0.09-0.212-0.09c-0.045,0-0.098,0.007-0.143,0.029c-0.047,0.022-0.099,0.061-0.144,0.107v2.134
			c0.052,0.054,0.112,0.1,0.165,0.122c0.055,0.022,0.105,0.038,0.159,0.038c0.091,0,0.151-0.022,0.189-0.076
			c0.038-0.045,0.061-0.122,0.061-0.234v-1.771C30.07,529.494,30.047,529.412,29.993,529.348z M33.877,526.709H23.144
			c-1.174,0-2.143,0.969-2.143,2.149v2.19c0,1.18,0.969,2.142,2.143,2.142h10.734c1.174,0,2.144-0.962,2.144-2.142v-2.19
			C36.021,527.677,35.05,526.709,33.877,526.709z M26.036,528.215h-0.802v3.968H24.46v-3.968h-0.795v-0.673h2.37
			C26.036,527.542,26.036,528.215,26.036,528.215z M28.289,532.182h-0.688v-0.379c-0.12,0.144-0.257,0.249-0.395,0.317
			c-0.136,0.076-0.265,0.114-0.396,0.114c-0.156,0-0.278-0.054-0.362-0.161c-0.076-0.098-0.113-0.248-0.113-0.454v-2.868h0.681
			v2.634c0,0.076,0.016,0.137,0.047,0.175c0.022,0.037,0.074,0.053,0.137,0.053c0.051,0,0.113-0.022,0.189-0.075
			c0.082-0.047,0.149-0.107,0.21-0.183v-2.604h0.688V532.182z M30.773,531.469c0,0.243-0.053,0.432-0.158,0.562
			c-0.105,0.129-0.266,0.196-0.47,0.196c-0.136,0-0.25-0.022-0.357-0.074c-0.104-0.056-0.203-0.129-0.293-0.236v0.266h-0.689v-4.641
			h0.689v1.49c0.09-0.098,0.188-0.181,0.293-0.234c0.106-0.053,0.212-0.082,0.319-0.082c0.211,0,0.378,0.075,0.491,0.219
			c0.113,0.143,0.174,0.354,0.174,0.636V531.469z M33.152,530.554h-1.311v0.644c0,0.182,0.016,0.303,0.061,0.372
			c0.045,0.074,0.129,0.105,0.234,0.105c0.113,0,0.189-0.031,0.234-0.091c0.047-0.054,0.068-0.19,0.068-0.387v-0.158h0.712v0.174
			c0,0.356-0.091,0.62-0.265,0.795c-0.167,0.181-0.425,0.265-0.764,0.265c-0.312,0-0.555-0.091-0.728-0.28
			c-0.175-0.188-0.264-0.447-0.264-0.779v-1.537c0-0.295,0.098-0.539,0.293-0.726c0.188-0.183,0.439-0.281,0.749-0.281
			c0.311,0,0.554,0.091,0.72,0.266c0.167,0.173,0.258,0.415,0.258,0.741v0.877H33.152z M29.782,529.259
			c-0.045,0-0.098,0.007-0.143,0.029c-0.047,0.022-0.099,0.061-0.144,0.107v2.134c0.052,0.054,0.112,0.1,0.165,0.122
			c0.055,0.022,0.105,0.038,0.159,0.038c0.091,0,0.151-0.022,0.189-0.076c0.038-0.045,0.061-0.122,0.061-0.234v-1.771
			c0-0.114-0.022-0.196-0.076-0.259C29.95,529.288,29.873,529.259,29.782,529.259z M29.993,529.348
			c-0.044-0.061-0.12-0.09-0.212-0.09c-0.045,0-0.098,0.007-0.143,0.029c-0.047,0.022-0.099,0.061-0.144,0.107v2.134
			c0.052,0.054,0.112,0.1,0.165,0.122c0.055,0.022,0.105,0.038,0.159,0.038c0.091,0,0.151-0.022,0.189-0.076
			c0.038-0.045,0.061-0.122,0.061-0.234v-1.771C30.07,529.494,30.047,529.412,29.993,529.348z M29.993,529.348
			c-0.044-0.061-0.12-0.09-0.212-0.09c-0.045,0-0.098,0.007-0.143,0.029c-0.047,0.022-0.099,0.061-0.144,0.107v2.134
			c0.052,0.054,0.112,0.1,0.165,0.122c0.055,0.022,0.105,0.038,0.159,0.038c0.091,0,0.151-0.022,0.189-0.076
			c0.038-0.045,0.061-0.122,0.061-0.234v-1.771C30.07,529.494,30.047,529.412,29.993,529.348z"/>
	</g>
	<g>
		<path fill="#FFFFFF" d="M28.512,992.472c8.293,0,15.019-6.726,15.019-15.021c0-8.297-6.726-15.023-15.019-15.023
			c-8.297,0-15.023,6.727-15.023,15.023C13.489,985.746,20.215,992.472,28.512,992.472"/>
		<g>
			<path fill="#E1408F" d="M36.021,977.451c0,1.826-1.481,3.308-3.308,3.308c-1.831,0-3.311-1.481-3.311-3.308
				c0-1.828,1.48-3.31,3.311-3.31C34.54,974.142,36.021,975.624,36.021,977.451z"/>
			<path fill="#396DB3" d="M27.617,977.451c0,1.826-1.48,3.308-3.311,3.308c-1.827,0-3.307-1.481-3.307-3.308
				c0-1.828,1.48-3.31,3.307-3.31C26.138,974.142,27.617,975.624,27.617,977.451z"/>
		</g>
	</g>
	<g>
		<path fill="#F29100" d="M28.51,1082.607c8.297,0,15.02-6.726,15.02-15.023c0-8.295-6.723-15.021-15.02-15.021
			s-15.02,6.726-15.02,15.021C13.49,1075.881,20.213,1082.607,28.51,1082.607"/>
		<path id="RSS" fill="#FFFFFF" d="M24.404,1071.686c0.364,0.365,0.585,0.856,0.587,1.406c-0.002,0.549-0.223,1.042-0.585,1.402
			l-0.002,0.002c-0.362,0.36-0.858,0.583-1.41,0.583c-0.552,0-1.045-0.223-1.41-0.585c-0.36-0.359-0.584-0.854-0.584-1.402
			c0-0.55,0.224-1.043,0.584-1.406l0,0c0.365-0.359,0.858-0.585,1.41-0.585C23.546,1071.101,24.043,1071.325,24.404,1071.686z
			 M24.404,1071.686L24.404,1071.686L24.404,1071.686L24.404,1071.686z M21.584,1074.496v-0.002l0,0V1074.496z M21.002,1065.183
			v2.868c1.872,0,3.646,0.736,4.968,2.064c1.326,1.325,2.058,3.098,2.062,4.977l0,0v0.005h2.882
			c-0.004-2.733-1.115-5.207-2.91-7.004C26.209,1066.294,23.733,1065.184,21.002,1065.183z M21.008,1060.073v2.867
			c6.693,0.005,12.132,5.455,12.14,12.155h2.873c-0.002-4.14-1.686-7.892-4.404-10.614
			C28.898,1061.76,25.147,1060.075,21.008,1060.073z"/>
	</g>
	<g>
		<path fill="#1384C7" d="M-13.883,125.177c8.297,0,15.02-6.726,15.02-15.022c0-8.297-6.723-15.023-15.02-15.023
			c-8.295,0-15.02,6.726-15.02,15.023C-28.903,118.45-22.178,125.177-13.883,125.177"/>
		<path fill="#FFFFFF" d="M24.307,112.431h-2.928v-9.37h2.928V112.431z M22.769,101.889h-0.021c-1.06,0-1.746-0.717-1.746-1.624
			c0-0.926,0.707-1.627,1.789-1.627c1.08,0,1.743,0.7,1.764,1.624C24.554,101.169,23.869,101.889,22.769,101.889z M36.021,112.431
			H32.7v-4.849c0-1.27-0.519-2.136-1.66-2.136c-0.872,0-1.358,0.585-1.585,1.148c-0.085,0.201-0.071,0.483-0.071,0.767v5.069h-3.288
			c0,0,0.043-8.589,0-9.37h3.288v1.471c0.194-0.644,1.246-1.561,2.922-1.561c2.081,0,3.716,1.349,3.716,4.25L36.021,112.431
			L36.021,112.431z"/>
	</g>
	<g>
		<path fill="#FAC766" d="M28.51,211.307c8.296,0,15.02-6.726,15.02-15.023c0-8.297-6.724-15.023-15.02-15.023
			c-8.297,0-15.02,6.726-15.02,15.023C13.49,204.58,20.213,211.307,28.51,211.307"/>
		<path fill="#FFFFFF" d="M35.948,195.009l-0.124-0.259l-0.211-0.166c-0.275-0.217-1.67,0.016-2.05-0.326
			c-0.265-0.245-0.303-0.688-0.385-1.284c-0.149-1.162-0.245-1.221-0.428-1.611c-0.657-1.396-2.438-2.445-3.662-2.59H25.77
			c-2.608,0-4.742,2.138-4.742,4.748v5.538c0,2.604,2.134,4.737,4.742,4.737h5.45c2.608,0,4.728-2.134,4.743-4.737l0.03-3.836
			L35.948,195.009z M25.83,192.651h2.629c0.503,0,0.907,0.407,0.907,0.905c0,0.495-0.405,0.907-0.907,0.907H25.83
			c-0.503,0-0.909-0.413-0.909-0.907C24.921,193.057,25.328,192.651,25.83,192.651z M31.174,199.889H25.83
			c-0.503,0-0.909-0.411-0.909-0.903c0-0.497,0.407-0.902,0.909-0.902h5.344c0.498,0,0.903,0.406,0.903,0.902
			C32.077,199.478,31.672,199.889,31.174,199.889z"/>
	</g>
	<g>
		<path fill="#D87DA5" d="M28.51,301.44c8.296,0,15.02-6.726,15.02-15.023c0-8.296-6.724-15.022-15.02-15.022
			c-8.297,0-15.02,6.726-15.02,15.022C13.49,294.713,20.213,301.44,28.51,301.44"/>
		<path fill="#FFFFFF" d="M35.867,284.905c-0.099-0.483-0.247-0.958-0.439-1.412c-0.188-0.446-0.421-0.875-0.69-1.276
			c-0.27-0.398-0.579-0.772-0.917-1.11c-0.339-0.342-0.714-0.649-1.112-0.918c-0.4-0.272-0.83-0.504-1.274-0.693
			c-0.454-0.189-0.93-0.339-1.412-0.437c-0.495-0.102-1.003-0.153-1.512-0.153c-0.509,0-1.017,0.052-1.513,0.153
			c-0.482,0.097-0.957,0.246-1.41,0.437c-0.445,0.189-0.875,0.421-1.276,0.693c-0.398,0.269-0.772,0.576-1.111,0.918
			c-0.34,0.338-0.647,0.712-0.916,1.11c-0.271,0.401-0.506,0.83-0.693,1.276c-0.191,0.454-0.339,0.929-0.439,1.412
			c-0.101,0.494-0.151,1.002-0.151,1.511c0,0.51,0.051,1.02,0.151,1.514c0.099,0.483,0.246,0.956,0.439,1.41
			c0.188,0.446,0.423,0.877,0.693,1.277c0.269,0.399,0.576,0.771,0.916,1.111c0.339,0.339,0.713,0.647,1.111,0.916
			c0.401,0.271,0.831,0.506,1.276,0.693c0.453,0.19,0.928,0.337,1.41,0.437c0.496,0.104,1.004,0.153,1.513,0.153
			c0.509,0,1.017-0.05,1.512-0.153c0.482-0.099,0.958-0.245,1.412-0.437c0.444-0.188,0.874-0.423,1.274-0.693
			c0.398-0.27,0.772-0.577,1.112-0.916c0.338-0.34,0.647-0.712,0.917-1.111c0.27-0.4,0.503-0.831,0.69-1.277
			c0.191-0.454,0.34-0.927,0.439-1.41c0.102-0.494,0.153-1.004,0.153-1.514C36.021,285.908,35.969,285.399,35.867,284.905z
			 M34.921,286.353c-0.093-0.021-2.263-0.489-4.467-0.211c-0.045-0.108-0.09-0.219-0.138-0.331c-0.134-0.313-0.277-0.624-0.426-0.93
			c2.531-1.034,3.56-2.523,3.571-2.54C34.362,283.435,34.906,284.831,34.921,286.353z M32.746,281.604
			c-0.017,0.024-0.93,1.414-3.352,2.321c-1.096-2.016-2.3-3.615-2.397-3.741c0.485-0.117,0.991-0.182,1.512-0.182
			C30.133,280.001,31.617,280.608,32.746,281.604z M26.973,280.189L26.973,280.189c0,0-0.008,0.002-0.02,0.005
			C26.959,280.193,26.967,280.191,26.973,280.189z M25.773,280.615c0.087,0.113,1.273,1.723,2.382,3.696
			c-3.079,0.817-5.753,0.785-5.921,0.783C22.65,283.108,23.984,281.461,25.773,280.615z M22.097,286.417
			c0-0.068,0.002-0.136,0.005-0.201c0.112,0.002,3.283,0.072,6.584-0.914c0.184,0.359,0.36,0.725,0.521,1.091
			c-0.086,0.021-0.168,0.048-0.252,0.075c-3.461,1.12-5.216,4.235-5.216,4.235s0.002,0.002,0.002,0.003
			C22.719,289.566,22.097,288.064,22.097,286.417z M28.51,292.833c-1.553,0-2.976-0.553-4.086-1.472
			c0.084,0.068,0.144,0.112,0.144,0.112s1.23-2.682,5.033-4.006c0.014-0.006,0.028-0.011,0.042-0.014
			c0.902,2.344,1.276,4.309,1.37,4.87C30.245,292.651,29.398,292.833,28.51,292.833z M32.093,291.737
			c-0.064-0.388-0.407-2.271-1.248-4.582c2.07-0.331,3.864,0.236,3.997,0.281C34.557,289.223,33.535,290.764,32.093,291.737z"/>
	</g>
	<g>
		<path fill="#1D94D2" d="M28.51,391.574c8.296,0,15.02-6.726,15.02-15.022c0-8.297-6.724-15.023-15.02-15.023
			c-8.297,0-15.02,6.727-15.02,15.023C13.49,384.848,20.213,391.574,28.51,391.574"/>
		<path fill="#FFFFFF" d="M35.589,378.17c0.108-0.497,0.165-1.011,0.165-1.539c0-3.956-3.208-7.163-7.164-7.163
			c-0.417,0-0.825,0.036-1.226,0.104c-0.64-0.404-1.398-0.639-2.209-0.639c-2.295,0-4.155,1.86-4.155,4.156
			c0,0.766,0.208,1.483,0.57,2.101c-0.094,0.467-0.145,0.947-0.145,1.44c0,3.958,3.208,7.166,7.164,7.166
			c0.449,0,0.886-0.041,1.313-0.121c0.585,0.314,1.254,0.494,1.964,0.494c2.294,0,4.154-1.859,4.154-4.155
			C36.021,379.35,35.865,378.724,35.589,378.17z M32.265,380.054c-0.331,0.47-0.821,0.84-1.455,1.105
			c-0.628,0.262-1.383,0.396-2.239,0.396c-1.028,0-1.892-0.182-2.565-0.538c-0.481-0.26-0.878-0.612-1.181-1.047
			c-0.304-0.439-0.459-0.875-0.459-1.296c0-0.262,0.102-0.49,0.299-0.676c0.195-0.185,0.448-0.277,0.747-0.277
			c0.246,0,0.46,0.073,0.632,0.219c0.164,0.14,0.305,0.346,0.421,0.614c0.126,0.29,0.264,0.536,0.411,0.729
			c0.141,0.187,0.343,0.344,0.601,0.465c0.26,0.124,0.61,0.187,1.04,0.187c0.593,0,1.078-0.126,1.443-0.377
			c0.355-0.243,0.53-0.537,0.53-0.893c0-0.283-0.091-0.506-0.276-0.68c-0.194-0.183-0.453-0.324-0.764-0.424
			c-0.326-0.1-0.769-0.21-1.314-0.325c-0.743-0.159-1.375-0.347-1.878-0.562c-0.515-0.218-0.928-0.522-1.231-0.899
			c-0.308-0.387-0.466-0.868-0.466-1.438c0-0.54,0.164-1.029,0.487-1.449c0.32-0.418,0.788-0.743,1.391-0.965
			c0.595-0.219,1.303-0.331,2.103-0.331c0.64,0,1.202,0.074,1.671,0.221c0.473,0.146,0.871,0.344,1.184,0.59
			c0.315,0.244,0.551,0.509,0.697,0.781c0.147,0.276,0.223,0.553,0.223,0.818c0,0.256-0.098,0.487-0.293,0.69
			c-0.195,0.204-0.444,0.307-0.735,0.307c-0.266,0-0.474-0.065-0.617-0.19c-0.134-0.119-0.272-0.304-0.428-0.57
			c-0.178-0.338-0.396-0.606-0.644-0.794c-0.24-0.185-0.643-0.276-1.196-0.276c-0.513,0-0.932,0.102-1.241,0.306
			c-0.299,0.196-0.444,0.421-0.444,0.687c0,0.163,0.046,0.299,0.143,0.417c0.102,0.126,0.245,0.232,0.427,0.324
			c0.189,0.095,0.384,0.171,0.577,0.224c0.198,0.056,0.534,0.137,0.991,0.243c0.58,0.124,1.113,0.264,1.584,0.415
			c0.478,0.153,0.888,0.339,1.225,0.561c0.343,0.222,0.616,0.509,0.808,0.852c0.193,0.343,0.291,0.768,0.291,1.264
			C32.766,379.046,32.598,379.586,32.265,380.054z"/>
	</g>
	<g>
		<path fill="#8C589F" d="M28.51,481.708c8.296,0,15.02-6.726,15.02-15.023c0-8.296-6.724-15.022-15.02-15.022
			c-8.297,0-15.02,6.727-15.02,15.022C13.49,474.982,20.213,481.708,28.51,481.708"/>
		<g>
			<path fill="#FFFFFF" d="M33.099,464.415c0.084-0.017,0.207-0.044,0.348-0.074h1.083l0.169-0.249
				c0.002-0.001,0.01-0.001,0.013-0.001l0.42-0.606c-0.006,0-0.016-0.002-0.021-0.002l0.044-0.065h-5.87l0.227,0.924h1.602
				l-2.695,2.433c-0.551-0.759-1.841-2.343-2.74-3.653h2.019v-0.702l0.022-0.155c-0.005-0.002-0.017-0.004-0.022-0.004v-0.063
				h-6.694v0.925h1.985c0.77,0.603,3.717,4.283,3.839,4.65c0.048,0.345,0.093,2.373-0.05,2.526
				c-0.289,0.307-1.611,0.226-1.931,0.248l-0.109,0.628c0.582,0.018,2.476-0.046,3.065-0.046c1.16,0,3.193-0.006,3.481,0.017
				l0.034-0.661c-0.293-0.048-1.893-0.005-2.114-0.055c-0.049-0.319-0.102-2.455-0.055-2.676
				C29.368,467.112,32.731,464.513,33.099,464.415z"/>
			<path fill="#FFFFFF" d="M34.073,469.463l0.9,0.07l1.047-4.047c-0.174-0.005-1.765-0.156-1.972-0.196L34.073,469.463z"/>
			<polygon fill="#FFFFFF" points="33.918,470.112 33.922,471.1 34.377,471.14 34.87,471.177 35.014,470.208 34.496,470.182 			"/>
		</g>
	</g>
	<g>
		<path fill="#ADCE74" d="M28.51,571.843c8.296,0,15.02-6.727,15.02-15.022c0-8.297-6.724-15.023-15.02-15.023
			c-8.297,0-15.02,6.726-15.02,15.023C13.49,565.117,20.213,571.843,28.51,571.843"/>
		<g>
			<g>
				<g>
					<g>
						<path id="SVGID_1_" fill="#FFFFFF" d="M26.374,561.938c-0.771-0.512-1.585-0.966-2.761-0.966
							c-0.714,0-1.563,0.169-2.613,0.592l1.39-4.819c0.158-0.063,0.312-0.122,0.464-0.178c0.507-0.178,1.229-0.382,2.021-0.447
							c0.092-0.007,0.18-0.01,0.27-0.01c0.791,0,1.512,0.275,2.029,0.542c0.223,0.118,0.432,0.247,0.641,0.377
							C27.629,557.66,26.66,560.972,26.374,561.938"/>
					</g>
				</g>
			</g>
			<g>
				<g>
					<g>
						<path id="SVGID_3_" fill="#FFFFFF" d="M30.096,563.45c-1.218,0-2.84-0.999-2.838-0.999l1.386-4.812
							c0.422,0.336,1.399,0.977,3.005,0.977c0.739,0,1.611-0.137,2.625-0.501l-1.336,4.67
							C31.786,563.262,30.866,563.45,30.096,563.45"/>
					</g>
				</g>
			</g>
			<g>
				<g>
					<g>
						<path id="SVGID_5_" fill="#FFFFFF" d="M29.489,551.06v0.004c-0.286,0.976-1.131,3.873-1.415,4.839 M28.073,555.903
							c-0.743-0.494-1.542-0.944-2.669-0.954c-0.012,0-0.023,0-0.038,0c-0.727,0-1.591,0.191-2.657,0.626l1.369-4.808
							c1.038-0.425,1.882-0.596,2.587-0.609c0.005,0,0.011,0,0.016,0c0.414,0,0.788,0.05,1.12,0.128
							c0.692,0.177,1.688,0.774,1.688,0.774"/>
					</g>
				</g>
			</g>
			<g>
				<g>
					<g>
						<path id="SVGID_7_" fill="#FFFFFF" d="M31.963,557.489c-1.211,0-2.216-0.419-2.989-0.934c-0.004-0.004-0.01-0.007-0.014-0.011
							l1.404-4.861c0.444,0.347,1.449,0.993,2.971,0.993c0.766,0,1.662-0.164,2.686-0.61l-1.385,4.773
							c-0.004,0-0.008,0.002-0.01,0.002c0,0.002,0,0.005,0,0.007C33.654,557.306,32.764,557.489,31.963,557.489"/>
					</g>
				</g>
			</g>
		</g>
	</g>
	<g>
		<path fill="#22B7EB" d="M28.51,661.979c8.296,0,15.02-6.726,15.02-15.023c0-8.296-6.724-15.021-15.02-15.021
			c-8.297,0-15.02,6.725-15.02,15.021C13.49,655.253,20.213,661.979,28.51,661.979"/>
		<g>
			<path fill="#FFFFFF" d="M27.176,646.7l1.273-2.216c0.095-0.166,0.037-0.379-0.128-0.476l-0.904-0.518
				c-0.165-0.097-0.38-0.04-0.475,0.126l-1.387,2.416l0,0l-1.527,2.662l0,0l-1.277,2.222c-0.095,0.166-0.037,0.379,0.129,0.474
				l0.903,0.521c0.166,0.095,0.38,0.038,0.476-0.128l1.773-3.087l0,0L27.176,646.7z"/>
			<path fill="#FFFFFF" d="M35.706,646.034h-3.053c0.359,0.673,0.692,1.308,0.927,1.757c0.16,0.309,0.289,0.554,0.334,0.637
				c0.049,0.086,0.082,0.178,0.105,0.269h1.686c0.174,0,0.314-0.141,0.314-0.313v-2.034
				C36.021,646.174,35.88,646.034,35.706,646.034z"/>
			<path fill="#FFFFFF" d="M28.283,646.034l-1.527,2.662h4.146c-0.301-0.596-0.699-1.444-1.235-2.662H28.283z"/>
			<path fill="#FFFFFF" d="M24.829,646.034h-3.515c-0.174,0-0.313,0.14-0.313,0.313v2.034c0,0.173,0.14,0.313,0.313,0.313h1.989
				L24.829,646.034z"/>
			<path fill="#FFFFFF" d="M23.487,652.31l-0.904-0.521c-0.165-0.096-0.319-0.017-0.341,0.171l-0.154,1.363
				c-0.023,0.189,0.088,0.257,0.246,0.15l1.17-0.796C23.659,652.572,23.653,652.405,23.487,652.31z"/>
			<path fill="#FFFFFF" d="M33.365,648.729c-0.004-0.009-0.012-0.021-0.019-0.033l0,0c-0.083-0.155-0.294-0.561-0.571-1.086
				c-0.003-0.007-0.007-0.014-0.011-0.021c-0.02-0.041-0.042-0.081-0.063-0.122c-0.017-0.031-0.032-0.061-0.048-0.092
				c-0.014-0.025-0.027-0.052-0.041-0.079c-0.025-0.047-0.051-0.093-0.074-0.14c-0.009-0.016-0.016-0.031-0.024-0.045
				c-0.027-0.053-0.057-0.106-0.085-0.162c-0.008-0.016-0.017-0.03-0.025-0.046c-0.637-1.206-1.437-2.69-1.933-3.469
				c-0.863-1.366-2.017-3.645-2.339-3.484c-0.452,0.224,0.944,3.117,1.408,4.204c0.462,1.085,2.267,5.25,2.629,5.433
				c0.362,0.181,0.503,0.081,0.743-0.021C33.154,649.467,33.585,649.133,33.365,648.729z"/>
			<path fill="#FFFFFF" d="M34.396,650.875l-0.432-0.826c-0.099-0.188-0.326-0.264-0.51-0.171l-0.521,0.27
				c-0.183,0.093-0.239,0.315-0.128,0.495l0.546,0.861c0.112,0.176,0.35,0.234,0.526,0.128l0.371-0.222
				C34.426,651.303,34.494,651.063,34.396,650.875z"/>
			<path fill="#FFFFFF" d="M34.263,652.071c-0.136,0.131-0.459,0.413-0.069,0.961c0.392,0.551,1.26,0.575,1.375,0.938
				C35.569,653.971,35.842,651.182,34.263,652.071z"/>
		</g>
	</g>
	<g>
		<path fill="#FCC233" d="M28.51,752.114c8.296,0,15.02-6.726,15.02-15.022c0-8.297-6.724-15.023-15.02-15.023
			c-8.297,0-15.02,6.726-15.02,15.023C13.49,745.388,20.213,752.114,28.51,752.114"/>
		<g>
			<path fill="#FFFFFF" d="M33.847,741.74c-0.075-0.001-0.151,0.017-0.222,0.05c-0.081,0.032-0.164,0.068-0.241,0.102l-0.114,0.048
				L33.122,742v0.002c-1.612,0.654-3.305,1.037-4.871,1.072c-0.058,0.002-0.115,0.002-0.172,0.002
				c-2.462,0.001-4.473-1.144-6.501-2.269c-0.07-0.036-0.143-0.055-0.214-0.055c-0.091,0-0.185,0.032-0.252,0.096
				c-0.068,0.065-0.108,0.159-0.108,0.252c0,0.124,0.066,0.236,0.158,0.309c1.903,1.652,3.99,3.189,6.795,3.189
				c0.055,0,0.11,0,0.166-0.002c1.785-0.039,3.802-0.644,5.369-1.626l0.01-0.007c0.205-0.122,0.411-0.262,0.604-0.416
				c0.12-0.09,0.202-0.229,0.202-0.375C34.3,741.915,34.082,741.74,33.847,741.74z"/>
			<path fill="#FFFFFF" d="M36.021,740.828v-0.002c-0.007-0.157-0.039-0.274-0.105-0.375l-0.006-0.009l-0.008-0.01
				c-0.066-0.072-0.131-0.101-0.199-0.131c-0.205-0.078-0.505-0.121-0.865-0.123c-0.259,0-0.545,0.026-0.832,0.088v-0.019
				l-0.289,0.097l-0.005,0.001l-0.163,0.054v0.007c-0.19,0.08-0.366,0.18-0.528,0.295c-0.1,0.076-0.183,0.176-0.188,0.328
				c-0.002,0.083,0.04,0.18,0.109,0.236c0.07,0.057,0.151,0.076,0.223,0.076c0.018,0,0.033-0.002,0.047-0.004l0.014-0.001
				l0.012-0.002c0.141-0.029,0.347-0.051,0.587-0.085c0.207-0.022,0.427-0.039,0.616-0.039c0.135,0,0.256,0.009,0.338,0.027
				c0.041,0.009,0.072,0.019,0.09,0.027c0.006,0.002,0.01,0.005,0.012,0.007c0.004,0.012,0.01,0.041,0.008,0.083
				c0.002,0.158-0.064,0.453-0.156,0.741c-0.091,0.288-0.2,0.576-0.273,0.768c-0.017,0.045-0.027,0.093-0.027,0.146
				c-0.002,0.078,0.029,0.171,0.096,0.232c0.066,0.062,0.15,0.087,0.221,0.087h0.004c0.105-0.002,0.195-0.044,0.273-0.105
				c0.733-0.659,0.988-1.711,0.999-2.303L36.021,740.828z"/>
			<path fill="#FFFFFF" d="M29.316,733.76c-0.432,0.032-0.929,0.065-1.426,0.131c-0.763,0.1-1.524,0.23-2.154,0.531
				c-1.227,0.496-2.055,1.558-2.055,3.114c0,1.957,1.26,2.95,2.851,2.95c0.529,0,0.961-0.067,1.358-0.165
				c0.631-0.198,1.16-0.564,1.79-1.227c0.366,0.496,0.466,0.73,1.094,1.259c0.166,0.065,0.332,0.065,0.464-0.032
				c0.399-0.331,1.097-0.929,1.459-1.26c0.166-0.132,0.133-0.332,0.033-0.497c-0.364-0.464-0.73-0.862-0.73-1.757v-2.983
				c0-1.262,0.1-2.42-0.827-3.282c-0.763-0.696-1.956-0.962-2.884-0.962H27.89c-1.69,0.099-3.48,0.827-3.878,2.917
				c-0.066,0.265,0.133,0.364,0.266,0.397l1.857,0.233c0.199-0.033,0.298-0.2,0.33-0.365c0.166-0.729,0.763-1.094,1.426-1.161h0.133
				c0.397,0,0.829,0.166,1.06,0.499c0.265,0.397,0.232,0.928,0.232,1.393L29.316,733.76L29.316,733.76z M28.951,737.704
				c-0.231,0.463-0.631,0.761-1.061,0.862c-0.066,0-0.165,0.033-0.266,0.033c-0.729,0-1.16-0.564-1.16-1.393
				c0-1.062,0.63-1.558,1.426-1.791c0.431-0.101,0.928-0.133,1.426-0.133v0.398C29.316,736.444,29.348,737.04,28.951,737.704z"/>
		</g>
	</g>
	<g>
		<path fill="#D5DF80" d="M28.51,842.248c8.296,0,15.02-6.726,15.02-15.023c0-8.296-6.724-15.022-15.02-15.022
			c-8.297,0-15.02,6.726-15.02,15.022C13.49,835.522,20.213,842.248,28.51,842.248"/>
		<g>
			<path fill="#FFFFFF" d="M30.753,821.022l0.163-0.244l0.162-0.243l0.361-0.543c0.045-0.067,0.027-0.157-0.04-0.202
				c-0.065-0.045-0.156-0.025-0.2,0.042l-0.39,0.582l-0.164,0.245l-0.164,0.248c-0.526-0.203-1.111-0.319-1.73-0.319
				c-0.617,0-1.204,0.116-1.729,0.319l-0.165-0.248l-0.163-0.245l-0.39-0.582c-0.044-0.067-0.134-0.087-0.201-0.042
				c-0.066,0.045-0.085,0.135-0.04,0.202l0.362,0.543l0.162,0.243l0.164,0.244c-1.234,0.575-2.069,1.662-2.069,2.91h8.138
				C32.821,822.684,31.987,821.597,30.753,821.022z M27.008,822.769c-0.241,0-0.437-0.196-0.437-0.437
				c0-0.241,0.194-0.437,0.437-0.437c0.24,0,0.437,0.194,0.437,0.437C27.445,822.573,27.248,822.769,27.008,822.769z
				 M30.495,822.769c-0.24,0-0.436-0.196-0.436-0.437c0-0.241,0.194-0.437,0.436-0.437c0.242,0,0.438,0.194,0.438,0.437
				C30.933,822.573,30.738,822.769,30.495,822.769z"/>
			<path fill="#FFFFFF" d="M24.745,824.514h-0.062v0.724v0.593v5.08c0,0.508,0.413,0.92,0.921,0.92h0.663
				c-0.021,0.076-0.034,0.157-0.034,0.241v0.049v0.289v1.503c0,0.481,0.391,0.872,0.871,0.872c0.482,0,0.873-0.392,0.873-0.872
				v-1.503v-0.289v-0.049c0-0.084-0.013-0.165-0.035-0.241h1.619c-0.022,0.076-0.034,0.157-0.034,0.241v0.049v0.289v1.503
				c0,0.481,0.392,0.872,0.872,0.872c0.481,0,0.872-0.392,0.872-0.872v-1.503v-0.289v-0.049c0-0.084-0.014-0.165-0.035-0.241h0.665
				c0.509,0,0.919-0.413,0.919-0.92v-5.08v-0.593v-0.724h-0.062H24.745z"/>
			<path fill="#FFFFFF" d="M23.23,824.514c-0.482,0-0.873,0.391-0.873,0.87v3.733c0,0.48,0.392,0.872,0.873,0.872
				c0.481,0,0.871-0.393,0.871-0.872v-3.733C24.101,824.904,23.71,824.514,23.23,824.514z"/>
			<path fill="#FFFFFF" d="M34.276,824.514c-0.483,0-0.872,0.391-0.872,0.87v3.733c0,0.48,0.39,0.872,0.872,0.872
				c0.481,0,0.871-0.393,0.871-0.872v-3.733C35.147,824.904,34.757,824.514,34.276,824.514z"/>
		</g>
	</g>
	<g>
		<path fill="#696969" d="M145.267,145.552c27.843,0,50.412-22.576,50.412-50.419c0-27.846-22.569-50.422-50.412-50.422
			c-27.846,0-50.412,22.576-50.412,50.422C94.855,122.976,117.421,145.552,145.267,145.552"/>
		<path fill="#FFFFFF" d="M160.738,69.922h-30.925c-5.374,0-9.744,4.373-9.744,9.744v10.292v20.647c0,5.371,4.373,9.734,9.744,9.734
			h30.925c5.374,0,9.744-4.366,9.744-9.734V89.957V79.665C170.482,74.295,166.109,69.922,160.738,69.922z M163.531,75.736
			l1.116-0.007v1.112v7.435l-8.517,0.03l-0.03-8.547L163.531,75.736z M138.078,89.96c1.613-2.235,4.235-3.697,7.196-3.697
			c2.961,0,5.579,1.462,7.196,3.697c1.049,1.462,1.681,3.243,1.681,5.173c0,4.89-3.986,8.876-8.876,8.876s-8.873-3.986-8.873-8.876
			C136.401,93.204,137.029,91.422,138.078,89.96z M165.568,110.607c0,2.662-2.168,4.83-4.833,4.83H129.81
			c-2.665,0-4.833-2.168-4.833-4.83V89.96h7.525c-0.649,1.6-1.018,3.341-1.018,5.173c0,7.603,6.184,13.794,13.787,13.794
			s13.787-6.191,13.787-13.794c0-1.832-0.366-3.573-1.018-5.173h7.525v20.647H165.568z"/>
	</g>
	<g>
		<path fill="#4D75B8" d="M28.51,1022.518c8.296,0,15.02-6.726,15.02-15.023c0-8.296-6.724-15.022-15.02-15.022
			c-8.297,0-15.02,6.726-15.02,15.022C13.49,1015.791,20.213,1022.518,28.51,1022.518"/>
		<polygon fill="#FFFFFF" points="36.023,1009.302 21.002,1009.302 21.002,1005.69 22.674,1005.69 22.674,1007.628 34.348,1007.628 
			34.348,1005.69 36.023,1005.69 		"/>
	</g>
	<g>
		<path fill="#859563" d="M28.51,1112.651c8.297,0,15.02-6.726,15.02-15.023c0-8.296-6.723-15.022-15.02-15.022
			s-15.02,6.726-15.02,15.022C13.49,1105.925,20.213,1112.651,28.51,1112.651"/>
		<path fill="#FFFFFF" d="M35.058,1104.656l-6.222-14.332c-0.054-0.126-0.178-0.207-0.315-0.207l0,0
			c-0.138,0-0.262,0.081-0.315,0.207l-6.242,14.332c-0.046,0.106-0.036,0.231,0.028,0.328c0.062,0.097,0.17,0.155,0.287,0.155h5.537
			v-3.044l-1.484-1.028l0.245-0.354l1.239,0.859v-2.442h1.41v1.605l1.291-0.651l0.194,0.384l-1.485,0.749v1.182l2.368-1.193
			l0.194,0.383l-2.564,1.292v2.26h5.517c0.117,0,0.224-0.059,0.287-0.155C35.093,1104.889,35.104,1104.763,35.058,1104.656z"/>
	</g>
	<g>
		<path fill="#8FD2F0" d="M28.51,151.216c8.296,0,15.02-6.726,15.02-15.023s-6.724-15.022-15.02-15.022
			c-8.297,0-15.02,6.725-15.02,15.022S20.213,151.216,28.51,151.216"/>
		<g>
			<polygon fill="#FFFFFF" points="21.001,136.985 25.42,139.869 28.51,137.291 24.055,134.54 			"/>
			<polygon fill="#FFFFFF" points="25.42,129.21 21.001,132.093 24.055,134.54 28.51,131.79 			"/>
			<polygon fill="#FFFFFF" points="36.021,132.093 31.602,129.21 28.51,131.79 32.965,134.54 			"/>
			<polygon fill="#FFFFFF" points="28.51,137.291 31.602,139.869 36.021,136.985 32.965,134.54 			"/>
			<polygon fill="#FFFFFF" points="28.52,137.845 25.42,140.416 24.092,139.55 24.092,140.521 28.52,143.176 32.948,140.521 
				32.948,139.55 31.62,140.416 			"/>
		</g>
	</g>
	<g>
		<path fill="#E8476D" d="M28.51,241.351c8.296,0,15.02-6.726,15.02-15.023c0-8.296-6.724-15.022-15.02-15.022
			c-8.297,0-15.02,6.726-15.02,15.022C13.49,234.625,20.213,241.351,28.51,241.351"/>
		<path fill="#FFFFFF" d="M33.583,225.598c-0.131-0.043-0.259-0.082-0.382-0.12c-0.935-0.295-1.5-0.474-1.5-1.199
			c0-0.592,0.456-1.02,1.084-1.02c0.482,0,0.841,0.2,1.162,0.65c0.029,0.042,0.086,0.057,0.132,0.033l0.943-0.483
			c0.025-0.013,0.045-0.034,0.053-0.062c0.008-0.027,0.006-0.057-0.009-0.082c-0.506-0.897-1.234-1.334-2.229-1.334
			c-1.512,0-2.49,0.914-2.49,2.33c0,1.449,0.945,2.034,2.69,2.608c1.011,0.336,1.459,0.517,1.459,1.235
			c0,0.81-0.73,1.391-1.725,1.356c-1.043-0.036-1.359-0.588-1.755-1.493c-0.673-1.532-1.437-3.323-1.444-3.341
			c-0.767-1.771-2.288-2.786-4.174-2.786c-2.491,0-4.518,2.027-4.518,4.52c0,2.491,2.027,4.518,4.518,4.518
			c1.357,0,2.632-0.602,3.493-1.654c0.025-0.029,0.031-0.07,0.016-0.106l-0.569-1.314c-0.017-0.036-0.053-0.062-0.094-0.063
			c-0.041-0.002-0.076,0.022-0.096,0.057c-0.538,1.027-1.591,1.666-2.75,1.666c-1.709,0-3.101-1.393-3.101-3.102
			c0-1.711,1.392-3.102,3.101-3.102c1.244,0,2.384,0.738,2.838,1.842l1.407,3.214l0.163,0.361c0.638,1.483,1.572,2.148,3.037,2.152
			c1.742,0,3.057-1.154,3.057-2.685C35.902,226.654,35.05,226.079,33.583,225.598z"/>
	</g>
	<g>
		<path fill="#F2CA59" d="M28.51,331.483c8.296,0,15.02-6.727,15.02-15.022c0-8.296-6.724-15.021-15.02-15.021
			c-8.297,0-15.02,6.726-15.02,15.022S20.213,331.483,28.51,331.483"/>
		<path fill="#FFFFFF" d="M21.726,318.895c0.032,0,0.059-0.024,0.062-0.061l0.168-1.319l-0.167-1.349
			c-0.005-0.035-0.031-0.061-0.063-0.061c-0.031,0-0.057,0.025-0.062,0.061l-0.147,1.349l0.147,1.319
			C21.669,318.871,21.694,318.895,21.726,318.895z M21.229,318.337L21.229,318.337L21.229,318.337L21.229,318.337z M21.17,318.396
			c0.03,0,0.055-0.024,0.06-0.059l0.132-0.821l-0.132-0.834c-0.005-0.034-0.029-0.059-0.06-0.059c-0.031,0-0.055,0.024-0.06,0.059
			l-0.109,0.834l0.109,0.821C21.115,318.372,21.139,318.396,21.17,318.396z M22.391,315.917c-0.004-0.043-0.035-0.074-0.074-0.074
			c-0.04,0-0.072,0.031-0.075,0.074l-0.14,1.601l0.14,1.541c0.003,0.042,0.035,0.072,0.075,0.072c0.039,0,0.07-0.03,0.074-0.072
			l0.16-1.541L22.391,315.917z M22.91,319.194c0.046,0,0.084-0.036,0.088-0.086l0,0l0.15-1.59l-0.15-1.646
			c-0.004-0.05-0.042-0.086-0.088-0.086c-0.046,0-0.084,0.036-0.088,0.086l-0.133,1.646l0.133,1.59
			C22.826,319.158,22.864,319.194,22.91,319.194z M23.51,319.219c0.054,0,0.097-0.043,0.101-0.098l0,0l0.143-1.604l-0.143-1.526
			c-0.004-0.058-0.047-0.099-0.101-0.099s-0.097,0.043-0.101,0.099l-0.125,1.526l0.125,1.604
			C23.413,319.176,23.456,319.219,23.51,319.219z M24.361,317.517l-0.133-2.482c-0.004-0.062-0.054-0.112-0.113-0.112
			c-0.061,0-0.111,0.05-0.113,0.112l-0.117,2.482l0.117,1.604c0.002,0.062,0.053,0.112,0.113,0.112c0.06,0,0.109-0.051,0.113-0.112
			l0,0L24.361,317.517z M24.724,319.237c0.068,0,0.123-0.055,0.127-0.126v0.002l0.123-1.595l-0.123-3.051
			c-0.004-0.068-0.059-0.124-0.127-0.124c-0.067,0-0.123,0.056-0.126,0.124l-0.109,3.051l0.109,1.593
			C24.601,319.182,24.656,319.237,24.724,319.237z M25.339,314.076c-0.075,0-0.136,0.061-0.14,0.137l-0.102,3.305l0.102,1.577
			c0.004,0.078,0.064,0.139,0.14,0.139c0.076,0,0.136-0.061,0.14-0.139l0,0l0.115-1.577l-0.115-3.305
			C25.475,314.137,25.414,314.076,25.339,314.076z M25.958,319.237c0.082,0,0.148-0.067,0.152-0.151v0.002l0.105-1.568l-0.105-3.415
			c-0.004-0.086-0.07-0.151-0.152-0.151c-0.082,0-0.15,0.065-0.152,0.151l-0.094,3.414l0.094,1.569
			C25.807,319.17,25.875,319.237,25.958,319.237z M26.581,319.235c0.09,0,0.162-0.072,0.164-0.163l0,0l0.098-1.553l-0.098-3.33
			c-0.002-0.09-0.074-0.162-0.164-0.162c-0.091,0-0.164,0.072-0.165,0.162l-0.087,3.33l0.087,1.553
			C26.417,319.163,26.49,319.235,26.581,319.235z M27.478,317.518l-0.089-3.209c-0.003-0.099-0.08-0.175-0.179-0.175
			c-0.098,0-0.176,0.076-0.178,0.177l-0.078,3.207l0.078,1.544c0.002,0.097,0.08,0.174,0.178,0.174c0.099,0,0.176-0.077,0.179-0.176
			v0.002L27.478,317.518z M27.844,319.241c0.103,0,0.188-0.085,0.19-0.19v0.002l0.08-1.533l-0.08-3.815
			c-0.002-0.105-0.088-0.19-0.19-0.19c-0.104,0-0.188,0.085-0.19,0.19l-0.072,3.814c0,0.003,0.072,1.534,0.072,1.534
			C27.655,319.156,27.74,319.241,27.844,319.241z M28.475,313.154c-0.111,0-0.202,0.092-0.204,0.204l-0.083,4.16l0.083,1.511
			c0.002,0.11,0.093,0.202,0.204,0.202c0.109,0,0.201-0.092,0.202-0.203v0.001l0.091-1.511l-0.091-4.162
			C28.676,313.246,28.584,313.154,28.475,313.154z M29.052,319.242c0.006,0,5.088,0.002,5.12,0.002c1.021,0,1.849-0.825,1.849-1.848
			c0-1.019-0.827-1.848-1.849-1.848c-0.253,0-0.495,0.052-0.714,0.143c-0.147-1.664-1.543-2.971-3.247-2.971
			c-0.417,0-0.823,0.081-1.183,0.221c-0.139,0.054-0.176,0.109-0.177,0.218v5.862C28.854,319.137,28.942,319.23,29.052,319.242z"/>
	</g>
	<g>
		<path fill="#56ACDD" d="M28.51,421.619c8.296,0,15.02-6.727,15.02-15.022c0-8.297-6.724-15.023-15.02-15.023
			c-8.297,0-15.02,6.726-15.02,15.023C13.49,414.892,20.213,421.619,28.51,421.619"/>
		<path fill="#FFFFFF" d="M21.001,406.597c0,2.972,1.728,5.543,4.234,6.76l-3.583-9.817
			C21.234,404.473,21.001,405.506,21.001,406.597z M33.581,406.217c0-0.928-0.334-1.572-0.62-2.071
			c-0.382-0.62-0.737-1.144-0.737-1.762c0-0.689,0.522-1.334,1.263-1.334c0.03,0,0.063,0.006,0.097,0.008
			c-1.338-1.226-3.117-1.974-5.071-1.974c-2.625,0-4.933,1.347-6.275,3.386c0.176,0.005,0.34,0.011,0.483,0.011
			c0.785,0,2-0.097,2-0.097c0.405-0.022,0.453,0.571,0.048,0.619c0,0-0.407,0.047-0.858,0.071l2.735,8.135l1.643-4.929l-1.171-3.207
			c-0.405-0.024-0.788-0.071-0.788-0.071c-0.405-0.023-0.355-0.642,0.049-0.619c0,0,1.24,0.097,1.978,0.097
			c0.784,0,2.003-0.097,2.003-0.097c0.404-0.022,0.452,0.571,0.047,0.619c0,0-0.407,0.047-0.858,0.071l2.713,8.073l0.751-2.502
			C33.39,407.67,33.581,406.86,33.581,406.217z M28.643,407.255l-2.253,6.548c0.671,0.198,1.383,0.305,2.122,0.305
			c0.873,0,1.713-0.149,2.494-0.427c-0.02-0.032-0.039-0.065-0.054-0.102L28.643,407.255z M35.101,402.992
			c0.032,0.241,0.051,0.497,0.051,0.774c0,0.761-0.143,1.618-0.571,2.691l-2.293,6.632c2.232-1.301,3.733-3.721,3.733-6.491
			C36.021,405.291,35.688,404.063,35.101,402.992z"/>
	</g>
	<g>
		<path fill="#282828" d="M28.51,511.753c8.296,0,15.02-6.727,15.02-15.022c0-8.296-6.724-15.022-15.02-15.022
			c-8.297,0-15.02,6.726-15.02,15.022C13.49,505.026,20.213,511.753,28.51,511.753"/>
		<g>
			<path fill="#FFFFFF" d="M23.261,492.453v1.99h-2.26v4.556h3.727v-6.546H23.261z M23.261,497.774h-0.767v-2.07h0.767V497.774z"/>
			<path fill="#FFFFFF" d="M27.789,494.462v4.556h2.26v0.712h-2.285v1.279h3.106h0.648v-6.547H27.789z M30.049,497.757h-0.767
				v-2.071h0.767V497.757z"/>
			<path fill="#FFFFFF" d="M32.292,494.462v4.556h2.259v0.712h-2.286v1.279h3.108h0.647v-6.547H32.292z M34.552,497.757h-0.764
				v-2.071h0.765L34.552,497.757L34.552,497.757z"/>
			<rect x="25.485" y="494.433" fill="#FFFFFF" width="1.521" height="4.584"/>
			<rect x="25.485" y="492.534" fill="#FFFFFF" width="1.521" height="1.244"/>
		</g>
	</g>
	<g>
		<path fill="#9ECC91" d="M28.51,601.889c8.296,0,15.02-6.726,15.02-15.022c0-8.297-6.724-15.023-15.02-15.023
			c-8.297,0-15.02,6.726-15.02,15.023C13.49,595.162,20.213,601.889,28.51,601.889"/>
		<path fill="#FFFFFF" d="M28.116,589.412c0.044-1.314-1.066-2.443-2.472-2.518l-0.529-0.026c-0.513-0.026-0.944-0.451-0.944-0.927
			c0-0.459,0.427-0.855,0.923-0.855h3.481c0.498,0,0.881,0.429,0.881,0.925v3.203c0,1.419,1.154,2.571,2.572,2.571h0.421
			c1.416,0,2.57-1.152,2.57-2.571V578.45c-0.062-0.004-0.121-0.02-0.184-0.02h-1.484v10.784c0,0.497-0.404,0.9-0.901,0.9h-0.421
			c-0.499,0-0.903-0.404-0.903-0.9v-3.203c0-1.419-1.152-2.572-2.57-2.572h-3.48c-1.418,0-2.572,1.122-2.572,2.503
			c0,1.357,1.133,2.523,2.525,2.594l0.53,0.029c0.497,0.025,0.905,0.389,0.892,0.793c-0.014,0.412-0.452,0.757-0.955,0.757h-5.496
			v1.67h5.495C26.896,591.784,28.072,590.721,28.116,589.412z"/>
	</g>
	<g>
		<path fill="#E73B3A" d="M28.51,692.024c8.296,0,15.02-6.726,15.02-15.022c0-8.297-6.724-15.023-15.02-15.023
			c-8.297,0-15.02,6.726-15.02,15.023C13.49,685.298,20.213,692.024,28.51,692.024"/>
		<g>
			<path fill="#FFFFFF" d="M29.188,676.137c-0.199-0.138-0.455-0.214-0.813-0.214c-0.527,0-0.882,0.136-1.191,0.544h-0.021v-2.52
				h-1.454v2.093c0.021,0.009,0.042,0.019,0.062,0.027c0.56,0.218,0.88,0.53,1.05,0.907c0.17,0.372,0.189,0.8,0.152,1.26l0,0
				c-0.008,0.088-0.078,0.156-0.165,0.156h-1.1v0.002v0.14h1.054l0,0h0.009c0.09,0.005,0.16,0.085,0.156,0.18
				c-0.014,0.275-0.121,0.519-0.318,0.729c-0.18,0.193-0.439,0.358-0.767,0.496c-0.041,0.036-0.054,0.043-0.1,0.045l-0.034,0.014
				v0.808h1.385v-0.523h0.024c0.262,0.461,0.663,0.626,1.235,0.626c1.134,0,1.386-0.869,1.45-1.708l-0.02-0.004l0,0h-0.004
				c-0.509-0.106-0.828-0.404-1.005-0.803l0,0c-0.033-0.077-0.062-0.158-0.086-0.237c-0.053-0.196-0.079-0.413-0.079-0.639l0,0
				v-0.004c0-0.332,0.054-0.611,0.156-0.844C28.865,676.447,29.007,676.271,29.188,676.137L29.188,676.137z M28.375,678.359
				c0,1.213-0.083,1.714-0.618,1.714c-0.505,0-0.595-0.502-0.595-1.714c0-0.942,0-1.61,0.595-1.61
				C28.398,676.749,28.375,677.417,28.375,678.359L28.375,678.359z"/>
			<path fill="#FFFFFF" d="M26.763,678.705h-1.054h-0.775H24.91h-0.858c0,0.363-0.195,0.771-1.146,0.771
				c-1.175,0-1.197-0.75-1.197-1.254h4h1.099c0.067-0.866-0.067-1.596-1.1-1.996c-0.226-0.102-0.49-0.166-0.799-0.219
				c-0.505-0.104-1.169-0.166-2.004-0.166c-3.51,0-3.887,0.99-3.887,2.141c0,1.328,0.446,2.259,3.887,2.259
				c0.791,0,1.478-0.083,2.027-0.18c0.285-0.062,0.55-0.145,0.775-0.248c0.022,0,0.022,0,0.044-0.021
				C26.394,679.53,26.74,679.172,26.763,678.705L26.763,678.705z M22.905,676.571c1.28,0,1.235,0.584,1.235,0.982h-2.432
				C21.709,677.211,21.694,676.571,22.905,676.571L22.905,676.571z"/>
			<path fill="#FFFFFF" d="M29.323,676.246c-0.354,0.241-0.55,0.647-0.55,1.266c0,0.73,0.285,1.358,1.038,1.516
				c0.105,0.022,0.219,0.022,0.354,0.022c0.642,0,1.055-0.241,1.363-0.724h0.023l0.067,0.639h1.372
				c-0.023-0.301-0.068-0.605-0.068-0.907v-0.914l-0.145-0.27l0,0l-1.461-2.704l-0.055-0.104c-0.142-0.012-0.293-0.021-0.456-0.021
				c-0.558,0-1.04,0.083-1.372,0.323c-0.353,0.207-0.551,0.584-0.551,1.17h1.455c0-0.379,0.023-0.744,0.55-0.744
				c0.534,0,0.595,0.304,0.595,0.704v0.386C30.65,675.861,29.836,675.883,29.323,676.246L29.323,676.246z M30.763,678.221
				c-0.491,0-0.558-0.427-0.558-0.763c0-0.847,0.558-0.791,1.279-0.833C31.485,677.154,31.621,678.221,30.763,678.221
				L30.763,678.221z"/>
			<polygon fill="#FFFFFF" points="36.058,673.446 34.583,676.322 33.21,673.446 31.118,673.446 31.463,674.087 32.924,676.79 
				33.521,677.898 33.521,680.259 35.441,680.259 35.441,677.898 38.003,673.446 			"/>
		</g>
	</g>
	<g>
		<path fill="#B08ABE" d="M28.51,782.158c8.296,0,15.02-6.726,15.02-15.023c0-8.296-6.724-15.022-15.02-15.022
			c-8.297,0-15.02,6.726-15.02,15.022C13.49,775.433,20.213,782.158,28.51,782.158"/>
		<g>
			<g>
				<path fill="#FFFFFF" d="M31.609,760.164c-0.98-0.446-2.023-0.674-3.096-0.674c-0.896,0-1.775,0.173-2.623,0.491
					c0.198,0.179,5.463,4.958,5.719,5.192C31.609,764.829,31.609,760.269,31.609,760.164L31.609,760.164z"/>
			</g>
			<g>
				<path fill="#FFFFFF" d="M24.646,773.418c0-0.293,0-6.115,0-6.459c-0.25,0.227-3.016,2.741-3.102,2.82
					C22.146,771.289,23.244,772.568,24.646,773.418L24.646,773.418z"/>
			</g>
			<g>
				<path fill="#FFFFFF" d="M21.002,767.002c0,0.645,0.098,1.301,0.273,1.951c0.201-0.184,6.525-5.931,6.655-6.051
					c-0.126-0.113-2.756-2.501-2.842-2.581C22.567,761.617,21.002,764.169,21.002,767.002L21.002,767.002z"/>
			</g>
			<g>
				<path fill="#FFFFFF" d="M25.436,770.268c0,0.155,0,3.477,0,3.583c0.763,0.344,1.562,0.556,2.383,0.632h1.377
					c2.595-0.242,4.91-1.843,6.063-4.215C34.986,770.268,25.596,770.268,25.436,770.268L25.436,770.268z"/>
			</g>
			<g>
				<path fill="#FFFFFF" d="M32.401,760.594c0,0.298,0,8.721,0,8.882c0.152,0,3.076,0,3.194,0c0.279-0.803,0.428-1.632,0.428-2.474
					C36.023,764.391,34.634,761.955,32.401,760.594L32.401,760.594z"/>
			</g>
		</g>
	</g>
	<g>
		<path fill="#5168AE" d="M28.51,872.293c8.296,0,15.02-6.726,15.02-15.022c0-8.297-6.724-15.023-15.02-15.023
			c-8.297,0-15.02,6.726-15.02,15.023C13.49,865.568,20.213,872.293,28.51,872.293"/>
		<path fill="#FFFFFF" d="M36.015,853.455c-0.033-0.632-0.201-1.173-0.46-1.633c-0.753-1.34-2.287-1.97-3.686-1.97h-7.532
			l-3.337,14.838h4.42l1.08-4.911h3.162c0.033,0,0.072-0.005,0.11-0.005c1.794-0.029,3.406-0.696,4.55-1.888
			c0.744-0.782,1.295-1.781,1.562-2.981C35.999,854.38,36.037,853.894,36.015,853.455z M31.736,854.906
			c-0.119,0.49-0.399,0.937-0.77,1.291c-0.132,0.123-0.282,0.235-0.439,0.334c-0.4,0.25-0.859,0.405-1.321,0.405h-2.073l0.878-3.764
			l0.072-0.297h2.164c0.374,0,0.701,0.112,0.963,0.297C31.702,853.529,31.943,854.166,31.736,854.906z"/>
	</g>
	<g>
		<path fill="#6A8751" d="M28.51,962.428c8.296,0,15.02-6.726,15.02-15.023c0-8.296-6.724-15.022-15.02-15.022
			c-8.297,0-15.02,6.726-15.02,15.022C13.49,955.702,20.213,962.428,28.51,962.428"/>
		<path fill="#FFFFFF" d="M26.443,945.722c3.401-0.978,6.239,1.022,6.239,1.022l-2.34,0.631l-0.674-1.252
			c-0.634-0.116-1.357-0.153-2.125-0.024l1.593,3.238l6.885-1.982c0,0-2.497-3.923-9.944-2.654
			c-0.043,0.007-0.082,0.019-0.125,0.025l-0.724-1.47l-2.144,0.244l0.874,1.786c-4.518,1.867-2.517,6.268-2.517,6.268l6.895-1.983
			L26.443,945.722z M23.309,949.275c0,0-0.665-1.467,1.269-2.725l1.028,2.105L23.309,949.275z"/>
	</g>
	<g>
		<path fill="#3A4C8E" d="M28.51,1142.697c8.297,0,15.02-6.727,15.02-15.022c0-8.297-6.723-15.023-15.02-15.023
			s-15.02,6.727-15.02,15.023C13.49,1135.97,20.213,1142.697,28.51,1142.697"/>
		<path fill="#FFFFFF" d="M35.707,1120.163H21.314c-0.172,0-0.313,0.142-0.313,0.313v14.394c0,0.174,0.142,0.313,0.313,0.313h14.392
			c0.174,0,0.313-0.14,0.313-0.313v-14.394C36.021,1120.304,35.881,1120.163,35.707,1120.163z M28.51,1134.557v-6.883h-6.882v-6.885
			h6.882v6.885h6.883v6.883H28.51z"/>
	</g>
	<g>
		<path fill="#CCCBCB" d="M28.51,1052.563c8.296,0,15.02-6.726,15.02-15.022c0-8.297-6.724-15.023-15.02-15.023
			c-8.297,0-15.02,6.726-15.02,15.023C13.49,1045.836,20.213,1052.563,28.51,1052.563"/>
		<g>
			<polygon fill="#FFFFFF" points="26.282,1040.294 26.198,1040.294 26.159,1040.366 24.124,1043.925 24.001,1044.139 
				24.248,1044.139 33.738,1044.139 33.821,1044.139 33.863,1044.067 35.898,1040.509 36.021,1040.294 35.773,1040.294 			"/>
			<polygon fill="#FFFFFF" points="31.549,1039.395 31.592,1039.467 31.675,1039.467 35.773,1039.449 36.021,1039.448 
				35.898,1039.234 31.153,1031.014 31.112,1030.942 31.028,1030.942 26.93,1030.958 26.682,1030.96 26.805,1031.175 			"/>
			<polygon fill="#FFFFFF" points="28.142,1035.216 28.1,1035.143 26.036,1031.601 25.91,1031.389 25.787,1031.603 21.043,1039.822 
				21.001,1039.895 21.043,1039.967 23.107,1043.509 23.232,1043.721 23.355,1043.507 28.1,1035.286 			"/>
		</g>
	</g>
</g>
<line fill="none" x1="-57.833" y1="-56.167" x2="112.5" y2="30.833"/>
<line fill="#6D5252" stroke="#A85151" stroke-miterlimit="10" x1="70.167" y1="-71.005" x2="-93.5" y2="25.5"/>
</svg>
